<?xml version="1.0" encoding="UTF-8"?>
<svg id="Layer_1" data-name="Layer 1" xmlns="http://www.w3.org/2000/svg" viewBox="0 0 430.99 1728">
  <defs>
    <style>
      .cls-1 {
        fill: #d90000;
      }
    </style>
  </defs>
  <path class="cls-1" d="M431.52,1024.77c0,18.2,0,36.4,0,54.6-1.54.09-3.08.26-4.62.26-14.65.02-29.3,0-43.95.02-4.56,0-4.81.28-4.81,4.92,0,14.36,0,28.73.02,43.09,0,4.63.58,5.31,5.07,5.25,14.64-.19,29.29-.45,43.93.07,1.56.06,3.12.03,4.35-1.16,0,18.68,0,37.36,0,56.04-1.17-.16-2.35-.46-3.52-.46-15.24-.02-30.49.06-45.73-.03-3.17-.02-4.15,1.29-4.14,4.29.07,14.72.02,29.44.03,44.16,0,4.66.27,4.92,4.82,4.93,14.77.02,29.53.03,44.3,0,1.41,0,2.82-.3,4.23-.45,0,18.2,0,36.4,0,54.6-1.66.09-3.32.26-4.98.26-14.65.02-29.3.09-43.95-.05-3.47-.03-4.56,1.2-4.53,4.62.14,14.48.07,28.97.09,43.45,0,4.68.58,5.27,5.43,5.29,14.53.04,29.06.03,43.59.05,1.56,0,3.12.04,4.35-1.17,0,18.68,0,37.36,0,56.04-.7-.14-1.4-.4-2.09-.4-16.07,0-32.14.04-48.21.02-2.46,0-3.02,1.41-3.02,3.45,0,15.43,0,30.87-.04,46.3,0,2.42,1.04,3.52,3.42,3.51,15.95-.02,31.9,0,47.86-.03.7,0,1.4-.26,2.09-.4,0,18.2,0,36.4,0,54.6-1.66.09-3.31.26-4.97.27-14.63.02-29.27.09-43.9-.04-3.39-.03-4.62,1.08-4.58,4.55.15,14.47.08,28.94.1,43.4,0,4.99.43,5.39,5.58,5.41,14.04.04,28.08.07,42.12.08,1.89,0,3.82.2,5.65-.5v55.32c-1.73-.63-3.53-.46-5.3-.46-14.52.03-29.04.2-43.55.03-3.59-.04-4.55,1.24-4.53,4.55.09,14.71.02,29.42.04,44.13,0,4.19.46,4.62,4.84,4.62,14.88.02,29.75.02,44.63,0,1.29,0,2.59-.28,3.88-.43,0,17.48-.03,34.96.05,52.45,0,1.8-.4,2.21-2.19,2.2-17.39-.08-34.79-.05-52.18-.05.14-3.69.41-7.37.41-11.06,0-12.66-.14-25.31-.13-37.97,0-3.42-1.54-4.61-4.82-4.56-14.38.21-28.76.29-43.14.43-4.76.05-4.95.26-4.98,5.14-.08,16.01-.16,32.01-.24,48.02h-53.61c-.23-2.14-.64-4.27-.66-6.41-.12-14.01-.25-28.01-.15-42.02.03-3.6-1.21-4.69-4.75-4.83-15.01-.59-30-.24-45.01-.1-2.43.02-2.78,1.2-2.78,3.1.01,6.11.06,12.21-.01,18.32-.12,10.65.36,21.3-.26,31.94h-54.33c-.05-1.07-.19-2.15-.13-3.21.85-14.94.51-29.9.55-44.85.01-5-.58-5.56-5.55-5.53-13.93.1-27.85.27-41.78.4q-5.74.05-5.76,5.83c-.07,15.79-.16,31.58-.24,47.37h-53.61c-.82-2.54-.78-5.17-.79-7.79-.04-13.41-.03-26.82-.07-40.23-.01-4.87-.23-5-5-5.22-14.29-.65-28.59-.27-42.88-.39-4.89-.04-5.14-.2-5.15-4.96-.02-14.85-.02-29.69,0-44.54,0-4.65.24-4.87,4.85-4.88,14.42-.02,28.83-.02,43.25-.04,4.58,0,4.92-.29,4.93-4.87.04-14.61.03-29.21.02-43.82,0-4.31-.28-4.59-4.78-4.6-14.53-.04-29.07-.15-43.6,0-3.57.03-4.78-1.09-4.74-4.72.16-15.08.15-30.17,0-45.26-.03-3.4.97-4.58,4.44-4.54,14.77.16,29.54,0,44.32.11,3.17.02,4.51-.99,4.48-4.33-.14-14.73-.16-29.45-.08-44.18.02-3.24-1.09-4.43-4.36-4.44-14.53-.04-29.06-.29-43.59-.42-4.91-.05-5.14-.18-5.14-4.96-.02-14.85-.02-29.69,0-44.54,0-4.84.1-4.92,5.11-4.92,14.42,0,28.83,0,43.25,0,4.34,0,4.65-.29,4.66-4.74.03-14.73-.07-29.45.06-44.18.03-3.55-1.34-4.47-4.68-4.44-14.65.12-29.31-.07-43.96.05-3.45.03-4.53-1.18-4.5-4.58.13-14.96.05-29.93.06-44.9,0-4.94.03-4.97,4.95-4.97,14.77-.01,29.55-.03,44.32.01,2.53,0,4.03-.56,4-3.59-.16-14.84-.25-29.69-.17-44.54.02-3.56-1.17-4.84-4.75-4.84-14.53,0-29.06-.25-43.59-.39-4.41-.04-4.75-.3-4.76-4.63-.02-15.09-.02-30.17,0-45.26,0-4.38.21-4.54,4.74-4.54,14.42,0,28.83,0,43.25,0,4.75,0,5.05-.28,5.07-5.12.04-14.49.02-28.97.02-43.46,0-4.37-.31-4.69-4.68-4.7-14.65-.04-29.31-.14-43.96-.03-3.47.03-4.52-1.23-4.49-4.6.13-15.08.16-30.17-.02-45.26-.04-3.68,1.17-4.69,4.71-4.65,14.65.17,29.31-.01,43.96.12,3.47.03,4.56-1.26,4.53-4.64-.14-14.61-.16-29.21-.05-43.82.03-3.48-1.28-4.57-4.62-4.58-14.65-.02-29.3-.32-43.95-.31-3.44,0-4.59-1.18-4.56-4.6.12-15.08.04-30.17.06-45.26,0-4.36.26-4.59,4.74-4.6,14.42-.02,28.83,0,43.25-.03,4.75,0,5.04-.24,5.06-5.12.04-14.49.03-28.97.02-43.46,0-4.41-.31-4.7-4.67-4.71-14.65-.04-29.31-.14-43.96-.02-3.46.03-4.53-1.2-4.5-4.59.13-15.08.16-30.17-.02-45.26-.04-3.65,1.11-4.72,4.69-4.68,14.41.17,28.83.08,43.24.07,5.04,0,5.19-.1,5.2-5.29.03-14.25,0-28.5-.02-42.74,0-4.49-.3-4.72-4.93-4.93-14.53-.66-29.06-.35-43.59-.33-3.42,0-4.59-1.17-4.57-4.59.12-15.08.04-30.17.06-45.26,0-4.35.27-4.59,4.75-4.6,13.94-.03,27.88-.05,41.82-.04,6.39,0,6.43.04,6.45-6.21.04-14.13.04-28.26.04-42.38,0-4.36-.31-4.69-4.69-4.7-14.53-.04-29.07-.04-43.6-.07-4.63-.01-4.77-.15-4.77-4.9-.02-14.85-.01-29.69,0-44.54,0-4.92.03-4.94,4.98-4.94,14.65-.01,29.31-.03,43.96.01,2.55,0,4.39-.28,4.35-3.62-.16-14.96-.22-29.93-.17-44.89.01-3.26-1.16-4.42-4.4-4.43-14.65-.04-29.3-.28-43.95-.43-4.41-.04-4.76-.31-4.77-4.63-.02-15.09.09-30.17-.08-45.26-.04-3.76,1.37-4.64,4.83-4.6,14.53.15,29.07.08,43.6.06,4.33,0,4.67-.32,4.68-4.74.03-14.73-.04-29.45.06-44.18.02-3.2-.99-4.45-4.33-4.42-14.77.11-29.55-.08-44.32.03-3.44.03-4.54-1.17-4.51-4.58.13-15.08.16-30.17-.02-45.26-.04-3.63,1.08-4.73,4.68-4.69,14.77.17,29.54.02,44.32.11,3.04.02,4.28-1.06,4.26-4.19-.11-14.73-.16-29.45-.06-44.18.02-3.46-1.27-4.58-4.62-4.59-14.65-.03-29.3-.34-43.95-.33-3.38,0-4.64-.97-4.61-4.48.14-15.2.14-30.41,0-45.62-.03-3.53,1.29-4.5,4.62-4.47,14.53.13,29.07.06,43.6.04,4.54,0,4.88-.3,4.89-4.93.04-14.73-.03-29.45.06-44.18.02-3.08-1.07-4.24-4.18-4.22-14.77.08-29.55-.11-44.32.03-3.64.03-4.72-1.21-4.68-4.78.15-14.96.05-29.93.07-44.9,0-4.74.03-4.76,4.79-4.77,14.65-.01,29.31-.04,43.96.02,2.66.01,4.32-.53,4.31-3.71-.08-15.32-.06-30.65-.03-45.98,0-2.43-.94-3.4-3.42-3.36-14.77.22-29.54.16-44.3-.3-5.16-.16-5.31-.12-5.31-5.17-.01-14.73-.01-29.45,0-44.18,0-4.97.12-5.08,4.96-5.09,14.06-.02,28.12-.03,42.17-.03,5.81,0,5.91-.03,5.92-5.69.03-14.37-.05-28.74.09-43.1.03-3.47-1.22-4.58-4.6-4.55-14.53.11-29.07,0-43.6-.03-4.75-.01-4.93-.16-4.94-4.75-.02-15.09.09-30.17-.07-45.26-.04-3.53,1.22-4.46,4.56-4.43,14.89.14,29.78.05,44.67.06,4.64,0,4.92.24,4.93,4.82.04,14.49.03,28.97.04,43.46,0,5.25.29,5.58,5.36,5.56,12.51-.04,25.02.04,37.52-.28,10.85-.28,9.58,1.44,9.66-9.97.08-12.57-.01-25.14.13-37.71.06-5.69.41-5.87,5.91-5.87,14.42,0,28.83,0,43.25,0,5.15,0,5.3.16,5.31,5.15.03,14.85.12,29.69.02,44.54-.02,3.09.94,4.28,4.08,4.24,14.76-.19,29.53-.32,44.29-.26,3.33.01,4.26-1.12,4.31-4.37.24-14.96-.23-29.93.36-44.89.14-3.43,1.13-4.51,4.54-4.47,14.65.15,29.31.06,43.96.06,5.69,0,5.72,0,5.73,5.83.03,14.61.06,29.21,0,43.82-.01,2.75.68,4.27,3.78,4.24,13.22-.13,26.44.04,39.66-.23,9.17-.19,9.13-.43,9.17-9.85.05-12.93.03-25.86.29-38.79.1-4.96.42-5.01,5.23-5.01,14.77-.01,29.55-.01,44.32,0,4.56,0,4.75.23,4.76,4.94.02,14.61.03,29.21.06,43.82.01,4.61.52,5.09,5.16,5.1,14.06.02,28.12.06,42.17.06,2.01,0,4.06.24,6.02-.48,0,18.44,0,36.88,0,55.32-1.29-.16-2.58-.45-3.88-.45-14.99-.01-29.99.1-44.98-.02-3.43-.03-4.58,1.12-4.55,4.58.14,14.59.03,29.18.05,43.77,0,4.51.47,5,4.86,5.01,14.99.03,29.99.02,44.98,0,1.17,0,2.35-.28,3.52-.43,0,18.2,0,36.4,0,54.6-1.66.09-3.32.26-4.98.26-14.65.02-29.3.07-43.96-.03-3.12-.02-4.55.84-4.52,4.25.13,14.96.13,29.93.05,44.89-.02,2.98,1.25,4.21,4.04,4.09,14.89-.67,29.77.02,44.65.15,1.67.01,3.37.14,4.71-1.17,0,18.68,0,37.36,0,56.04-1.41-.15-2.82-.44-4.24-.44-14.76-.02-29.52,0-44.29.02-4.48,0-4.8.31-4.81,4.96-.03,14.48-.03,28.95-.02,43.43,0,4.65.29,4.92,4.83,4.93,14.76.02,29.52.03,44.29,0,1.41,0,2.82-.3,4.23-.45,0,18.2,0,36.4,0,54.6-1.66.09-3.32.26-4.98.26-14.65.02-29.3.09-43.95-.05-3.48-.03-4.55,1.21-4.52,4.62.14,14.6.07,29.21.09,43.81,0,4.18.64,4.87,4.71,4.89,14.89.05,29.77.05,44.66.08,1.46,0,2.87-.08,3.99-1.17,0,18.68,0,37.36,0,56.04-.82-.15-1.63-.42-2.45-.42-15.95,0-31.9.07-47.85.05-2.77,0-3.03,1.72-3.03,3.8,0,15.19.02,30.39-.06,45.58-.01,2.76,1.08,3.9,3.8,3.89,15.71-.04,31.43-.01,47.14-.04.82,0,1.63-.27,2.45-.42,0,18.2,0,36.4,0,54.6-1.66.09-3.31.26-4.97.27-14.63.02-29.26.08-43.89-.04-3.35-.03-4.65,1-4.61,4.52.16,13.38.01,26.77.12,40.16.06,7.6-1.86,9.43,8.34,8.33.94-.1,1.9-.03,2.85-.02,12.48.13,24.97.26,37.45.39,1.66.02,3.36.15,4.7-1.16,0,18.68,0,37.36,0,56.04-1.53-.15-3.06-.44-4.59-.44-14.63-.01-29.26.02-43.89.04-4.42,0-4.86.42-4.87,4.96-.02,14.46-.03,28.93-.01,43.39,0,4.56.35,4.91,4.87,4.92,14.87.03,29.74.03,44.6,0,1.29,0,2.59-.28,3.88-.43,0,18.2,0,36.4,0,54.6-1.42.09-2.84.26-4.26.26-14.98.02-29.96.03-44.94,0-2.42,0-4.21.35-4.2,3.42.06,15.41.06,30.83.02,46.24,0,2.65,1.3,3.73,3.73,3.61,15.21-.74,30.42-.1,45.63.05,1.46.01,2.85-.11,4.01-1.14,0,18.68,0,37.36,0,56.04-1.17-.15-2.35-.43-3.52-.43-15.11-.02-30.22.09-45.32-.05-3.49-.03-4.56,1.24-4.54,4.62.11,14.58.01,29.17.02,43.75,0,4.51.45,4.98,4.87,4.99,14.99.03,29.98.02,44.96,0,1.17,0,2.35-.28,3.52-.43ZM217.15,1294.98c1.65-.12,3.31-.34,4.96-.34,14.41-.03,28.83-.09,43.24.04,3.38.03,4.64-1.09,4.6-4.56-.16-14.48-.1-28.97-.14-43.45-.01-4.6-.27-4.86-4.88-4.88-14.53-.05-29.07.06-43.59-.2-3.36-.06-4.05,1.08-4.03,4.08.09,14.84.05,29.69.03,44.53,0,1.54-.22,3.08-.34,4.63-1.53.12-3.07.34-4.6.35-14.77.03-29.53.1-44.3-.05-3.47-.03-4.54,1.16-4.5,4.6.16,14.48.09,28.96.11,43.44,0,4.74.62,5.35,5.36,5.31,10.71-.09,21.42-.2,32.13-.32,3.45-.04,6.89.22,10.35.16,3.85-.07,4.79-1.68,4.74-5.29-.16-12.2,0-24.41,0-36.62,0-3.83.18-7.64.86-11.42ZM217.15,432.87c1.65-.12,3.3-.34,4.96-.34,14.64-.03,29.27-.04,43.91,0,2.45,0,4.12-.4,4.09-3.5-.17-14.83-.19-29.65-.29-44.48-.03-4.61-.28-4.87-4.87-4.89-14.52-.04-29.04.05-43.55-.15-3.25-.05-4.12,1.03-4.09,4.08.11,12.44.09,24.87.02,37.31-.02,3.93.42,7.88-.33,11.8-1.53.12-3.06.34-4.6.35-14.87.03-29.74.07-44.61-.03-3.07-.02-4.21,1.01-4.18,4.16.13,14.82.07,29.65.11,44.47,0,4.14.6,4.75,4.79,4.72,10.82-.08,21.64-.2,32.46-.33,3.68-.04,7.35.31,11.05.12,3.22-.16,4.34-1.41,4.31-4.61-.13-12.67-.07-25.34-.09-38.01,0-3.59.02-7.17.92-10.67ZM216.97,1079.29c-1.53.12-3.07.34-4.6.34-14.89.03-29.77.04-44.66,0-2.45,0-4.14.36-4.12,3.45.1,15.32.12,30.64.07,45.96,0,2.86,1.43,3.89,3.94,3.87,3.09-.03,6.19-.29,9.28-.27,11.55.06,23.09.12,34.64.32,3.44.06,4.88-1.01,4.79-4.74-.23-9.21-.09-18.43-.04-27.64.04-7.05-.42-14.12.86-21.11,1.65-.12,3.31-.34,4.96-.35,14.41-.03,28.81-.09,43.22.03,3.33.03,4.68-.99,4.64-4.51-.16-14.6-.19-29.2-.07-43.79.03-3.39-1.12-4.63-4.49-4.77-14.64-.63-29.28-.12-43.92-.26-3.43-.03-4.22,1.18-4.19,4.35.13,14.84.07,29.67.04,44.51,0,1.54-.23,3.08-.35,4.62ZM216.97,217.18c-1.53.12-3.06.34-4.6.34-15.1.03-30.21.02-45.31,0-1.41,0-2.83-.21-4.24-.33-.07-.82-.26-1.66-.2-2.47,1.12-15.54.52-31.09.27-46.63-.05-3.33-1.38-4.53-4.79-4.47-14.65.23-29.29.25-43.94.24-3.11,0-4.13,1.31-4.11,4.34.09,14.84.1,29.69-.02,44.53-.03,3.36,1.27,4.33,4.45,4.3,12.39-.12,24.78-.09,37.16-.02,3.68.02,7.38-.42,11.03.34.85,2.9.99,5.87.99,8.87,0,13.39.08,26.79-.03,40.18-.03,3.29,1.28,4.58,4.43,4.46,4.28-.15,8.56-.27,12.84-.26,10.34.02,20.68.07,31.01.23,3.16.05,4.4-1.05,4.37-4.4-.15-12.43-.02-24.87-.02-37.31,0-3.95.3-7.87.87-11.77,1.53-.12,3.07-.34,4.6-.35,14.52-.03,29.05-.09,43.57.03,3.33.03,4.69-.99,4.65-4.51-.16-14.59-.19-29.19-.07-43.79.03-3.39-1.11-4.62-4.48-4.77-14.64-.64-29.28-.12-43.92-.29-3.4-.04-4.23,1.2-4.2,4.38.13,14.83.07,29.67.04,44.51,0,1.54-.23,3.08-.35,4.62ZM217.15,648.39c1.65-.12,3.31-.34,4.96-.34,14.53-.03,29.05-.07,43.58.02,3.02.02,4.29-1.01,4.27-4.16-.12-14.84-.15-29.68-.08-44.51.01-3.07-1.1-4.2-4.17-4.28-14.76-.36-29.51-.56-44.28-.15-3.48.1-4.16,1.38-4.14,4.48.12,14.72.06,29.44.03,44.16,0,1.54-.22,3.08-.34,4.63-1.53.12-3.07.34-4.6.35-14.76.03-29.52.08-44.28-.03-3.13-.02-4.52.88-4.49,4.28.13,14.95.11,29.91.04,44.86-.01,2.89,1.08,4.23,3.94,4.22,15-.07,29.99-.17,44.99-.16,2.82,0,3.7-1.16,3.69-3.89-.06-12.68.04-25.36.05-38.04,0-3.83.12-7.64.84-11.42ZM217.15,863.93c1.65-.12,3.31-.35,4.96-.35,14.41-.03,28.83-.1,43.24.04,3.46.03,4.56-1.2,4.53-4.61-.14-14.48-.15-28.97,0-43.46.03-3.47-.97-4.87-4.61-4.98-14.65-.47-29.29-.34-43.94-.11-3.31.05-4.05,1.14-4.03,4.14.1,14.84.05,29.69.03,44.54,0,1.54-.23,3.08-.35,4.63-1.41.12-2.83.35-4.24.35-14.88.03-29.76.07-44.64-.03-3.14-.02-4.51.91-4.48,4.29.13,14.83.14,29.67.02,44.5-.03,3.51,1.41,4.63,4.68,4.61,14.52-.09,29.04-.11,43.56-.04,3.19.02,4.43-1.14,4.4-4.43-.11-12.56,0-25.12,0-37.68,0-3.82-.14-7.65.86-11.4ZM217.15,1510.52c1.53-.12,3.07-.34,4.6-.35,13.21-.03,26.43-.02,39.64-.01,8.59,0,8.55,0,8.51-8.44-.06-13.52-.09-27.04-.07-40.55,0-2.46-.34-4.06-3.47-4.03-14.64.15-29.28.09-43.92.15-5.02.02-5.1.16-5.1,5.37,0,14.36,0,28.71-.02,43.07,0,1.54-.23,3.08-.35,4.62-1.53.12-3.06.35-4.6.35-14.64.03-29.28,0-43.92.02-4.54,0-4.79.28-4.79,4.94,0,14.47,0,28.95.02,43.42,0,4.28.55,4.93,4.61,4.93,14.52.03,29.04-.06,43.56,0,3.17.02,4.45-1.09,4.42-4.41-.12-12.44-.02-24.88-.01-37.32,0-3.95.16-7.88.89-11.77ZM110.08,82.38h-.01c0,7.3-.02,14.6,0,21.91.01,4.35.57,4.92,5.01,4.93,13.94.02,27.87,0,41.81-.02,5.42,0,6.25-.75,6.27-6.2.05-13.05.02-26.09-.02-39.14,0-1.31-.31-2.61-.36-3.92-.11-3-1.55-4.08-4.56-4.06-14.65.11-29.3.1-43.95.01-3.06-.02-4.28,1.14-4.23,4.23.12,7.42.04,14.84.04,22.26ZM110.08,297.74h-.01c0,7.3-.02,14.59,0,21.89.02,4.62.5,5.1,5.19,5.11,13.45.01,26.9,0,40.35-.01,6.95,0,7.47-.4,7.51-7.54.08-12.8.03-25.6,0-38.4,0-1.19-.25-2.38-.31-3.57-.16-2.83-1.6-3.86-4.41-3.84-14.64.09-29.28.1-43.92,0-3.22-.02-4.49,1.22-4.44,4.46.12,7.3.04,14.59.04,21.89ZM110.07,513.31h-.01c0,7.3,0,14.6,0,21.9,0,4.71.34,5.05,5.14,5.06,13.93.02,27.86.01,41.79,0,5.58,0,5.97-.1,6.03-5.79.14-14.47.59-28.94-.35-43.41-.2-3.04-1.35-4.15-4.4-4.13-14.64.1-29.29.09-43.93-.03-3.32-.03-4.38,1.33-4.32,4.51.14,7.3.04,14.6.04,21.89ZM136.74,1133.59s0-.03,0-.04c-7.26,0-14.52-.02-21.77,0-4.41.01-4.87.46-4.88,4.98-.03,14.47-.03,28.94-.01,43.41,0,4.3.58,4.88,5.04,4.89,14.28.03,28.56-.04,42.83.05,3.29.02,4.61-1.19,4.81-4.58.57-9.68.37-19.36.4-29.05.01-5.02-.22-10.03-.29-15.05-.05-3.39-1.47-4.82-5.06-4.69-7.01.26-14.04.08-21.06.08ZM136.65,1510.15c6.9,0,13.8,0,20.71,0,5.05,0,5.74-.53,5.76-5.77.05-14.47.3-28.94-.38-43.4-.14-3.01-1.19-4.23-4.29-4.19-14.75.16-29.51-.26-44.26.37-3.04.13-4.18,1.22-4.16,4.31.1,14.83.08,29.66-.02,44.49-.02,3.06,1,4.3,4.14,4.24,7.49-.15,14.99-.05,22.49-.05ZM110.06,1375.73c0,7.3.1,14.6-.04,21.89-.06,3.3,1.04,4.82,4.51,4.8,14.52-.09,29.05-.08,43.57,0,3.12.02,4.5-1.15,4.65-4.37.72-15.07.54-30.13-.06-45.19-.11-2.68-1.26-3.81-3.99-3.8-14.88.06-29.76.06-44.64,0-2.91-.01-4.05,1.18-4.02,4.08.09,7.54.03,15.07.02,22.61ZM136.09,1079.09c6.19,0,12.38,0,18.58,0,8.36,0,8.41,0,8.49-8.54.11-13.52.02-27.03-.38-40.55-.1-3.29-1.36-4.32-4.55-4.28-14.76.19-29.52.21-44.28.24-2.93,0-3.92,1.34-3.9,4.2.08,14.96.09,29.92-.02,44.88-.02,3.19,1.27,4.16,4.27,4.11,7.26-.14,14.53-.04,21.79-.04ZM110.08,837.26c0,7.54.04,15.09-.02,22.63-.02,2.55.94,3.7,3.57,3.69,15.13-.05,30.26-.06,45.39.01,2.68.01,3.48-1.2,3.6-3.68.77-15.08.74-30.15.22-45.23-.12-3.39-1.42-4.55-4.79-4.49-14.65.27-29.3.37-43.95.41-3.15.01-4.12,1.39-4.07,4.39.13,7.42.04,14.85.05,22.27ZM216.18,784.91c1.13-9.62-.09-17.15.23-24.66.14-3.2-1.16-3.92-3.92-3.91-14.99.07-29.97.11-44.96.03-3.04-.02-3.89,1.3-3.87,4.12.07,14.94.09,29.88-.03,44.83-.03,3.35,1.42,4.41,4.5,4.4,14.51-.06,29.02-.1,43.53,0,3.4.02,4.64-1.27,4.57-4.66-.16-7.41-.05-14.82-.05-20.14ZM216.2,351.82s.06,0,.09,0c0-7.77-.09-15.55.05-23.31.05-2.39-.78-3.21-3.05-3.21-15.35.04-30.7.05-46.04-.01-2.66-.01-3.56,1.15-3.56,3.68.04,15.31.05,30.61-.03,45.92-.01,2.84,1.21,3.78,3.88,3.77,14.99-.06,29.98-.08,44.97-.02,2.82.01,3.76-1.14,3.72-3.86-.1-7.65-.04-15.3-.04-22.96ZM216.25,1213.65c0-7.66-.12-15.32.07-22.98.07-2.68-.97-3.29-3.32-3.28-15.12.06-30.25.09-45.37,0-2.99-.02-3.97,1.18-3.95,4.06.07,14.96.08,29.92-.03,44.88-.02,3.26,1.17,4.47,4.39,4.45,14.53-.1,29.06-.12,43.58-.01,3.3.02,4.77-.96,4.68-4.51-.18-7.53-.06-15.08-.05-22.62ZM269.8,298.16s.03,0,.05,0c0-7.54-.1-15.08.05-22.62.06-3.15-1.17-4.19-4.22-4.17-14.65.1-29.3.1-43.94,0-3.16-.02-4.47.93-4.44,4.31.13,14.84.13,29.68,0,44.52-.03,3.48,1.28,4.61,4.63,4.58,14.65-.11,29.3-.1,43.94,0,2.95.02,4.02-1.07,3.98-4-.11-7.54-.04-15.08-.04-22.62ZM217.34,944.66c0,7.42.1,14.84-.05,22.26-.07,3.26,1.15,4.47,4.39,4.45,14.64-.1,29.29-.1,43.93,0,3,.02,4.28-.93,4.26-4.12-.1-15.08-.08-30.15,0-45.23.02-2.93-1.07-4.03-4-4.02-14.88.08-29.77.07-44.65-.02-2.96-.02-3.98,1.17-3.94,4.08.12,7.54.04,15.08.04,22.61ZM269.83,1375.72h.02c0-7.54-.07-15.08.03-22.61.04-2.9-1.03-4.05-3.98-4.04-14.88.08-29.77.05-44.65-.04-2.94-.02-3.96,1.16-3.95,4.07.09,14.96.1,29.91,0,44.87-.02,3.23,1.1,4.48,4.37,4.46,14.64-.1,29.29-.12,43.93.02,3.37.03,4.34-1.31,4.28-4.47-.14-7.42-.05-14.84-.05-22.25ZM244.23,1133.55v-.02c-7.26,0-14.52-.01-21.78,0-4.96.01-5.1.15-5.11,4.96,0,14.48-.01,28.95,0,43.43,0,4.53.39,4.93,4.88,4.93,14.17.01,28.33,0,42.5,0,4.86,0,5.08-.17,5.1-5.02.05-14.95,0-29.91.15-44.86.03-2.85-1.12-3.47-3.59-3.44-7.38.08-14.76.03-22.14.03ZM163.7,567.38h-.02c0,7.3-.02,14.61,0,21.91.02,4.29.53,4.86,4.67,4.87,14.53.03,29.07-.08,43.6.06,3.38.03,4.22-1.27,4.27-4.44.24-15.2.11-30.41,0-45.61-.02-2.65-1.15-3.3-3.44-3.3-15.13.04-30.26.06-45.39,0-2.81-.01-3.78,1.18-3.74,3.9.09,7.54.03,15.08.03,22.63ZM110.07,944.28c0,7.54.07,15.07-.04,22.61-.04,2.98,1.02,4.46,4.11,4.45,14.88-.06,29.76-.05,44.63-.05,2.41,0,3.84-.9,3.84-3.56,0-15.3.67-30.6.03-45.91-.11-2.67-1.2-3.83-3.95-3.82-14.88.06-29.76.06-44.63-.02-2.9-.01-4.06,1.13-4.02,4.05.1,7.41.03,14.83.02,22.25ZM217.34,513.43c0,7.65.04,15.31-.02,22.96-.02,2.73,1.14,3.89,3.86,3.89,14.99-.04,29.98-.04,44.97.02,2.58,0,3.65-1.04,3.65-3.63-.02-15.31,0-30.61.08-45.92.01-2.78-1.17-3.81-3.87-3.8-14.99.05-29.98.05-44.98-.02-2.79-.01-3.77,1.18-3.73,3.9.1,7.53.03,15.07.04,22.6ZM377.14,82.77s-.04,0-.06,0c0-7.3.05-14.61-.02-21.91-.04-4.67-.34-4.93-4.86-4.93-14.3-.02-28.59-.02-42.89-.01-4.37,0-4.77.38-4.78,4.66-.02,14.61-.02,29.21,0,43.82,0,4.17.6,4.79,4.77,4.8,14.53.03,29.07-.05,43.6.04,3.06.02,4.31-1.12,4.27-4.21-.1-7.42-.03-14.84-.03-22.27ZM216.16,1644.97h.04c0-7.54-.15-15.08.07-22.62.09-3.17-1.18-3.9-3.98-3.88-14.77.07-29.53.09-44.3,0-3.31-.02-4.36,1.35-4.34,4.52.08,14.84.07,29.68-.02,44.52-.02,3.02,1.01,4.39,4.11,4.38,14.88-.09,29.77-.11,44.65-.08,2.75,0,3.83-1.09,3.8-3.85-.09-7.66-.03-15.32-.03-22.98ZM217.34,729.14c0,7.66.03,15.32-.02,22.98-.01,2.27.67,3.68,3.22,3.68,15.01-.04,30.01-.04,45.02-.06,3.13,0,4.33-1.5,4.3-4.7-.1-14.84-.07-29.69.03-44.53.02-2.94-1.09-4.06-3.99-4.05-14.89.07-29.78.06-44.66-.02-2.95-.02-3.99,1.16-3.94,4.07.12,7.54.04,15.08.04,22.62ZM56.48,1214.17h-.01c0,7.54.05,15.08-.03,22.62-.03,2.64.81,4,3.68,3.98,15.01-.07,30.01-.07,45.02-.02,2.95.01,3.95-1.28,3.94-4.15-.07-14.84-.09-29.68.01-44.52.02-3.33-1.1-4.75-4.55-4.72-14.41.11-28.82.03-43.23.07-4.12.01-4.78.7-4.8,4.84-.04,7.3-.01,14.6-.01,21.9ZM377.11,1591.39h-.04c0-7.41-.09-14.83.04-22.24.06-3.35-1.11-4.66-4.59-4.63-14.52.15-29.03.14-43.55.02-3.49-.03-4.52,1.37-4.49,4.7.11,14.59.02,29.18.04,43.77,0,4.32.55,4.86,5.03,4.87,14.52.02,29.03-.05,43.55.05,2.9.02,4.08-.97,4.04-3.94-.11-7.53-.04-15.07-.04-22.6ZM324.53,1160.32c0,7.53.04,15.07-.02,22.6-.02,2.72,1.16,3.94,3.85,3.93,15.11-.03,30.22-.03,45.33,0,2.44,0,3.36-1.07,3.36-3.48-.02-15.31.02-30.61.08-45.92.01-2.89-1.25-3.98-4.14-3.96-14.75.09-29.51.09-44.26.01-3.05-.02-4.29,1.11-4.25,4.21.12,7.53.04,15.07.04,22.6ZM82.3,378.64v-.02c7.5,0,14.99-.07,22.49.03,2.94.04,4.32-.85,4.29-4.09-.12-14.95-.11-29.9-.03-44.84.02-3.22-1.14-4.49-4.39-4.46-14.52.1-29.03.1-43.55,0-3.34-.02-4.7,1.23-4.68,4.64.09,14.83.1,29.66-.02,44.48-.03,3.36,1.32,4.36,4.48,4.3,7.14-.15,14.28-.05,21.42-.05ZM269.82,82.53h.03c0-7.54-.07-15.07.04-22.61.04-2.9-1.03-4.06-3.98-4.04-14.88.08-29.76.06-44.63-.02-2.92-.02-3.99,1.11-3.97,4.04.09,15.07.08,30.14,0,45.22-.01,2.88,1.01,4.11,3.96,4.09,14.76-.06,29.52-.08,44.27.05,3.32.03,4.38-1.29,4.33-4.48-.13-7.41-.04-14.83-.04-22.25ZM163.7,998.44h-.01c0,7.54.07,15.09-.04,22.63-.04,2.92,1.15,4.16,4,4.15,14.77-.05,29.55-.1,44.32-.04,3.19.01,4.32-1.14,4.28-4.45-.15-14.96-.14-29.93.03-44.9.04-3.1-.99-3.98-3.87-3.96-14.89.09-29.78.12-44.68,0-3.23-.02-4.13,1.3-4.08,4.29.12,7.42.04,14.85.04,22.27ZM216.17,1429.51s0,0,.01,0c0-7.66-.11-15.33.06-22.98.06-2.76-1.03-3.58-3.55-3.57-15.13.08-30.26.14-45.38.08-2.93-.01-3.64,1.32-3.63,3.95.06,14.96.08,29.93-.03,44.89-.03,3.31,1.3,4.45,4.46,4.43,14.77-.08,29.54-.09,44.31-.02,2.77.01,3.83-1.01,3.79-3.79-.1-7.66-.04-15.32-.04-22.98ZM216.19,135.99c0-7.54-.12-15.09.06-22.62.06-2.74-.92-3.61-3.49-3.59-15.13.06-30.26.08-45.38.04-2.53,0-3.71.91-3.7,3.56.04,15.32.04,30.65-.02,45.97,0,2.6,1.16,3.75,3.64,3.74,15.01-.03,30.02-.08,45.03-.06,2.83,0,3.98-1.07,3.92-4.06-.17-7.66-.06-15.32-.06-22.98ZM217.34,1591.17c0,5.38-.04,10.77,0,16.15.1,12.13-1.53,10.5,10.33,10.57,12.38.07,24.77,0,37.15,0,3.15,0,5.09-.83,5.04-4.72-.16-14.84-.11-29.68,0-44.51.02-3.21-1.33-4.12-4.3-4.11-14.76.08-29.53.08-44.29-.01-2.92-.02-4.04,1.06-3.99,4.01.12,7.54.04,15.08.04,22.62ZM377.1,944.78h-.06c0-7.66-.04-15.31.02-22.97.02-2.71-1.08-3.86-3.85-3.84-14.88.07-29.76.07-44.64.01-2.87-.01-4.08,1.08-4.07,4.03.07,15.07.06,30.15,0,45.23-.01,2.9,1.21,4.12,4.07,4.11,14.76-.04,29.52-.04,44.29-.01,2.95,0,4.33-1.18,4.29-4.29-.11-7.42-.04-14.84-.04-22.25ZM110.07,1591.17c0,7.42.11,14.84-.05,22.25-.07,3.23,1.1,4.54,4.34,4.52,14.64-.09,29.28-.08,43.93-.04,2.92,0,4.41-1.04,4.4-4.18-.07-14.83-.08-29.67-.02-44.5.01-3.28-1.11-4.68-4.61-4.65-14.52.14-29.05.09-43.57-.02-3.18-.02-4.53,1.06-4.46,4.37.15,7.41.05,14.83.04,22.25ZM324.53,729.16h-.02c0,7.41.07,14.83-.04,22.24-.04,2.99,1.02,4.43,4.12,4.41,14.99-.06,29.98-.06,44.96,0,2.62,0,3.59-1.09,3.57-3.65-.08-15.18-.1-30.36-.07-45.55,0-2.81-1.03-4.15-3.99-4.13-14.87.06-29.74.06-44.61-.02-2.95-.01-4,1.25-3.97,4.11.09,7.53.03,15.06.03,22.59ZM324.52,1375.61c0,7.41.08,14.83-.04,22.24-.05,3.17,1.1,4.58,4.36,4.56,14.64-.08,29.27-.07,43.91-.02,2.94,0,4.37-1.09,4.35-4.22-.06-14.95-.05-29.9.02-44.85.01-3.27-1.41-4.34-4.58-4.31-14.52.12-29.04.14-43.55.01-3.51-.03-4.58,1.38-4.51,4.69.14,7.29.04,14.59.04,21.89ZM56.48,675.26c0,7.54.08,15.08-.04,22.62-.05,2.95,1.1,4.14,4,4.02,2.97-.12,5.95-.03,8.93-.03,11.43,0,22.87.02,34.3-.02,2.87,0,5.42-.21,5.38-4.35-.12-14.96-.05-29.92.03-44.88.01-2.86-1.07-4.07-4.02-4.06-14.89.09-29.78.09-44.66,0-3-.02-3.98,1.23-3.95,4.08.1,7.54.03,15.08.03,22.62ZM323.5,1214.47h-.02c0-7.54-.07-15.08.03-22.62.05-3.21-1.21-4.49-4.44-4.47-14.53.09-29.06.08-43.59.01-3.14-.02-4.59,1.17-4.58,4.42.05,14.96.05,29.92-.02,44.88-.02,2.9,1.07,4.11,3.99,4.09,14.89-.07,29.77-.09,44.66-.02,2.9.01,4.05-1.09,4-4.03-.12-7.42-.04-14.84-.04-22.26ZM351.1,486.98c-7.38,0-14.76.11-22.14-.05-3.19-.07-4.5,1-4.48,4.32.1,14.83.09,29.66,0,44.49-.02,3.19,1.13,4.57,4.37,4.55,14.64-.07,29.28-.06,43.92-.01,2.96,0,4.35-1.13,4.34-4.23-.07-14.95-.07-29.9,0-44.85.02-3.32-1.44-4.34-4.59-4.27-7.14.15-14.28.05-21.42.06ZM324.53,297.79h-.01c0,7.29-.01,14.59,0,21.88.01,4.46.52,5.04,4.88,5.05,14.39.03,28.79-.04,43.18.02,3.14.01,4.5-1.14,4.49-4.42-.08-14.7-.05-29.41.06-44.11.03-3.5-1.24-4.86-4.83-4.83-14.51.15-29.03.14-43.54.02-3.38-.03-4.33,1.39-4.27,4.52.13,7.29.04,14.58.04,21.88ZM110.07,728.88c0,7.53.07,15.07-.04,22.6-.05,3.06,1.19,4.34,4.22,4.33,14.76-.06,29.51-.06,44.27-.03,2.78,0,4.16-1.11,4.15-4.04-.04-14.95-.04-29.9.01-44.84.01-3.14-1.18-4.47-4.46-4.44-14.64.11-29.27.1-43.91-.01-3.35-.03-4.33,1.42-4.27,4.56.13,7.29.04,14.59.04,21.88ZM56.48,1645.5h-.01c0,7.42.07,14.83-.04,22.25-.04,2.93,1.11,4.08,4.01,4.07,14.76-.06,29.52-.06,44.28-.02,2.86,0,4.4-.82,4.37-4.1-.11-14.95-.12-29.91-.03-44.86.02-3.3-1.33-4.41-4.49-4.39-14.4.08-28.8,0-43.21.03-4.25,0-4.85.68-4.87,5.13-.03,7.3,0,14.59,0,21.89ZM323.49,352.33s-.01,0-.02,0c0-7.66-.05-15.31.02-22.97.03-2.87-1.12-4.1-4.03-4.08-14.76.07-29.52.07-44.28.02-3.04,0-4.27,1.37-4.26,4.36.04,15.07.03,30.15-.02,45.22,0,2.53.96,3.76,3.56,3.76,15-.04,30-.06,45,0,3.13.01,4.12-1.43,4.07-4.42-.13-7.3-.04-14.59-.04-21.89ZM56.46,998.31c0,7.29-.01,14.59,0,21.88,0,4.73.29,5.02,5.13,5.03,9.87.02,19.75.01,29.62,0,4.52,0,9.04,0,13.56-.07,2.78-.04,4.32-1.14,4.29-4.35-.12-14.94-.11-29.89-.05-44.83.01-2.92-1.17-4.09-4.03-4.08-14.75.05-29.5.07-44.25-.03-3.33-.02-4.36,1.45-4.31,4.57.12,7.29.04,14.59.03,21.88ZM109.06,783.21h-.06c0-7.54-.07-15.07.04-22.61.05-3.08-1.19-4.28-4.23-4.26-14.52.07-29.04,0-43.57.05-4.06.01-4.73.72-4.74,4.89-.04,14.71.03,29.43-.07,44.14-.02,3.08,1.1,4.3,4.17,4.29,14.76-.07,29.52-.07,44.28,0,3,.01,4.29-1.1,4.23-4.24-.14-7.41-.04-14.83-.04-22.25ZM83.03,1402.97c-7.38,0-14.76.04-22.14-.02-2.89-.03-4.44.98-4.43,4.15.06,15.08.05,30.15-.02,45.23-.01,2.79,1.25,3.92,3.87,3.92,14.76,0,29.52,0,44.29,0,3.02,0,4.51-1.21,4.48-4.53-.11-14.84-.1-29.67-.02-44.51.02-3.09-1.21-4.3-4.24-4.26-7.26.1-14.52.03-21.79.02ZM109.03,136.26s0,0-.01,0c0-7.54-.04-15.09.02-22.63.02-2.51-.96-3.84-3.54-3.84-15.13,0-30.26,0-45.39,0-2.34,0-3.58,1.2-3.59,3.52-.03,15.56-.02,31.13-.04,46.69,0,2.08,1.01,3.08,3.06,3.07,15.13-.02,30.26-.02,45.39-.06,2.89,0,4.21-1.39,4.15-4.49-.16-7.42-.05-14.85-.05-22.27ZM270.93,1645.29c0,7.53.06,15.07-.03,22.6-.03,2.75,1.09,3.97,3.8,3.91,2.5-.06,5,.01,7.5.01,12.14,0,24.28,0,36.42-.02,2.74,0,4.91-.52,4.89-4.12-.08-14.95-.07-29.9,0-44.85.01-3.04-1.23-4.34-4.24-4.33-14.64.04-29.28.04-43.91-.02-3.21-.01-4.48,1.41-4.44,4.57.09,7.41.03,14.83.02,22.25ZM270.94,998.91h-.02c0,7.3.1,14.6-.05,21.9-.07,3.25,1.13,4.47,4.38,4.45,14.17-.1,28.34-.05,42.51-.06.83,0,1.66-.09,2.49-.17,2.3-.22,3.27-1.47,3.26-3.82-.05-15.08-.07-30.16,0-45.23.01-2.9-1.16-4.11-4.04-4.1-14.65.05-29.29.07-43.94,0-3.4-.02-4.66,1.49-4.62,4.79.1,7.42.03,14.84.03,22.26ZM323.48,567.86c0-7.41-.1-14.83.05-22.24.06-3.31-1.07-4.83-4.51-4.81-14.52.08-29.04.07-43.55,0-3.14-.01-4.57,1.2-4.56,4.44.06,14.95.06,29.9-.02,44.85-.02,2.92,1.12,4.11,4,4.08,6.66-.08,13.33,0,19.99-.01,7.73,0,15.47.06,23.2-.06,4.8-.08,5.35-.75,5.37-5.43.02-6.94,0-13.87.02-20.81ZM270.92,136.8c0,7.3.11,14.6-.05,21.89-.07,3.25,1.13,4.5,4.37,4.45,7.97-.13,15.95-.03,23.93-.04,6.55,0,13.09.01,19.64-.04,2.57-.02,4.71-.51,4.69-3.93-.08-15.19-.06-30.39-.03-45.58,0-2.54-1.04-3.78-3.6-3.77-14.76.02-29.52.03-44.28.02-3.47,0-4.81,1.59-4.72,5.11.18,7.29.06,14.59.05,21.89ZM270.93,1429.66h-.01c0,7.42.11,14.83-.05,22.25-.07,3.3,1.24,4.47,4.43,4.4,6.31-.13,12.61-.03,18.92-.04,8.09,0,16.19.06,24.28-.06,4.3-.06,4.98-.85,4.98-5.09.02-14.35.02-28.71,0-43.06,0-4.56-.54-5.09-5.2-5.1-14.04-.03-28.09-.04-42.13,0-4.6,0-5.19.63-5.21,5.17-.03,7.18,0,14.35,0,21.53ZM323.49,783.37h-.03c0-7.66-.02-15.32.01-22.98.01-2.36-.67-4-3.37-4-15,.02-30.01,0-45.01.05-2.91,0-4.2,1.54-4.18,4.56.07,14.84.07,29.68-.01,44.52-.02,2.86.98,4.18,3.92,4.17,14.89-.05,29.77-.05,44.66,0,2.85,0,4.09-1.12,4.05-4.06-.1-7.42-.03-14.84-.03-22.26ZM136.64,594.9s0,.04,0,.06c-7.38,0-14.77.1-22.15-.05-3.19-.06-4.49,1.02-4.47,4.34.11,14.84.11,29.68-.01,44.52-.03,3.35,1.28,4.33,4.46,4.3,14.41-.11,28.82-.04,43.23-.05,4.54,0,5.33-.53,5.38-5.04.18-14.96.29-29.92-.4-44.87-.11-2.41-1.07-3.32-3.54-3.28-7.5.13-15,.05-22.5.05ZM56.48,567.86h-.01c0,7.42.07,14.84-.04,22.26-.04,2.95,1.19,4.14,4.04,4.05,2.86-.09,5.72,0,8.57,0,11.91,0,23.82-.01,35.73-.02,2.33,0,4.3-.3,4.29-3.41-.05-15.44-.06-30.88-.05-46.32,0-2.43-1.23-3.54-3.5-3.54-14.89-.02-29.77-.02-44.66,0-3.06,0-4.47,1.5-4.42,4.71.12,7.42.04,14.84.04,22.26ZM351.03,1079.09c7.15,0,14.3-.16,21.44.07,3.43.11,4.71-1.12,4.7-4.5-.05-14.84,0-29.69.07-44.54.02-3.17-1.2-4.45-4.47-4.41-14.77.15-29.54-.18-44.31.45-2.87.12-4,1.16-3.98,4.1.09,14.97.09,29.93,0,44.9-.02,2.98,1.14,4.02,4.03,3.97,7.5-.12,15.01-.04,22.51-.04ZM270.93,674.92h.01c0,7.54.05,15.09-.02,22.63-.03,2.94.99,4.45,4.16,4.38,14.77-.31,29.54.28,44.31-.39,3.13-.14,4.11-1.38,4.1-4.38-.06-14.73-.04-29.45.06-44.18.02-3.18-1.09-4.47-4.4-4.44-14.65.12-29.31.13-43.96,0-3.36-.03-4.36,1.3-4.3,4.47.14,7.3.04,14.61.04,21.91ZM324.52,190.51c0,7.18-.01,14.37,0,21.55.01,4.72.2,4.91,4.8,4.92,14.29.01,28.59.01,42.88,0,4.59,0,4.81-.11,4.83-4.91.08-14.72,0-29.45.12-44.17.03-3.31-1.29-4.34-4.49-4.31-14.65.14-29.3-.07-43.95.43-2.98.1-4.31,1.06-4.24,4.23.15,7.42.05,14.84.04,22.27ZM350.64,863.57c7.03,0,14.05,0,21.08,0,5.19,0,5.32-.02,5.35-5.12.09-14.6.04-29.2.14-43.8.02-3.2-1.17-4.46-4.43-4.44-14.76.09-29.53-.18-44.29.43-2.86.12-4.02,1.11-4,4.07.09,14.96.08,29.92,0,44.88-.02,2.93,1.06,4.06,3.99,4.02,7.38-.12,14.77-.04,22.15-.04ZM56.48,1106.25c0,7.66.05,15.31-.03,22.97-.02,2.54.93,3.76,3.55,3.73,14.99-.13,29.98.16,44.97-.36,2.8-.1,4.08-1.05,4.06-4.04-.06-14.95-.02-29.91.04-44.87.01-2.83-1.05-4.09-4.02-4.07-14.88.09-29.76.09-44.64,0-2.95-.02-4.03,1.11-3.98,4.02.11,7.54.04,15.07.04,22.61ZM110.08,1267.95h-.02c0,7.18,0,14.35,0,21.53,0,4.99.14,5.14,4.92,5.14,14.28,0,28.56-.08,42.84.07,3.23.03,4.81-.83,4.97-4.29.72-15.42.48-30.83-.18-46.24-.1-2.37-1.63-2.49-3.47-2.49-14.76.04-29.51.03-44.27.06-4.27,0-4.78.49-4.8,4.7-.04,7.18,0,14.35,0,21.53ZM110.08,406.16c0,7.54.04,15.07-.02,22.61-.02,2.49.8,3.76,3.49,3.75,15.24-.06,30.47-.05,45.71,0,2.27,0,3.17-.99,3.33-3.2,1.14-15.66.59-31.32.09-46.97-.06-2.03-.94-2.95-3.11-2.93-15,.11-30,.19-44.99.13-3.42-.01-4.61,1.35-4.54,4.72.16,7.29.05,14.59.04,21.89ZM270.94,1537.45c0,7.42.09,14.85-.04,22.27-.05,3.11,1.23,4.4,4.23,4.26,2.14-.1,4.28-.22,6.42-.17,12.62.28,25.24.4,37.86-.12,3.13-.13,4.1-1.44,4.09-4.41-.05-14.72-.02-29.45.08-44.17.02-3.17-1.11-4.47-4.42-4.45-14.65.12-29.3.12-43.96,0-3.38-.03-4.35,1.42-4.31,4.53.11,7.42.03,14.84.03,22.27ZM351.18,594.86c0,.11,0,.21,0,.32-7.5,0-15,.09-22.5-.04-3.06-.05-4.23,1.05-4.21,4.19.1,14.83.1,29.67,0,44.5-.02,3.04.96,4.28,4.12,4.26,14.76-.11,29.52-.12,44.28.01,3.14.03,4.16-1.21,4.28-4.18.46-11.48.57-22.96.41-34.44-.05-3.82-.11-7.63-.25-11.45-.09-2.27-1.12-3.29-3.65-3.23-7.49.18-14.99.06-22.49.06ZM56.48,1537.18c0,7.66.05,15.31-.03,22.96-.03,2.56.96,3.79,3.53,3.78,14.99-.06,29.98-.12,44.97-.15,3.02,0,4.12-1.41,4.1-4.44-.09-14.83-.06-29.66.03-44.49.02-3.09-1.21-4.2-4.27-4.18-14.76.1-29.52.11-44.27,0-3.17-.02-4.16,1.25-4.11,4.27.13,7.41.04,14.83.05,22.25ZM56.48,1321.67c0,7.3-.03,14.6,0,21.9.02,4.17.67,4.91,4.73,4.89,14.52-.08,29.05-.29,43.57-.34,2.97-.01,4.3-1.02,4.28-4.19-.08-14.84-.04-29.68.04-44.53.02-3.01-1.07-4.29-4.21-4.26-14.77.1-29.54.11-44.31,0-3.17-.02-4.19,1.26-4.14,4.27.11,7.42.04,14.84.03,22.26ZM297.11,1295.18c-7.38,0-14.75.08-22.13-.04-2.9-.05-4.08,1.03-4.07,3.96.06,15.18.1,30.37-.02,45.55-.03,3.89,2.4,3.91,4.97,3.75,7.97-.48,15.93-.17,23.9-.14,6.54.02,13.07.39,19.62-.11,3.05-.23,4.14-1.37,4.13-4.39-.08-14.82-.07-29.65.01-44.47.02-3.1-1.23-4.21-4.28-4.16-7.37.14-14.75.05-22.13.05ZM56.47,244.27c0,7.42.08,14.84-.04,22.25-.05,2.98.87,4.4,4.06,4.35,14.75-.21,29.51-.33,44.26-.39,2.95-.01,4.31-1.03,4.3-4.19-.07-14.83-.02-29.67.06-44.5.02-2.98-1.04-4.31-4.19-4.29-14.76.1-29.52.1-44.28,0-3.07-.02-4.26,1.04-4.2,4.17.14,7.53.05,15.07.04,22.61ZM270.94,890.41c0,7.53.08,15.07-.04,22.6-.05,3.16,1.06,4.52,4.36,4.47,14.63-.25,29.26-.39,43.89-.42,3.26,0,4.38-1.3,4.36-4.49-.09-14.71-.09-29.41,0-44.12.02-3.24-1.2-4.4-4.44-4.37-14.63.12-29.27.13-43.9,0-3.35-.03-4.35,1.29-4.28,4.47.15,7.29.05,14.59.05,21.88ZM297.13,433.07c-7.27,0-14.54.11-21.8-.05-3.22-.07-4.47,1.04-4.44,4.34.11,14.84.12,29.69,0,44.53-.03,3.62,1.68,4.57,4.84,4.46,5.12-.17,10.24-.31,15.36-.31,8.81,0,17.63.2,26.44.18,5.55-.01,5.94-.47,5.94-5.88.02-14.25-.06-28.49.05-42.74.03-3.4-1.13-4.69-4.59-4.6-7.26.2-14.53.06-21.8.06ZM82.97,433.07c-7.38,0-14.76.12-22.13-.05-3.25-.07-4.43,1.08-4.4,4.36.11,14.59.03,29.18.05,43.76,0,4.22.85,5.2,4.95,5.18,14.51-.06,29.02-.28,43.53-.34,3.14-.01,4.09-1.4,4.08-4.38-.06-14.71-.03-29.42.07-44.12.02-3.15-1.05-4.54-4.38-4.47-7.25.17-14.51.05-21.77.05ZM56.48,890.8c0,7.54.12,15.08-.05,22.62-.07,3.27,1.29,4.24,4.28,3.99,2.72-.24,5.47-.34,8.2-.35,11.91-.04,23.82-.08,35.72,0,3.17.02,4.45-1.14,4.43-4.43-.1-14.72-.07-29.44.03-44.16.02-3.22-1.16-4.43-4.43-4.4-14.65.12-29.3.13-43.94,0-3.36-.03-4.34,1.3-4.28,4.47.15,7.42.05,14.84.04,22.26ZM351.1,1457.15s0,.08,0,.12c-7.5,0-15,.04-22.5-.02-2.51-.02-4.1.58-4.09,3.57.06,15.32.05,30.63.01,45.95,0,2.46,1.09,3.41,3.47,3.4,15.24-.04,30.48-.04,45.72,0,2.26,0,3.29-.96,3.29-3.2.03-15.55.08-31.11.13-46.66,0-2.43-1.05-3.26-3.53-3.21-7.5.16-15,.06-22.5.06ZM350.47,1294.62c7.38,0,14.76-.13,22.14.06,3.24.08,4.47-1.01,4.46-4.3-.05-14.83.03-29.67.12-44.5.02-2.78-.98-4.22-3.95-4.21-15,.06-30,.05-45,.02-2.73,0-3.76,1.22-3.75,3.95.07,15.07.06,30.15-.01,45.22-.01,2.79,1.11,3.83,3.84,3.79,7.38-.1,14.76-.03,22.14-.03ZM350.47,432.51c7.62,0,15.24-.06,22.85.04,2.58.03,3.7-.95,3.7-3.55,0-15.31.02-30.62.06-45.93,0-2.39-1.11-3.46-3.49-3.46-15.12.03-30.23.04-45.35,0-2.74,0-3.76,1.19-3.75,3.93.07,15.07.06,30.14,0,45.22-.01,2.8,1.11,3.82,3.84,3.78,7.38-.1,14.76-.03,22.14-.03ZM270.94,1106.01c0,7.54,0,15.07,0,22.61,0,2.24.3,4.01,3.23,4,15.11-.08,30.22-.09,45.34-.06,2.9,0,4-1.22,3.99-4.1-.06-14.95-.03-29.9.03-44.85.01-2.91-1.19-4-4.09-3.99-14.76.09-29.52.11-44.27-.02-3.41-.03-4.31,1.43-4.26,4.53.12,7.29.04,14.59.04,21.89ZM297.4,217.54c-7.26,0-14.52-.02-21.78,0-4.23.01-4.66.42-4.67,4.77-.03,14.47.05,28.95-.05,43.42-.02,3.34,1.17,4.79,4.57,4.77,14.52-.1,29.04-.12,43.56-.05,3.14.01,4.51-1.06,4.49-4.37-.08-14.83-.05-29.67.04-44.5.02-3.17-1.39-4.14-4.37-4.08-7.26.13-14.52.04-21.78.04Z"/>
</svg>