<?xml version="1.0" encoding="UTF-8"?>
<svg id="Layer_1" data-name="Layer 1" xmlns="http://www.w3.org/2000/svg" viewBox="0 0 1296 1728">
  <defs>
    <style>
      .cls-1 {
        fill: #d90000;
      }

      .cls-2 {
        fill: #fff;
      }
    </style>
  </defs>
  <g>
    <path class="cls-2" d="M645.88,583.77l-3.48-52.87-27.75-80.34c-2.88-8.87-7.38-21.74-13.88-36.87-6.73-15.67-12.31-26.07-17.49-35.99-31.4-60.1-32.64-72.54-53.82-99.53-11.33-14.44-21.3-27.14-25.07-25.29-6.55,3.2,5.5,50.09,80.66,230.53,4.02,18.33,8.04,36.67,12.07,55-4.02-18.33-8.04-36.67-12.07-55-7.32,1.27-14.63,2.53-21.95,3.8-18.45-41.9-33.03-75.64-43-98.89-8.19-19.08-10.67-25.03-15.37-34.99-17.97-38.11-46.32-88.35-51.63-86.21-5.3,2.13,9.49,57.62,73.29,237.81h0c-5.22,1.08-10.44,2.17-15.66,3.25-16-39.17-32.01-78.35-48.01-117.52-21.23-45.78-33.97-67.91-38.24-66.38-6.96,2.49,8.59,67.81,46.65,195.93-.19,2.03-.37,4.06-.56,6.1-1.26-.12-2.52-.23-3.78-.35-5.77-.54-11.12-1.75-16.08-3.48-77.04-26.9-80.82-188.2-81.13-210.89,32.79,57.11,64.94,136.89,61.91,231.4-.34,10.48-1.09,20.66-2.19,30.55,16.83,16.81,33.65,33.61,50.48,50.42l94.31,73.57,100.11,410.52,67.95,365.34,57.86,52.6,67.04-43.94-33.29-98.83-81.14-181.99-60.08-186.4-122.78-391.36,76.12-39.68Z"/>
    <path class="cls-1" d="M383.6,334.32c6.76,6.66,7.47,16.2,10.85,24.33,8.06,19.41,14.46,39.51,21.51,59.33,9.19,25.86,17.99,51.86,27.76,77.5,3.24,8.5,4.79,17.69,10.16,25.47,3.31,4.78,7.31,4.22,11.61,2.97,4.31-1.25,4.81-4.71,4.45-8.69-1.19-13.06-7.26-24.68-10.99-36.97-6.94-22.9-14.87-45.48-21.62-68.46-9.28-31.61-19.08-63.07-29.66-94.29-5.28-15.57-10.01-31.4-15.29-46.94-6.8-20.01-12.49-40.39-19.9-60.2-3.73-9.95-6.67-20.22-9.6-30.45-1.06-3.69.09-7.51,1.65-11.95,13.29,15.36,18.49,33.75,26.22,50.95,6.62,14.74,13.08,29.6,18.65,44.66,9.43,25.48,21.71,49.98,27.34,76.83.84,4.02,2.96,7.81,3.59,11.84.39,2.48,6.12,4.45.73,7.83-4.26,2.67-1.36,7.51-2.02,11.29-1.96,11.13-.02,14.57,10.64,14.45,9.77-.11,12.98,5.63,15.84,12.55,5.88,14.21,11.39,28.57,17.09,42.86,5.4,13.51,11.32,26.84,16.08,40.57,2.41,6.95,5.42,13.64,7.83,20.56,2.48,7.15,7.9,9.29,13.69,5.88,5.06-2.98,4.88-9.28,3.04-14.62-3.67-10.67-7.64-21.24-11.56-31.83-10.11-27.32-19.1-55.02-28.47-82.59-9.54-28.05-19.88-55.84-29.9-83.74-8.35-23.22-16.73-46.43-24.82-69.75-7.41-21.38-15.04-42.68-22.64-63.99-.82-2.3-1.71-5.04.08-6.54,2.38-1.99,4.95.16,6.74,1.85,3.17,2.99,4.95,6.79,6.75,10.89,8.53,19.46,18.35,38.36,26.57,57.94,8.08,19.24,17.4,37.98,23.42,58.1,2.47,8.23,6.63,15.97,10.2,23.85,4.88,10.76,7.93,22.23,11.87,33.28,2.87,8.04.21,18.12-.31,27.27-.55,9.68,5.1,15.5,14.06,11.97,7.39-2.91,9.47.32,11.98,5.47,13.77,28.15,26.56,56.74,38.92,85.53,1.93,4.5,4.17,8.85,6.27,13.25,2.6,5.46,5.82,6.44,11.12,4.83,5.23-1.59,5.34-4.57,4.72-9.45-1.55-12.19-7.49-22.79-11.35-34.1-5.53-16.23-11.96-32.17-18.25-48.13-11.47-29.13-21.22-58.9-32.88-87.98-10.13-25.27-18.96-51.06-28.52-76.55-9.68-25.8-19.73-51.46-29.16-77.36-1.29-3.55-2.68-7.09-3.96-10.66-.64-1.79-.99-3.77.84-4.91,2.19-1.37,3.26.71,4.25,2.1,12.17,17.06,22.41,35.2,31.35,54.17,4.12,8.74,9.73,16.77,13.71,25.66,5.49,12.3,11.49,24.37,16.69,36.79,1.39,3.33,2.52,6.69,4.68,9.6,5.36,7.24,10.93,15.51,11.53,23.75.71,9.84,2.59,20.2-.09,30.24-2.44,9.12-.3,12.39,9.04,14.48,13.16,2.94,21.07,11.97,26.81,23.46,6.06,12.13,12.25,24.19,18.27,36.35,7.46,15.07,14.96,30.1,21.73,45.53,7.79,17.75,15.89,35.38,22.03,53.76,6.1,18.25,12.73,36.34,17.49,55.06,1.23,4.85,2.33,9.76,3.47,14.64,2.66,11.43-.41,20.77-9.19,29.05-6.08,5.74-8.98,14.43-15.66,19.95-8.84,7.3-14.8,17.41-24.43,24.03-7.33,5.04-9.75,11.94-8.18,21.45,3.28,19.9,4.91,39.98,11.42,59.37,8.29,24.69,15.14,49.85,22.84,74.74,10.56,34.15,21.07,68.31,32.1,102.31,9.37,28.88,19.45,57.52,29.2,86.28,5.98,17.63,11.72,35.35,17.94,52.9,5.5,15.53,11.44,30.92,17.3,46.32,7.08,18.59,13.97,37.25,21.51,55.65,9.7,23.66,18.43,47.7,29.41,70.86,8.43,17.78,15.02,36.43,23.28,54.3,11.59,25.07,23.65,49.92,36.24,74.53,10.13,19.79,19.07,40.2,28.68,60.26,6.05,12.63,13.02,24.86,18.35,37.77,4.76,11.53,8.12,23.68,11.53,35.72,1.31,4.6-1.05,9.14-3.4,13.18-9.14,15.77-18.78,31.17-32.07,43.94-3.92,3.77-9.22,4.24-13.78,6.28-16.52,7.38-33.56,13.53-50.01,21.23-6.68,3.12-15.59.6-22.36-2.52-8.58-3.96-17.9-4.49-26.58-7.75-3.29-1.23-5.52-2.69-8.02-4.91-15.3-13.62-17.38-32.35-20.2-50.84-2.26-14.89-5.63-29.71-6.55-44.68-.85-13.81-2.89-27.44-4.6-41.08-2.87-22.97-5.42-46-9.23-68.88-1.41-8.48-2.07-17.26-3.14-25.9-1.41-11.35-2.91-22.7-4.62-34.01-4.93-32.7-13.22-64.74-20.01-97.05-6.33-30.08-13.78-59.99-22.31-89.61-6.41-22.26-11.31-44.96-16.76-67.49-5.35-22.13-13.34-43.44-19.95-65.18-9.39-30.87-19.45-61.54-28.84-92.42-17.8-58.51-35.5-117.04-52.8-175.69-3.06-10.35-7.23-15.96-19.32-16.37-13.93-.46-28.18-2.65-41.52-6.65-16.29-4.88-30.44-14.11-35.51-32.03-9.33-32.95-21.11-65.13-29.87-98.29-6.25-23.67-12.39-47.39-19-70.96-8.6-30.66-17.36-61.25-24.6-92.29-6.96-29.83-16.17-59.15-22.55-89.09-4.77-22.37-11.4-44.34-14.5-67.08-.79-5.77-2.48-11.43-3.88-17.11-.88-3.55-.97-7.1,2.72-8.74,4.27-1.9,5.96,1.48,7.22,4.8,4.82,12.78,9.5,25.61,14.45,38.34,4.98,12.8,8.86,25.99,13.79,38.83,3.52,9.18,7.86,18.24,9.11,28.75,1.15,9.75,4.44,20.4,12.57,27.88,2.76,2.54,2.29,5.51,1.54,8.6-1.22-2.18-2.44-4.36-3.66-6.54-.45.27-.9.54-1.35.82,1.8,5.3,3.61,10.59,5.41,15.89.58-.15,1.15-.3,1.73-.45-.73-3.31-1.47-6.63-2.2-9.94ZM572.34,515.18c2.26,3.82,3.41,8.27,10.11,5.47,11.69-4.87,11.94-4.43,6.99-16.32-1.48-3.55-3.16-7.04-5.05-10.38-3.31-5.83-8.29-3.43-12.88-2.22-5.32,1.41-2.72,4.97-2.06,8.04,1.01,4.75,1.9,9.52,2.84,14.28-4.1-2.7-3.77-7.72-5.93-11.47-4.31-7.47-10.77-9.38-17.69-4.14-3.17,2.41-6.52,4.36-10.27,5.22-4.86,1.11-6.4,3.53-4.81,8.22,2.48,7.3,4.92,14.61,7.24,21.96,1.87,5.94,3.9,11.94-2.31,16.91-1.45,1.16-3.74,2.93-1.99,4.95,1.73,2,3.64-.1,5.43-1.05,8.97-4.79,17.73-10.11,27.07-14.03,9.41-3.94,10.13-4.4,5.48-13.56-1.9-3.75-3.32-7.57-2.18-11.88ZM689.57,1076.59c-2.95-2.96-4.52-1.55-5.99,1.88-1.6,3.74-2.17,7.48-1.15,11.34,1.58,5.98,3.51,11.87,5.12,17.85,5.42,20.12,11.37,40.13,15.96,60.44,5.27,23.34,10.91,46.6,15.04,70.22,4.33,24.77,10.75,49.17,15.05,73.94,4.74,27.29,8.18,54.79,14.37,81.84,2.41,10.54,3.75,21.34,6.29,31.85,2.79,11.57,11.33,16.22,20.32,11.02,4.14-2.39,8.35-3.97,12.82-5.03,8.98-2.12,18.1-3.68,27.03-5.99,9.48-2.45,17.99-9.91,14.13-19.7-6.02-15.26-11.34-30.82-17.65-45.96-7.98-19.16-17.02-37.89-24.94-57.08-13.23-32.05-25.68-64.43-38.97-96.45-7.13-17.17-12.64-34.91-19.5-52.16-6.76-17.01-13.68-33.98-21.21-50.66-4.37-9.69-7.06-20.62-16.72-27.36ZM510.72,521.43c.77-.23,1.53-.47,2.3-.7.82,2.39,1.83,4.74,2.43,7.19q3.8,15.39,18.24,9.6c.23-.09.52-.04.77-.09,2.79-.59,3.31-2.76,2.22-4.69-3.19-5.62-3.9-12.03-6.25-17.84-1.78-4.41-5.42-7.22-11.08-5.77-10.01,2.55-21.96-1.33-29.62,9.18-.59.81-2.95.36-4.49.44-9.24.47-10.57,2.34-8.05,10.9,3.3,11.23,6.87,22.4,9.53,33.79,1.27,5.46,3.88,6.67,8.71,5.88,9.05-1.49,16.94-6.78,26.19-7.82,1.85-.21,4.97-3.11,2.06-4.98-4.22-2.7-4.13-7.09-5.51-10.66-3.07-7.91-5.03-16.26-7.44-24.43ZM443.81,577.73c.6.25,3.18,1.46,5.84,2.43,7.51,2.74,15.64-2.88,14.63-10.64-.76-5.83,1.51-7.14,6.69-8.05,4.36-.77,10.46-2.33,9.45-8.52-1.15-7.03-3.97-13.8-6.21-20.64-1.11-3.41-3.21-5.22-7.05-3.48-4.56,2.07-8.9,1.4-13.37-.74-4.5-2.15-8.63-.66-9.92,4.07-2.34,8.58-7.26,15.96-10.2,24.22-4.01,11.27-2.53,14.98,10.14,21.35ZM595.51,528.31c10.71-1.44,19.91-4.96,29.04-8.48,11.14-4.3,11.73-7.12,7.8-19.05-1.43-4.35-3.49-8.38-4.85-12.58-1.59-4.9-3.77-5.79-7.78-3.94-5.81,2.68-12.02,2.76-18.15,3.07-12.32.62-13.64,2.67-9.67,14.5,2.81,8.37,5.86,16.82,3.61,26.48ZM838.76,1472.01c3.12-5.88,2.96-10.91,1.37-16.5-1.23-4.33-2.95-5.01-7-4.55-16.63,1.88-30.77,9.53-44.35,18.56-4.36,2.9-3.85,7.69-3.52,11.99.3,3.94,3.67,6.02,7.03,6.17,15.8.71,30.74-2.23,43.62-12.16,1.39-1.07,2.29-2.78,2.86-3.5ZM391.13,359.06c-1.67.76-3.42,1.03-4.33,2.05-3.53,3.93.95,19.59,6.04,21.24,3.12,1.01,6.03-.62,4.64-3.56-2.03-4.29-.59-9.21-3.45-13.18-1.29-1.79-1.85-4.1-2.9-6.54Z"/>
  </g>
  <g>
    <path class="cls-2" d="M440.59,1611.88l81.52-227.67,102.54-520.94,86.84-469.07,46.44-288.06,16.55-62.76s53.15-51.49,73.54,49.82c20.39,101.31-36.23,439.8-36.23,439.8,0,0-74.88,313.42-107.87,370.92l-47.02,184.91-64.48,348.57-9.92,126.3-23.31,86.66-54.99,31.68-46.7-9.42-16.92-60.75Z"/>
    <path class="cls-1" d="M781.12,40.66c-7.68,9.71-7.91,21.81-10.26,33.1-12.26,58.94-18.51,118.85-28.34,178.18-13.47,81.28-32.11,161.55-46.73,242.59-10.62,58.83-20.88,117.72-29.29,176.96-9.5,66.89-25.07,132.7-40.62,198.45-5.2,21.98-4.75,22.18,17.05,27.12,16.56,3.75,33.24,7.04,49.76,10.95,6.58,1.56,10.36-.5,13.25-6.38,6.83-13.89,12.65-28.03,15.61-43.35,4.13-21.38,13.99-40.98,19.75-61.92,6.33-23.01,15.27-45.31,21.39-68.36,15.43-58.13,29.91-116.51,44.75-174.79,1.34-5.25,2.55-10.01-.8-15.63-2.19-3.67-.41-9.27.54-14.03,9.27-46.28,20.28-92.31,25.45-139.24,4.9-44.45,9.93-88.91,13.21-133.58,2.21-30.04,3.39-60.02,3.47-90.04.08-33.22-5.36-65.94-13.01-98.17-1.76-7.42-7.45-13.85-9.89-23.24,12.62,5.12,14.85,17.04,17.79,25.73,8.18,24.12,10.5,49.83,12.08,75.12,1.59,25.41.85,51.11-.88,76.55-7.17,105.47-18.94,210.3-40.57,314.01-13.05,62.57-26.58,124.88-45.82,185.88-6.1,19.33-8.54,39.59-14.82,58.94-3.63,11.18-9.15,21.77-11.9,33.03-7.79,31.9-22.7,61.45-29.83,93.5-.16.72-.25,1.54-.65,2.11-20.93,29.49-21.75,65.43-30.59,98.59-29.98,112.48-50.9,226.85-69.13,341.81-10.29,64.85-17.1,130.08-25.26,195.16-3.2,25.5-4.2,51.3-7.64,76.83-3.23,23.92-10.59,46.06-30.44,61.2-29.64,22.62-72.19,19.73-97.26-9.67-22.24-26.08-22.46-55.51-14-87.04,10.79-40.25,25.6-79.14,38.34-118.72,17.04-52.93,32.53-106.28,48.59-159.48,29.21-96.75,48.37-195.68,68.53-294.35,18.77-91.84,34.37-184.33,49.41-276.93,14.68-90.36,34.35-179.91,51.84-269.81,11.77-60.54,24.45-120.93,35.06-181.67,9.45-54.14,16.46-108.71,24.89-163.04,2.6-16.77,6.02-33.44,9.61-50.04,2.3-10.65,8.93-18.99,17.37-26.3ZM639.67,911.98c6.37,16.35,3.48,26.77-.85,52.04-5.36,31.27-14.31,61.9-20.28,93.02-24.27,126.57-56.12,251.37-85.92,376.65-3.75,15.77-8.75,31.24-13.14,46.85-12.17,43.26-24.59,86.45-36.35,129.82-4.46,16.45-4.6,32.15,13.34,42.29,7.72,4.37,15.38,8.47,23.84,4.54,8.08-3.75,8.33-12.62,9.05-20.16,2-20.93,2.58-42.03,5.21-62.87,6.59-52.29,12.95-104.64,21.33-156.65,13.75-85.3,33.51-169.47,49.96-254.27,12.93-66.7,27.91-132.92,44.7-198.74,2.29-8.99,5.48-16.49,16.94-14.16,3.79.77,6.55-1.03,6.05-4.26-1.54-10.06,6.73-16.67,8.48-25.55-14.22-2.87-28.09-5.67-42.34-8.54ZM647.14,1100.37c11.97-46.63,23.95-93.27,35.92-139.9-16.44,45.51-29.43,91.88-35.92,139.9ZM624.97,947.52c-7.88,34.18-16.88,68.2-20.6,103.25,9.97-33.77,15.56-68.43,20.6-103.25ZM482.33,1667.72c-18.99-8.7-25.65-25.81-30.59-45.85-6.37,16.3,15.46,45.78,30.59,45.85ZM597.19,1363.56c-.73-.08-1.47-.17-2.2-.25-2.4,18.6-4.8,37.21-7.19,55.81.9.1,1.8.21,2.7.31,2.23-18.62,4.46-37.25,6.7-55.87ZM603.92,1311.55c-2.71,13-6.74,25.81-6.19,39.28,5.7-12.57,4.96-26.07,6.19-39.28ZM546.22,1251.03c3.73-10.14,7.87-20.29,8.33-31.42-2.02,10.65-8.04,20.16-8.33,31.42Z"/>
  </g>
</svg>