<?xml version="1.0" encoding="UTF-8"?>
<svg id="Layer_1" data-name="Layer 1" xmlns="http://www.w3.org/2000/svg" viewBox="0 0 1296 1728">
  <defs>
    <style>
      .cls-1 {
        fill: #d90000;
      }

      .cls-2 {
        fill: #fff;
      }
    </style>
  </defs>
  <path class="cls-2" d="M791.8,591.54l17.06-58.68,1.58-98.03c.38-10.75.57-26.47-.52-45.44-1.13-19.64-3.07-33.11-4.78-45.9-10.36-77.53-6.8-91.5-19.13-129.1-6.59-20.11-12.39-37.81-17.21-37.3-8.36.89-13.78,56.47-3.4,281.68-2.86,21.46-5.73,42.92-8.59,64.38,2.86-21.46,5.73-42.92,8.59-64.38-8.43-1.51-16.86-3.02-25.29-4.53-3.49-52.69-6-95.01-7.65-124.14-1.35-23.91-1.7-31.33-2.87-43.99-4.46-48.4-15.4-114.02-21.99-113.8-6.58.22-12.42,66.2-14.26,286.67h0c-6.09-.88-12.17-1.76-18.26-2.65-1.91-48.77-3.83-97.54-5.74-146.31-4.97-57.99-10.07-87-15.3-87.02-8.53-.04-17.41,76.89-26.64,230.78-1,2.13-2.01,4.26-3.01,6.39-1.32-.62-2.64-1.24-3.96-1.87-6.04-2.86-11.36-6.27-16.06-10.11-72.92-59.51-13.45-235.86-4.85-260.57,13.04,74.83,16.46,173.99-24.07,275.24-4.49,11.22-9.32,21.97-14.41,32.25,11.62,24.85,23.23,49.69,34.85,74.54l73.25,116.91-53.24,484.45-70.3,422.81,42,79.82,89.99-21.22,2.86-120.25-16.25-229.26,8.32-225.73,21.12-472.62,98.15-13.02Z"/>
  <path class="cls-1" d="M605.79,217.78c4.71,9.89,1.71,20.5,2.17,30.65,1.09,24.21.11,48.52-.07,72.79-.22,31.65-.93,63.31-.45,94.95.16,10.49-1.78,21.07.98,31.61,1.7,6.49,6.26,7.46,11.41,7.8,5.16.34,7.07-3.21,8.25-7.67,3.86-14.63,1.85-29.61,2.66-44.41,1.5-27.55,1.8-55.15,3.54-82.72,2.39-37.92,4.17-75.88,5-113.89.41-18.96,1.52-37.99,1.92-56.91.51-24.37,2.38-48.71,2.15-73.1-.12-12.26.73-24.54,1.59-36.79.31-4.42,3.05-8.1,6.49-12.3,8.35,21.89,6.74,43.87,8.35,65.56,1.37,18.58,2.51,37.24,2.62,55.76.18,31.33,3.84,62.74-.63,94.05-.67,4.69.14,9.63-.77,14.25-.56,2.84,4.88,7.23-2.29,8.77-5.67,1.22-4.43,7.6-6.64,11.44-6.52,11.29-5.77,15.79,5.84,19.85,10.63,3.73,11.85,11.22,12.23,19.85.78,17.72,1.09,35.46,1.64,53.19.53,16.77,1.69,33.55,1.44,50.31-.13,8.49.5,16.92.38,25.37-.12,8.73,4.9,13.18,12.52,11.77,6.66-1.23,8.95-8.13,9.06-14.65.23-13.01.09-26.04.01-39.06-.2-33.6.98-67.17,1.68-100.75.72-34.16.46-68.37.58-102.55.1-28.46.16-56.92.58-85.38.39-26.09.52-52.19.68-78.28.02-2.81.13-6.14,2.66-7.06,3.36-1.22,5.3,2.12,6.57,4.66,2.26,4.49,2.69,9.31,3.02,14.47,1.58,24.45,4.77,48.81,5.97,73.28,1.18,24.04,3.89,48.03,2.5,72.21-.57,9.9.89,19.92,1.66,29.88,1.05,13.58-.17,27.23-.25,40.76-.06,9.84-6.91,19.73-11.09,29.44-4.41,10.27-.57,18.81,10.53,18.51,9.16-.24,10.14,4.08,10.84,10.65,3.83,35.94,6.44,71.98,8.49,108.05.32,5.64,1.04,11.24,1.57,16.83.66,6.95,3.77,9.27,10.16,9.61,6.3.34,7.59-2.85,8.84-8.39,3.12-13.82.86-27.65,1.14-41.44.4-19.78-.29-39.58-.82-59.37-.96-36.1.21-72.21-.98-108.33-1.03-31.38-.43-62.82-.75-94.23-.33-31.78-1.11-63.56-1.12-95.34,0-4.35-.12-8.75-.09-13.12.01-2.19.41-4.48,2.84-5,2.91-.62,3.25,2.05,3.78,3.96,6.48,23.29,10.43,46.99,12.64,71.07,1.02,11.1,3.94,22.01,4.75,33.22,1.11,15.49,2.85,30.95,3.59,46.45.2,4.16.1,8.24,1.29,12.25,2.96,9.96,5.74,21.12,3.14,30.28-3.1,10.95-5.15,22.91-12.01,32.74-6.23,8.93-5.21,13.31,4.09,19.25,13.11,8.37,18.12,21.28,19.82,36,1.79,15.54,3.75,31.06,5.48,46.6,2.14,19.28,4.36,38.53,5.62,57.92,1.45,22.31,3.29,44.62,2.7,66.96-.58,22.19-.53,44.41-2.73,66.58-.57,5.74-1.32,11.5-2.01,17.23-1.62,13.44-8.63,22.35-21.41,27.87-8.86,3.83-15.42,12.11-24.84,15.45-12.45,4.43-22.91,13.04-35.95,16.42-9.93,2.57-15.27,9.1-17.32,20.03-4.28,22.87-10.43,45.27-11.01,68.86-.74,30.03-3.23,60.01-4.7,90.02-2.01,41.17-4.08,82.35-5.52,123.55-1.22,35-1.58,70.02-2.34,105.03-.47,21.47-1.22,42.94-1.4,64.42-.16,19.01.21,38.02.5,57.03.35,22.94.46,45.89,1.39,68.81,1.19,29.47,1.18,58.97,3.96,88.4,2.13,22.6,1.92,45.41,3.84,68.03,2.69,31.74,5.96,63.44,9.92,95.07,3.18,25.45,4.83,51.09,7.34,76.63,1.58,16.07,4.31,32.08,5,48.18.62,14.38-.53,28.87-1.57,43.26-.4,5.5-4.75,9.49-8.88,12.95-16.12,13.49-32.64,26.39-52.08,35-5.73,2.54-11.67.97-17.41,1.38-20.82,1.49-41.71,1.44-62.58,3.3-8.47.76-17.13-5.49-23.25-11.55-7.74-7.67-17.64-11.92-25.76-18.87-3.08-2.63-4.93-5.09-6.76-8.48-11.22-20.79-6.1-41.91-1.86-63.08,3.41-17.03,5.61-34.42,10.51-51.01,4.52-15.31,7.68-30.89,11.2-46.34,5.94-26.03,12.26-52,17.14-78.3,1.81-9.75,4.56-19.53,6.8-29.31,2.95-12.86,5.79-25.75,8.39-38.69,7.54-37.39,11.18-75.38,16.55-113.09,5-35.1,8.7-70.46,11.13-105.93,1.83-26.66,5.46-53.19,8.43-79.76,2.92-26.1,2.66-52.35,4.05-78.52,1.99-37.17,3.17-74.38,5.16-111.54,3.76-70.43,7.64-140.86,11.99-211.26.77-12.43-1.55-20.15-14.5-25.35-14.92-5.99-29.5-13.98-42.39-23.57-15.74-11.71-27.43-27.28-25.87-48.71,2.88-39.4,2.79-78.92,6.36-118.32,2.55-28.12,5.25-56.25,7.37-84.41,2.76-36.63,5.32-73.24,9.7-109.74,4.2-35.08,5.78-70.49,10.66-105.46,3.65-26.12,5.12-52.56,10.71-78.43,1.42-6.57,1.82-13.37,2.54-20.08.45-4.19,1.75-8.07,6.39-8.4,5.38-.37,5.88,3.96,5.93,8.05.2,15.75.21,31.51.56,47.25.36,15.84-.63,31.66-.35,47.52.2,11.34,1.34,22.87-1.46,34.75-2.59,11.03-3.22,23.86,2.64,35.17,1.99,3.84.32,6.88-1.72,9.93-.46-2.85-.92-5.69-1.38-8.53-.6.12-1.19.24-1.79.35-.13,6.45-.26,12.9-.39,19.36.68.06,1.37.13,2.05.19.51-3.88,1.02-7.77,1.53-11.65ZM739.11,488.21c.95,5.03.44,10.31,8.81,9.92,14.59-.68,14.69-.1,14-14.93-.2-4.43-.65-8.88-1.39-13.25-1.29-7.63-7.63-6.99-13.09-7.48-6.32-.57-4.91,4.31-5.41,7.9-.77,5.54-1.69,11.07-2.55,16.6-3.38-4.54-1.04-9.85-1.91-14.77-1.72-9.8-7.98-14.42-17.54-11.45-4.39,1.36-8.78,2.16-13.19,1.61-5.7-.71-8.33,1.31-8.45,7.01-.19,8.89-.42,17.78-.81,26.66-.31,7.18-.48,14.48-9.16,17.42-2.02.68-5.21,1.7-4.11,4.58,1.09,2.85,3.99,1.33,6.3,1,11.61-1.66,23.21-3.98,34.88-4.54,11.75-.57,12.71-.77,11.29-12.54-.58-4.82-.62-9.52,2.31-13.73ZM644.97,1142.99c-2.03-4.37-4.28-3.46-7.23-.32-3.21,3.42-5.3,7.26-5.72,11.84-.65,7.11-.87,14.25-1.49,21.37-2.06,23.95-3.48,47.98-6.52,71.81-3.49,27.38-6.54,54.81-11.37,82.04-5.07,28.56-7.73,57.54-12.82,86.09-5.62,31.45-12.73,62.62-16.67,94.37-1.54,12.38-4.34,24.61-5.73,37-1.53,13.64,5.89,22.04,17.68,19.96,5.43-.96,10.61-1.02,15.88-.4,10.57,1.24,21.07,3.14,31.66,4.16,11.24,1.08,23.41-3.65,23.08-15.78-.51-18.92-.15-37.87-1.02-56.77-1.1-23.92-3.52-47.78-4.54-71.7-1.71-39.96-2.44-79.96-4.23-119.91-.96-21.42.05-42.83-.59-64.22-.63-21.11-1.44-42.23-3.02-63.28-.92-12.22.48-25.13-7.34-36.24ZM669.85,470.71c.92.05,1.84.1,2.77.15-.05,2.92.11,5.86-.2,8.75q-1.95,18.18,15.99,17.59c.29,0,.57.16.87.21,3.26.46,4.68-1.69,4.26-4.21-1.24-7.34.51-14.58.26-21.8-.19-5.49-3.03-9.96-9.74-10.62-11.86-1.18-23.28-10.09-35.73-1.72-.96.64-3.34-.77-5.04-1.29-10.2-3.13-12.38-1.62-13.02,8.64-.85,13.47-1.38,26.99-2.99,40.38-.77,6.42,1.58,8.76,7.12,9.8,10.4,1.95,21.04-.68,31.47,1.85,2.09.51,6.61-1.42,4.19-4.58-3.51-4.59-1.68-9.32-1.77-13.72-.21-9.79.95-19.61,1.56-29.41ZM575.13,505.36c.55.51,2.87,2.83,5.37,4.93,7.06,5.93,18.09,3.04,20.05-5.77,1.48-6.62,4.45-7.14,10.42-6.09,5.03.88,12.26,1.59,13.6-5.51,1.53-8.07,1.13-16.53,1.41-24.82.14-4.13-1.42-6.92-6.27-6.55-5.76.44-10.2-1.99-14.2-6.08-4.03-4.1-9.1-4.12-12.36.5-5.91,8.38-14.16,14.44-20.6,22.24-8.79,10.64-8.64,15.24,2.58,27.14ZM759.05,511.58c12.18,2.66,23.54,2.47,34.82,2.25,13.77-.27,15.52-3.09,15.96-17.57.16-5.27-.48-10.46-.3-15.55.21-5.93-1.8-7.76-6.88-7.33-7.35.61-14.12-1.74-20.88-3.83-13.6-4.19-15.84-2.48-16.2,11.91-.25,10.18-.27,20.54-6.52,30.13ZM650.88,1630.41c5.7-5.15,7.5-10.66,7.99-17.34.37-5.18-1.23-6.59-5.8-7.69-18.77-4.51-37.11-1.79-55.39,2.64-5.87,1.42-7.2,6.82-8.54,11.61-1.23,4.38,1.61,7.97,5.19,9.45,16.85,6.99,34.2,9.7,52.07,4,1.93-.61,3.57-2.11,4.48-2.66ZM604.19,247.57c-2.11.16-4.11-.23-5.5.51-5.37,2.87-6.68,21.61-1.82,25.4,2.98,2.32,6.78,1.71,6.43-2.03-.51-5.45,2.99-10.22,1.46-15.65-.69-2.45-.39-5.18-.56-8.23Z"/>
</svg>