<?xml version="1.0" encoding="utf-8"?>
<!-- Generator: Adobe Illustrator 27.6.1, SVG Export Plug-In . SVG Version: 6.00 Build 0)  -->
<svg version="1.1" id="Layer_1" xmlns="http://www.w3.org/2000/svg" xmlns:xlink="http://www.w3.org/1999/xlink" x="0px" y="0px"
	 viewBox="0 0 612 463.4" style="enable-background:new 0 0 612 463.4;" xml:space="preserve">
<style type="text/css">
	.st0{fill:#D90000;}
	.st1{fill:none;stroke:#FFFFFF;stroke-width:15;stroke-linecap:round;stroke-linejoin:round;}
</style>
<g>
	<path class="st0" d="M46.7,224.6c1.3-0.6,1.6-1.6,1.5-2.9c-0.4-16.5,0.2-33.1,0.3-49.6c0.1-14.5-0.5-29-0.2-43.6
		c0.2-11.1-0.3-22.2,0.1-33.3c0.3-8.4-0.2-16.8-0.2-25.1c0-7.6,0.2-15.2,0.3-22.9c0.1-8.2,0.2-16.4,0.3-24.5c0-1.2-0.4-2.4,0.9-3.6
		c1.4,4.8,1,9.6,0.9,14.2c-0.1,6.5,0,13,0.4,19.6c0.6,10.4-0.2,20.7-0.2,31.1c0,13.6-0.1,27.2,0,40.8c0.2,25.2,0.3,50.4,0.7,75.6
		c0.2,12.4-0.1,24.7-0.2,37.1c0,19.2,0.4,38.4,0.5,57.6c0.1,27.2,0.2,54.4,0.1,81.6c0,2.7,0.7,4.2,3.2,5c3.3,1.1,5.6,3.5,8.1,5.9
		c2.8,2.7,5.8,5.7,10.8,3.7c4-1.6,8.2-2.3,11.6,2.3c0.8,1,4.3,1.6,6.7,1.5c2.4-0.1,4.6,0.3,6.9,0.8c0.7,0.2,1.7,0.5,2.3,0.3
		c3-1.4,4.9-0.1,7.6,1.5c2.6,1.6,6.5,1.3,9.8,1.2c1.8-0.1,4.2,0.3,5.3-2.5c0.3-0.9,3.2-1.4,3.6,1.2c0.3,2.1,1.3,2.6,3.2,2.3
		c3.8-0.6,7.4,0.6,11.1,1c2.5,0.3,3.5,2.6,5.4,3.8c3.7,2.3,10.9,2.2,13.9-0.7c1.3-1.2,7.1-1.2,8.8,0.3c1.8,1.5,3.6,2.7,6,3
		c0.6,0.1,1.3,0.5,1.7,0.9c2.5,2.9,6.3,3.6,9.2,5.6c1.9,1.3,3.6,3,5.9,3.8c4.3,1.6,8.4,3,13.2,1.8c2.2-0.5,4.4,0.4,5.5,2.6
		c0.5,1.1,1.3,2,2,3c3.7,4.7,9,6,14.5,7.5c4.5,1.3,9.3,0.2,13.6,2.7c2,1.2,4.8,1.2,7-0.1c1.7-1,3.1-0.1,4.3,0.5
		c6.1,3,12.2,4.8,18.3,0.1c2.5-1.9,5.4-2.2,8.4-1.8c4.2,0.6,8.5,1.1,12.7,1.8c1,0.2,1.7,0,2.5-0.4c1.4-0.7,2.6-0.4,3.7,0.5
		c2.1,1.6,4.8,2,6.9,3c3.9,1.9,7.1-0.2,10.5,0c2.8,0.1,5-1,7.5-1.2c2.4-0.2,3.6,3.1,6.2,3.6c-2,1.3-3.7,0.8-5.4-0.3
		c-1.4-0.9-2.8-1.4-4.2-0.1c-1,0.9-2.4,0.7-3.5,0.6c-2.9-0.2-5.7,0.2-8.4,1.2c-2.5,0.9-4.8-0.5-6.8-1.7c-3-1.7-5.5-3.2-9.5-2.9
		c-3.6,0.3-7.8-1-11.6-1.8c-3.5-0.7-6.5-0.1-9.4,1.9c-6.1,4.3-12.4,5.3-18.8,0.5c-1.7-1.3-3.5-1.8-5.5-0.4c-0.9,0.6-2,0.5-2.9,0.3
		c-7.3-1.5-14.8-2.5-21.7-4.9c-3.9-1.4-8.7-2.8-10.7-7.9c-1.1-2.7-3.9-4.1-7.2-3.8c-6.5,0.6-12.2-1.5-17.7-5.1
		c-4-2.6-8.8-3.5-13.5-2.9c-4.9,0.6-9.4-0.9-13.6-3c-3.6-1.8-6.9-2.6-11-2c-3.9,0.6-7.9,0.6-11.8,1.1c-1.2,0.2-2.5-0.2-3-1
		c-1.6-2.5-4.3-3.3-6.5-4.9c-4.1-3.2-8.3-2.7-12.8-1.5c-2.9,0.8-5.9,1-8.8-0.2c-1.9-0.8-3.8-0.8-5.7,0.1c-2.1,1-4.3,1.1-6.3-0.2
		c-2.1-1.4-4.2-2.3-6.8-1.9c-1,0.1-1.7-0.4-2.5-0.8c-3.8-1.8-7.5-3.7-11.8-4.3c-5.7-0.8-9.5-4.8-13.3-8.6c-2.6-2.6-5.6-3.8-9.2-3.2
		c-1.4,0.2-2.4-0.1-3.3-1C46.7,330,46.7,277.3,46.7,224.6z"/>
	<path class="st0" d="M539.7,29.5c-4.2,2-8.3,0.9-12.3,1.3c-0.7,0.1-1.3,0-2,0.1c-0.9,0.2-2.3,0.2-2,1.6c0.2,1.1,1.5,0.7,2.3,0.7
		c5.9-0.1,11.9-0.2,17.8,0.3c0.3,0,0.6,0.1,1.7,0.4c-3.8,0.9-6,2.7-7.7,5.4c-1,1.6-3.1,1.5-4.8,1.9c-6.5,1.6-13.1,1.3-19.8,1.4
		c-13.7,0.2-27.3-0.4-41-0.3c-7.5,0.1-15,0.1-22.5,0.5c-5.1,0.2-10.3-0.6-15.5-0.4c-12.8,0.5-25.6-0.4-38.4,0
		c-5.7,0.2-11.5,0.9-17.1,0.6c-8.6-0.5-17.2,0.7-26-0.5c-8.2-1.1-16.9-1.1-25.4-1c-5.3,0.1-10.7,0.8-16.1,0.4c-2.2-0.1-4.7,0.7-7,1
		c-3,0.4-5.9,0.2-8.9,0c-4.7-0.3-9.2,2.1-13.9,1.7c-5.5-0.4-11-0.2-16.4-1.7c-3.3-0.9-7-0.5-10.5-0.5c-2.2,0-4.4,0.4-6.6,0.6
		c-0.3,0-0.7,0-1,0.1c-6.4,4.4-13.8,2-20.7,3c-2.9,0.4-6,0.2-8.9,0.6c-3.9,0.5-7.6-0.3-11.4-0.8c-4.1-0.6-8.4,0.1-12.5-0.5
		c-6.6-0.9-13.1,0.4-19.5-0.2c-6.3-0.6-12.4,0.7-18.5,0c-4.9-0.6-9.8-1.2-14.7-0.4c-7.1,1.1-14.2,0.9-21.4,1.2
		c-3.4,0.1-6.7,0.2-10.1,0.3c-2.2,0.1-3.9,2.3-6.4,2.1c-0.6,0-1.5,0.5-1.9,0.2c-4.3-2.3-8.8-0.3-13.2-1.1C80.6,46.4,73.8,47.2,67,48
		c-4.1,0.4-8.1-0.2-12-1.8c-2.3-0.9-3-2.3-2.9-4.5c0.1-2.4,0.1-4.9,0-7.3c-0.1-3.3,1.7-4.5,4.6-3c1.4,0.7,2.8,0.8,4.2,0.7
		c14-0.5,28,0.4,42.1-0.3c3.1-0.2,6.4-0.8,9.5,0.6c0.4,0.2,0.9,0.2,1.3,0.1c7.2-2.6,14.8-1.7,22.2-3.3c2.6-0.6,5.3-0.5,7.9-0.1
		c5,0.8,10.1-0.1,15.2,0.2c13,1,26.1-1,39.1-0.3c4.1,0.2,8.2,0.3,12.2,1.2c5.4,1.2,10.8,0.2,16.1,0.4c2.7,0.1,5.5-0.2,7.9,1.5
		c1,0.7,2,1.1,2.4-0.7c0.3-1.1,1.5-1,2.2-0.9c4.1,0.6,8.3,0.1,12.5,0.6c3.3,0.4,7-0.8,10.4-0.6c6.9,0.4,13.8-1,20.6-0.3
		c5.9,0.6,11.6-1.1,17.4-0.2c7.8,1.3,15.7-0.2,23.5-0.2c9.2,0,18.5-0.2,27.8-0.4c8-0.1,16.1,0.4,24-0.2c8.2-0.6,16.5-0.8,24.7-1.5
		c8.9-0.8,17.9-0.3,26.8-0.1c1.9,0,3.7-0.2,5.6-0.2c13.2,0.2,26.4,1.2,39.6,1.8c6.3,0.3,12.6-0.2,18.9,0.2c6.4,0.4,12.7-0.8,19-0.1
		c6.3,0.7,12.4-1.2,18.5-0.3C532.1,29.5,535.8,28.5,539.7,29.5z"/>
	<path class="st0" d="M549,312.8c-4.9,0.6-9.3,0.2-13.6,0.3c-9.8,0.1-19.6,0.3-29.4,0.3c-2.6,0-3.1,1.1-3.1,3.4
		c0.1,10.8,0.1,21.7,0,32.5c-0.1,3.3,1.3,4.1,4.3,4.1c12.8-0.1,25.7-0.1,38.5-0.1c0.9,0,2-0.4,2.9,0.7c-1,1.1-2.3,0.7-3.3,0.7
		c-12.8,0-25.7,0.1-38.5-0.1c-3,0-3.9,0.8-3.9,3.9c0.2,10.9,0.1,21.9,0.1,32.8c0,7.3,0,14.6-0.7,21.9c0-4.7-0.1-9.5,0.1-14.2
		c0.1-2.4-0.8-3.1-3-3.1c-17.9,0.1-35.8,0.1-53.8,0.1c-1.9,0-2.5,0.5-2.5,2.4c0.1,5.8,0,11.5,0.1,17.3c0.1,2.2-0.6,4.3-0.2,6.6
		c0.8,3.9,0.4,4-4.1,3.9c1.7-3.2,0.9-6.6,1-9.9c0.1-5.1,0.1-10.2,0-15.3c-0.1-5.6,1-5-5.2-5c-11.6,0-23.2,0.3-34.8,0.3
		c-25.3,0.1-50.6,0-75.8,0.3c-48.2,0.6-96.5,0.5-144.7,0.6c-8.8,0-17.7,0.1-26.5,0.1c-0.7,0-1.6,0.3-1.9-1.3c4.9,0,9.6,0,14.4,0
		c21.7-0.1,43.4-0.3,65-0.4c28.3-0.1,56.6-0.2,84.9-0.4c25.8-0.1,51.5-0.3,77.3-0.4c14.8-0.1,29.6-0.1,44.4,0c2,0,3.1-0.2,3-2.6
		c-0.1-11.4-0.2-22.8-0.1-34.2c0-2.8-1.2-3.3-3.6-3.3c-27.7,0.1-55.3,0.2-83,0.3c-16.7,0.1-33.4,0.2-50,0.3
		c-32.3,0.1-64.5,0.1-96.8,0.3c-23.5,0.2-47.1,0.5-70.6,0.3c-5.4,0-5.6,0.3-5.5,5.9c0.1,8.4,0.1,16.8,0.1,25.2
		c0,0.9,0.3,1.9-0.7,2.9c-1.1-1-0.8-2.1-0.8-3.1c0-8.9-0.2-17.9-0.1-26.8c0-3.1-1.1-4-4.1-4c-12.6,0.1-25.2,0-37.8,0
		c-1,0-2.1,0.3-3.4-0.8c2.1-1,4-0.7,5.7-0.7c12.2-0.1,24.3-0.1,36.5,0c2.4,0,3.2-0.9,3.2-3.1c-0.2-11.5-0.4-22.9-0.5-34.4
		c0-2.6-1.3-2.8-3.4-2.8c-12.5,0.1-25,0.1-37.5,0.2c-0.7,0-1.3,0-2,0c-0.6,0-1.5,0.2-1.5-0.8c0-0.9,0.9-0.9,1.5-0.9
		c3.4-0.1,6.8-0.2,10.3-0.2c9.7-0.1,19.4-0.2,29.2-0.1c2.6,0,3.5-0.8,3.5-3.4c-0.1-11.2-0.1-22.3,0-33.5c0-2.6-1-3.1-3.3-3.1
		c-12.7,0.2-25.4,0.2-38.1,0.3c-1.1,0-2.4,0.5-3.4-0.8c0.9-1.4,2.2-0.7,3.3-0.7c12.6-0.1,25.2-0.1,37.8,0c3,0,3.7-0.8,3.6-3.7
		c-0.2-10-0.2-19.9,0-29.9c0-2.8-0.9-3.6-3.6-3.5c-12.6,0.2-25.2,0.2-37.7,0.3c-0.4,0-0.9,0-1.3,0c-1.1,0-2-0.1-1.9-1.6
		c0-1.6,1.2-1.4,2.1-1.4c8.9,0,17.9,0,26.8-0.1c17.5-0.1,34.9-0.1,52.4-0.1c2,0,2.8-0.6,2.7-2.6c-0.1-8.2,0-16.5,0-24.7
		c-0.1-11-0.2-22-0.3-33c0-5.1,0-5.1-5.1-5.1c-23.2,0.1-46.5,0.2-69.7,0.2c-2.4,0-4.9,0-7.3,0c-0.9,0-1.9,0.2-1.8-1.2
		c0.1-1.3,0.9-1.1,1.9-1.1c9.8,0,19.6-0.1,29.4-0.2c18.3-0.1,36.7-0.3,55-0.4c60.9-0.1,121.9-0.2,182.8-0.3c53-0.1,106-0.1,159-0.1
		c10.9,0,21.9,0,32.8,0.1c1,0,2.9-0.8,3,0.9c0.1,1.9-1.8,1-2.8,1c-6.4,0.1-12.8,0.1-19.3,0.1c-46.6,0-93.2,0-139.8,0
		c-7.6,0-15.2,0.1-22.9,0c-3,0-4.3,1-4.2,4.2c0.2,16.8,0.2,33.6,0.3,50.4c0,3.1,0.1,6.2,0,9.3c0,1.7,0.6,2.5,2.3,2.4
		c22-0.7,43.9-0.3,65.9-0.3c38.5-0.1,76.9-0.1,115.4-0.2c1.3,0,2.7-0.1,4-0.1c1,0,1.8,0.4,1.7,1.5c-0.1,1-1,1.1-1.8,1.1
		c-4.4,0-8.8,0-13.3,0c-9.1,0-18.1,0.1-27.2,0c-2.8-0.1-3.5,1-3.4,3.6c0.1,10,0.1,19.9,0,29.9c0,2.7,0.9,3.4,3.4,3.4
		c13.1-0.1,26.1-0.1,39.2-0.1c1.1,0,3-0.7,3.1,0.9c0,1.6-2,0.9-3,0.9c-12.9,0-25.9,0.1-38.8-0.1c-2.9,0-3.8,0.6-3.8,3.6
		c0.2,11.1,0.2,22.1,0.1,33.2c0,2.6,0.7,3.4,3.4,3.3c13-0.2,26.1-0.1,39.1-0.1C546.4,311.5,547.6,311.3,549,312.8z M284.8,272
		c0,0.2,0,0.3,0,0.5c-50.6,0-101.1,0-151.7-0.1c-2.8,0-3.4,1-3.3,3.5c0.2,10.7,0.3,21.4,0.4,32.1c0,4.5,0,4.6,4.5,4.6
		c42.6-0.1,85.1-0.1,127.7-0.2c42-0.1,84-0.2,126-0.3c16,0,32.1-0.2,48.1-0.1c2.4,0,3-0.4,3-2.8c0-11.2,0-22.5-0.1-33.7
		c0-2.9-0.5-3.8-3.5-3.8c-29.1,0.2-58.1,0.3-87.2,0.3C327.5,272,306.1,272,284.8,272z M285.1,313.5c0,0.1,0,0.2,0,0.2
		c-27.3,0-54.6-0.1-81.9,0c-23,0.1-45.9,0.3-68.9,0.4c-3.1,0-4.2,0.9-4.1,4.2c0.2,10.1,0.2,20.3,0.2,30.5c0,5.5-0.1,5.6,5.6,5.5
		c18-0.1,36-0.3,54-0.4c18.4-0.1,36.8,0,55.1-0.1c17.7-0.1,35.3-0.3,53-0.4c46.1-0.1,92.2-0.1,138.3,0c2.7,0,3.4-0.9,3.3-3.5
		c-0.1-11.3-0.1-22.5-0.1-33.8c0-2.3-0.9-2.9-2.9-2.8c-3.4,0.1-6.9,0.2-10.3,0.2C379.4,313.5,332.2,313.5,285.1,313.5z M284.6,270.7
		c0-0.1,0-0.2,0-0.2c13.6,0,27.2,0,40.8,0c20.9,0,41.7-0.1,62.6-0.1c15.8,0,31.6-0.2,47.3-0.1c3.2,0,4.6-0.9,4.3-4.2
		c-0.7-9.3,0-18.7-0.2-28c-0.1-4.8-0.3-4.8-5.2-4.8c-20,0-40,0-60.1,0c-46.4,0.1-92.8,0.3-139.2,0.4c-12.6,0-25.2,0.1-37.7,0.2
		c-20.8,0.1-41.5,0.2-62.3,0.3c-5.2,0-5.3-0.1-5.3,5.3c0,9.1,0.1,18.1,0.1,27.2c0,4.5,0,4.6,4.7,4.5c33.4-0.1,66.7-0.3,100.1-0.4
		C251.3,270.6,268,270.7,284.6,270.7z M310.4,231.2c0-0.1,0-0.2,0-0.3c14.1,0,28.3,0,42.4,0c4.4,0,4.4,0.1,4.4-4.3
		c-0.1-8.2-0.1-16.3-0.1-24.5c0-10.9,0-21.9-0.1-32.8c0-4.5-0.2-4.5-4.7-4.4c-10.8,0.1-21.6,0.2-32.4,0.1c-17.7-0.2-35.3,0.2-53,0.4
		c-2.3,0-3,0.7-3,3.1c0.2,20,0.2,40,0.2,60c0,2.2,0.8,2.8,2.9,2.8C281.4,231.2,295.9,231.2,310.4,231.2z M215.8,231.3
		C215.8,231.3,215.8,231.3,215.8,231.3c14.5-0.1,29-0.1,43.4,0c2.3,0,3.3-0.4,3.3-3.1c-0.1-19.9-0.1-39.8,0-59.7
		c0-2.5-0.7-3.3-3.2-3.2c-5.1,0.2-10.2,0.2-15.2,0.2c-23.7-0.1-47.5,0-71.2,0.4c-2.8,0.1-3.5,1-3.5,3.7c0.1,19.5,0.1,38.9,0,58.4
		c0,2.9,0.9,3.4,3.6,3.4C187.3,231.2,201.6,231.3,215.8,231.3z M472.5,353.3C472.5,353.3,472.5,353.3,472.5,353.3
		c8.5,0,17-0.1,25.5,0.1c3.3,0.1,4.2-1.1,4.1-4.2c-0.2-11-0.2-22.1-0.2-33.1c0-2.4-0.9-3-3.2-3c-17.6,0.1-35.1,0.2-52.7,0.3
		c-2.2,0-3.1,0.6-3.1,3c0.1,11.2,0.1,22.3,0,33.5c0,2.5,0.6,3.5,3.3,3.5C455,353.2,463.8,353.3,472.5,353.3z M472.7,394.7
		C472.7,394.7,472.7,394.7,472.7,394.7c8.8,0,17.7,0,26.5,0.1c2.3,0,3.1-0.7,3-3c-0.1-11.4-0.2-22.8,0-34.1c0-2.3-0.5-3-2.9-3
		c-17.7,0.1-35.3,0.1-53,0.1c-2.3,0-3.3,0.6-3.3,3.1c0.1,11.4,0.1,22.8,0,34.1c0,2.2,0.7,2.8,2.8,2.8
		C454.8,394.6,463.7,394.7,472.7,394.7z M472.2,311.8c0-0.1,0-0.1,0-0.2c8.9,0,17.9-0.1,26.8,0c2,0,2.6-0.5,2.7-2.6
		c0.2-9.9,0.3-19.8,0-29.7c-0.2-7.7,0-7.7-7.6-7.6c-16,0-32,0.1-48.1,0c-1.8,0-3.2,0-3.2,2.5c0.1,11.8,0.1,23.7,0.1,35.5
		c0,1.8,0.7,2.1,2.4,2.1C454.3,311.7,463.3,311.8,472.2,311.8z M472.5,270C472.5,270,472.5,270,472.5,270c8.7,0,17.4,0,26.2,0.1
		c2.1,0,3.2-0.4,3.1-2.9c-0.2-10.4,0.4-20.7-0.1-31.1c-0.1-2-0.4-2.9-2.7-2.9c-17.7,0.1-35.4,0.1-53,0c-2.4,0-3,0.8-3,3
		c0.1,9.8,0.1,19.7,0.1,29.5c0,4.2,0,4.2,4.3,4.2C455.7,270,464.1,270,472.5,270z"/>
	<path class="st0" d="M351.6,122.5c0.5,11.9-12.3,19.6-24.1,15c-5.5-2.1-5.4-2.3-5.2-7.6c0-0.7-0.4-1.7,0.4-2.1
		c0.9-0.5,1.6,0.4,2.3,0.9c3.3,2.6,6.9,3.6,11.1,2.7c7.6-1.6,12.2-8.7,7.4-17.1c-2.8-4.9-6.2-9.3-9.4-13.9c-2.8-4-5.5-8.2-7.3-12.8
		c-2-5-1.9-10,1.6-14.3c3.6-4.4,8.3-5.9,13.8-4.7c2.5,0.5,4.2,2.3,6.1,3.8c0.8,0.6,0.8,1.6-0.2,2.2c-1.3,0.8-1.7,3.3-4,2.3
		c-0.7-0.3-1.4-0.7-2.1-1c-3.8-1.9-6.3-1.7-8.8,0.7c-1.7,1.6-1.8,5.7-0.4,8.7c2.6,5.5,6.2,10.3,9.5,15.3c3.5,5.4,6.7,11,8.7,17.2
		C351.6,119.2,351.5,120.9,351.6,122.5z"/>
	<path class="st0" d="M166.1,106.8c0,9.5-0.2,19,0.1,28.5c0.1,3.4-1.8,2.9-3.9,3.1c-2.4,0.2-2.9-0.7-2.9-3c0.1-18.3,0.1-36.6,0-55
		c0-5.6,0-5.6-5.7-5.7c-0.9,0-1.8-0.1-2.6,0c-3,0.5-3.8-0.8-3.6-3.6c0.1-2,0.6-2.6,2.6-2.6c8.5,0.1,17,0.1,25.5,0
		c3.3-0.1,2.3,2.1,2.5,3.8c0.2,1.9-0.4,2.7-2.5,2.6c-9.5-0.3-9.5-0.2-9.5,9.1C166.2,91.6,166.2,99.2,166.1,106.8
		C166.1,106.8,166.1,106.8,166.1,106.8z"/>
	<path class="st0" d="M548.5,21.4c-16.3,1.5-32.5,0.9-48.8,1.4c-22.2,0.7-44.4-0.7-66.6-1c-18.1-0.2-36.2,0.7-54.3,1.7
		c-18.3,1-36.7,0.4-55.1,0.6c-20.5,0.2-40.9,0-61.4,0.3c-19.9,0.3-39.8,0.9-59.7,0c-18.1-0.8-36.3,0.2-54.4-0.5
		c-13.6-0.6-27.1,1.9-40.7,2c-18,0.2-36.1,0.1-54.1,0.2c-0.5,0-1.1,0.1-1.5-1.3c5.1,0,10.1,0,15.1,0c16,0,32.1,0,48.1-0.2
		c11.4-0.2,22.7-2.3,34-1.9c22.2,0.7,44.4-0.3,66.6,1.3c11.7,0.8,23.4-0.5,35.1-0.8c11.3-0.3,22.5-0.2,33.8-0.3
		c30.4-0.1,60.8,0.1,91.2-0.2c11.8-0.1,23.6-1.2,35.4-1.9c16.3-0.9,32.7,0,49,0.7c18.7,0.8,37.3,0.1,56,0
		C527.1,21.4,537.8,21.4,548.5,21.4z"/>
	<path class="st0" d="M191.9,93.2c11.2,0,20.8,9.6,20.6,20.9c-0.2,11.5-9,20.8-21.1,20.7c-11.2-0.1-20.5-9.6-20.5-20.7
		C170.9,102.6,180.4,93.2,191.9,93.2z M175.4,114c-0.3,8.9,7.7,16.5,16.5,16.5c8.6,0,16.4-7.8,16.2-16.2
		c-0.2-9.4-7.3-16.4-16.4-16.6C183.4,97.4,175,105.2,175.4,114z"/>
	<path class="st0" d="M237.9,113.4c0,11.3-9,20.8-19.4,21c-1.9,0-2.8-0.3-2.7-2.5c0.1-12,0.1-24,0-36.1c0-1.9,0.4-2.8,2.6-2.6
		c7.5,0.5,15.9,6.1,18.2,13.9C237.3,109.3,238.3,111.4,237.9,113.4z M220.3,114.2C220.4,114.2,220.4,114.2,220.3,114.2
		c0.1,4.5,0.1,9.1,0.1,13.6c0,1.5,0.4,2,2,1.5c5.7-1.6,10.6-8,11-13.9c0.7-8.5-5.1-14.8-10.4-16.6c-2.2-0.8-2.7-0.4-2.7,1.7
		C220.4,105.1,220.3,109.7,220.3,114.2z"/>
	<path class="st0" d="M238.8,134.4c-1.5,0.2-2.2-0.2-1.7-2.2c2-7.6,4.3-15.2,5.7-22.9c0.9-4.9,2.6-9.7,3.9-14.6
		c0.2-0.7,0.3-1.3,1.1-1.4c1.4-0.1,1.6,1.1,1.8,2c1.2,4.9,2.4,9.8,3.6,14.7c1.8,7.2,3.6,14.4,5.4,21.7c0.2,0.9,1.6,2.2-0.3,2.6
		c-1.2,0.2-3,1.1-3.9-1.1c-0.6-1.4-0.2-3.8-2.1-4.1c-2.8-0.4-5.7-0.3-8.6-0.2c-1.7,0.1-1.3,1.9-1.6,2.9
		C241.3,134.4,241.4,134.4,238.8,134.4z M247.9,108.4c-1.2,4.9-2,9-3.3,13c-0.8,2.5-0.3,3.2,2.2,2.9c0.2,0,0.4,0,0.7,0
		c4.3,0,5-1,3.7-5C250.1,116,249.1,112.6,247.9,108.4z"/>
	<path class="st0" d="M425.7,134.5c2.3-8.8,4.5-17.2,6.5-25.5c1.1-4.4,1.9-8.8,3-13.1c0.2-1,0.2-2.7,2-2.5c1.8,0.2,1,1.7,1.3,2.6
		c3,11.5,6,23,8.9,34.6c0.3,1.2,1.6,3.1-0.5,3.8c-2.1,0.7-3.9,0.2-3.9-2.8c0-1.6-1.1-2.8-3.1-2.7c-1.6,0.1-3.3-0.1-4.9-0.1
		c-2.2,0-3.8,0.5-4,3.3C430.8,135.6,427.9,133.9,425.7,134.5z M437.2,109.6c-0.3,0-0.6,0.1-0.8,0.1c-0.9,3.8-1.7,7.7-2.6,11.5
		c-0.6,2.5,0.5,3.3,2.6,3c1.4-0.2,4.2,1.3,4-1.7C440.1,118.1,438.7,113.8,437.2,109.6z"/>
	<path class="st0" d="M377.3,113.8c0-6,0.1-11.9-0.1-17.9c-0.1-2.3,0.7-2.8,2.8-2.7c4.2,0.1,8.4,0.1,12.6,0c1.6,0,2.7,0.1,2.6,2.3
		c-0.1,1.9-0.7,2.4-2.5,2.3c-3-0.1-6,0.1-8.9,0c-2.9-0.1-2.1,1.9-2.1,3.4c-0.1,1.6-0.5,3.5,2.2,3.4c2-0.1,4,0.1,6,0
		c1.9-0.1,2.2,0.8,2.2,2.4c0.1,1.7-0.6,2.2-2.1,2.1c-0.2,0-0.4,0-0.7,0c-7.6,0.3-7.7,0.3-7.7,7.9c0,3.3,0.2,6.6,0.1,9.9
		c0,2.2,0.6,3.2,3,3c2.7-0.2,5.5,0.1,8.3-0.1c1.8-0.1,2.2,0.7,2.3,2.3c0.1,1.8-0.5,2.3-2.2,2.3c-4.5-0.1-9.1-0.1-13.6,0.1
		c-2.2,0.1-2.2-1.1-2.2-2.7C377.3,125.8,377.3,119.8,377.3,113.8C377.3,113.8,377.3,113.8,377.3,113.8z"/>
	<path class="st0" d="M253.1,93.7c4.6-2,6.6,1,8.3,3.9c1.8,3.1,4.4,5.7,6.1,8.9c1.3,2.4,2.4,1.8,3.5,0c2.5-3.7,5.2-7.3,7.5-11.2
		c1-1.7,2-2.5,3.9-2.2c1.8,0.3,3.2-0.5,4.3-1.8c0.9-1,1.9-2.1-0.2-3.1c-1.6-0.8-1-2.4-0.7-3.5c0.3-1.5,1.8-1,2.8-0.8
		c1.7,0.2,1,1.7,1.1,2.6c0.1,1.2,0,2.4,0,3.6c-0.1,1.2-0.3,2.7-1.6,3c-6.3,1.7-7.1,8.3-10.9,12.2c-0.8,0.8-1.2,1.8-1.9,2.7
		c-2.6,3.4-4.4,6.9-4,11.4c0.4,3.9,0.1,7.9,0.1,11.9c0,1.7,0,2.9-2.4,2.9c-2.2-0.1-2.2-1.3-2.1-2.8c0-3-0.4-6,0.1-8.9
		c1.2-7-2.2-12.2-6-17.4C258.4,101.5,255.9,97.7,253.1,93.7z"/>
	<path class="st0" d="M359.6,93.2c6.8,0.1,13.7,4.8,14.4,13c0.5,5.6-2.4,12.5-9.8,14.4c-2.6,0.7-3.5,2-3.2,4.7
		c0.2,2.3-0.1,4.6,0,6.9c0.1,1.8-0.7,2.2-2.4,2.1c-1.6,0-2.2-0.5-2.1-2.1c0.1-12.4,0.1-24.7,0.1-37.1
		C356.4,92.1,358.7,93.7,359.6,93.2z M360.9,107.6c0.1,0,0.1,0,0.2,0c0,2.4,0.1,4.9,0,7.3c0,1.6,0.2,2.2,2.1,1.5
		c3.5-1.3,6.5-4.9,6.8-8.5c0.2-3.2-2.5-7.1-5.6-9c-2.9-1.7-3.4-0.5-3.4,2.1C360.9,103.1,360.9,105.4,360.9,107.6z"/>
	<path class="st0" d="M289.5,127.2c1.5,0.8,2.5,1.4,3.6,1.9c2.9,1.5,5.6,1.1,8-1c2.3-2.1,2.2-4.4,0.8-7.1c-2.5-4.8-6.3-8.7-8.7-13.5
		c-1.8-3.6-3-7.1-0.2-10.8c2.6-3.4,7.1-4.4,10.5-2c1,0.7,2.5,1.4,1.4,3.1c-0.9,1.4-2,2-3.6,0.9c-1.6-1.1-3.3-1.4-4.8,0.3
		c-1.4,1.5-0.9,3.1-0.1,4.9c2.6,5.5,6.9,10.1,9.2,15.8c2,5,1.7,9.3-1.7,12.7c-2.6,2.5-9.2,3.2-12.8,1.2
		C288.5,132,290.1,129.6,289.5,127.2z"/>
	<path class="st0" d="M394.6,113.8c-0.6-11.9,11-20.6,19.4-20.6c1.6,0,3-0.3,3.1,2.2c0.1,2.4-1.1,2.3-2.8,2.4
		c-7.2,0.3-11.9,4.3-14.4,10.6c-2.2,5.4-1.2,10.7,2.4,15.5c3.2,4.2,7.4,6.1,12.4,6.5c1.9,0.1,2.5,0.8,2.4,2.6
		c-0.1,1.9-1.4,1.9-2.8,1.9C402.5,134.3,394,124,394.6,113.8z"/>
	<path class="st0" d="M450.5,113.9c0-5.9,0-11.7,0-17.6c0-1.7-0.3-3.2,2.4-3.2c2.5,0.1,2.2,1.6,2.2,3.1c0,10.1,0.1,20.1-0.1,30.2
		c0,2.7,0.9,3.5,3.4,3.4c2.8-0.1,5.5,0,8.3-0.1c1.7-0.1,2.3,0.7,2.3,2.4c0,1.8-0.6,2.3-2.3,2.2c-4.6-0.1-9.3-0.1-13.9,0
		c-1.7,0-2.3-0.5-2.3-2.3C450.5,126.1,450.5,120,450.5,113.9z"/>
	<path class="st0" d="M408.5,198.8c-0.3,6.5-0.5,13-4.8,18.4c-2.1,2.6-4.8,4.5-8.1,5.3c-0.7,0.2-1.9,0.6-2.3-0.5
		c-0.4-1.2,0.8-1.3,1.6-1.6c6.1-2.1,9-6.8,10.2-12.8c0.1-0.6,0.3-1.4-0.2-1.9c-0.5-0.4-1,0.2-1.5,0.3c-5.3,1.9-9-0.4-10.2-5.9
		c-0.6-2.8-0.7-5.4,0.1-8.1c1-3.3,4.5-5.9,7.9-5.7c2.9,0.2,6.3,3.5,6.8,6.5C408.3,194.8,408.7,196.8,408.5,198.8z M405.3,196
		c0-0.1,0-1,0-1.9c-0.2-2.6-2.5-5.1-4.7-5.1c-2.4,0.1-4.5,2.4-4.6,5.1c-0.1,1.9-0.1,3.7,0,5.6c0.2,2.8,2,4.5,4.7,4.3
		C403.8,203.9,405.4,201.3,405.3,196z"/>
	<path class="st0" d="M480.5,210.5c0.7-5,0-10.2,2.5-15.1c2.2-4.3,5.7-6.8,10-8.4c0.8-0.3,1.9-1.2,2.5,0.2c0.5,1.2-0.3,2-1.6,2.4
		c-4.5,1.3-7.2,4.4-9,8.5c-0.4,0.9-0.5,1.9-0.7,2.9c-0.3,2.2-0.4,3.4,2.7,2.4c3.6-1.2,7.1,1.1,8.5,4.9c2.3,6.4-0.2,13.4-5.4,14.5
		c-4.6,1-8.6-1-9-6C480.8,214.7,480.2,212.7,480.5,210.5z M483,212.8c-0.2,1.8,0.4,3.7,1.3,5.5c0.8,1.6,2,2.5,3.9,2.5
		c1.5,0,3.2-0.3,3.7-1.7c1.3-3.8,2-7.8,0-11.5c-0.7-1.4-2.3-2.7-4.2-1.8C484.9,207.1,482.8,209.1,483,212.8z"/>
	<path class="st0" d="M437.1,210.9c-0.2-7.2,0.6-13.3,4.6-18.5c2.3-2.9,5.5-4.1,8.7-5.4c0.7-0.3,1.4-0.3,1.6,0.5
		c0.4,1.2-0.4,1.9-1.4,2.2c-3.4,0.9-5.9,2.9-7.9,5.9c-1.1,1.6-1.5,3.4-2.1,5.1c-1,2.5,0.2,3.5,2.9,2.8c3.6-0.9,6.8,0.6,8,4
		c1.3,3.8,1.7,7.8-0.3,11.5c-1.8,3.4-4.5,4.6-8.2,3.8c-3.3-0.7-5.7-3.5-5.8-7C437.1,213.9,437.1,211.9,437.1,210.9z M449.6,213.9
		c-0.1-1.6-0.1-3.3-0.5-4.9c-0.6-2.3-2.2-3.6-4.6-3.1c-2.5,0.5-4.5,2-4.7,4.8c-0.1,3.3-0.8,6.7,2.2,9.2c0.6,0.5,1.4,0.6,2.2,0.7
		C447.8,220.9,449.4,218.8,449.6,213.9z"/>
	<path class="st0" d="M470.9,205.8c-3.4,0.9-6.6,2.2-9.1-0.3c-3.6-3.5-4.1-8.1-2.7-12.9c1-3.4,3-5.7,6.6-6c3.4-0.3,6.2,1.5,7.5,4.4
		c1.5,3.4,1.2,7.4,0.9,11.1c-0.3,3.4-0.5,6.8-1.8,10c-2.1,5.4-5.5,9.2-11.2,10.5c-0.7,0.2-1.6,0.6-1.8-0.7c-0.1-1,0.6-1.3,1.4-1.4
		c6.1-0.9,7.8-5.9,9.6-10.7C470.7,208.7,470.7,207.3,470.9,205.8z M461.7,196.6c0,1.1,0,2.2,0,3.3c0,1.9,0.8,3.5,2.7,4.1
		c2.1,0.6,4.1,0.2,5.6-1.7c1.9-2.5,1.5-9.5-0.7-11.8c-1.5-1.6-3-1.7-5-0.7C461.2,191.3,461.7,194,461.7,196.6z"/>
	<path class="st0" d="M413.3,429.5c-8.5,1.6-15.8,5.8-23.7,1.4c-1.9-1.1-4-0.9-6,0.2c-3.6,1.9-7.4,2.9-11.6,3
		c-5.6,0.1-10.8,2.3-15.9,4.7c-1.7,0.8-3.3,0.9-5.1,0.9c-1.8,0-3.6,0.1-5.4,1c-2.4,1.1-5.1,1.1-7.5-0.4c-2.1-1.3-4.2-2.3-6.8-0.4
		c0.9-3.5,3.6-4.7,6.1-3c2.9,2,5.8,2.5,9.2,1c2-0.9,4.2-1.4,6.7-0.8c3.1,0.8,6.2-1.1,8.7-2.4c4.4-2.2,8.9-3.1,13.6-3.1
		c3.2,0,5.8-1.5,8.3-3.3c2.3-1.7,4.3-1.7,7.1-0.1c4.5,2.5,9.6,3.8,15,1.4C407.7,428.7,410.1,427.8,413.3,429.5z"/>
	<path class="st0" d="M419.1,113.7c0-5.9,0-11.7,0-17.6c0-1.5-0.3-3,2.2-3c2.4,0,2.6,1,2.6,3c-0.1,11.9,0,23.9,0.1,35.8
		c0,1.9-0.7,2.5-2.5,2.4c-1.8,0-2.5-0.5-2.4-2.4C419.2,125.9,419.1,119.8,419.1,113.7z"/>
	<path class="st0" d="M422.7,223.2c-1.1,0-2.2,0-3.3,0c-4.6-0.1-5-0.5-3.2-4.8c1.8-4.1,4-8.1,7.2-11.5c4.2-4.5,5.7-10.6,3.8-14.8
		c-0.9-2-2.4-3-4.4-2.8c-2,0.2-3.9,1.2-4.1,3.6c-0.1,1.6-0.5,2.8-2.4,2.1c-1.8-0.6-0.9-1.9-0.5-3c1.2-3.5,4.5-5.7,8-5.4
		c3.8,0.3,6.5,3.3,6.9,8c0.3,4.2-1.3,7.7-3.6,11c-2.4,3.5-4.8,7.1-6.9,10.8c-2.3,3.9-2,4.4,2.4,4.4c2.2,0,4.4,0.1,6.6,0.1
		c0.7,0,1.4,0,1.4,0.9c0.1,1-0.6,1.3-1.5,1.3C426.9,223.2,424.8,223.2,422.7,223.2C422.7,223.2,422.7,223.2,422.7,223.2z"/>
	<path class="st0" d="M512.7,222.7c-2.6-0.1-5.1,0.1-7.6,0.1c-2.7,0-2.4-1.4-1.9-2.9c1.3-3.8,3.1-7.5,5.6-10.8
		c3.1-4.1,6.4-8.2,6.3-13.7c0-1.5,0.3-3.3-1.1-4.7c-2.8-2.7-6.3-2-8.1,1.9c-0.5,1-0.2,2.8-2,2.1c-1.7-0.7-0.6-2.4-0.3-3.4
		c0.8-2.7,5.8-5.6,8.3-5.1c3.2,0.6,6.2,4,6.4,7.5c0.3,3.8-0.4,7.4-2.8,10.6c-2.6,3.4-4.8,7.1-7.1,10.7c-0.4,0.5-0.7,1.1-0.9,1.7
		c-1.4,3.7-1.2,3.9,2.6,4c2.3,0,4.6,0,7,0.1c0.7,0,1.3,0.2,1.2,1.1c-0.1,0.8-0.6,0.8-1.2,0.8C515.5,222.8,514,223.1,512.7,222.7z"/>
	<path class="st0" d="M127,171.2c-1.8,1.2-1.5,2.7-1.2,4.3c0.2,0.8,1,2.1-0.6,2.4c-1.2,0.2-1.4-0.8-1.4-1.7c0-0.9-0.3-1.5-1.3-1.6
		c-1.2-0.1-1.5,0.6-1.5,1.6c0,0.8-0.3,1.7-1.3,1.5c-1-0.2-0.6-1.3-0.7-1.9c-0.1-1,0-2,0-3c0-4.1,0.7-4.8,4.7-3.9
		c1.2,0.3,2.3,1.8,3.6,0c0.3-0.4,0.9,0.1,1.2,0.7c0.5,1.3,1.1,2.6,1.7,4c1.6-0.9,0.3-2.9,1.5-4c0.5-0.5,1-1,1.6-0.7
		c0.7,0.4,0,0.9-0.1,1.4c-0.4,2.1-0.7,4.3-1.8,6.3c-0.3,0.5-0.4,1.4-1.3,1.3c-0.7-0.1-1.1-0.7-1.3-1.4
		C128.1,174.8,128.1,172.9,127,171.2z"/>
	<path class="st0" d="M569.9,30.9c-8.3-1-16.6,0.2-24.9-1c4.4-1.9,8.9-0.4,13.3-0.9c4.5-0.5,9.1,1.1,13.6-0.9
		c1.3-0.6,2.7-0.3,2.2,1.9c-0.2,0.8,0.1,1.8,0,2.6c-0.3,1.2,0.2,3-1.4,3.4c-1.5,0.3-2.2-1.2-3.3-1.9C567.3,32.6,569.9,32,569.9,30.9
		z"/>
	<path class="st0" d="M471.2,172.5c1.1-0.9,0.9-1.9,1-2.7c0.1-1.1,0.2-2,1.6-2c1.6,0,2.2,0.9,2.2,2.3c-0.1,1.8-0.2,3.5,0.2,5.2
		c0.2,0.7-0.7,1.6-0.9,1.4c-1.4-2.4-3.7,1.6-5.2-0.8c-0.3-0.6-2.3,2-2.8-0.1c-0.5-2.2-0.2-4.6-0.2-6.9c0-0.7,0.6-1.1,1.4-1.1
		c0.8,0,1.6,0.1,1.8,1C470.6,170,470.9,171.1,471.2,172.5z"/>
	<path class="st0" d="M476.9,172.4c0.2-1.6-1-3.8,0.8-4.5c1.4-0.6,3.4-0.7,5,0.6c1.2,1,1.9,5.7,1,7c-0.7,1.1-5.6,1.9-6.4,1
		C476.2,175.3,477.2,173.8,476.9,172.4z"/>
	<path class="st0" d="M493,172.4c0-1.6-0.7-3.6,1-4.4c1.4-0.6,3.2-0.7,4.8,0.3c1,0.6,1.9,1.6,1.4,2.7c-0.7,1.3-0.2,2.5-0.1,3.7
		c0.1,0.7,0.9,1.8-0.6,2.1c-1.3,0.3-1.3-0.7-1.5-1.6c-0.1-0.7-0.3-1.6-1.3-1.6c-1-0.1-1.3,0.5-1.5,1.4c-0.1,0.8,0.1,2-1.3,1.8
		c-1.4-0.2-1-1.5-1-2.4C493,173.7,493,173,493,172.4z"/>
	<path class="st0" d="M422,172.3c-0.1-4.5,1.1-5.5,5.4-4.5c0.7,0.2,1.4,0.4,1.3,1.2c0,0.8-0.8,1-1.5,0.9c-0.5,0-1.1-0.2-1.6-0.1
		c-0.4,0.1-0.9,0.4-1,0.7c0,0.7,0.5,0.9,1.1,0.8c1-0.3,2.3-0.3,2.3,0.9c0,1.2-1.4,1-2.3,1.2c-0.5,0.1-1.2,0-1.2,0.8
		c0,0.8,0.6,0.8,1.1,0.9c0.7,0.1,1.3,0.1,2,0.1c0.7,0.1,1.4,0.2,1.3,1.1c-0.1,0.7-0.8,0.6-1.3,0.6c-0.3,0-0.7,0-1,0
		C422.1,176.7,421.9,177.7,422,172.3z"/>
	<path class="st0" d="M142.9,172.7c-0.1-4.1-0.1-4,3.7-3.9c2.3,0,3.2,1,3,3.2c-0.1,0.7,0,1.3-0.1,2c-0.1,1.2,0.8,3.2-0.5,3.6
		c-2,0.6-1-1.6-1.6-2.4c-0.3-0.4-0.9-0.6-1.4-0.8c-0.6-0.1-1,0.3-1.1,0.9c-0.2,1,0.1,2.7-1.5,2.2c-1.1-0.3-0.5-1.9-0.6-3
		C142.8,174.2,142.9,173.9,142.9,172.7z"/>
	<path class="st0" d="M487.8,170.3c1,1.3,3.7-0.5,3.7,1.8c0,2.6-3,0.2-3.9,2c0.9,1.2,2.4,0.5,3.5,0.8c0.6,0.1,1,0.4,0.9,1.1
		c-0.1,0.5-0.5,0.6-1,0.7c-4,1.1-5.5,0-5.6-4.1c-0.1-5.3-0.1-5.3,4.2-5c0.8,0.1,1.9-0.2,2,1.1c0.1,1.3-1.1,1.1-1.9,1.2
		C489.2,170,488.5,169.3,487.8,170.3z"/>
	<path class="st0" d="M456.7,167.5c1.4,3,1,5.9,0.7,8.6c-0.1,1.2-1.5,1-2.2-0.1c-0.7-1.2-1.4-2.4-2.2-3.8c-0.9,1.2-0.5,2.4-0.6,3.5
		c-0.1,0.6-0.3,1.1-1,1.1c-0.7,0-0.9-0.5-0.9-1.1c0-2.1,0-4.2,0-6.3c0-0.6-0.2-1.4,0.7-1.6c0.8-0.2,1.1,0.6,1.6,1
		c0.9,0.8,0.9,2.3,2.4,2.6C456.1,170.4,455.2,168.9,456.7,167.5z"/>
	<path class="st0" d="M140.7,172.8c-0.1,0.2-0.1,0.4-0.2,0.6c-0.9,1.1-3.3-0.5-3.2,1.2c0.1,2,2.3,0.7,3.5,1.1
		c0.4,0.1,0.8,0.3,0.9,0.8c0.1,0.6-0.2,1.2-0.8,1.2c-1.5,0.1-3.1,0.2-4.6,0c-2.6-0.4-0.9-2.5-1.3-3.7c-0.1-0.2,0-0.4,0-0.7
		c-0.3-4.7,0.6-5.4,5.3-4.5c0.6,0.1,1.2,0.1,1.2,0.8c0,0.7-0.6,0.9-1.2,0.9c-0.7,0-1.3,0-2-0.1c-0.5,0-0.9,0.1-1,0.6
		c-0.2,0.7,0.3,0.9,0.9,1.1C138.9,172.3,140,171.7,140.7,172.8z"/>
	<path class="st0" d="M440.9,170.5c1.7-0.6,2.1-3.7,5.2-2.3c-4.3,2.8-2.2,5.6,0,8.2c-2.8,1.5-3-2-4.8-2.1c-0.6,0.4-0.6,1.1-0.8,1.7
		c-0.2,0.7-0.7,0.8-1.3,0.7c-0.7-0.1-0.8-0.6-0.8-1.2c0-1.9,0-3.7,0-5.6c0-0.8-0.4-2,0.8-2.2c1.4-0.2,1,1.1,1.1,1.9
		C440.5,169.9,440.7,170.2,440.9,170.5z"/>
	<path class="st0" d="M113,171.4c0.4,0.3,0.6,0.6,0.9,0.7c1,0.5,3-0.7,3,0.9c0.1,1.9-1.8,0.7-2.9,1c-0.4,0.1-0.9,0.2-0.9,0.8
		c0,0.6,0.3,1.1,0.9,1.2c0.6,0.1,1.3,0.1,2,0.1c0.8,0,1.7,0,1.6,1.1c-0.1,1.1-1,0.9-1.8,1c-4.6,0.4-4.8,0.2-4.8-4.8
		c0-4.6,0.2-4.8,4.8-4.3c0.7,0.1,1.5,0,1.6,0.8c0.1,1.1-1,0.9-1.7,1.1C114.9,170.9,114,170.4,113,171.4z"/>
	<path class="st0" d="M413.9,172.2c0-0.8-0.1-1.5,0-2.3c0.1-0.7-0.4-1.7,0.5-2c1.2-0.3,1.4,0.7,1.4,1.7c0,1,0.5,1.4,1.4,1.4
		c1,0,1.3-0.6,1.4-1.5c0-0.8,0.1-1.7,1.2-1.5c1.1,0.2,0.8,1.1,0.9,1.9c0.1,1.6,0.3,3.3,0.3,4.9c0,0.8,0,1.9-1.3,1.9
		c-1.1,0-1.1-0.8-1.1-1.6c0-1,0.1-2.1-1.4-2c-1.2,0.1-1.3,0.9-1.3,1.8c0,0.8,0.2,2-1.2,1.8c-1.2-0.2-0.7-1.2-0.7-1.8
		C413.8,174,413.9,173.1,413.9,172.2z"/>
	<path class="st0" d="M458.9,171.1c0.4-0.9-0.8-3,1-3c2-0.1,0.8,2.1,1.1,3.2c0,0.1,0,0.2,0,0.3c0.2,1.3-0.7,3.5,1.3,3.5
		c2.1,0.1,1.2-2.1,1.4-3.4c0.2-1.3-0.8-3.7,0.9-3.6c2,0.1,1.4,2.5,1.4,4.1c-0.1,4-1.5,5.4-4.8,4.7
		C459.3,176.3,458.8,175.1,458.9,171.1z"/>
	<path class="st0" d="M107.9,175.3c-1.7-1.5-4.8-1.1-4.8-4.1c0-1,0.7-2.1,2-2.3c2-0.3,3.7,0.1,4.6,2.1c-0.8,0.9-1.5,0.3-2.3,0
		c-0.6-0.3-1.6-1-2,0c-0.5,1.2,0.7,1,1.4,1.2c0.3,0.1,0.7,0.1,0.9,0.3c1.1,0.7,2.3,1.1,2.2,2.9c-0.1,1.5-1.1,2.2-2.2,2.5
		c-1.4,0.4-2.9,0.2-3.9-1.1c-0.4-0.5-1-1-0.4-1.7c0.4-0.5,1.1-0.3,1.5,0.1C105.7,176,106.6,176.7,107.9,175.3z"/>
	<path class="st0" d="M429.8,172.6c-0.2-2.1,0.3-3.5,2-4.4c1.6-0.9,2.9-0.4,4.3,0.6c0.6,0.4,1.2,0.8,0.9,1.5c-0.4,1-1.3,0.7-1.9,0.4
		c-2.7-1.5-3.3,0.3-3.1,2.3c0.1,1.7,1.1,3.1,3,1.4c0.6-0.6,1.4-1,2-0.3c0.7,0.9-0.1,1.7-0.8,2.2c-1.4,1.1-3.1,1-4.4,0.3
		C430.3,175.7,429.3,174.2,429.8,172.6z"/>
	<path class="st0" d="M409.3,176.9c-2,0.2-3.4-0.8-3.8-2.5c-0.5-2.1-0.7-4.4,1.4-6.1c1.6-1.3,3-0.6,4.5,0.3c0.7,0.4,1.4,0.8,1,1.7
		c-0.3,0.7-1.2,0.6-1.7,0.2c-1-0.6-1.9-1.3-2.8,0.1c-0.7,1.1-0.7,2.2-0.1,3.4c0.7,1.3,1.4,1.6,2.5,0.6c0.6-0.5,1-1.3,1.9-1
		c0.2,0.1,0.4,0.7,0.4,1.1c0,1-0.8,1.5-1.6,1.9C410.4,176.8,409.8,176.8,409.3,176.9z"/>
	<path class="st0" d="M548,395.2c-3.4,0.9-6.9,0.7-10.4,0.2C541.1,394.4,544.5,394.6,548,395.2z"/>
	<path class="st0" d="M424.7,429c2.8-1,5.5-2,8.3-3c0.1,0.3,0.2,0.6,0.3,1c-2.9,0.8-5.2,2.9-8.4,2.9
		C424.8,429.5,424.8,429.3,424.7,429z"/>
	<path class="st0" d="M333.3,170.4c-1.5,1.6-2.8-1-4.4,0c0.8,1.2,2,1.4,3.1,1.7c1,0.3,1.5,0.9,1.5,1.9c0,1.1-0.1,2.1-1.1,2.5
		c-1.8,0.7-3.6,0.9-5.3-0.6c-0.7-0.6-1.4-1.2-0.3-2.1c2-1.5-1.1-1.9-0.8-3.2c0.1-0.6-1-0.7-1.6-0.5c-1.2,0.5-0.6,1.7-0.8,2.6
		c-0.3,1.3,1.1,3.8-1,3.8c-2,0-0.6-2.5-1.1-3.8c-0.3-0.9,0.4-2.1-0.9-2.6c-0.8-0.3-2-0.3-1.5-1.5c0.3-0.9,1.3-0.5,2-0.6
		c2.7-0.4,5.3,1.1,8.2-0.2C330.5,167.3,332.7,168.4,333.3,170.4z"/>
	<path class="st0" d="M290.9,176.9c-2.1,0.3-3.6-0.7-4.2-2.5c-0.7-2-0.6-4.2,1.4-5.7c1.5-1.2,3-1.1,4.6,0c0.7,0.5,1.5,1,1.2,1.7
		c-0.4,0.8-1.3,0.5-2,0.1c-1-0.5-2.1-1-2.8,0.4c-0.6,1.3-0.5,2.6,0.2,3.8c0.6,0.9,1.5,1,2.3,0.4c1.2-0.9,0.2-1-0.5-1.5
		c-1.1-0.8-0.5-1.3,0.5-1.4c1.1,0,2.7-0.6,2.7,1.4c0,1.3,1,3.4-1.8,3.2C291.9,176.7,291.4,176.9,290.9,176.9z"/>
	<path class="st0" d="M311.5,174.4c1.2-0.6,1.9,0.2,2.7,0.7c0.8,0.5,1.6,0.4,1.8-0.6c0.2-0.9-0.7-0.8-1.3-1c-2.1-0.5-4-1.1-2.8-3.9
		c0.5-1.1,1.4-1.8,2.6-1.8c1.3,0.1,2.5,0.7,3.5,1.6c0.2,0.2,0.2,0.6,0.2,0.9c-0.1,0.5-0.7,0.4-1.1,0.5c-1.1,0.1-1.9-1.3-3.3-0.4
		c1,2.1,6,0.9,4.5,5.1c-0.6,1.6-1.9,1.3-3,1.4C313.4,177.1,311.9,176.6,311.5,174.4z"/>
	<path class="st0" d="M300.4,171.5c0-0.8-0.1-1.6,0-2.3c0.2-1.4,1.4-1.3,1.9-0.7c1.4,1.8,0.7,4,0.5,6c-0.1,1.3-1.2,2.2-2.7,2.4
		c-2.9,0.3-4.6-0.8-4.4-3.7c0.1-1.7-1.2-4.7,0.9-4.8c2.2-0.1,0.7,2.8,1,4.4c0.2,1.1,0.2,2.7,1.6,2.3
		C301.2,174.7,300.2,172.8,300.4,171.5z"/>
	<path class="st0" d="M310.9,176.2c-0.4,0.3-0.5,0.5-0.7,0.5c-5.5,0.6-7.8-2.5-5.9-7.7c0.3-0.9,0.9-0.8,1.5-0.8
		c1.4,0.1,3-0.6,4.1,0.5c0.6,0.5,0,1.2-0.8,1.4c-0.9,0.2-1.9,0.2-2.8,0.3c-0.1,0.7,0.1,0.9,0.6,1.1c1,0.3,2.7-0.5,2.8,1
		c0.1,1.2-1.5,0.9-2.5,1c-0.4,0-0.9,0.1-1,0.6c-0.1,0.7,0.4,0.9,0.9,1.1C308.4,175.7,309.8,175,310.9,176.2z"/>
	<path class="st0" d="M211.6,172.9c-0.1-4.3,1.7-5.5,5.6-4c0.2,0.1,0.4,0.1,0.6,0.2c0.9,0.6,1.4,5.8,0.7,6.8
		c-0.8,1.2-5.1,2.1-6.1,1.2C211,175.9,211.9,174.1,211.6,172.9z"/>
	<path class="st0" d="M229.6,170.8c0.1,0.2,0.1,0.4,0.3,0.5c1,0.7,3-0.3,3.1,1.2c0.1,1.8-1.9,0.7-2.9,1.2c-0.4,0.2-0.8,0.5-0.6,1
		c0.1,0.3,0.6,0.6,0.9,0.8c1.1,0.4,2.4-0.2,3.7,0.9c-1.8,1.7-3.9,1.4-5.8,1c-1.8-0.4-0.7-2.2-0.9-3.4c-0.1-0.5,0-1.1,0-1.7
		c0-3.9,0.7-4.4,4.6-3.7c0.7,0.1,1.5,0.2,1.5,1c0,1-0.9,0.7-1.5,0.8c-0.7,0.1-1.5,0.2-2.2,0.3C229.6,170.5,229.6,170.7,229.6,170.8z
		"/>
	<path class="st0" d="M206.8,168.8c0.9-0.1,1.4,0.5,1.7,1.3c0.6,1.8,1.2,3.7,1.8,5.6c0.2,0.5,0.5,1.1-0.1,1.5
		c-0.5,0.4-1,0.1-1.4-0.4c-1.2-1.6-2.4-2.1-3.8-0.1c-0.3,0.4-1.3,0.7-1.8,0.5c-0.7-0.3-0.4-1.1-0.1-1.7c0.7-1.8,1.5-3.6,2.1-5.5
		C205.5,169.2,205.8,168.5,206.8,168.8z"/>
	<path class="st0" d="M223.6,177.4c-1.1-0.6-3.2,0.6-3.5-1.5c-0.4-2.4-0.7-4.9,0.3-7.1c0.3-0.7,1.5-0.2,1.6,0.8
		c0.2,1.2,0.1,2.4,0.1,3.6c0,1.4,0.3,2.4,2,2.4c0.8,0,2.2-0.4,2.2,0.8C226.2,177.7,224.7,177.3,223.6,177.4z"/>
	<path class="st0" d="M203.4,169.3c-3.4,0.7-2.6,3.1-2.6,5.2c0,1,0.5,2.7-1,2.7c-1.4,0-0.9-1.7-0.9-2.7c-0.2-2,0.8-4.5-2.7-5.1
		C198.6,168.6,200.8,168.4,203.4,169.3z"/>
</g>
<g>
	<g>
		<path d="M139.7,287c-4.1-0.8-9.3-1.3-15.7-1.6c3.1-5.4,8.8-14.4,17.1-27c7.3-11.3,13.5-20.1,18.6-26.3c5.1-6.3,8.3-9.4,9.6-9.5
			c0.8,0,1.2,0.4,1.2,1.3c0.1,1-2.5,6.3-7.7,15.7c-6.2,10.9-9.1,18.9-8.9,24c0.1,2,0.7,3,1.9,3c1.4-0.1,3.5-1.3,6.3-3.7
			c2.8-2.4,6-6.1,9.7-11.2l-2.3-2.1c9.1-18.4,13.5-30.4,13.3-36.1c-0.1-1.7-0.6-3-1.6-3.9c-1-0.9-2.4-1.3-4.1-1.2
			c-2.4,0.1-5.6,1.9-9.6,5.4c-4,3.5-8.5,8.5-13.7,15.1c-5.2,6.6-10.9,14.6-17.1,24.2c-6.2,9.5-12.9,20.4-20.1,32.7
			c-5.1,0.3-9.2,0.9-12.3,1.8c-3.1,0.9-5.4,2-7,3.4c-1.6,1.4-3.1,3.2-4.4,5.6c-1.4,2.4-2.8,4.8-4.2,7.4c-0.6,1.1-0.8,2.1-0.8,3
			c0.1,1.5,1,2.2,2.9,2.1c1.3-0.1,3.5-0.8,6.6-2.3c3.1-1.5,5.5-2.5,7.3-3.2c1.8-0.7,3.9-1.1,6.3-1.2c4.4-0.2,9.2,0.1,14.6,0.8
			c5.3,0.8,11.1,1.8,17.3,3.1c6.2,1.3,10.6,2.1,13.5,2.5c2.8,0.4,4.9,0.3,6.3-0.4c0.9-0.4,2.1-1.6,3.7-3.5c1.6-1.9,4.5-5.5,8.7-10.8
			c-3.7-0.2-9.4-1.2-17.2-3C149.8,289.1,143.8,287.8,139.7,287z"/>
		<path d="M207.8,298.6c3.6-2.9,7.4-6.9,11.3-11.7c0.4,1.5,0.9,3,1.6,4.5c1.4,2.8,2.9,5.1,4.5,6.8c1.7,1.7,3,2.6,4.1,2.5
			c2.2-0.1,4.9-1.9,8.1-5.3c3.2-3.4,8.1-9.2,14.6-17.2c-2.3,7.3-3.4,12.8-3.2,16.5c0.1,2.4,0.6,4.1,1.4,5.3s2.2,1.7,4,1.6
			c4.5-0.2,11.4-5.7,20.7-16.4c0.7,3,1.8,5.8,3.5,8.4c2.5,3.8,5.4,5.6,8.7,5.5c1.9-0.1,4.3-1.5,7.2-4.2c2.9-2.7,6.7-6.7,11.2-12.1
			c2.5,1.2,4.3,1.7,5.2,1.7c2.4-0.1,4.4-0.6,5.9-1.4c0.7-0.4,1.6-1,2.6-1.8c0.4,5,1.9,9,4.3,11.8c2.6,3.2,6.1,4.6,10.3,4.4
			c4.8-0.2,9.5-2.2,14.1-5.9c4.5-3.7,9.3-8.9,14.4-15.6l-0.2-4.3c-3.4,3.2-6.3,5.8-8.7,7.7c-2.4,1.9-4.8,3.5-7.2,4.7
			c-2.4,1.2-4.8,1.9-7.1,2c-2.2,0.1-4.1-0.6-5.5-2.1c-1.5-1.5-2.3-3.6-2.4-6.4l-0.1-1.8c6.6-3,12.1-6.1,16.5-9.3
			c4.4-3.1,7.7-6.3,9.8-9.3c2.1-3.1,3-6.1,2.9-9.1c-0.1-2-0.8-3.5-2.2-4.5c-1.4-1-3.2-1.4-5.4-1.3c-2.8,0.1-5.9,1.1-9.4,2.8
			c-3.5,1.7-7,4.3-10.4,7.5c-5,4.8-8.6,9.2-10.8,13.4c-1.6,3.2-2.5,6.6-2.8,10.3c-0.4,0.3-0.9,0.6-1.3,0.9c-1.2,0.8-2.4,1.2-3.4,1.3
			c-1.2,0.1-2.5-0.9-3.8-3c2.1-3.1,3.9-6,5.3-8.9c1.4-2.9,2.5-5.5,3.2-7.9c0.7-2.4,1-4.5,0.9-6.1c-0.1-2.8-1.3-4.1-3.3-4
			c-1.3,0.1-3.3,1.7-5.9,4.9c-2.6,3.2-4.9,6.8-6.9,11c-2.1,4.1-3,7.8-2.9,10.9c-7.5,8.4-12.2,12.6-14.3,12.7
			c-2.1,0.1-3.3-1.1-3.4-3.7c0-0.9,0-1.8,0.2-2.6l1-6c4-3.6,7.5-7.7,10.4-12.5c3-4.7,4.4-8.3,4.2-10.7c0-0.7-0.7-1.3-2-1.8
			c-1.3-0.5-2.7-0.7-4.1-0.6c-1.7,0.1-3.1,0.6-4.4,1.7c-1.3,1-2.9,2.9-4.9,5.7c-6.4,8.8-9.6,16.3-9.6,22.5c-4.6,3.9-8.1,5.9-10.7,6
			c-3.2,0.2-4.9-1.5-5.1-5c-0.1-2.1,0.3-4,1.1-5.5c0.9-1.5,2.4-3.9,4.5-7.1c2.1-3.2,3.2-5.4,3.1-6.5c0-0.6-0.2-1.2-0.5-1.9
			c-0.3-0.7-0.8-1.7-1.4-2.8c-0.6-1.2-1.1-2.1-1.4-2.9c1.6-0.7,2.8-1.2,3.4-1.6c0.6-0.4,0.9-1.1,0.9-1.9c0-0.5-0.3-1.3-0.9-2.4
			c-0.6-1.1-1.3-2-2.2-2.8c-0.9-0.8-1.8-1.2-2.8-1.1c-3.7,0.2-8.9,2-15.5,5.6c-6.6,3.5-13.4,8.7-20.3,15.6c-2.6,2.7-4.4,4.9-5.6,6.5
			c-1.2,1.6-1.9,3.2-2.3,4.7c-0.3,1.4-0.4,3.1-0.4,5c-1.9,1.8-3.7,3.3-5.2,4.5c-2.4,1.9-4.8,3.5-7.2,4.7c-2.4,1.2-4.8,1.9-7.1,2
			c-2.2,0.1-4.1-0.6-5.5-2.1c-1.5-1.5-2.3-3.6-2.4-6.4l-0.1-1.8c6.6-3,12.1-6.1,16.5-9.3c4.4-3.1,7.7-6.3,9.8-9.3
			c2.1-3.1,3-6.1,2.9-9.1c-0.1-2-0.8-3.5-2.2-4.5c-1.4-1-3.2-1.4-5.4-1.3c-2.8,0.1-5.9,1.1-9.4,2.8c-3.5,1.7-7,4.3-10.4,7.5
			c-5,4.8-8.6,9.2-10.8,13.4c-2.1,4.2-3.1,8.8-2.8,13.7c0.3,5.7,1.7,10.1,4.4,13.3c2.6,3.2,6.1,4.6,10.3,4.4
			C198.6,304.3,203.3,302.3,207.8,298.6z M334.2,263.2c1.4-2.5,3.1-4.6,5-6.5c1.9-1.9,3.8-3.4,5.6-4.6c1.9-1.2,3.2-1.8,4.1-1.8
			c1,0,1.5,0.5,1.6,1.6c0.1,1-0.6,2.7-1.9,5.1c-1.3,2.3-3.5,4.8-6.4,7.4c-2.9,2.6-6.5,4.9-10.7,6.7
			C331.9,268.3,332.7,265.7,334.2,263.2z M234.8,271.8c5-4.2,13.6-9.4,25.7-15.7c-5.4,8.4-10,15.1-13.9,20c-3.9,4.9-8.3,9-13.1,12.2
			c-1.3,0.7-2.2,1.1-2.7,1.1c-0.9,0-1.6-0.4-2.2-1.4c-0.6-0.9-0.9-2.2-1-3.7C227.3,280.2,229.7,276,234.8,271.8z M194,270.2
			c1.4-2.5,3.1-4.6,5-6.5c1.9-1.9,3.8-3.4,5.6-4.6c1.9-1.2,3.2-1.8,4.1-1.8c1,0,1.5,0.5,1.6,1.6c0.1,1-0.6,2.7-1.9,5.1
			c-1.3,2.3-3.5,4.8-6.4,7.4c-2.9,2.6-6.5,4.9-10.7,6.7C191.7,275.3,192.6,272.7,194,270.2z"/>
		<path d="M480.8,283.9c4.6-3.3,9.9-8.1,15.6-14.3l-0.2-4.8c-3,2.8-5.6,5-7.9,6.8c-2.3,1.8-4.5,3.2-6.7,4.3
			c-2.2,1.1-4.3,1.7-6.2,1.8c-1,0-2.4,0-4.1-0.2c4.1-3,7.5-5.8,10.1-8.6c2.6-2.8,4.5-5.6,5.8-8.6c1.3-2.9,1.8-6,1.7-9.1
			c-0.1-2.1-0.4-4-0.9-5.6c-0.5-1.6-1.1-3.7-1.9-6.1c-0.8-2.4-1.2-4.1-1.3-5c-0.1-1,0-1.9,0.2-2.4l-0.5-1.3
			c-1.2-0.5-2.2-0.7-3.2-0.7c-4,0.2-6.4,3.2-7.1,9.1c-4.3,5.4-12.3,14.9-23.9,28.4l0.1,1.7c0,0.3,0,0.5,0,0.8
			c-2.4,2-4.4,3.6-5.8,4.5c-2.1,1.4-3.9,2.2-5.5,2.3c-1.9,0.1-3-1.1-3.1-3.6c-0.1-1.1,0.4-2.9,1.2-5.2c0.9-2.3,1.9-4.4,3.2-6.4
			c2.3-3.7,4.3-6.9,5.9-9.6c1.7-2.7,2.8-4.6,3.3-5.6c0.5-1,0.9-1.8,1.1-2.4c0.2-0.6,0.2-1.4,0.2-2.4c-0.1-2.2-0.4-3.6-0.8-4.3
			c-0.4-0.7-1.2-1-2.4-1c-1.2,0.1-2.4,0.7-3.6,1.9c-1.2,1.2-3.5,3.7-6.8,7.6c-1.4,1.7-3.3,4.2-5.6,7.5c-2.3,3.3-4.3,5.8-6.1,7.6
			c-2.4,2.3-5.1,4.9-8.1,7.8c-3,2.9-5.2,4.9-6.4,6c-1.3,1-2.2,1.6-2.8,1.6c-1.6,0.1-2.4-0.9-2.5-2.9c-0.1-1.5,0.3-3.6,1-6.5
			c3.9-3.3,7.4-6.6,10.3-10c2.9-3.4,5.1-6.2,6.4-8.5c1.3-2.3,1.9-3.9,1.9-4.7c0-0.4-0.7-0.8-2.1-1.1c-1.4-0.3-2.9-0.5-4.4-0.4
			c-2.1,0.1-3.6,0.4-4.5,0.8c-0.9,0.5-1.8,1.3-2.7,2.5c-0.9,1.2-2,2.6-3.4,4.4c-2.2,2.8-4.1,5.3-5.7,7.6c-1.5,2.2-2.7,4.3-3.7,6.1
			c-0.9,1.9-1.5,3.6-1.8,5.1c-0.3,1.5-0.4,3.3-0.3,5.2c0.1,2.9,0.7,5.6,1.7,8.1c1,2.5,2.2,4.5,3.8,5.9c1.6,1.4,3.3,2.1,5.1,2
			c2.3-0.1,5.1-2.2,8.5-6.2c3.4-4,8.3-10.8,14.7-20.2c-2.4,5.9-4.1,10.4-5.1,13.6c-1,3.1-1.5,5.6-1.4,7.4c0.2,4.7,2.3,7,6.3,6.8
			c1.8-0.1,3.6-0.8,5.5-2.1c1.9-1.3,4.1-3.2,6.6-5.6c2-1.9,4.8-4.7,8.4-8.4c0.2,1,0.4,1.8,0.6,2.6c0.6,2.1,2.1,4.2,4.5,6.3
			c4,3.6,8.2,5.3,12.7,5.1C472.1,288.9,476.2,287.2,480.8,283.9z M462.5,269c-1.1-1-3.1-1.7-6-2.2c9.2-9.9,15.1-16.6,17.9-20.1
			l1.8,10.3c0.1,0.4,0.1,0.8,0.2,1.1c0,0.4,0.1,0.8,0.1,1.3c0.2,4-0.5,7.2-2.1,9.6c-1.6,2.4-4,4.3-7.2,5.8
			C465.2,271.9,463.6,270,462.5,269z"/>
		<path d="M138.9,362.1c-0.1-2.1,0.3-4,1.1-5.5c0.9-1.5,2.4-3.9,4.5-7.1c2.1-3.2,3.2-5.4,3.1-6.5c0-0.6-0.2-1.2-0.5-1.9
			c-0.3-0.7-0.8-1.7-1.4-2.8c-0.6-1.2-1.1-2.1-1.4-2.9c1.6-0.7,2.8-1.2,3.4-1.6c0.6-0.4,0.9-1.1,0.9-1.9c0-0.5-0.3-1.3-0.9-2.4
			c-0.6-1.1-1.3-2-2.2-2.8c-0.9-0.8-1.8-1.2-2.8-1.1c-3.7,0.2-8.9,2-15.5,5.6c-6.6,3.5-13.4,8.7-20.3,15.7c-2.6,2.7-4.4,4.9-5.6,6.5
			c-1.2,1.6-1.9,3.2-2.3,4.7s-0.5,3.4-0.4,5.6c0.2,3.1,0.9,6,2.3,8.8c1.4,2.8,2.9,5.1,4.5,6.8c1.7,1.7,3,2.6,4.1,2.5
			c2.2-0.1,4.9-1.9,8.1-5.3c3.2-3.4,8.1-9.1,14.6-17.2c-2.3,7.3-3.4,12.8-3.2,16.5c0.1,2.4,0.6,4.1,1.4,5.3c0.8,1.2,2.2,1.7,4,1.6
			c5.2-0.3,13.4-7.4,24.8-21.3l-0.2-4.3c-6.8,6.6-11.8,9.9-15.1,10.1C140.8,367.3,139.1,365.6,138.9,362.1z M126.8,357.2
			c-3.9,4.9-8.3,9-13.1,12.2c-1.3,0.7-2.2,1.1-2.7,1.1c-0.9,0-1.6-0.4-2.2-1.4c-0.6-0.9-0.9-2.2-1-3.7c-0.2-4.2,2.2-8.4,7.3-12.6
			c5-4.2,13.6-9.4,25.7-15.7C135.4,345.6,130.7,352.2,126.8,357.2z"/>
		<path d="M340.3,304.1c-1.9,2.7-2.7,5-2.6,7.1c0.1,1.4,0.7,2.5,1.8,3.3s2.3,1.2,3.4,1.2c2.2-0.1,4.3-1.4,6.1-4
			c1.8-2.6,2.7-4.9,2.6-6.9c-0.1-1.7-0.6-2.9-1.6-3.7c-1-0.8-2.2-1.2-3.6-1.1C344.2,300.1,342.2,301.4,340.3,304.1z"/>
		<path d="M449.5,345.4c-0.6-0.3-1.2-0.6-1.7-1.1c-0.5-0.4-1-0.8-1.5-1.2c2.5-3.5,4.4-6.8,5.6-10.1c1.2-3.3,1.8-6.5,1.6-9.8
			c-0.2-4-1.1-5.9-2.8-5.9c-1.4,0.1-3.3,1.5-5.8,4.4c-2.5,2.9-4.7,6.2-6.6,10c-1.9,3.8-2.7,7-2.6,9.6c0,0.4,0.2,1.3,0.4,2.6
			c-4.9,7.3-8.3,11.1-10.4,11.2c-1.6,0.1-2.5-0.9-2.6-3.1c-0.1-2.1,0.7-5.3,2.3-9.6c1.6-4.3,3.5-9,5.8-14.2c2.2-5.2,3.3-8,3.3-8.5
			c0-0.9-0.6-1.6-1.6-2.1c-1-0.5-2.1-0.7-3.3-0.6c-1.1,0.1-1.8,0.3-2.1,0.8c-8.5,12.8-15.3,22.4-20.5,28.7
			c-5.2,6.4-8.8,9.6-10.8,9.7c-0.6,0-1.1-0.2-1.5-0.8c-0.4-0.6-0.7-1.2-0.7-1.9c-0.1-2,0.3-4.7,1.2-8.1c3.9-3.8,7.3-7.4,10.2-11
			c3-3.6,5.2-6.8,6.6-9.6c1.5-2.8,2.1-5.2,2-7c0-0.6-0.5-1.1-1.3-1.6c-0.9-0.5-1.8-0.8-2.9-1.1c-1.1-0.3-2-0.4-2.6-0.3
			c-1.1,0.1-2.5,0.8-4.1,2.2c-1.7,1.4-3.5,3.4-5.5,5.9c-2,2.5-4.3,5.8-6.9,9.7c-2.8,4.4-4.6,7.7-5.4,9.9c-0.6,1.8-0.9,3.8-0.9,6.2
			c-1.8,1.6-3.4,3-4.8,4.2c-2.4,1.9-4.8,3.5-7.2,4.7c-2.4,1.2-4.8,1.9-7.1,2c-2.2,0.1-4.1-0.6-5.5-2.1c-1.5-1.5-2.3-3.6-2.4-6.4
			l-0.1-1.8c6.6-3,12.1-6.1,16.5-9.3c4.4-3.1,7.7-6.3,9.8-9.3c2.1-3.1,3-6.1,2.9-9.1c-0.1-2-0.8-3.5-2.2-4.5c-1.4-1-3.2-1.4-5.4-1.3
			c-2.8,0.1-5.9,1.1-9.4,2.8c-3.5,1.7-7,4.3-10.4,7.5c-5,4.8-8.6,9.2-10.8,13.4c-1.7,3.4-2.7,7.1-2.8,11c-2.4,2.1-4.5,3.7-6.2,4.9
			c-2.6,1.8-5,2.7-7.2,2.8c-2,0.1-3.7-0.4-5.1-1.5c-1.3-1.1-2.1-2.5-2.1-4.2c-0.1-2,0.4-3.8,1.6-5.4c1.2-1.6,3.7-4.5,7.7-8.7
			c1.4-1.5,3-3.8,4.7-7.2c1.7-3.3,2.5-5.7,2.5-7.3c-0.1-2.2-1.6-3.3-4.5-3.1c-5.6,0.3-11.5,5.8-17.7,16.7c-1.3,2.4-2.2,4.2-2.7,5.3
			c-0.5,1.1-0.8,2.5-1.1,4.2c-0.2,1.4-0.3,2.9-0.3,4.4c-0.4,0.3-0.8,0.5-1.1,0.8c-1.2,0.8-2.4,1.2-3.4,1.3c-1.2,0.1-2.5-0.9-3.8-3
			c2.1-3.1,3.9-6,5.3-8.9c1.4-2.9,2.5-5.5,3.2-7.9c0.7-2.4,1-4.5,0.9-6.1c-0.1-2.8-1.3-4.1-3.3-4c-1.3,0.1-3.3,1.7-5.9,4.9
			c-2.6,3.2-4.9,6.8-6.9,11c-2.1,4.1-3,7.8-2.9,10.9c-7.5,8.4-12.2,12.6-14.3,12.7c-2.1,0.1-3.3-1.1-3.4-3.7c0-0.9,0-1.8,0.2-2.6
			l1-6c4-3.6,7.5-7.7,10.4-12.5c3-4.7,4.4-8.3,4.2-10.7c0-0.7-0.7-1.3-2-1.8c-1.3-0.5-2.7-0.7-4.1-0.6c-1.7,0.1-3.1,0.6-4.4,1.7
			c-1.3,1-2.9,2.9-4.9,5.7c-6.7,9.2-9.9,16.9-9.5,23.3c0,0,0,0.1,0,0.1c-1.1,0.9-2.1,1.8-3,2.5c-2.4,1.9-4.8,3.5-7.2,4.7
			c-2.4,1.2-4.8,1.9-7.1,2c-2.2,0.1-4.1-0.6-5.5-2.1c-1.5-1.5-2.3-3.6-2.4-6.4l-0.1-1.8c6.6-3,12.1-6.1,16.5-9.3
			c4.4-3.1,7.7-6.3,9.8-9.3c2.1-3.1,3-6.1,2.9-9.1c-0.1-2-0.8-3.5-2.2-4.5c-1.4-1-3.2-1.4-5.4-1.3c-2.8,0.1-5.9,1.1-9.4,2.8
			c-3.5,1.7-7,4.3-10.4,7.5c-5,4.8-8.6,9.2-10.8,13.4c-1.6,3.2-2.6,6.7-2.8,10.4c-5.1,4.3-8.8,6.5-11.2,6.6
			c-2.8,0.1-4.2-0.9-4.3-3.1c-0.1-1.6,0.7-4.1,2.2-7.3c1.5-3.3,3.5-6.3,5.9-9.1c2-2.3,3.4-4.1,4.3-5.3c0.8-1.2,1.2-2.3,1.2-3.3
			c-0.1-1.6-0.4-3.1-1-4.7c-0.6-1.5-1.3-2.5-2.1-2.9c-0.4-0.2-1.1-0.2-2.1-0.2c-2.6,0.1-8.7,1.2-18.4,3.2c1.3-2.5,2-4.2,2-5
			c0-0.9-0.5-1.3-1.5-1.3c-0.6,0-1.3,0.2-1.9,0.6c-1.7,0.8-3.5,2.3-5.5,4.7c-2,2.4-3.6,4.9-4.9,7.6c-1.3,2.7-1.9,4.9-1.8,6.6
			c0.1,1.5,0.5,2.6,1.2,3.4c0.7,0.7,1.9,1.3,3.4,1.8c-1.2,2.2-3,4.9-5.5,8.1l0.2,4.6c5.4-5.1,9.4-10.6,12-16.7c1-0.2,2.4-0.6,4.2-1
			s3.6-0.8,5.2-1.2c1.6-0.4,3.1-0.8,4.4-1.1c-2.4,3.2-4.5,6.3-6.3,9.5c-1.9,3.2-3.3,6.1-4.2,8.7c-0.9,2.7-1.3,5-1.2,7.1
			c0.2,3.5,1,6.1,2.4,7.8c1.4,1.8,3.1,2.6,5.1,2.5c1.7-0.1,3.6-0.9,5.7-2.4c2.1-1.5,4.4-3.5,6.8-6c1.6-1.7,3.6-3.8,5.8-6.3
			c0.5,4.5,1.9,8.1,4.2,10.8c2.6,3.2,6.1,4.6,10.3,4.4c4.8-0.2,9.5-2.2,14.1-5.9c3-2.4,6.1-5.5,9.3-9.3c0.7,2.5,1.7,4.9,3.2,7.1
			c2.5,3.8,5.4,5.6,8.7,5.5c1.9-0.1,4.3-1.5,7.2-4.2c2.9-2.7,6.7-6.7,11.2-12.1c2.5,1.2,4.3,1.7,5.2,1.7c2.4-0.1,4.4-0.6,5.9-1.4
			c0.8-0.4,1.7-1.1,2.8-1.9c0.5,3.4,1.6,6.6,3.1,9.6c2.1,4,5.1,5.9,9,5.7c2.8-0.1,6.1-1.8,10-5c2.7-2.3,5.6-5.3,8.6-9.1
			c0.6,3.8,2,6.9,4,9.3c2.6,3.2,6.1,4.6,10.3,4.4c4.8-0.2,9.5-2.2,14.1-5.9c3.5-2.8,7.1-6.5,10.9-11.1c0.4,1.7,1,3.3,1.8,4.9
			c1.4,2.6,3,4.7,4.8,6.2c1.9,1.5,3.4,2.3,4.7,2.2c1.3-0.1,2.6-0.6,3.9-1.5c1.3-0.9,2.6-2.2,4.1-3.8c1.4-1.6,3.3-3.9,5.6-7
			c2.3-3,4.4-5.6,6.1-7.9c-0.6,7.5-0.8,11.8-0.8,12.9c0.1,2.3,0.7,4.1,1.8,5.4c1.1,1.3,2.5,1.8,4.3,1.7c4.6-0.2,10.9-5.8,19.2-16.7
			c1.5,1,2.7,1.6,3.6,2c0.9,0.4,2.2,0.5,3.8,0.4c2.8-0.1,5.9-2.2,9.5-6.3l-0.3-5.1c-2.3,2.6-4.2,4-5.8,4.1
			C450.7,345.8,450.1,345.7,449.5,345.4z M360.4,336.9c1.4-2.5,3.1-4.6,5-6.5c1.9-1.9,3.8-3.4,5.6-4.6c1.9-1.2,3.2-1.8,4.1-1.8
			c1,0,1.5,0.5,1.6,1.6c0.1,1-0.6,2.7-1.9,5.1c-1.3,2.3-3.5,4.8-6.4,7.4c-2.9,2.6-6.5,4.9-10.7,6.7C358.1,342,359,339.4,360.4,336.9
			z M248,342.6c1.4-2.5,3.1-4.6,5-6.5c1.9-1.9,3.8-3.4,5.6-4.6c1.9-1.2,3.2-1.8,4.1-1.8c1,0,1.5,0.5,1.6,1.6c0.1,1-0.6,2.7-1.9,5.1
			c-1.3,2.3-3.5,4.8-6.4,7.4c-2.9,2.6-6.5,4.9-10.7,6.7C245.6,347.7,246.5,345,248,342.6z"/>
		<path d="M508.1,271.4c-1.9-0.9-3.7-1.3-5.2-1.2c-0.8,0-1.6,0.2-2.6,0.6c-2.1,3.4-6.1,10.9-12.1,22.4c-3,5.9-5.6,10.9-7.7,15
			c-2.1,4.1-4,7.8-5.7,11.1c-1.7,3.3-2.9,5.8-3.5,7.5c-0.7,1.7-1,2.8-0.9,3.5c0.1,1.4,1,3,2.7,4.8c1.7,1.8,3.1,2.7,4.1,2.6
			c0.9,0,1.9-0.8,2.9-2.2c1-1.4,1.6-2.4,1.5-3c0-0.9-0.5-1.4-1.4-1.6c1.2-2.2,3-5.4,5.4-9.6c2.4-4.1,4.8-8.1,7-11.9
			c2.3-3.8,5.7-9.6,10.4-17.3c4.6-7.7,8-13.3,10.1-16.6C511.6,273.7,510,272.3,508.1,271.4z"/>
		<path d="M472.5,341.2c-1.1-0.7-2.2-1-3.2-0.9c-1.7,0.1-3.2,2-4.5,5.9c-1.4,3.8-2,7.2-1.8,10.2c0.1,2.3,0.9,4,2.3,5.2
			c1.4,1.2,2.9,1.7,4.3,1.7c1.8-0.1,3.4-1.9,5-5.5c1.6-3.6,2.3-6.6,2.2-9.2c-0.1-1.6-0.5-3.1-1.4-4.4
			C474.6,342.9,473.6,341.9,472.5,341.2z"/>
	</g>
	<g>
		<path class="st1" d="M139.7,287c-4.1-0.8-9.3-1.3-15.7-1.6c3.1-5.4,8.8-14.4,17.1-27c7.3-11.3,13.5-20.1,18.6-26.3
			c5.1-6.3,8.3-9.4,9.6-9.5c0.8,0,1.2,0.4,1.2,1.3c0.1,1-2.5,6.3-7.7,15.7c-6.2,10.9-9.1,18.9-8.9,24c0.1,2,0.7,3,1.9,3
			c1.4-0.1,3.5-1.3,6.3-3.7c2.8-2.4,6-6.1,9.7-11.2l-2.3-2.1c9.1-18.4,13.5-30.4,13.3-36.1c-0.1-1.7-0.6-3-1.6-3.9
			c-1-0.9-2.4-1.3-4.1-1.2c-2.4,0.1-5.6,1.9-9.6,5.4c-4,3.5-8.5,8.5-13.7,15.1c-5.2,6.6-10.9,14.6-17.1,24.2
			c-6.2,9.5-12.9,20.4-20.1,32.7c-5.1,0.3-9.2,0.9-12.3,1.8c-3.1,0.9-5.4,2-7,3.4c-1.6,1.4-3.1,3.2-4.4,5.6
			c-1.4,2.4-2.8,4.8-4.2,7.4c-0.6,1.1-0.8,2.1-0.8,3c0.1,1.5,1,2.2,2.9,2.1c1.3-0.1,3.5-0.8,6.6-2.3c3.1-1.5,5.5-2.5,7.3-3.2
			c1.8-0.7,3.9-1.1,6.3-1.2c4.4-0.2,9.2,0.1,14.6,0.8c5.3,0.8,11.1,1.8,17.3,3.1c6.2,1.3,10.6,2.1,13.5,2.5c2.8,0.4,4.9,0.3,6.3-0.4
			c0.9-0.4,2.1-1.6,3.7-3.5c1.6-1.9,4.5-5.5,8.7-10.8c-3.7-0.2-9.4-1.2-17.2-3C149.8,289.1,143.8,287.8,139.7,287z"/>
		<path class="st1" d="M207.8,298.6c3.6-2.9,7.4-6.9,11.3-11.7c0.4,1.5,0.9,3,1.6,4.5c1.4,2.8,2.9,5.1,4.5,6.8
			c1.7,1.7,3,2.6,4.1,2.5c2.2-0.1,4.9-1.9,8.1-5.3c3.2-3.4,8.1-9.2,14.6-17.2c-2.3,7.3-3.4,12.8-3.2,16.5c0.1,2.4,0.6,4.1,1.4,5.3
			s2.2,1.7,4,1.6c4.5-0.2,11.4-5.7,20.7-16.4c0.7,3,1.8,5.8,3.5,8.4c2.5,3.8,5.4,5.6,8.7,5.5c1.9-0.1,4.3-1.5,7.2-4.2
			c2.9-2.7,6.7-6.7,11.2-12.1c2.5,1.2,4.3,1.7,5.2,1.7c2.4-0.1,4.4-0.6,5.9-1.4c0.7-0.4,1.6-1,2.6-1.8c0.4,5,1.9,9,4.3,11.8
			c2.6,3.2,6.1,4.6,10.3,4.4c4.8-0.2,9.5-2.2,14.1-5.9c4.5-3.7,9.3-8.9,14.4-15.6l-0.2-4.3c-3.4,3.2-6.3,5.8-8.7,7.7
			c-2.4,1.9-4.8,3.5-7.2,4.7c-2.4,1.2-4.8,1.9-7.1,2c-2.2,0.1-4.1-0.6-5.5-2.1c-1.5-1.5-2.3-3.6-2.4-6.4l-0.1-1.8
			c6.6-3,12.1-6.1,16.5-9.3c4.4-3.1,7.7-6.3,9.8-9.3c2.1-3.1,3-6.1,2.9-9.1c-0.1-2-0.8-3.5-2.2-4.5c-1.4-1-3.2-1.4-5.4-1.3
			c-2.8,0.1-5.9,1.1-9.4,2.8c-3.5,1.7-7,4.3-10.4,7.5c-5,4.8-8.6,9.2-10.8,13.4c-1.6,3.2-2.5,6.6-2.8,10.3c-0.4,0.3-0.9,0.6-1.3,0.9
			c-1.2,0.8-2.4,1.2-3.4,1.3c-1.2,0.1-2.5-0.9-3.8-3c2.1-3.1,3.9-6,5.3-8.9c1.4-2.9,2.5-5.5,3.2-7.9c0.7-2.4,1-4.5,0.9-6.1
			c-0.1-2.8-1.3-4.1-3.3-4c-1.3,0.1-3.3,1.7-5.9,4.9c-2.6,3.2-4.9,6.8-6.9,11c-2.1,4.1-3,7.8-2.9,10.9c-7.5,8.4-12.2,12.6-14.3,12.7
			c-2.1,0.1-3.3-1.1-3.4-3.7c0-0.9,0-1.8,0.2-2.6l1-6c4-3.6,7.5-7.7,10.4-12.5c3-4.7,4.4-8.3,4.2-10.7c0-0.7-0.7-1.3-2-1.8
			c-1.3-0.5-2.7-0.7-4.1-0.6c-1.7,0.1-3.1,0.6-4.4,1.7c-1.3,1-2.9,2.9-4.9,5.7c-6.4,8.8-9.6,16.3-9.6,22.5c-4.6,3.9-8.1,5.9-10.7,6
			c-3.2,0.2-4.9-1.5-5.1-5c-0.1-2.1,0.3-4,1.1-5.5c0.9-1.5,2.4-3.9,4.5-7.1c2.1-3.2,3.2-5.4,3.1-6.5c0-0.6-0.2-1.2-0.5-1.9
			c-0.3-0.7-0.8-1.7-1.4-2.8c-0.6-1.2-1.1-2.1-1.4-2.9c1.6-0.7,2.8-1.2,3.4-1.6c0.6-0.4,0.9-1.1,0.9-1.9c0-0.5-0.3-1.3-0.9-2.4
			c-0.6-1.1-1.3-2-2.2-2.8c-0.9-0.8-1.8-1.2-2.8-1.1c-3.7,0.2-8.9,2-15.5,5.6c-6.6,3.5-13.4,8.7-20.3,15.6c-2.6,2.7-4.4,4.9-5.6,6.5
			c-1.2,1.6-1.9,3.2-2.3,4.7c-0.3,1.4-0.4,3.1-0.4,5c-1.9,1.8-3.7,3.3-5.2,4.5c-2.4,1.9-4.8,3.5-7.2,4.7c-2.4,1.2-4.8,1.9-7.1,2
			c-2.2,0.1-4.1-0.6-5.5-2.1c-1.5-1.5-2.3-3.6-2.4-6.4l-0.1-1.8c6.6-3,12.1-6.1,16.5-9.3c4.4-3.1,7.7-6.3,9.8-9.3
			c2.1-3.1,3-6.1,2.9-9.1c-0.1-2-0.8-3.5-2.2-4.5c-1.4-1-3.2-1.4-5.4-1.3c-2.8,0.1-5.9,1.1-9.4,2.8c-3.5,1.7-7,4.3-10.4,7.5
			c-5,4.8-8.6,9.2-10.8,13.4c-2.1,4.2-3.1,8.8-2.8,13.7c0.3,5.7,1.7,10.1,4.4,13.3c2.6,3.2,6.1,4.6,10.3,4.4
			C198.6,304.3,203.3,302.3,207.8,298.6z M334.2,263.2c1.4-2.5,3.1-4.6,5-6.5c1.9-1.9,3.8-3.4,5.6-4.6c1.9-1.2,3.2-1.8,4.1-1.8
			c1,0,1.5,0.5,1.6,1.6c0.1,1-0.6,2.7-1.9,5.1c-1.3,2.3-3.5,4.8-6.4,7.4c-2.9,2.6-6.5,4.9-10.7,6.7
			C331.9,268.3,332.7,265.7,334.2,263.2z M234.8,271.8c5-4.2,13.6-9.4,25.7-15.7c-5.4,8.4-10,15.1-13.9,20c-3.9,4.9-8.3,9-13.1,12.2
			c-1.3,0.7-2.2,1.1-2.7,1.1c-0.9,0-1.6-0.4-2.2-1.4c-0.6-0.9-0.9-2.2-1-3.7C227.3,280.2,229.7,276,234.8,271.8z M194,270.2
			c1.4-2.5,3.1-4.6,5-6.5c1.9-1.9,3.8-3.4,5.6-4.6c1.9-1.2,3.2-1.8,4.1-1.8c1,0,1.5,0.5,1.6,1.6c0.1,1-0.6,2.7-1.9,5.1
			c-1.3,2.3-3.5,4.8-6.4,7.4c-2.9,2.6-6.5,4.9-10.7,6.7C191.7,275.3,192.6,272.7,194,270.2z"/>
		<path class="st1" d="M480.8,283.9c4.6-3.3,9.9-8.1,15.6-14.3l-0.2-4.8c-3,2.8-5.6,5-7.9,6.8c-2.3,1.8-4.5,3.2-6.7,4.3
			c-2.2,1.1-4.3,1.7-6.2,1.8c-1,0-2.4,0-4.1-0.2c4.1-3,7.5-5.8,10.1-8.6c2.6-2.8,4.5-5.6,5.8-8.6c1.3-2.9,1.8-6,1.7-9.1
			c-0.1-2.1-0.4-4-0.9-5.6c-0.5-1.6-1.1-3.7-1.9-6.1c-0.8-2.4-1.2-4.1-1.3-5c-0.1-1,0-1.9,0.2-2.4l-0.5-1.3
			c-1.2-0.5-2.2-0.7-3.2-0.7c-4,0.2-6.4,3.2-7.1,9.1c-4.3,5.4-12.3,14.9-23.9,28.4l0.1,1.7c0,0.3,0,0.5,0,0.8
			c-2.4,2-4.4,3.6-5.8,4.5c-2.1,1.4-3.9,2.2-5.5,2.3c-1.9,0.1-3-1.1-3.1-3.6c-0.1-1.1,0.4-2.9,1.2-5.2c0.9-2.3,1.9-4.4,3.2-6.4
			c2.3-3.7,4.3-6.9,5.9-9.6c1.7-2.7,2.8-4.6,3.3-5.6c0.5-1,0.9-1.8,1.1-2.4c0.2-0.6,0.2-1.4,0.2-2.4c-0.1-2.2-0.4-3.6-0.8-4.3
			c-0.4-0.7-1.2-1-2.4-1c-1.2,0.1-2.4,0.7-3.6,1.9c-1.2,1.2-3.5,3.7-6.8,7.6c-1.4,1.7-3.3,4.2-5.6,7.5c-2.3,3.3-4.3,5.8-6.1,7.6
			c-2.4,2.3-5.1,4.9-8.1,7.8c-3,2.9-5.2,4.9-6.4,6c-1.3,1-2.2,1.6-2.8,1.6c-1.6,0.1-2.4-0.9-2.5-2.9c-0.1-1.5,0.3-3.6,1-6.5
			c3.9-3.3,7.4-6.6,10.3-10c2.9-3.4,5.1-6.2,6.4-8.5c1.3-2.3,1.9-3.9,1.9-4.7c0-0.4-0.7-0.8-2.1-1.1c-1.4-0.3-2.9-0.5-4.4-0.4
			c-2.1,0.1-3.6,0.4-4.5,0.8c-0.9,0.5-1.8,1.3-2.7,2.5c-0.9,1.2-2,2.6-3.4,4.4c-2.2,2.8-4.1,5.3-5.7,7.6c-1.5,2.2-2.7,4.3-3.7,6.1
			c-0.9,1.9-1.5,3.6-1.8,5.1c-0.3,1.5-0.4,3.3-0.3,5.2c0.1,2.9,0.7,5.6,1.7,8.1c1,2.5,2.2,4.5,3.8,5.9c1.6,1.4,3.3,2.1,5.1,2
			c2.3-0.1,5.1-2.2,8.5-6.2c3.4-4,8.3-10.8,14.7-20.2c-2.4,5.9-4.1,10.4-5.1,13.6c-1,3.1-1.5,5.6-1.4,7.4c0.2,4.7,2.3,7,6.3,6.8
			c1.8-0.1,3.6-0.8,5.5-2.1c1.9-1.3,4.1-3.2,6.6-5.6c2-1.9,4.8-4.7,8.4-8.4c0.2,1,0.4,1.8,0.6,2.6c0.6,2.1,2.1,4.2,4.5,6.3
			c4,3.6,8.2,5.3,12.7,5.1C472.1,288.9,476.2,287.2,480.8,283.9z M462.5,269c-1.1-1-3.1-1.7-6-2.2c9.2-9.9,15.1-16.6,17.9-20.1
			l1.8,10.3c0.1,0.4,0.1,0.8,0.2,1.1c0,0.4,0.1,0.8,0.1,1.3c0.2,4-0.5,7.2-2.1,9.6c-1.6,2.4-4,4.3-7.2,5.8
			C465.2,271.9,463.6,270,462.5,269z"/>
		<path class="st1" d="M138.9,362.1c-0.1-2.1,0.3-4,1.1-5.5c0.9-1.5,2.4-3.9,4.5-7.1c2.1-3.2,3.2-5.4,3.1-6.5c0-0.6-0.2-1.2-0.5-1.9
			c-0.3-0.7-0.8-1.7-1.4-2.8c-0.6-1.2-1.1-2.1-1.4-2.9c1.6-0.7,2.8-1.2,3.4-1.6c0.6-0.4,0.9-1.1,0.9-1.9c0-0.5-0.3-1.3-0.9-2.4
			c-0.6-1.1-1.3-2-2.2-2.8c-0.9-0.8-1.8-1.2-2.8-1.1c-3.7,0.2-8.9,2-15.5,5.6c-6.6,3.5-13.4,8.7-20.3,15.7c-2.6,2.7-4.4,4.9-5.6,6.5
			c-1.2,1.6-1.9,3.2-2.3,4.7s-0.5,3.4-0.4,5.6c0.2,3.1,0.9,6,2.3,8.8c1.4,2.8,2.9,5.1,4.5,6.8c1.7,1.7,3,2.6,4.1,2.5
			c2.2-0.1,4.9-1.9,8.1-5.3c3.2-3.4,8.1-9.1,14.6-17.2c-2.3,7.3-3.4,12.8-3.2,16.5c0.1,2.4,0.6,4.1,1.4,5.3c0.8,1.2,2.2,1.7,4,1.6
			c5.2-0.3,13.4-7.4,24.8-21.3l-0.2-4.3c-6.8,6.6-11.8,9.9-15.1,10.1C140.8,367.3,139.1,365.6,138.9,362.1z M126.8,357.2
			c-3.9,4.9-8.3,9-13.1,12.2c-1.3,0.7-2.2,1.1-2.7,1.1c-0.9,0-1.6-0.4-2.2-1.4c-0.6-0.9-0.9-2.2-1-3.7c-0.2-4.2,2.2-8.4,7.3-12.6
			c5-4.2,13.6-9.4,25.7-15.7C135.4,345.6,130.7,352.2,126.8,357.2z"/>
		<path class="st1" d="M340.3,304.1c-1.9,2.7-2.7,5-2.6,7.1c0.1,1.4,0.7,2.5,1.8,3.3s2.3,1.2,3.4,1.2c2.2-0.1,4.3-1.4,6.1-4
			c1.8-2.6,2.7-4.9,2.6-6.9c-0.1-1.7-0.6-2.9-1.6-3.7c-1-0.8-2.2-1.2-3.6-1.1C344.2,300.1,342.2,301.4,340.3,304.1z"/>
		<path class="st1" d="M449.5,345.4c-0.6-0.3-1.2-0.6-1.7-1.1c-0.5-0.4-1-0.8-1.5-1.2c2.5-3.5,4.4-6.8,5.6-10.1
			c1.2-3.3,1.8-6.5,1.6-9.8c-0.2-4-1.1-5.9-2.8-5.9c-1.4,0.1-3.3,1.5-5.8,4.4c-2.5,2.9-4.7,6.2-6.6,10c-1.9,3.8-2.7,7-2.6,9.6
			c0,0.4,0.2,1.3,0.4,2.6c-4.9,7.3-8.3,11.1-10.4,11.2c-1.6,0.1-2.5-0.9-2.6-3.1c-0.1-2.1,0.7-5.3,2.3-9.6c1.6-4.3,3.5-9,5.8-14.2
			c2.2-5.2,3.3-8,3.3-8.5c0-0.9-0.6-1.6-1.6-2.1c-1-0.5-2.1-0.7-3.3-0.6c-1.1,0.1-1.8,0.3-2.1,0.8c-8.5,12.8-15.3,22.4-20.5,28.7
			c-5.2,6.4-8.8,9.6-10.8,9.7c-0.6,0-1.1-0.2-1.5-0.8c-0.4-0.6-0.7-1.2-0.7-1.9c-0.1-2,0.3-4.7,1.2-8.1c3.9-3.8,7.3-7.4,10.2-11
			c3-3.6,5.2-6.8,6.6-9.6c1.5-2.8,2.1-5.2,2-7c0-0.6-0.5-1.1-1.3-1.6c-0.9-0.5-1.8-0.8-2.9-1.1c-1.1-0.3-2-0.4-2.6-0.3
			c-1.1,0.1-2.5,0.8-4.1,2.2c-1.7,1.4-3.5,3.4-5.5,5.9c-2,2.5-4.3,5.8-6.9,9.7c-2.8,4.4-4.6,7.7-5.4,9.9c-0.6,1.8-0.9,3.8-0.9,6.2
			c-1.8,1.6-3.4,3-4.8,4.2c-2.4,1.9-4.8,3.5-7.2,4.7c-2.4,1.2-4.8,1.9-7.1,2c-2.2,0.1-4.1-0.6-5.5-2.1c-1.5-1.5-2.3-3.6-2.4-6.4
			l-0.1-1.8c6.6-3,12.1-6.1,16.5-9.3c4.4-3.1,7.7-6.3,9.8-9.3c2.1-3.1,3-6.1,2.9-9.1c-0.1-2-0.8-3.5-2.2-4.5c-1.4-1-3.2-1.4-5.4-1.3
			c-2.8,0.1-5.9,1.1-9.4,2.8c-3.5,1.7-7,4.3-10.4,7.5c-5,4.8-8.6,9.2-10.8,13.4c-1.7,3.4-2.7,7.1-2.8,11c-2.4,2.1-4.5,3.7-6.2,4.9
			c-2.6,1.8-5,2.7-7.2,2.8c-2,0.1-3.7-0.4-5.1-1.5c-1.3-1.1-2.1-2.5-2.1-4.2c-0.1-2,0.4-3.8,1.6-5.4c1.2-1.6,3.7-4.5,7.7-8.7
			c1.4-1.5,3-3.8,4.7-7.2c1.7-3.3,2.5-5.7,2.5-7.3c-0.1-2.2-1.6-3.3-4.5-3.1c-5.6,0.3-11.5,5.8-17.7,16.7c-1.3,2.4-2.2,4.2-2.7,5.3
			c-0.5,1.1-0.8,2.5-1.1,4.2c-0.2,1.4-0.3,2.9-0.3,4.4c-0.4,0.3-0.8,0.5-1.1,0.8c-1.2,0.8-2.4,1.2-3.4,1.3c-1.2,0.1-2.5-0.9-3.8-3
			c2.1-3.1,3.9-6,5.3-8.9c1.4-2.9,2.5-5.5,3.2-7.9c0.7-2.4,1-4.5,0.9-6.1c-0.1-2.8-1.3-4.1-3.3-4c-1.3,0.1-3.3,1.7-5.9,4.9
			c-2.6,3.2-4.9,6.8-6.9,11c-2.1,4.1-3,7.8-2.9,10.9c-7.5,8.4-12.2,12.6-14.3,12.7c-2.1,0.1-3.3-1.1-3.4-3.7c0-0.9,0-1.8,0.2-2.6
			l1-6c4-3.6,7.5-7.7,10.4-12.5c3-4.7,4.4-8.3,4.2-10.7c0-0.7-0.7-1.3-2-1.8c-1.3-0.5-2.7-0.7-4.1-0.6c-1.7,0.1-3.1,0.6-4.4,1.7
			c-1.3,1-2.9,2.9-4.9,5.7c-6.7,9.2-9.9,16.9-9.5,23.3c0,0,0,0.1,0,0.1c-1.1,0.9-2.1,1.8-3,2.5c-2.4,1.9-4.8,3.5-7.2,4.7
			c-2.4,1.2-4.8,1.9-7.1,2c-2.2,0.1-4.1-0.6-5.5-2.1c-1.5-1.5-2.3-3.6-2.4-6.4l-0.1-1.8c6.6-3,12.1-6.1,16.5-9.3
			c4.4-3.1,7.7-6.3,9.8-9.3c2.1-3.1,3-6.1,2.9-9.1c-0.1-2-0.8-3.5-2.2-4.5c-1.4-1-3.2-1.4-5.4-1.3c-2.8,0.1-5.9,1.1-9.4,2.8
			c-3.5,1.7-7,4.3-10.4,7.5c-5,4.8-8.6,9.2-10.8,13.4c-1.6,3.2-2.6,6.7-2.8,10.4c-5.1,4.3-8.8,6.5-11.2,6.6
			c-2.8,0.1-4.2-0.9-4.3-3.1c-0.1-1.6,0.7-4.1,2.2-7.3c1.5-3.3,3.5-6.3,5.9-9.1c2-2.3,3.4-4.1,4.3-5.3c0.8-1.2,1.2-2.3,1.2-3.3
			c-0.1-1.6-0.4-3.1-1-4.7c-0.6-1.5-1.3-2.5-2.1-2.9c-0.4-0.2-1.1-0.2-2.1-0.2c-2.6,0.1-8.7,1.2-18.4,3.2c1.3-2.5,2-4.2,2-5
			c0-0.9-0.5-1.3-1.5-1.3c-0.6,0-1.3,0.2-1.9,0.6c-1.7,0.8-3.5,2.3-5.5,4.7c-2,2.4-3.6,4.9-4.9,7.6c-1.3,2.7-1.9,4.9-1.8,6.6
			c0.1,1.5,0.5,2.6,1.2,3.4c0.7,0.7,1.9,1.3,3.4,1.8c-1.2,2.2-3,4.9-5.5,8.1l0.2,4.6c5.4-5.1,9.4-10.6,12-16.7c1-0.2,2.4-0.6,4.2-1
			s3.6-0.8,5.2-1.2c1.6-0.4,3.1-0.8,4.4-1.1c-2.4,3.2-4.5,6.3-6.3,9.5c-1.9,3.2-3.3,6.1-4.2,8.7c-0.9,2.7-1.3,5-1.2,7.1
			c0.2,3.5,1,6.1,2.4,7.8c1.4,1.8,3.1,2.6,5.1,2.5c1.7-0.1,3.6-0.9,5.7-2.4c2.1-1.5,4.4-3.5,6.8-6c1.6-1.7,3.6-3.8,5.8-6.3
			c0.5,4.5,1.9,8.1,4.2,10.8c2.6,3.2,6.1,4.6,10.3,4.4c4.8-0.2,9.5-2.2,14.1-5.9c3-2.4,6.1-5.5,9.3-9.3c0.7,2.5,1.7,4.9,3.2,7.1
			c2.5,3.8,5.4,5.6,8.7,5.5c1.9-0.1,4.3-1.5,7.2-4.2c2.9-2.7,6.7-6.7,11.2-12.1c2.5,1.2,4.3,1.7,5.2,1.7c2.4-0.1,4.4-0.6,5.9-1.4
			c0.8-0.4,1.7-1.1,2.8-1.9c0.5,3.4,1.6,6.6,3.1,9.6c2.1,4,5.1,5.9,9,5.7c2.8-0.1,6.1-1.8,10-5c2.7-2.3,5.6-5.3,8.6-9.1
			c0.6,3.8,2,6.9,4,9.3c2.6,3.2,6.1,4.6,10.3,4.4c4.8-0.2,9.5-2.2,14.1-5.9c3.5-2.8,7.1-6.5,10.9-11.1c0.4,1.7,1,3.3,1.8,4.9
			c1.4,2.6,3,4.7,4.8,6.2c1.9,1.5,3.4,2.3,4.7,2.2c1.3-0.1,2.6-0.6,3.9-1.5c1.3-0.9,2.6-2.2,4.1-3.8c1.4-1.6,3.3-3.9,5.6-7
			c2.3-3,4.4-5.6,6.1-7.9c-0.6,7.5-0.8,11.8-0.8,12.9c0.1,2.3,0.7,4.1,1.8,5.4c1.1,1.3,2.5,1.8,4.3,1.7c4.6-0.2,10.9-5.8,19.2-16.7
			c1.5,1,2.7,1.6,3.6,2c0.9,0.4,2.2,0.5,3.8,0.4c2.8-0.1,5.9-2.2,9.5-6.3l-0.3-5.1c-2.3,2.6-4.2,4-5.8,4.1
			C450.7,345.8,450.1,345.7,449.5,345.4z M360.4,336.9c1.4-2.5,3.1-4.6,5-6.5c1.9-1.9,3.8-3.4,5.6-4.6c1.9-1.2,3.2-1.8,4.1-1.8
			c1,0,1.5,0.5,1.6,1.6c0.1,1-0.6,2.7-1.9,5.1c-1.3,2.3-3.5,4.8-6.4,7.4c-2.9,2.6-6.5,4.9-10.7,6.7C358.1,342,359,339.4,360.4,336.9
			z M248,342.6c1.4-2.5,3.1-4.6,5-6.5c1.9-1.9,3.8-3.4,5.6-4.6c1.9-1.2,3.2-1.8,4.1-1.8c1,0,1.5,0.5,1.6,1.6c0.1,1-0.6,2.7-1.9,5.1
			c-1.3,2.3-3.5,4.8-6.4,7.4c-2.9,2.6-6.5,4.9-10.7,6.7C245.6,347.7,246.5,345,248,342.6z"/>
		<path class="st1" d="M508.1,271.4c-1.9-0.9-3.7-1.3-5.2-1.2c-0.8,0-1.6,0.2-2.6,0.6c-2.1,3.4-6.1,10.9-12.1,22.4
			c-3,5.9-5.6,10.9-7.7,15c-2.1,4.1-4,7.8-5.7,11.1c-1.7,3.3-2.9,5.8-3.5,7.5c-0.7,1.7-1,2.8-0.9,3.5c0.1,1.4,1,3,2.7,4.8
			c1.7,1.8,3.1,2.7,4.1,2.6c0.9,0,1.9-0.8,2.9-2.2c1-1.4,1.6-2.4,1.5-3c0-0.9-0.5-1.4-1.4-1.6c1.2-2.2,3-5.4,5.4-9.6
			c2.4-4.1,4.8-8.1,7-11.9c2.3-3.8,5.7-9.6,10.4-17.3c4.6-7.7,8-13.3,10.1-16.6C511.6,273.7,510,272.3,508.1,271.4z"/>
		<path class="st1" d="M472.5,341.2c-1.1-0.7-2.2-1-3.2-0.9c-1.7,0.1-3.2,2-4.5,5.9c-1.4,3.8-2,7.2-1.8,10.2c0.1,2.3,0.9,4,2.3,5.2
			c1.4,1.2,2.9,1.7,4.3,1.7c1.8-0.1,3.4-1.9,5-5.5c1.6-3.6,2.3-6.6,2.2-9.2c-0.1-1.6-0.5-3.1-1.4-4.4
			C474.6,342.9,473.6,341.9,472.5,341.2z"/>
	</g>
	<g>
		<path class="st0" d="M139.7,287c-4.1-0.8-9.3-1.3-15.7-1.6c3.1-5.4,8.8-14.4,17.1-27c7.3-11.3,13.5-20.1,18.6-26.3
			c5.1-6.3,8.3-9.4,9.6-9.5c0.8,0,1.2,0.4,1.2,1.3c0.1,1-2.5,6.3-7.7,15.7c-6.2,10.9-9.1,18.9-8.9,24c0.1,2,0.7,3,1.9,3
			c1.4-0.1,3.5-1.3,6.3-3.7c2.8-2.4,6-6.1,9.7-11.2l-2.3-2.1c9.1-18.4,13.5-30.4,13.3-36.1c-0.1-1.7-0.6-3-1.6-3.9
			c-1-0.9-2.4-1.3-4.1-1.2c-2.4,0.1-5.6,1.9-9.6,5.4c-4,3.5-8.5,8.5-13.7,15.1c-5.2,6.6-10.9,14.6-17.1,24.2
			c-6.2,9.5-12.9,20.4-20.1,32.7c-5.1,0.3-9.2,0.9-12.3,1.8c-3.1,0.9-5.4,2-7,3.4c-1.6,1.4-3.1,3.2-4.4,5.6
			c-1.4,2.4-2.8,4.8-4.2,7.4c-0.6,1.1-0.8,2.1-0.8,3c0.1,1.5,1,2.2,2.9,2.1c1.3-0.1,3.5-0.8,6.6-2.3c3.1-1.5,5.5-2.5,7.3-3.2
			c1.8-0.7,3.9-1.1,6.3-1.2c4.4-0.2,9.2,0.1,14.6,0.8c5.3,0.8,11.1,1.8,17.3,3.1c6.2,1.3,10.6,2.1,13.5,2.5c2.8,0.4,4.9,0.3,6.3-0.4
			c0.9-0.4,2.1-1.6,3.7-3.5c1.6-1.9,4.5-5.5,8.7-10.8c-3.7-0.2-9.4-1.2-17.2-3C149.8,289.1,143.8,287.8,139.7,287z"/>
		<path class="st0" d="M207.8,298.6c3.6-2.9,7.4-6.9,11.3-11.7c0.4,1.5,0.9,3,1.6,4.5c1.4,2.8,2.9,5.1,4.5,6.8
			c1.7,1.7,3,2.6,4.1,2.5c2.2-0.1,4.9-1.9,8.1-5.3c3.2-3.4,8.1-9.2,14.6-17.2c-2.3,7.3-3.4,12.8-3.2,16.5c0.1,2.4,0.6,4.1,1.4,5.3
			s2.2,1.7,4,1.6c4.5-0.2,11.4-5.7,20.7-16.4c0.7,3,1.8,5.8,3.5,8.4c2.5,3.8,5.4,5.6,8.7,5.5c1.9-0.1,4.3-1.5,7.2-4.2
			c2.9-2.7,6.7-6.7,11.2-12.1c2.5,1.2,4.3,1.7,5.2,1.7c2.4-0.1,4.4-0.6,5.9-1.4c0.7-0.4,1.6-1,2.6-1.8c0.4,5,1.9,9,4.3,11.8
			c2.6,3.2,6.1,4.6,10.3,4.4c4.8-0.2,9.5-2.2,14.1-5.9c4.5-3.7,9.3-8.9,14.4-15.6l-0.2-4.3c-3.4,3.2-6.3,5.8-8.7,7.7
			c-2.4,1.9-4.8,3.5-7.2,4.7c-2.4,1.2-4.8,1.9-7.1,2c-2.2,0.1-4.1-0.6-5.5-2.1c-1.5-1.5-2.3-3.6-2.4-6.4l-0.1-1.8
			c6.6-3,12.1-6.1,16.5-9.3c4.4-3.1,7.7-6.3,9.8-9.3c2.1-3.1,3-6.1,2.9-9.1c-0.1-2-0.8-3.5-2.2-4.5c-1.4-1-3.2-1.4-5.4-1.3
			c-2.8,0.1-5.9,1.1-9.4,2.8c-3.5,1.7-7,4.3-10.4,7.5c-5,4.8-8.6,9.2-10.8,13.4c-1.6,3.2-2.5,6.6-2.8,10.3c-0.4,0.3-0.9,0.6-1.3,0.9
			c-1.2,0.8-2.4,1.2-3.4,1.3c-1.2,0.1-2.5-0.9-3.8-3c2.1-3.1,3.9-6,5.3-8.9c1.4-2.9,2.5-5.5,3.2-7.9c0.7-2.4,1-4.5,0.9-6.1
			c-0.1-2.8-1.3-4.1-3.3-4c-1.3,0.1-3.3,1.7-5.9,4.9c-2.6,3.2-4.9,6.8-6.9,11c-2.1,4.1-3,7.8-2.9,10.9c-7.5,8.4-12.2,12.6-14.3,12.7
			c-2.1,0.1-3.3-1.1-3.4-3.7c0-0.9,0-1.8,0.2-2.6l1-6c4-3.6,7.5-7.7,10.4-12.5c3-4.7,4.4-8.3,4.2-10.7c0-0.7-0.7-1.3-2-1.8
			c-1.3-0.5-2.7-0.7-4.1-0.6c-1.7,0.1-3.1,0.6-4.4,1.7c-1.3,1-2.9,2.9-4.9,5.7c-6.4,8.8-9.6,16.3-9.6,22.5c-4.6,3.9-8.1,5.9-10.7,6
			c-3.2,0.2-4.9-1.5-5.1-5c-0.1-2.1,0.3-4,1.1-5.5c0.9-1.5,2.4-3.9,4.5-7.1c2.1-3.2,3.2-5.4,3.1-6.5c0-0.6-0.2-1.2-0.5-1.9
			c-0.3-0.7-0.8-1.7-1.4-2.8c-0.6-1.2-1.1-2.1-1.4-2.9c1.6-0.7,2.8-1.2,3.4-1.6c0.6-0.4,0.9-1.1,0.9-1.9c0-0.5-0.3-1.3-0.9-2.4
			c-0.6-1.1-1.3-2-2.2-2.8c-0.9-0.8-1.8-1.2-2.8-1.1c-3.7,0.2-8.9,2-15.5,5.6c-6.6,3.5-13.4,8.7-20.3,15.6c-2.6,2.7-4.4,4.9-5.6,6.5
			c-1.2,1.6-1.9,3.2-2.3,4.7c-0.3,1.4-0.4,3.1-0.4,5c-1.9,1.8-3.7,3.3-5.2,4.5c-2.4,1.9-4.8,3.5-7.2,4.7c-2.4,1.2-4.8,1.9-7.1,2
			c-2.2,0.1-4.1-0.6-5.5-2.1c-1.5-1.5-2.3-3.6-2.4-6.4l-0.1-1.8c6.6-3,12.1-6.1,16.5-9.3c4.4-3.1,7.7-6.3,9.8-9.3
			c2.1-3.1,3-6.1,2.9-9.1c-0.1-2-0.8-3.5-2.2-4.5c-1.4-1-3.2-1.4-5.4-1.3c-2.8,0.1-5.9,1.1-9.4,2.8c-3.5,1.7-7,4.3-10.4,7.5
			c-5,4.8-8.6,9.2-10.8,13.4c-2.1,4.2-3.1,8.8-2.8,13.7c0.3,5.7,1.7,10.1,4.4,13.3c2.6,3.2,6.1,4.6,10.3,4.4
			C198.6,304.3,203.3,302.3,207.8,298.6z M334.2,263.2c1.4-2.5,3.1-4.6,5-6.5c1.9-1.9,3.8-3.4,5.6-4.6c1.9-1.2,3.2-1.8,4.1-1.8
			c1,0,1.5,0.5,1.6,1.6c0.1,1-0.6,2.7-1.9,5.1c-1.3,2.3-3.5,4.8-6.4,7.4c-2.9,2.6-6.5,4.9-10.7,6.7
			C331.9,268.3,332.7,265.7,334.2,263.2z M234.8,271.8c5-4.2,13.6-9.4,25.7-15.7c-5.4,8.4-10,15.1-13.9,20c-3.9,4.9-8.3,9-13.1,12.2
			c-1.3,0.7-2.2,1.1-2.7,1.1c-0.9,0-1.6-0.4-2.2-1.4c-0.6-0.9-0.9-2.2-1-3.7C227.3,280.2,229.7,276,234.8,271.8z M194,270.2
			c1.4-2.5,3.1-4.6,5-6.5c1.9-1.9,3.8-3.4,5.6-4.6c1.9-1.2,3.2-1.8,4.1-1.8c1,0,1.5,0.5,1.6,1.6c0.1,1-0.6,2.7-1.9,5.1
			c-1.3,2.3-3.5,4.8-6.4,7.4c-2.9,2.6-6.5,4.9-10.7,6.7C191.7,275.3,192.6,272.7,194,270.2z"/>
		<path class="st0" d="M480.8,283.9c4.6-3.3,9.9-8.1,15.6-14.3l-0.2-4.8c-3,2.8-5.6,5-7.9,6.8c-2.3,1.8-4.5,3.2-6.7,4.3
			c-2.2,1.1-4.3,1.7-6.2,1.8c-1,0-2.4,0-4.1-0.2c4.1-3,7.5-5.8,10.1-8.6c2.6-2.8,4.5-5.6,5.8-8.6c1.3-2.9,1.8-6,1.7-9.1
			c-0.1-2.1-0.4-4-0.9-5.6c-0.5-1.6-1.1-3.7-1.9-6.1c-0.8-2.4-1.2-4.1-1.3-5c-0.1-1,0-1.9,0.2-2.4l-0.5-1.3
			c-1.2-0.5-2.2-0.7-3.2-0.7c-4,0.2-6.4,3.2-7.1,9.1c-4.3,5.4-12.3,14.9-23.9,28.4l0.1,1.7c0,0.3,0,0.5,0,0.8
			c-2.4,2-4.4,3.6-5.8,4.5c-2.1,1.4-3.9,2.2-5.5,2.3c-1.9,0.1-3-1.1-3.1-3.6c-0.1-1.1,0.4-2.9,1.2-5.2c0.9-2.3,1.9-4.4,3.2-6.4
			c2.3-3.7,4.3-6.9,5.9-9.6c1.7-2.7,2.8-4.6,3.3-5.6c0.5-1,0.9-1.8,1.1-2.4c0.2-0.6,0.2-1.4,0.2-2.4c-0.1-2.2-0.4-3.6-0.8-4.3
			c-0.4-0.7-1.2-1-2.4-1c-1.2,0.1-2.4,0.7-3.6,1.9c-1.2,1.2-3.5,3.7-6.8,7.6c-1.4,1.7-3.3,4.2-5.6,7.5c-2.3,3.3-4.3,5.8-6.1,7.6
			c-2.4,2.3-5.1,4.9-8.1,7.8c-3,2.9-5.2,4.9-6.4,6c-1.3,1-2.2,1.6-2.8,1.6c-1.6,0.1-2.4-0.9-2.5-2.9c-0.1-1.5,0.3-3.6,1-6.5
			c3.9-3.3,7.4-6.6,10.3-10c2.9-3.4,5.1-6.2,6.4-8.5c1.3-2.3,1.9-3.9,1.9-4.7c0-0.4-0.7-0.8-2.1-1.1c-1.4-0.3-2.9-0.5-4.4-0.4
			c-2.1,0.1-3.6,0.4-4.5,0.8c-0.9,0.5-1.8,1.3-2.7,2.5c-0.9,1.2-2,2.6-3.4,4.4c-2.2,2.8-4.1,5.3-5.7,7.6c-1.5,2.2-2.7,4.3-3.7,6.1
			c-0.9,1.9-1.5,3.6-1.8,5.1c-0.3,1.5-0.4,3.3-0.3,5.2c0.1,2.9,0.7,5.6,1.7,8.1c1,2.5,2.2,4.5,3.8,5.9c1.6,1.4,3.3,2.1,5.1,2
			c2.3-0.1,5.1-2.2,8.5-6.2c3.4-4,8.3-10.8,14.7-20.2c-2.4,5.9-4.1,10.4-5.1,13.6c-1,3.1-1.5,5.6-1.4,7.4c0.2,4.7,2.3,7,6.3,6.8
			c1.8-0.1,3.6-0.8,5.5-2.1c1.9-1.3,4.1-3.2,6.6-5.6c2-1.9,4.8-4.7,8.4-8.4c0.2,1,0.4,1.8,0.6,2.6c0.6,2.1,2.1,4.2,4.5,6.3
			c4,3.6,8.2,5.3,12.7,5.1C472.1,288.9,476.2,287.2,480.8,283.9z M462.5,269c-1.1-1-3.1-1.7-6-2.2c9.2-9.9,15.1-16.6,17.9-20.1
			l1.8,10.3c0.1,0.4,0.1,0.8,0.2,1.1c0,0.4,0.1,0.8,0.1,1.3c0.2,4-0.5,7.2-2.1,9.6c-1.6,2.4-4,4.3-7.2,5.8
			C465.2,271.9,463.6,270,462.5,269z"/>
		<path class="st0" d="M138.9,362.1c-0.1-2.1,0.3-4,1.1-5.5c0.9-1.5,2.4-3.9,4.5-7.1c2.1-3.2,3.2-5.4,3.1-6.5c0-0.6-0.2-1.2-0.5-1.9
			c-0.3-0.7-0.8-1.7-1.4-2.8c-0.6-1.2-1.1-2.1-1.4-2.9c1.6-0.7,2.8-1.2,3.4-1.6c0.6-0.4,0.9-1.1,0.9-1.9c0-0.5-0.3-1.3-0.9-2.4
			c-0.6-1.1-1.3-2-2.2-2.8c-0.9-0.8-1.8-1.2-2.8-1.1c-3.7,0.2-8.9,2-15.5,5.6c-6.6,3.5-13.4,8.7-20.3,15.7c-2.6,2.7-4.4,4.9-5.6,6.5
			c-1.2,1.6-1.9,3.2-2.3,4.7s-0.5,3.4-0.4,5.6c0.2,3.1,0.9,6,2.3,8.8c1.4,2.8,2.9,5.1,4.5,6.8c1.7,1.7,3,2.6,4.1,2.5
			c2.2-0.1,4.9-1.9,8.1-5.3c3.2-3.4,8.1-9.1,14.6-17.2c-2.3,7.3-3.4,12.8-3.2,16.5c0.1,2.4,0.6,4.1,1.4,5.3c0.8,1.2,2.2,1.7,4,1.6
			c5.2-0.3,13.4-7.4,24.8-21.3l-0.2-4.3c-6.8,6.6-11.8,9.9-15.1,10.1C140.8,367.3,139.1,365.6,138.9,362.1z M126.8,357.2
			c-3.9,4.9-8.3,9-13.1,12.2c-1.3,0.7-2.2,1.1-2.7,1.1c-0.9,0-1.6-0.4-2.2-1.4c-0.6-0.9-0.9-2.2-1-3.7c-0.2-4.2,2.2-8.4,7.3-12.6
			c5-4.2,13.6-9.4,25.7-15.7C135.4,345.6,130.7,352.2,126.8,357.2z"/>
		<path class="st0" d="M340.3,304.1c-1.9,2.7-2.7,5-2.6,7.1c0.1,1.4,0.7,2.5,1.8,3.3s2.3,1.2,3.4,1.2c2.2-0.1,4.3-1.4,6.1-4
			c1.8-2.6,2.7-4.9,2.6-6.9c-0.1-1.7-0.6-2.9-1.6-3.7c-1-0.8-2.2-1.2-3.6-1.1C344.2,300.1,342.2,301.4,340.3,304.1z"/>
		<path class="st0" d="M449.5,345.4c-0.6-0.3-1.2-0.6-1.7-1.1c-0.5-0.4-1-0.8-1.5-1.2c2.5-3.5,4.4-6.8,5.6-10.1
			c1.2-3.3,1.8-6.5,1.6-9.8c-0.2-4-1.1-5.9-2.8-5.9c-1.4,0.1-3.3,1.5-5.8,4.4c-2.5,2.9-4.7,6.2-6.6,10c-1.9,3.8-2.7,7-2.6,9.6
			c0,0.4,0.2,1.3,0.4,2.6c-4.9,7.3-8.3,11.1-10.4,11.2c-1.6,0.1-2.5-0.9-2.6-3.1c-0.1-2.1,0.7-5.3,2.3-9.6c1.6-4.3,3.5-9,5.8-14.2
			c2.2-5.2,3.3-8,3.3-8.5c0-0.9-0.6-1.6-1.6-2.1c-1-0.5-2.1-0.7-3.3-0.6c-1.1,0.1-1.8,0.3-2.1,0.8c-8.5,12.8-15.3,22.4-20.5,28.7
			c-5.2,6.4-8.8,9.6-10.8,9.7c-0.6,0-1.1-0.2-1.5-0.8c-0.4-0.6-0.7-1.2-0.7-1.9c-0.1-2,0.3-4.7,1.2-8.1c3.9-3.8,7.3-7.4,10.2-11
			c3-3.6,5.2-6.8,6.6-9.6c1.5-2.8,2.1-5.2,2-7c0-0.6-0.5-1.1-1.3-1.6c-0.9-0.5-1.8-0.8-2.9-1.1c-1.1-0.3-2-0.4-2.6-0.3
			c-1.1,0.1-2.5,0.8-4.1,2.2c-1.7,1.4-3.5,3.4-5.5,5.9c-2,2.5-4.3,5.8-6.9,9.7c-2.8,4.4-4.6,7.7-5.4,9.9c-0.6,1.8-0.9,3.8-0.9,6.2
			c-1.8,1.6-3.4,3-4.8,4.2c-2.4,1.9-4.8,3.5-7.2,4.7c-2.4,1.2-4.8,1.9-7.1,2c-2.2,0.1-4.1-0.6-5.5-2.1c-1.5-1.5-2.3-3.6-2.4-6.4
			l-0.1-1.8c6.6-3,12.1-6.1,16.5-9.3c4.4-3.1,7.7-6.3,9.8-9.3c2.1-3.1,3-6.1,2.9-9.1c-0.1-2-0.8-3.5-2.2-4.5c-1.4-1-3.2-1.4-5.4-1.3
			c-2.8,0.1-5.9,1.1-9.4,2.8c-3.5,1.7-7,4.3-10.4,7.5c-5,4.8-8.6,9.2-10.8,13.4c-1.7,3.4-2.7,7.1-2.8,11c-2.4,2.1-4.5,3.7-6.2,4.9
			c-2.6,1.8-5,2.7-7.2,2.8c-2,0.1-3.7-0.4-5.1-1.5c-1.3-1.1-2.1-2.5-2.1-4.2c-0.1-2,0.4-3.8,1.6-5.4c1.2-1.6,3.7-4.5,7.7-8.7
			c1.4-1.5,3-3.8,4.7-7.2c1.7-3.3,2.5-5.7,2.5-7.3c-0.1-2.2-1.6-3.3-4.5-3.1c-5.6,0.3-11.5,5.8-17.7,16.7c-1.3,2.4-2.2,4.2-2.7,5.3
			c-0.5,1.1-0.8,2.5-1.1,4.2c-0.2,1.4-0.3,2.9-0.3,4.4c-0.4,0.3-0.8,0.5-1.1,0.8c-1.2,0.8-2.4,1.2-3.4,1.3c-1.2,0.1-2.5-0.9-3.8-3
			c2.1-3.1,3.9-6,5.3-8.9c1.4-2.9,2.5-5.5,3.2-7.9c0.7-2.4,1-4.5,0.9-6.1c-0.1-2.8-1.3-4.1-3.3-4c-1.3,0.1-3.3,1.7-5.9,4.9
			c-2.6,3.2-4.9,6.8-6.9,11c-2.1,4.1-3,7.8-2.9,10.9c-7.5,8.4-12.2,12.6-14.3,12.7c-2.1,0.1-3.3-1.1-3.4-3.7c0-0.9,0-1.8,0.2-2.6
			l1-6c4-3.6,7.5-7.7,10.4-12.5c3-4.7,4.4-8.3,4.2-10.7c0-0.7-0.7-1.3-2-1.8c-1.3-0.5-2.7-0.7-4.1-0.6c-1.7,0.1-3.1,0.6-4.4,1.7
			c-1.3,1-2.9,2.9-4.9,5.7c-6.7,9.2-9.9,16.9-9.5,23.3c0,0,0,0.1,0,0.1c-1.1,0.9-2.1,1.8-3,2.5c-2.4,1.9-4.8,3.5-7.2,4.7
			c-2.4,1.2-4.8,1.9-7.1,2c-2.2,0.1-4.1-0.6-5.5-2.1c-1.5-1.5-2.3-3.6-2.4-6.4l-0.1-1.8c6.6-3,12.1-6.1,16.5-9.3
			c4.4-3.1,7.7-6.3,9.8-9.3c2.1-3.1,3-6.1,2.9-9.1c-0.1-2-0.8-3.5-2.2-4.5c-1.4-1-3.2-1.4-5.4-1.3c-2.8,0.1-5.9,1.1-9.4,2.8
			c-3.5,1.7-7,4.3-10.4,7.5c-5,4.8-8.6,9.2-10.8,13.4c-1.6,3.2-2.6,6.7-2.8,10.4c-5.1,4.3-8.8,6.5-11.2,6.6
			c-2.8,0.1-4.2-0.9-4.3-3.1c-0.1-1.6,0.7-4.1,2.2-7.3c1.5-3.3,3.5-6.3,5.9-9.1c2-2.3,3.4-4.1,4.3-5.3c0.8-1.2,1.2-2.3,1.2-3.3
			c-0.1-1.6-0.4-3.1-1-4.7c-0.6-1.5-1.3-2.5-2.1-2.9c-0.4-0.2-1.1-0.2-2.1-0.2c-2.6,0.1-8.7,1.2-18.4,3.2c1.3-2.5,2-4.2,2-5
			c0-0.9-0.5-1.3-1.5-1.3c-0.6,0-1.3,0.2-1.9,0.6c-1.7,0.8-3.5,2.3-5.5,4.7c-2,2.4-3.6,4.9-4.9,7.6c-1.3,2.7-1.9,4.9-1.8,6.6
			c0.1,1.5,0.5,2.6,1.2,3.4c0.7,0.7,1.9,1.3,3.4,1.8c-1.2,2.2-3,4.9-5.5,8.1l0.2,4.6c5.4-5.1,9.4-10.6,12-16.7c1-0.2,2.4-0.6,4.2-1
			s3.6-0.8,5.2-1.2c1.6-0.4,3.1-0.8,4.4-1.1c-2.4,3.2-4.5,6.3-6.3,9.5c-1.9,3.2-3.3,6.1-4.2,8.7c-0.9,2.7-1.3,5-1.2,7.1
			c0.2,3.5,1,6.1,2.4,7.8c1.4,1.8,3.1,2.6,5.1,2.5c1.7-0.1,3.6-0.9,5.7-2.4c2.1-1.5,4.4-3.5,6.8-6c1.6-1.7,3.6-3.8,5.8-6.3
			c0.5,4.5,1.9,8.1,4.2,10.8c2.6,3.2,6.1,4.6,10.3,4.4c4.8-0.2,9.5-2.2,14.1-5.9c3-2.4,6.1-5.5,9.3-9.3c0.7,2.5,1.7,4.9,3.2,7.1
			c2.5,3.8,5.4,5.6,8.7,5.5c1.9-0.1,4.3-1.5,7.2-4.2c2.9-2.7,6.7-6.7,11.2-12.1c2.5,1.2,4.3,1.7,5.2,1.7c2.4-0.1,4.4-0.6,5.9-1.4
			c0.8-0.4,1.7-1.1,2.8-1.9c0.5,3.4,1.6,6.6,3.1,9.6c2.1,4,5.1,5.9,9,5.7c2.8-0.1,6.1-1.8,10-5c2.7-2.3,5.6-5.3,8.6-9.1
			c0.6,3.8,2,6.9,4,9.3c2.6,3.2,6.1,4.6,10.3,4.4c4.8-0.2,9.5-2.2,14.1-5.9c3.5-2.8,7.1-6.5,10.9-11.1c0.4,1.7,1,3.3,1.8,4.9
			c1.4,2.6,3,4.7,4.8,6.2c1.9,1.5,3.4,2.3,4.7,2.2c1.3-0.1,2.6-0.6,3.9-1.5c1.3-0.9,2.6-2.2,4.1-3.8c1.4-1.6,3.3-3.9,5.6-7
			c2.3-3,4.4-5.6,6.1-7.9c-0.6,7.5-0.8,11.8-0.8,12.9c0.1,2.3,0.7,4.1,1.8,5.4c1.1,1.3,2.5,1.8,4.3,1.7c4.6-0.2,10.9-5.8,19.2-16.7
			c1.5,1,2.7,1.6,3.6,2c0.9,0.4,2.2,0.5,3.8,0.4c2.8-0.1,5.9-2.2,9.5-6.3l-0.3-5.1c-2.3,2.6-4.2,4-5.8,4.1
			C450.7,345.8,450.1,345.7,449.5,345.4z M360.4,336.9c1.4-2.5,3.1-4.6,5-6.5c1.9-1.9,3.8-3.4,5.6-4.6c1.9-1.2,3.2-1.8,4.1-1.8
			c1,0,1.5,0.5,1.6,1.6c0.1,1-0.6,2.7-1.9,5.1c-1.3,2.3-3.5,4.8-6.4,7.4c-2.9,2.6-6.5,4.9-10.7,6.7C358.1,342,359,339.4,360.4,336.9
			z M248,342.6c1.4-2.5,3.1-4.6,5-6.5c1.9-1.9,3.8-3.4,5.6-4.6c1.9-1.2,3.2-1.8,4.1-1.8c1,0,1.5,0.5,1.6,1.6c0.1,1-0.6,2.7-1.9,5.1
			c-1.3,2.3-3.5,4.8-6.4,7.4c-2.9,2.6-6.5,4.9-10.7,6.7C245.6,347.7,246.5,345,248,342.6z"/>
		<path class="st0" d="M508.1,271.4c-1.9-0.9-3.7-1.3-5.2-1.2c-0.8,0-1.6,0.2-2.6,0.6c-2.1,3.4-6.1,10.9-12.1,22.4
			c-3,5.9-5.6,10.9-7.7,15c-2.1,4.1-4,7.8-5.7,11.1c-1.7,3.3-2.9,5.8-3.5,7.5c-0.7,1.7-1,2.8-0.9,3.5c0.1,1.4,1,3,2.7,4.8
			c1.7,1.8,3.1,2.7,4.1,2.6c0.9,0,1.9-0.8,2.9-2.2c1-1.4,1.6-2.4,1.5-3c0-0.9-0.5-1.4-1.4-1.6c1.2-2.2,3-5.4,5.4-9.6
			c2.4-4.1,4.8-8.1,7-11.9c2.3-3.8,5.7-9.6,10.4-17.3c4.6-7.7,8-13.3,10.1-16.6C511.6,273.7,510,272.3,508.1,271.4z"/>
		<path class="st0" d="M472.5,341.2c-1.1-0.7-2.2-1-3.2-0.9c-1.7,0.1-3.2,2-4.5,5.9c-1.4,3.8-2,7.2-1.8,10.2c0.1,2.3,0.9,4,2.3,5.2
			c1.4,1.2,2.9,1.7,4.3,1.7c1.8-0.1,3.4-1.9,5-5.5c1.6-3.6,2.3-6.6,2.2-9.2c-0.1-1.6-0.5-3.1-1.4-4.4
			C474.6,342.9,473.6,341.9,472.5,341.2z"/>
	</g>
</g>
</svg>
