<?xml version="1.0" encoding="utf-8"?>
<!-- Generator: Adobe Illustrator 27.6.1, SVG Export Plug-In . SVG Version: 6.00 Build 0)  -->
<svg version="1.1" id="Layer_1" xmlns="http://www.w3.org/2000/svg" xmlns:xlink="http://www.w3.org/1999/xlink" x="0px" y="0px"
	 viewBox="0 0 294.5 792" style="enable-background:new 0 0 294.5 792;" xml:space="preserve">
<style type="text/css">
	.st0{fill:#FFFFFF;stroke:#D90000;stroke-width:2.6693;stroke-miterlimit:10;}
	.st1{fill:#FFFFFF;}
	.st2{fill:#D90000;}
</style>
<g>
	<path class="st0" d="M89.3,212.9c-2.6-8-5.3-16-6.8-24.4c-4.9-28.7-3.8-57.2,2.8-85.5c4.8-20.7,12.3-40.2,24.6-57.6
		c10.5-14.9,23.9-25.9,42.1-30.1c3.6-0.8,7.2-1.2,11.1-1.8c-4.3-2.3-17.8,0-26.6,4.3c-8.4,4.1-15.3,10.1-22.2,16.4
		c1.3-1.4,2.6-2.8,3.9-4.2c1.4-1.4,2.7-2.8,4.2-4.1c7.1-5.9,14.9-10.6,23.9-12.7c19.9-4.5,37.7-0.7,53,13.4
		c12.7,11.7,21.8,25.7,29.2,41.1c9.7,20.2,16.2,41.3,19.1,63.6c4,30.1,1,59.5-10,87.8c-4,10.2-10,19.2-17.4,27.3
		c-6.6,7.3-13.6,14.3-20.9,20.9c-10.7,9.7-16.8,21.9-17.1,36.6c-0.5,25.1,0.2,50.3,0.9,75.4c0.4,16.8,1.1,33.6,1.9,50.3
		c1.1,25.7,2.4,51.5,3.7,77.2c0.7,15.1,1.3,30.3,2.1,45.4c1.1,18.4,2.3,36.7,3.6,55.1c1,14.7,2.1,29.4,3.5,44
		c1.7,17.8,3.7,35.5,5.5,53.3c1,9.7,2.6,19.3,2.4,29.1c0,2.3-0.1,4.5-2.4,6c-1.6,1.1-1,3-1.1,4.5c-0.3,3.1-0.2,6.5-4.5,7.2
		c-1.1,0.2-1.3,1.3-1.4,2.3c-0.1,1.3,0,2.6-0.2,3.9c-0.4,4.2-1.5,5.2-5.8,5.3c-0.7,0-1.3,0.1-1.9,0c-2.8-0.3-4,0.9-3.8,3.7
		c0.3,3.5-0.3,6.9-2.1,10c-2.5,4.5-7.1,7.1-11.8,6.6c-6.4-0.7-10.1-3.4-11.7-9.1c-0.6-2.1-1-4.2-1.1-6.4c-0.1-2.4-1.1-3.3-3.4-3.1
		c-0.8,0.1-1.5,0-2.3,0c-6.3-0.1-8.5-2.1-7.9-8.5c0.3-3.3-0.4-4.8-3.7-5.3c-2.8-0.5-2.7-3.1-2.9-5.2c-0.2-2.5,0.6-5.1-2.7-6.6
		c-1.1-0.5-1.1-2.2-1-3.6c1-19.2,1.8-38.5,3.1-57.7c1.4-21.3,2.6-42.5,3.3-63.9c0.6-18.6,1.3-37.2,1.9-55.8
		c0.7-19.2,1.4-38.3,2-57.5c0.5-14.5,0.9-29,1.3-43.5c1.1-39.1,0.5-78.2,0.3-117.3c-0.1-12.4,0-24.9-0.5-37.4
		c-0.3-9.2-2.1-18-6.4-26.3c0,0,0,0,0,0c3.1,3,4.4,6.9,5.6,10.8c2.5,7.8,2.5,15.8,2.4,24c-0.7,58.2,0.6,116.4-0.8,174.6
		c-0.3,13.7-1,27.5-1.2,41.2c-0.3,19.4-1.2,38.7-2,58.1c-0.6,13.7-0.8,27.5-1.5,41.2c-0.3,4.9-0.3,9.7-0.6,14.6
		c-1.2,19-2.5,38-3.2,57c-0.2,6.2-0.9,12.3-1,18.5c-0.2,6.5,0,13,0,19.4c1-12.4,1.7-24.8,2.4-37.2c0.5-9.3,0.7-18.6,1.5-27.9
		c1.4-15.6,2-31.3,3-46.9c0.9-14.1,1.5-28.3,1.9-42.5c0.4-13,0.7-26,1.3-38.9c0.5-10.7,0.2-21.4,0.6-32.1
		c0.7-21.4,0.4-42.9,0.6-64.3c0.5-42.5,0.2-85,0.2-127.4c0-3-0.3-6.2,0.6-8.9c1.3-4,2.1-7.8,1.5-12c-0.6-3.8-1.9-7.3-2.6-11
		c-1.8-8.5-7.7-13.8-13.6-19.2C115.1,252.7,99.6,234.9,89.3,212.9z M153.6,56c-0.2,0.8-0.5,1.6-0.6,2.5
		c-7.8,36.2-11.7,72.9-11.5,110c0.1,18.2,0.7,36.4,2.6,54.5c0.6,5.7,0.8,11.5,2.5,17c0.6,2.1,1.2,4,0.7,6.3c-0.4,2.3-0.2,4.5,2,6.2
		c1.4,1.1,2.5,2.7,3,4.5c0.5,1.8,1.7,2.7,3.6,2.7c2.4,0.1,3.7,1.4,4.2,3.8c0.6,3,1.7,3.3,4.2,1.3c1.5-1.2,3-1.3,4-0.1
		c2.3,2.7,5.3,3.4,8.6,4c2.9,0.6,4.6,2.4,3.8,5.6c-0.4,1.7,0.3,3.2,0.6,4.8c0.4,2.6,1.7,2.5,3.2,0.9c1.7-1.8,3.4-3.6,5.1-5.4
		c8.2-8.6,17.2-16.5,24.7-25.8c9.4-11.8,18.2-24,23.2-38.5c7.1-20.5,9-41.6,8.2-63.1c-0.1-2.8-0.3-5.6-0.8-8.4
		c-0.5-2.8-0.3-5.6-1.7-9c0.9,9.8,2.6,18.9,1.7,28c-0.3,0-0.7,0-1,0c0-3.3,0-6.6,0-9.9c-0.7,9.5-0.2,19-1.3,28.5
		c-1.5,13.4-4,26.6-10.3,38.7c-0.7,1.4-1.4,2.7-2.6,3.7c-0.6,0.5-1.1,1.3-1.9,1c-0.8-0.3-0.9-1.2-0.9-1.9c0-2.8-0.1-5.7,0.3-8.4
		c2.9-19.7,3.5-39.4,2.1-59.3c-0.3-4-0.4-8.1-1.6-12c-0.1,3.6,0.8,7.1,0.5,10.6c-0.2,2.6-1.6,4.6-3.9,4.9c-2.2,0.3-3.9-1.3-4.5-3.8
		c-1-3.9-3.3-6.7-7-8.4c-2.8-1.4-4.8-3.7-6.6-6.1c-0.9-1.3-1.8-2.4-3.1-3.3c-4.4-2.9-8.1-6.4-11.6-10.3c-0.7-0.8-1.6-1.2-2.6-0.8
		c-2.4,0.9-3.5-0.4-4.6-2.3c-0.9-1.7-1.5-4.1-4.2-3.8c-1.8,0.2-2.3-0.5-2.1-2.2c0.2-2.1-0.7-3.3-3.1-2.9c-1.5,0.3-2.3-0.7-2.5-2
		c-0.5-4.6-3.5-8.7-2.3-13.6c0.2-0.8-0.3-1.9-0.6-2.8c-1.4-3.5-3.2-6.8-4.2-10.4c-0.6-2.2-1-4.1-3-5.4c-1.6-1.1-2.4-2.7-2.4-4.7
		c-0.1-3.9-1.5-7.5-4.2-10.2C154.4,59.2,153.7,57.9,153.6,56z M207.4,46.8c-3.8-6.2-9.3-10.7-15.3-14.6c-0.9-0.6-2-0.8-3-1.2
		c-1.2-0.4-2.4-0.1-3.3,0.8c-0.9,1,0.2,1.8,0.5,2.6c1.8,4.4,5.2,7.7,7.8,11.5c2.9,4.1,6.9,7.3,9.5,11.8c0.5,0.9,1.6,1.4,2.5,0.8
		c0.9-0.5,0.1-1.4-0.1-2c-1-2.8-2-5.5-3-8.2c-0.1-0.4-0.2-1.2-0.3-1.2c-3.3-0.2-2.6-3.7-4.4-5.1c-0.4-0.3-0.6-1.2-0.1-1.8
		c0.6-0.6,1.2-0.1,1.7,0.3c1.6,1,3.1,2,4,3.7C204.7,45.4,205.8,46.3,207.4,46.8z"/>
	<path class="st0" d="M89.3,212.9c10.4,22,25.8,39.8,44.9,54.6c0.8,3.5,4.4,5.4,5,9c0,0,0,0,0,0c-2.5-1.8-4.1-4.4-6.1-6.6
		c-4.5-5-9.5-9.4-14.8-13.5c-12.8-9.9-21.7-22.8-28.4-37.3c-1.7-3.8-3.6-7.5-4.1-11.8C86.8,209.2,87.6,211.3,89.3,212.9z"/>
	<path class="st0" d="M80.4,188.6c-3.5-16.8-4.9-33.8-3.2-51C77,154.7,77.6,171.7,80.4,188.6z"/>
</g>
<ellipse class="st1" cx="166.5" cy="149" rx="74" ry="130.9"/>
<g>
	<path class="st2" d="M205.5,256.5c2.8-3.5,5.4-7.1,8.3-10.4c12.7-14.3,22.1-30.5,26.9-49c4-15.4,5.4-31.2,4.9-47.2
		c-0.2-9.5-0.8-19-2.8-28.2c-2.5-11.4-4.6-22.9-9.1-33.9c-2.2-5.4-4.5-10.9-6.6-16.4c-0.4-1.1-0.4-2.5-2-1.9c-1,0.4-1.2,1.6-0.6,2.5
		c4.8,8.5,7.1,17.9,10,27.1c2.5,7.7,3.3,16,5.6,23.8c1.5,5.1,0,10,1.1,15c-6.3-1.5-9.2,0.8-9.6,7.5c-0.3,7.2-0.3,14.4-0.5,21.7
		c0,1.7-0.2,3.4-0.9,5.2c0.8-45.7-12.3-88.3-28.1-130.5c6.3,2.4,8.7,8.2,12.6,12.5c0.9,1,1,3.4,3,2.2c2.3-1.3,0.5-2.7-0.3-4
		C210,38.6,200.3,26.6,186,18.9c-5.1-2.7-10.3-5.3-16.4-5.4c-4-0.1-6.1,1.9-7.4,5.1c-6.3,16.6-11.2,33.5-14,51.1
		c-1.6,10.1-3.2,20.3-5.1,30.3c-1.4,7.5-2,15.3-2.4,23c-1.3,27.7-1.8,55.5,0.1,83.2c1,15,2.8,29.9,5.2,44.8
		c1.1,7.1,3.4,14.1,2.5,21.4c-0.2,1.5,0.8,3.5-1.3,4.3c-1.8,0.6-3.2-0.5-4.3-1.7c-5.2-5.7-10.8-10.8-16.6-15.8
		c-13.1-11.4-24.9-23.9-33.5-39.2c-7.4-13.3-11.1-27.6-13.3-42.5c-1.7-11.4-2.2-22.9-1.8-34.3c0.5-13.9,2.5-27.5,5.4-41.2
		c3.7-17.4,9.5-33.9,18.1-49.4c9.2-16.6,21.2-30.2,39-38c5.9-2.6,12.1-4,18.4-4.5c3.2-0.3,5.5-2.5,8.9-2.2
		c11,0.9,20.1,6.1,28.3,12.9c16.7,13.8,27.2,31.9,35.6,51.5c4.5,10.6,8.5,21.5,11.1,32.7c4.9,21.1,7.9,42.4,5.3,64.2
		c-1.3,11.4-3.2,22.6-6.2,33.7c-5.1,18.9-15,34.8-28.8,48.5c-2.1,2.1-3.7,4.6-5.5,7C206.6,257.6,206.1,257,205.5,256.5z M223.2,62.2
		c-2.5-0.4-1.2-3.8-3.3-4.6c-0.9-0.3-1.8,1.4-1.3,2c1.3,1.4,0.9,3.9,3.1,4.5C222.5,64.4,223,63.5,223.2,62.2z"/>
	<path class="st2" d="M144.5,763.8c-2.2-9.3-1.9-9.7,7.1-9.8c10.7-0.2,21.4-0.2,32-1.1c5.1-0.4,10.9-0.5,14.8-5
		c0.6-0.7,1.4-1.6,0.8-2.6c-0.5-0.8-1.5-0.4-2.2-0.4c-18.1,0-36.1,0.1-54.2,0c-2.6,0-5,0-5.2,4.1c-1.6-4.8-0.3-6.1,4-6
		c16.6,0.6,33.1-0.3,49.7-1.8c4.4-0.4,6.9-2.6,6.4-6.9c-2.1-16.5-1.8-33.1-3.2-49.6c-1-11.6-1.8-23.2-2.5-34.8
		c-1-16.2-2.6-32.4-3.5-48.6c-0.6-10.3-1.8-20.6-2.3-30.9c-2.1-47.2-4-94.5-5.6-141.7c-0.9-26.9-0.3-53.9-1.7-80.8
		c-0.5-8.9-1.1-17.7-0.6-26.6c0.3-4.5-2.1-6-5.6-7.1c-2.7-0.8-5.7-0.7-8.5-2.2c0.4-0.3,0.5-0.4,0.6-0.5c3.1-0.5,7,0.1,9-1.6
		c2.1-1.9-0.3-5.7-0.3-8.6c0-7.4,2.4-14.1,6.9-19.9c2.5-3.3,5.5-6.2,8.8-8.9c0.7,4.4-2.5,6.9-3.9,10.1c-3.5,8-5.1,16.2-5.1,24.7
		c0.1,37.6,1.7,75.2,3.1,112.8c0.9,23.6,1.2,47.3,2.9,70.8c1.4,20.3,1.9,40.7,3.2,61c1,14.9,2,29.8,2.6,44.7
		c0.6,14.1,2.6,28.1,3.3,42.1c0.5,9.7,1.9,19.2,2.6,28.9c0.7,9.6,2.2,19.2,3.2,28.8c1.3,12.7,2.5,25.4,3.6,38.1
		c0.3,2.9,0.3,5.9-2.5,8.1c-1.3,1-1,2.7-1.1,4.2c-0.3,3.3-0.2,6.5-4.6,7.6c-1.9,0.5-1.7,3-1.6,4.8c0.4,4.7-1.4,7.3-6.5,6.6
		c-3.7-0.5-4.9,1-4.7,4.7c0.2,3.8-1,7.3-3.2,10.5c-2.9,4.1-6.9,6-11.8,5.4c-4.8-0.7-8.5-3.2-10-9.3c3,3.1,6.2,5.3,9.4,3.3
		c3.7-2.4,1.8-7,2.4-10.6c0.5-2.7-1.9-2.9-4.1-3.4c6.8-2.2,13.7-0.8,20.1-3.4c1.4-0.6,2.6-1.3,3.9-2c1.8-1,1.7-2.7,1.3-4.3
		c-0.4-1.6-2-1.5-3.3-1.5c-12.1,0-24.3,0.3-36.4-0.1c-5.1-0.2-7.4,1.4-7.2,6.5c0,0.8-0.3,1.6-0.5,2.4L144.5,763.8z"/>
	<path class="st2" d="M144.3,763.9c2.7,2.2,5.9,2.5,9.2,2.2c2.7-0.2,5.5-0.9,8.6,1c-2.2,1.2-3.3,3.7-6.2,0.8
		c-1.1-1.1-4.1-0.3-6.2-0.4c-2.6-0.1-5.1-0.3-5.2-3.7C144.5,763.8,144.3,763.9,144.3,763.9z"/>
	<path class="st2" d="M242.3,155.6c-1.4-4.5-1.8-9-1-13.8C243.4,146.4,243,151,242.3,155.6z"/>
</g>
</svg>
