<?xml version="1.0" encoding="UTF-8"?>
<svg id="Layer_1" data-name="Layer 1" xmlns="http://www.w3.org/2000/svg" viewBox="0 0 1724.65 429.32">
  <defs>
    <style>
      .cls-1 {
        fill: #d90000;
      }
    </style>
  </defs>
  <path class="cls-1" d="M701.25,429.27h-54.6c-.09-1.54-.26-3.08-.26-4.62-.02-14.65,0-29.3-.02-43.95,0-4.56-.28-4.81-4.92-4.81-14.36,0-28.73,0-43.09.02-4.63,0-5.31.58-5.25,5.07.19,14.64.45,29.29-.07,43.93-.06,1.56-.03,3.12,1.16,4.35h-56.04c.16-1.17.46-2.35.46-3.52.02-15.24-.06-30.49.03-45.73.02-3.17-1.29-4.15-4.29-4.14-14.72.07-29.44.02-44.16.03-4.66,0-4.92.27-4.93,4.82-.02,14.77-.03,29.53,0,44.3,0,1.41.3,2.82.45,4.23h-54.6c-.09-1.66-.26-3.32-.26-4.98-.02-14.65-.09-29.3.05-43.95.03-3.47-1.2-4.56-4.62-4.53-14.48.14-28.97.07-43.45.09-4.68,0-5.27.58-5.29,5.43-.04,14.53-.03,29.06-.05,43.59,0,1.56-.04,3.12,1.17,4.35h-56.04c.14-.7.4-1.4.4-2.09,0-16.07-.04-32.14-.02-48.21,0-2.46-1.41-3.02-3.45-3.02-15.43,0-30.87,0-46.3-.04-2.42,0-3.52,1.04-3.51,3.42.02,15.95,0,31.9.03,47.86,0,.7.26,1.4.4,2.09h-54.6c-.09-1.66-.26-3.31-.27-4.97-.02-14.63-.09-29.27.04-43.9.03-3.39-1.08-4.62-4.55-4.58-14.47.15-28.94.08-43.4.1-4.99,0-5.39.43-5.41,5.58-.04,14.04-.07,28.08-.08,42.12,0,1.89-.2,3.82.5,5.65h-55.32c.63-1.73.46-3.53.46-5.3-.03-14.52-.2-29.04-.03-43.55.04-3.59-1.24-4.55-4.55-4.53-14.71.09-29.42.02-44.13.04-4.19,0-4.62.46-4.62,4.84-.02,14.88-.02,29.75,0,44.63,0,1.29.28,2.59.43,3.88-17.48,0-34.96-.03-52.45.05-1.8,0-2.21-.4-2.2-2.19.08-17.39.05-34.79.05-52.18,3.69.14,7.37.41,11.06.41,12.66,0,25.31-.14,37.97-.13,3.42,0,4.61-1.54,4.56-4.82-.21-14.38-.29-28.76-.43-43.14-.05-4.76-.26-4.95-5.14-4.98-16.01-.08-32.01-.16-48.02-.24v-53.61c2.14-.23,4.27-.64,6.41-.66,14.01-.12,28.01-.25,42.02-.15,3.6.03,4.69-1.21,4.83-4.75.59-15.01.24-30,.1-45.01-.02-2.43-1.2-2.78-3.1-2.78-6.11,0-12.21.06-18.32,0-10.65-.12-21.3.36-31.94-.26v-54.33c1.07-.05,2.15-.19,3.21-.13,14.94.85,29.9.51,44.85.55,5,0,5.56-.58,5.53-5.55-.1-13.93-.27-27.85-.4-41.78-.03-3.83-1.98-5.75-5.83-5.76-15.79-.07-31.58-.16-47.37-.24v-53.61c2.54-.82,5.17-.78,7.79-.79,13.41-.04,26.82-.03,40.23-.07,4.87,0,5-.23,5.22-5,.65-14.29.27-28.59.39-42.88.04-4.89.2-5.14,4.96-5.15,14.85-.02,29.69-.02,44.54,0,4.65,0,4.87.24,4.88,4.85.02,14.42.02,28.83.04,43.25,0,4.58.29,4.92,4.87,4.93,14.61.04,29.21.03,43.82.02,4.31,0,4.59-.28,4.6-4.78.04-14.53.15-29.07,0-43.6-.03-3.57,1.09-4.78,4.72-4.74,15.08.16,30.17.15,45.26,0,3.4-.03,4.58.97,4.54,4.44-.16,14.77,0,29.54-.11,44.32-.02,3.17.99,4.51,4.33,4.48,14.73-.14,29.45-.16,44.18-.08,3.24.02,4.43-1.09,4.44-4.36.04-14.53.29-29.06.42-43.59.05-4.91.18-5.14,4.96-5.14,14.85-.02,29.69-.02,44.54,0,4.84,0,4.92.1,4.92,5.11v43.25c0,4.34.29,4.65,4.74,4.66,14.73.03,29.45-.07,44.18.06,3.55.03,4.47-1.34,4.44-4.68-.12-14.65.07-29.31-.05-43.96-.03-3.45,1.18-4.53,4.58-4.5,14.96.13,29.93.05,44.9.06,4.94,0,4.97.03,4.97,4.95.01,14.77.03,29.55-.01,44.32,0,2.53.56,4.03,3.59,4,14.84-.16,29.69-.25,44.54-.17,3.56.02,4.84-1.17,4.84-4.75,0-14.53.25-29.06.39-43.59.04-4.41.3-4.75,4.63-4.76,15.09-.02,30.17-.02,45.26,0,4.38,0,4.54.21,4.54,4.74v43.25c0,4.75.28,5.05,5.12,5.07,14.49.04,28.97.02,43.46.02,4.37,0,4.69-.31,4.7-4.68.04-14.65.14-29.31.03-43.96-.03-3.47,1.23-4.52,4.6-4.49,15.08.13,30.17.16,45.26-.02,3.68-.04,4.69,1.17,4.65,4.71-.17,14.65.01,29.31-.12,43.96-.03,3.47,1.26,4.56,4.64,4.53,14.61-.14,29.21-.16,43.82-.05,3.48.03,4.57-1.28,4.58-4.62.02-14.65.32-29.3.31-43.95,0-3.44,1.18-4.59,4.6-4.56,15.08.12,30.17.04,45.26.06,4.36,0,4.59.26,4.6,4.74.02,14.42,0,28.83.03,43.25,0,4.75.24,5.04,5.12,5.06,14.49.04,28.97.03,43.46.02,4.41,0,4.7-.31,4.71-4.67.04-14.65.14-29.31.02-43.96-.03-3.46,1.2-4.53,4.59-4.5,15.08.13,30.17.16,45.26-.02,3.65-.04,4.72,1.11,4.68,4.69-.17,14.41-.08,28.83-.07,43.24,0,5.04.1,5.19,5.29,5.2,14.25.03,28.5,0,42.74-.02,4.49,0,4.72-.3,4.93-4.93.66-14.53.35-29.06.33-43.59,0-3.42,1.17-4.59,4.59-4.57,15.08.12,30.17.04,45.26.06,4.35,0,4.59.27,4.6,4.75.03,13.94.05,27.88.04,41.82,0,6.39-.04,6.43,6.21,6.45,14.13.04,28.26.04,42.38.04,4.36,0,4.69-.31,4.7-4.69.04-14.53.04-29.07.07-43.6.01-4.63.15-4.77,4.9-4.77,14.85-.02,29.69,0,44.54,0,4.92,0,4.94.03,4.94,4.98.01,14.65.03,29.31-.01,43.96,0,2.55.28,4.39,3.62,4.35,14.96-.16,29.93-.22,44.89-.17,3.26,0,4.42-1.16,4.43-4.4.04-14.65.28-29.3.43-43.95.04-4.41.31-4.76,4.63-4.77,15.09-.02,30.17.09,45.26-.08,3.76-.04,4.64,1.37,4.6,4.83-.15,14.53-.08,29.07-.06,43.6,0,4.33.32,4.67,4.74,4.68,14.73.03,29.45-.04,44.18.06,3.2.02,4.45-.99,4.42-4.33-.11-14.77.08-29.55-.03-44.32-.03-3.44,1.17-4.54,4.58-4.51,15.08.13,30.17.16,45.26-.02,3.63-.04,4.73,1.08,4.69,4.68-.17,14.77-.02,29.54-.11,44.32-.02,3.04,1.06,4.28,4.19,4.26,14.73-.11,29.45-.16,44.18-.06,3.46.02,4.58-1.27,4.59-4.62.03-14.65.34-29.3.33-43.95,0-3.38.97-4.64,4.48-4.61,15.2.14,30.41.14,45.62,0,3.53-.03,4.5,1.29,4.47,4.62-.13,14.53-.06,29.07-.04,43.6,0,4.54.3,4.88,4.93,4.89,14.73.04,29.45-.03,44.18.06,3.08.02,4.24-1.07,4.22-4.18-.08-14.77.11-29.55-.03-44.32-.03-3.64,1.21-4.72,4.78-4.68,14.96.15,29.93.05,44.9.07,4.74,0,4.76.03,4.77,4.79,0,14.65.04,29.31-.02,43.96,0,2.66.53,4.32,3.71,4.31,15.32-.08,30.65-.06,45.98-.03,2.43,0,3.4-.94,3.36-3.42-.22-14.77-.16-29.54.3-44.3.16-5.16.12-5.31,5.17-5.31,14.73,0,29.45,0,44.18,0,4.97,0,5.08.12,5.09,4.96.02,14.06.03,28.12.03,42.17,0,5.81.03,5.91,5.69,5.92,14.37.03,28.74-.05,43.1.09,3.47.03,4.58-1.22,4.55-4.6-.11-14.53,0-29.07.03-43.6,0-4.75.16-4.93,4.75-4.94,15.09-.02,30.17.09,45.26-.07,3.53-.04,4.46,1.22,4.43,4.56-.14,14.89-.05,29.78-.06,44.67,0,4.64-.24,4.92-4.82,4.93-14.49.04-28.97.03-43.46.04-5.25,0-5.58.29-5.56,5.36.04,12.51-.04,25.02.28,37.52.28,10.85-1.44,9.58,9.97,9.66,12.57.08,25.14-.01,37.71.13,5.69.06,5.87.41,5.87,5.91v43.25c0,5.15-.16,5.3-5.15,5.31-14.85.03-29.69.12-44.54.02-3.09-.02-4.28.94-4.24,4.08.19,14.76.32,29.53.26,44.29,0,3.33,1.12,4.26,4.37,4.31,14.96.24,29.93-.23,44.89.36,3.43.14,4.51,1.13,4.47,4.54-.15,14.65-.06,29.31-.06,43.96,0,5.69,0,5.72-5.83,5.73-14.61.03-29.21.06-43.82,0-2.75-.01-4.27.68-4.24,3.78.13,13.22-.04,26.44.23,39.66.19,9.17.43,9.13,9.85,9.17,12.93.05,25.86.03,38.79.29,4.96.1,5.01.42,5.01,5.23,0,14.77,0,29.55,0,44.32,0,4.56-.23,4.75-4.94,4.76-14.61.02-29.21.03-43.82.06-4.61.01-5.09.52-5.1,5.16-.02,14.06-.06,28.12-.06,42.17,0,2.01-.24,4.06.48,6.02h-55.32c.16-1.29.45-2.58.45-3.88.01-14.99-.1-29.99.02-44.98.03-3.43-1.12-4.58-4.58-4.55-14.59.14-29.18.03-43.77.05-4.51,0-5,.47-5.01,4.86-.03,14.99-.02,29.99,0,44.98,0,1.17.28,2.35.43,3.52h-54.6c-.09-1.66-.26-3.32-.26-4.98-.02-14.65-.07-29.3.03-43.96.02-3.12-.84-4.55-4.25-4.52-14.96.13-29.93.13-44.89.05-2.98-.02-4.21,1.25-4.09,4.04.67,14.89-.02,29.77-.15,44.65-.01,1.67-.14,3.37,1.17,4.71h-56.04c.15-1.41.44-2.82.44-4.24.02-14.76,0-29.52-.02-44.29,0-4.48-.31-4.8-4.96-4.81-14.48-.03-28.95-.03-43.43-.02-4.65,0-4.92.29-4.93,4.83-.02,14.76-.03,29.52,0,44.29,0,1.41.3,2.82.45,4.23h-54.6c-.09-1.66-.26-3.32-.26-4.98-.02-14.65-.09-29.3.05-43.95.03-3.48-1.21-4.55-4.62-4.52-14.6.14-29.21.07-43.81.09-4.18,0-4.87.64-4.89,4.71-.05,14.89-.05,29.77-.08,44.66,0,1.46.08,2.87,1.17,3.99h-56.04c.15-.82.42-1.63.42-2.45,0-15.95-.07-31.9-.05-47.85,0-2.77-1.72-3.03-3.8-3.03-15.19,0-30.39.02-45.58-.06-2.76-.01-3.9,1.08-3.89,3.8.04,15.71.01,31.43.04,47.14,0,.82.27,1.63.42,2.45h-54.6c-.09-1.66-.26-3.31-.27-4.97-.02-14.63-.08-29.26.04-43.89.03-3.35-1-4.65-4.52-4.61-13.38.16-26.77.01-40.16.12-7.6.06-9.43-1.86-8.33,8.34.1.94.03,1.9.02,2.85-.13,12.48-.26,24.97-.39,37.45-.02,1.66-.15,3.36,1.16,4.7h-56.04c.15-1.53.44-3.06.44-4.59.01-14.63-.02-29.26-.04-43.89,0-4.42-.42-4.86-4.96-4.87-14.46-.02-28.93-.03-43.39-.01-4.56,0-4.91.35-4.92,4.87-.03,14.87-.03,29.74,0,44.6,0,1.29.28,2.59.43,3.88h-54.6c-.09-1.42-.26-2.84-.26-4.26-.02-14.98-.03-29.96,0-44.94,0-2.42-.35-4.21-3.42-4.2-15.41.06-30.83.06-46.24.02-2.65,0-3.73,1.3-3.61,3.73.74,15.21.1,30.42-.05,45.63-.01,1.46.11,2.85,1.14,4.01h-56.04c.15-1.17.43-2.35.43-3.52.02-15.11-.09-30.22.05-45.32.03-3.49-1.24-4.56-4.62-4.54-14.58.11-29.17.01-43.75.02-4.51,0-4.98.45-4.99,4.87-.03,14.99-.02,29.98,0,44.96,0,1.17.28,2.35.43,3.52v.07ZM431.04,214.9c.12,1.65.34,3.31.34,4.96.03,14.41.09,28.83-.04,43.24-.03,3.38,1.09,4.64,4.56,4.6,14.48-.16,28.97-.1,43.45-.14,4.6-.01,4.86-.27,4.88-4.88.05-14.53-.06-29.07.2-43.59.06-3.36-1.08-4.05-4.08-4.03-14.84.09-29.69.05-44.53.03-1.54,0-3.08-.22-4.63-.34-.12-1.53-.34-3.07-.35-4.6-.03-14.77-.1-29.53.05-44.3.03-3.47-1.16-4.54-4.6-4.5-14.48.16-28.96.09-43.44.11-4.74,0-5.35.62-5.31,5.36.09,10.71.2,21.42.32,32.13.04,3.45-.22,6.89-.16,10.35.07,3.85,1.68,4.79,5.29,4.74,12.2-.16,24.41,0,36.62,0,3.83,0,7.64.18,11.42.86h.01ZM1293.15,214.9c.12,1.65.34,3.3.34,4.96.03,14.64.04,29.27,0,43.91,0,2.45.4,4.12,3.5,4.09,14.83-.17,29.65-.19,44.48-.29,4.61-.03,4.87-.28,4.89-4.87.04-14.52-.05-29.04.15-43.55.05-3.25-1.03-4.12-4.08-4.09-12.44.11-24.87.09-37.31.02-3.93-.02-7.88.42-11.8-.33-.12-1.53-.34-3.06-.35-4.6-.03-14.87-.07-29.74.03-44.61.02-3.07-1.01-4.21-4.16-4.18-14.82.13-29.65.07-44.47.11-4.14,0-4.75.6-4.72,4.79.08,10.82.2,21.64.33,32.46.04,3.68-.31,7.35-.12,11.05.16,3.22,1.41,4.34,4.61,4.31,12.67-.13,25.34-.07,38.01-.09,3.59,0,7.17.02,10.67.92h0ZM646.73,214.72c-.12-1.53-.34-3.07-.34-4.6-.03-14.89-.04-29.77,0-44.66,0-2.45-.36-4.14-3.45-4.12-15.32.1-30.64.12-45.96.07-2.86,0-3.89,1.43-3.87,3.94.03,3.09.29,6.19.27,9.28-.06,11.55-.12,23.09-.32,34.64-.06,3.44,1.01,4.88,4.74,4.79,9.21-.23,18.43-.09,27.64-.04,7.05.04,14.12-.42,21.11.86.12,1.65.34,3.31.35,4.96.03,14.41.09,28.81-.03,43.22-.03,3.33.99,4.68,4.51,4.64,14.6-.16,29.2-.19,43.79-.07,3.39.03,4.63-1.12,4.77-4.49.63-14.64.12-29.28.26-43.92.03-3.43-1.18-4.22-4.35-4.19-14.84.13-29.67.07-44.51.04-1.54,0-3.08-.23-4.62-.35h0ZM1508.84,214.72c-.12-1.53-.34-3.06-.34-4.6-.03-15.1-.02-30.21,0-45.31,0-1.41.21-2.83.33-4.24.82-.07,1.66-.26,2.47-.2,15.54,1.12,31.09.52,46.63.27,3.33-.05,4.53-1.38,4.47-4.79-.23-14.65-.25-29.29-.24-43.94,0-3.11-1.31-4.13-4.34-4.11-14.84.09-29.69.1-44.53-.02-3.36-.03-4.33,1.27-4.3,4.45.12,12.39.09,24.78.02,37.16-.02,3.68.42,7.38-.34,11.03-2.9.85-5.87.99-8.87.99-13.39,0-26.79.08-40.18-.03-3.29-.03-4.58,1.28-4.46,4.43.15,4.28.27,8.56.26,12.84-.02,10.34-.07,20.68-.23,31.01-.05,3.16,1.05,4.4,4.4,4.37,12.43-.15,24.87-.02,37.31-.02,3.95,0,7.87.3,11.77.87.12,1.53.34,3.07.35,4.6.03,14.52.09,29.05-.03,43.57-.03,3.33.99,4.69,4.51,4.65,14.59-.16,29.19-.19,43.79-.07,3.39.03,4.62-1.11,4.77-4.48.64-14.64.12-29.28.29-43.92.04-3.4-1.2-4.23-4.38-4.2-14.83.13-29.67.07-44.51.04-1.54,0-3.08-.23-4.62-.35h0ZM1077.63,214.9c.12,1.65.34,3.31.34,4.96.03,14.53.07,29.05-.02,43.58-.02,3.02,1.01,4.29,4.16,4.27,14.84-.12,29.68-.15,44.51-.08,3.07.01,4.2-1.1,4.28-4.17.36-14.76.56-29.51.15-44.28-.1-3.48-1.38-4.16-4.48-4.14-14.72.12-29.44.06-44.16.03-1.54,0-3.08-.22-4.63-.34-.12-1.53-.34-3.07-.35-4.6-.03-14.76-.08-29.52.03-44.28.02-3.13-.88-4.52-4.28-4.49-14.95.13-29.91.11-44.86.04-2.89,0-4.23,1.08-4.22,3.94.07,15,.17,29.99.16,44.99,0,2.82,1.16,3.7,3.89,3.69,12.68-.06,25.36.04,38.04.05,3.83,0,7.64.12,11.42.84h.02ZM862.09,214.9c.12,1.65.35,3.31.35,4.96.03,14.41.1,28.83-.04,43.24-.03,3.46,1.2,4.56,4.61,4.53,14.48-.14,28.97-.15,43.46,0,3.47.03,4.87-.97,4.98-4.61.47-14.65.34-29.29.11-43.94-.05-3.31-1.14-4.05-4.14-4.03-14.84.1-29.69.05-44.54.03-1.54,0-3.08-.23-4.63-.35-.12-1.41-.35-2.83-.35-4.24-.03-14.88-.07-29.76.03-44.64.02-3.14-.91-4.51-4.29-4.48-14.83.13-29.67.14-44.5.02-3.51-.03-4.63,1.41-4.61,4.68.09,14.52.11,29.04.04,43.56-.02,3.19,1.14,4.43,4.43,4.4,12.56-.11,25.12,0,37.68,0,3.82,0,7.65-.14,11.4.86h0ZM215.5,214.9c.12,1.53.34,3.07.35,4.6.03,13.21.02,26.43.01,39.64,0,8.59,0,8.55,8.44,8.51,13.52-.06,27.04-.09,40.55-.07,2.46,0,4.06-.34,4.03-3.47-.15-14.64-.09-29.28-.15-43.92-.02-5.02-.16-5.1-5.37-5.1-14.36,0-28.71,0-43.07-.02-1.54,0-3.08-.23-4.62-.35-.12-1.53-.35-3.06-.35-4.6-.03-14.64,0-29.28-.02-43.92,0-4.54-.28-4.79-4.94-4.79-14.47,0-28.95,0-43.42.02-4.28,0-4.93.55-4.93,4.61-.03,14.52.06,29.04,0,43.56-.02,3.17,1.09,4.45,4.41,4.42,12.44-.12,24.88-.02,37.32,0,3.95,0,7.88.16,11.77.89h-.01ZM1643.64,107.83h0c-7.3-.01-14.6-.03-21.91-.01-4.35.01-4.92.57-4.93,5.01-.02,13.94,0,27.87.02,41.81,0,5.42.75,6.25,6.2,6.27,13.05.05,26.09.02,39.14-.02,1.31,0,2.61-.31,3.92-.36,3-.11,4.08-1.55,4.06-4.56-.11-14.65-.1-29.3,0-43.95.02-3.06-1.14-4.28-4.23-4.23-7.42.12-14.84.04-22.26.04ZM1428.28,107.83h0c-7.3-.01-14.59-.03-21.89-.01-4.62.02-5.1.5-5.11,5.19-.01,13.45,0,26.9.01,40.35,0,6.95.4,7.47,7.54,7.51,12.8.08,25.6.03,38.4,0,1.19,0,2.38-.25,3.57-.31,2.83-.16,3.86-1.6,3.84-4.41-.09-14.64-.1-29.28,0-43.92.02-3.22-1.22-4.49-4.46-4.44-7.3.12-14.59.04-21.89.04h-.01ZM1212.71,107.82h0c-7.3-.01-14.6-.01-21.9-.01-4.71,0-5.05.34-5.06,5.14-.02,13.93-.01,27.86,0,41.79,0,5.58.1,5.97,5.79,6.03,14.47.14,28.94.59,43.41-.35,3.04-.2,4.15-1.35,4.13-4.4-.1-14.64-.09-29.29.03-43.93.03-3.32-1.33-4.38-4.51-4.32-7.3.14-14.6.04-21.89.04h0ZM592.43,134.49h.04c0-7.26.02-14.52,0-21.77-.01-4.41-.46-4.87-4.98-4.88-14.47-.03-28.94-.03-43.41-.01-4.3,0-4.88.58-4.89,5.04-.03,14.28.04,28.56-.05,42.83-.02,3.29,1.19,4.61,4.58,4.81,9.68.57,19.36.37,29.05.4,5.02,0,10.03-.22,15.05-.29,3.39-.05,4.82-1.47,4.69-5.06-.26-7.01-.08-14.04-.08-21.06h0ZM215.87,134.4v20.71c0,5.05.53,5.74,5.77,5.76,14.47.05,28.94.3,43.4-.38,3.01-.14,4.23-1.19,4.19-4.29-.16-14.75.26-29.51-.37-44.26-.13-3.04-1.22-4.18-4.31-4.16-14.83.1-29.66.08-44.49-.02-3.06-.02-4.3,1-4.24,4.14.15,7.49.05,14.99.05,22.49h0ZM350.29,107.81c-7.3,0-14.6.1-21.89-.04-3.3-.06-4.82,1.04-4.8,4.51.09,14.52.08,29.05,0,43.57-.02,3.12,1.15,4.5,4.37,4.65,15.07.72,30.13.54,45.19-.06,2.68-.11,3.81-1.26,3.8-3.99-.06-14.88-.06-29.76,0-44.64.01-2.91-1.18-4.05-4.08-4.02-7.54.09-15.07.03-22.61.02h.02ZM646.93,133.84v18.58c0,8.36,0,8.41,8.54,8.49,13.52.11,27.03.02,40.55-.38,3.29-.1,4.32-1.36,4.28-4.55-.19-14.76-.21-29.52-.24-44.28,0-2.93-1.34-3.92-4.2-3.9-14.96.08-29.92.09-44.88-.02-3.19-.02-4.16,1.27-4.11,4.27.14,7.26.04,14.53.04,21.79h.02ZM888.76,107.83c-7.54,0-15.09.04-22.63-.02-2.55-.02-3.7.94-3.69,3.57.05,15.13.06,30.26-.01,45.39-.01,2.68,1.2,3.48,3.68,3.6,15.08.77,30.15.74,45.23.22,3.39-.12,4.55-1.42,4.49-4.79-.27-14.65-.37-29.3-.41-43.95-.01-3.15-1.39-4.12-4.39-4.07-7.42.13-14.85.04-22.27.05h0ZM941.11,213.93c9.62,1.13,17.15-.09,24.66.23,3.2.14,3.92-1.16,3.91-3.92-.07-14.99-.11-29.97-.03-44.96.02-3.04-1.3-3.89-4.12-3.87-14.94.07-29.88.09-44.83-.03-3.35-.03-4.41,1.42-4.4,4.5.06,14.51.1,29.02,0,43.53-.02,3.4,1.27,4.64,4.66,4.57,7.41-.16,14.82-.05,20.14-.05h.01ZM1374.2,213.95v.09c7.77,0,15.55-.09,23.31.05,2.39.05,3.21-.78,3.21-3.05-.04-15.35-.05-30.7.01-46.04.01-2.66-1.15-3.56-3.68-3.56-15.31.04-30.61.05-45.92-.03-2.84,0-3.78,1.21-3.77,3.88.06,14.99.08,29.98.02,44.97-.01,2.82,1.14,3.76,3.86,3.72,7.65-.1,15.3-.04,22.96-.04h0ZM512.37,214c7.66,0,15.32-.12,22.98.07,2.68.07,3.29-.97,3.28-3.32-.06-15.12-.09-30.25,0-45.37.02-2.99-1.18-3.97-4.06-3.95-14.96.07-29.92.08-44.88-.03-3.26-.02-4.47,1.17-4.45,4.39.1,14.53.12,29.06.01,43.58-.02,3.3.96,4.77,4.51,4.68,7.53-.18,15.08-.06,22.62-.05h-.01ZM1427.86,267.55v.05c7.54,0,15.08-.1,22.62.05,3.15.06,4.19-1.17,4.17-4.22-.1-14.65-.1-29.3,0-43.94.02-3.16-.93-4.47-4.31-4.44-14.84.13-29.68.13-44.52,0-3.48-.03-4.61,1.28-4.58,4.63.11,14.65.1,29.3,0,43.94-.02,2.95,1.07,4.02,4,3.98,7.54-.11,15.08-.04,22.62-.04h0ZM781.36,215.09c-7.42,0-14.84.1-22.26-.05-3.26-.07-4.47,1.15-4.45,4.39.1,14.64.1,29.29,0,43.93-.02,3,.93,4.28,4.12,4.26,15.08-.1,30.15-.08,45.23,0,2.93.02,4.03-1.07,4.02-4-.08-14.88-.07-29.77.02-44.65.02-2.96-1.17-3.98-4.08-3.94-7.54.12-15.08.04-22.61.04v.02ZM350.3,267.58v.02c7.54,0,15.08-.07,22.61.03,2.9.04,4.05-1.03,4.04-3.98-.08-14.88-.05-29.77.04-44.65.02-2.94-1.16-3.96-4.07-3.95-14.96.09-29.91.1-44.87,0-3.23-.02-4.48,1.1-4.46,4.37.1,14.64.12,29.29-.02,43.93-.03,3.37,1.31,4.34,4.47,4.28,7.42-.14,14.84-.05,22.25-.05h0ZM592.47,241.98h.02c0-7.26.01-14.52,0-21.78-.01-4.96-.15-5.1-4.96-5.11-14.48,0-28.95,0-43.43,0-4.53,0-4.93.39-4.93,4.88-.01,14.17,0,28.33,0,42.5,0,4.86.17,5.08,5.02,5.1,14.95.05,29.91,0,44.86.15,2.85.03,3.47-1.12,3.44-3.59-.08-7.38-.03-14.76-.03-22.14h.01ZM1158.64,161.45v-.02c-7.3,0-14.61-.02-21.91,0-4.29.02-4.86.53-4.87,4.67-.03,14.53.08,29.07-.06,43.6-.03,3.38,1.27,4.22,4.44,4.27,15.2.24,30.41.11,45.61,0,2.65-.02,3.3-1.15,3.3-3.44-.04-15.13-.06-30.26,0-45.39.01-2.81-1.18-3.78-3.9-3.74-7.54.09-15.08.03-22.63.03l.02.02ZM781.74,107.82c-7.54,0-15.07.07-22.61-.04-2.98-.04-4.46,1.02-4.45,4.11.06,14.88.05,29.76.05,44.63,0,2.41.9,3.84,3.56,3.84,15.3,0,30.6.67,45.91.03,2.67-.11,3.83-1.2,3.82-3.95-.06-14.88-.06-29.76.02-44.63.01-2.9-1.13-4.06-4.05-4.02-7.41.1-14.83.03-22.25.02h0ZM1212.59,215.09c-7.65,0-15.31.04-22.96-.02-2.73-.02-3.89,1.14-3.89,3.86.04,14.99.04,29.98-.02,44.97,0,2.58,1.04,3.65,3.63,3.65,15.31-.02,30.61,0,45.92.08,2.78.01,3.81-1.17,3.8-3.87-.05-14.99-.05-29.98.02-44.98.01-2.79-1.18-3.77-3.9-3.73-7.53.1-15.07.03-22.6.04h0ZM1643.25,374.89v-.06c7.3,0,14.61.05,21.91-.02,4.67-.04,4.93-.34,4.93-4.86.02-14.3.02-28.59,0-42.89,0-4.37-.38-4.77-4.66-4.78-14.61-.02-29.21-.02-43.82,0-4.17,0-4.79.6-4.8,4.77-.03,14.53.05,29.07-.04,43.6-.02,3.06,1.12,4.31,4.21,4.27,7.42-.1,14.84-.03,22.27-.03h-.01ZM81.05,213.91v.04c7.54,0,15.08-.15,22.62.07,3.17.09,3.9-1.18,3.88-3.98-.07-14.77-.09-29.53,0-44.3.02-3.31-1.35-4.36-4.52-4.34-14.84.08-29.68.07-44.52-.02-3.02-.02-4.39,1.01-4.38,4.11.09,14.88.11,29.77.08,44.65,0,2.75,1.09,3.83,3.85,3.8,7.66-.09,15.32-.03,22.98-.03h.01ZM996.88,215.09c-7.66,0-15.32.03-22.98-.02-2.27,0-3.68.67-3.68,3.22.04,15.01.04,30.01.06,45.02,0,3.13,1.5,4.33,4.7,4.3,14.84-.1,29.69-.07,44.53.03,2.94.02,4.06-1.09,4.05-3.99-.07-14.89-.06-29.78.02-44.66.02-2.95-1.16-3.99-4.07-3.94-7.54.12-15.08.04-22.62.04h-.01ZM511.85,54.23h0c-7.54,0-15.08.04-22.62-.04-2.64-.03-4,.81-3.98,3.68.07,15.01.07,30.01.02,45.02-.01,2.95,1.28,3.95,4.15,3.94,14.84-.07,29.68-.09,44.52.01,3.33.02,4.75-1.1,4.72-4.55-.11-14.41-.03-28.82-.07-43.23-.01-4.12-.7-4.78-4.84-4.8-7.3-.04-14.6,0-21.9,0v-.02ZM134.63,374.86v-.04c7.41,0,14.83-.09,22.24.04,3.35.06,4.66-1.11,4.63-4.59-.15-14.52-.14-29.03-.02-43.55.03-3.49-1.37-4.52-4.7-4.49-14.59.11-29.18.02-43.77.04-4.32,0-4.86.55-4.87,5.03-.02,14.52.05,29.03-.05,43.55-.02,2.9.97,4.08,3.94,4.04,7.53-.11,15.07-.04,22.6-.04h0ZM565.7,322.28c-7.53,0-15.07.04-22.6-.02-2.72-.02-3.94,1.16-3.93,3.85.03,15.11.03,30.22,0,45.33,0,2.44,1.07,3.36,3.48,3.36,15.31-.02,30.61.02,45.92.08,2.89.01,3.98-1.25,3.96-4.14-.09-14.75-.09-29.51-.01-44.26.02-3.05-1.11-4.29-4.21-4.25-7.53.12-15.07.04-22.6.04h-.01ZM1347.38,80.05h.02c0,7.5.07,14.99-.03,22.49-.04,2.94.85,4.32,4.09,4.29,14.95-.12,29.9-.11,44.84-.03,3.22.02,4.49-1.14,4.46-4.39-.1-14.52-.1-29.03,0-43.55.02-3.34-1.23-4.7-4.64-4.68-14.83.09-29.66.1-44.48-.02-3.36-.03-4.36,1.32-4.3,4.48.15,7.14.05,14.28.05,21.42h0ZM1643.49,267.57v.03c7.54,0,15.07-.07,22.61.04,2.9.04,4.06-1.03,4.04-3.98-.08-14.88-.06-29.76.02-44.63.02-2.92-1.11-3.99-4.04-3.97-15.07.09-30.14.08-45.22,0-2.88,0-4.11,1.01-4.09,3.96.06,14.76.08,29.52-.05,44.27-.03,3.32,1.29,4.38,4.48,4.33,7.41-.13,14.83-.04,22.25-.04h0ZM727.58,161.45h0c-7.54,0-15.09.06-22.63-.05-2.92-.04-4.16,1.15-4.15,4,.05,14.77.1,29.55.04,44.32-.01,3.19,1.14,4.32,4.45,4.28,14.96-.15,29.93-.14,44.9.03,3.1.04,3.98-.99,3.96-3.87-.09-14.89-.12-29.78,0-44.68.02-3.23-1.3-4.13-4.29-4.08-7.42.12-14.85.04-22.27.04h-.01ZM296.51,213.92h0c7.66,0,15.33-.1,22.98.07,2.76.06,3.58-1.03,3.57-3.55-.08-15.13-.14-30.26-.08-45.38.01-2.93-1.32-3.64-3.95-3.63-14.96.06-29.93.08-44.89-.03-3.31-.03-4.45,1.3-4.43,4.46.08,14.77.09,29.54.02,44.31-.01,2.77,1.01,3.83,3.79,3.79,7.66-.1,15.32-.04,22.98-.04h.01ZM1590.03,213.94c7.54,0,15.09-.12,22.62.06,2.74.06,3.61-.92,3.59-3.49-.06-15.13-.08-30.26-.04-45.38,0-2.53-.91-3.71-3.56-3.7-15.32.04-30.65.04-45.97-.02-2.6,0-3.75,1.16-3.74,3.64.03,15.01.08,30.02.06,45.03,0,2.83,1.07,3.98,4.06,3.92,7.66-.17,15.32-.06,22.98-.06h0ZM134.85,215.09c-5.38,0-10.77-.04-16.15,0-12.13.1-10.5-1.53-10.57,10.33-.07,12.38,0,24.77,0,37.15,0,3.15.83,5.09,4.72,5.04,14.84-.16,29.68-.11,44.51,0,3.21.02,4.12-1.33,4.11-4.3-.08-14.76-.08-29.53.01-44.29.02-2.92-1.06-4.04-4.01-3.99-7.54.12-15.08.04-22.62.04v.02ZM781.24,374.85v-.06c7.66,0,15.31-.04,22.97.02,2.71.02,3.86-1.08,3.84-3.85-.07-14.88-.07-29.76-.01-44.64.01-2.87-1.08-4.08-4.03-4.07-15.07.07-30.15.06-45.23,0-2.9-.01-4.12,1.21-4.11,4.07.04,14.76.04,29.52.01,44.29,0,2.95,1.18,4.33,4.29,4.29,7.42-.11,14.84-.04,22.25-.04h.02ZM134.85,107.82c-7.42,0-14.84.11-22.25-.05-3.23-.07-4.54,1.1-4.52,4.34.09,14.64.08,29.28.04,43.93,0,2.92,1.04,4.41,4.18,4.4,14.83-.07,29.67-.08,44.5-.02,3.28,0,4.68-1.11,4.65-4.61-.14-14.52-.09-29.05.02-43.57.02-3.18-1.06-4.53-4.37-4.46-7.41.15-14.83.05-22.25.04h0ZM996.86,322.28v-.02c-7.41,0-14.83.07-22.24-.04-2.99-.04-4.43,1.02-4.41,4.12.06,14.99.06,29.98,0,44.96,0,2.62,1.09,3.59,3.65,3.57,15.18-.08,30.36-.1,45.55-.07,2.81,0,4.15-1.03,4.13-3.99-.06-14.87-.06-29.74.02-44.61.01-2.95-1.25-4-4.11-3.97-7.53.09-15.06.03-22.59.03v.02ZM350.41,322.27c-7.41,0-14.83.08-22.24-.04-3.17-.05-4.58,1.1-4.56,4.36.08,14.64.07,29.27.02,43.91,0,2.94,1.09,4.37,4.22,4.35,14.95-.06,29.9-.05,44.85.02,3.27.01,4.34-1.41,4.31-4.58-.12-14.52-.14-29.04-.01-43.55.03-3.51-1.38-4.58-4.69-4.51-7.29.14-14.59.04-21.89.04h-.01ZM1050.76,54.23c-7.54,0-15.08.08-22.62-.04-2.95-.05-4.14,1.1-4.02,4,.12,2.97.03,5.95.03,8.93,0,11.43-.02,22.87.02,34.3,0,2.87.21,5.42,4.35,5.38,14.96-.12,29.92-.05,44.88.03,2.86.01,4.07-1.07,4.06-4.02-.09-14.89-.09-29.78,0-44.66.02-3-1.23-3.98-4.08-3.95-7.54.1-15.08.03-22.62.03ZM511.55,321.25v-.02c7.54,0,15.08-.07,22.62.03,3.21.05,4.49-1.21,4.47-4.44-.09-14.53-.08-29.06-.01-43.59.02-3.14-1.17-4.59-4.42-4.58-14.96.05-29.92.05-44.88-.02-2.9-.02-4.11,1.07-4.09,3.99.07,14.89.09,29.77.02,44.66-.01,2.9,1.09,4.05,4.03,4,7.42-.12,14.84-.04,22.26-.04h0ZM1239.04,348.85c0-7.38-.11-14.76.05-22.14.07-3.19-1-4.5-4.32-4.48-14.83.1-29.66.09-44.49,0-3.19-.02-4.57,1.13-4.55,4.37.07,14.64.06,29.28.01,43.92,0,2.96,1.13,4.35,4.23,4.34,14.95-.07,29.9-.07,44.85,0,3.32.02,4.34-1.44,4.27-4.59-.15-7.14-.05-14.28-.06-21.42h.01ZM1428.23,322.28h0c-7.29-.01-14.59-.02-21.88-.01-4.46.01-5.04.52-5.05,4.88-.03,14.39.04,28.79-.02,43.18-.01,3.14,1.14,4.5,4.42,4.49,14.7-.08,29.41-.05,44.11.06,3.5.03,4.86-1.24,4.83-4.83-.15-14.51-.14-29.03-.02-43.54.03-3.38-1.39-4.33-4.52-4.27-7.29.13-14.58.04-21.88.04h0ZM997.14,107.82c-7.53,0-15.07.07-22.6-.04-3.06-.05-4.34,1.19-4.33,4.22.06,14.76.06,29.51.03,44.27,0,2.78,1.11,4.16,4.04,4.15,14.95-.04,29.9-.04,44.84,0,3.14,0,4.47-1.18,4.44-4.46-.11-14.64-.1-29.27.01-43.91.03-3.35-1.42-4.33-4.56-4.27-7.29.13-14.59.04-21.88.04h0ZM80.52,54.23h0c-7.42,0-14.83.06-22.25-.05-2.93-.04-4.08,1.11-4.07,4.01.06,14.76.06,29.52.02,44.28,0,2.86.82,4.4,4.1,4.37,14.95-.11,29.91-.12,44.86-.03,3.3.02,4.41-1.33,4.39-4.49-.08-14.4,0-28.8-.03-43.21,0-4.25-.68-4.85-5.13-4.87-7.3-.03-14.59,0-21.89,0h0ZM1373.69,321.24v-.02c7.66,0,15.31-.05,22.97.02,2.87.03,4.1-1.12,4.08-4.03-.07-14.76-.07-29.52-.02-44.28,0-3.04-1.37-4.27-4.36-4.26-15.07.04-30.15.03-45.22-.02-2.53,0-3.76.96-3.76,3.56.04,15,.06,30,0,45-.01,3.13,1.43,4.12,4.42,4.07,7.3-.13,14.59-.04,21.89-.04h0ZM727.71,54.21c-7.29,0-14.59,0-21.88,0-4.73,0-5.02.29-5.03,5.13-.02,9.87-.01,19.75,0,29.62,0,4.52,0,9.04.07,13.56.04,2.78,1.14,4.32,4.35,4.29,14.94-.12,29.89-.11,44.83-.05,2.92.01,4.09-1.17,4.08-4.03-.05-14.75-.07-29.5.03-44.25.02-3.33-1.45-4.36-4.57-4.31-7.29.12-14.59.04-21.88.03h0ZM942.81,106.81v-.06c7.54,0,15.07-.07,22.61.04,3.08.05,4.28-1.19,4.26-4.23-.07-14.52,0-29.04-.05-43.57-.01-4.06-.72-4.73-4.89-4.74-14.71-.04-29.43.03-44.14-.07-3.08-.02-4.3,1.1-4.29,4.17.07,14.76.07,29.52,0,44.28-.01,3,1.1,4.29,4.24,4.23,7.41-.14,14.83-.04,22.25-.04h.01ZM323.05,80.78c0-7.38-.04-14.76.02-22.14.03-2.89-.98-4.44-4.15-4.43-15.08.06-30.15.05-45.23-.02-2.79,0-3.92,1.25-3.92,3.87v44.29c0,3.02,1.21,4.51,4.53,4.48,14.84-.11,29.67-.1,44.51-.02,3.09.02,4.3-1.21,4.26-4.24-.1-7.26-.03-14.52-.02-21.79ZM1589.76,106.78h0c7.54-.01,15.09-.05,22.63,0,2.51.02,3.84-.96,3.84-3.54v-45.39c0-2.34-1.2-3.58-3.52-3.59-15.56-.03-31.13-.02-46.69-.04-2.08,0-3.08,1.01-3.07,3.06.02,15.13.02,30.26.06,45.39,0,2.89,1.39,4.21,4.49,4.15,7.42-.16,14.85-.05,22.27-.05h0ZM80.73,268.68c-7.53,0-15.07.06-22.6-.03-2.75-.03-3.97,1.09-3.91,3.8.06,2.5-.01,5-.01,7.5,0,12.14,0,24.28.02,36.42,0,2.74.52,4.91,4.12,4.89,14.95-.08,29.9-.07,44.85,0,3.04.01,4.34-1.23,4.33-4.24-.04-14.64-.04-29.28.02-43.91.01-3.21-1.41-4.48-4.57-4.44-7.41.09-14.83.03-22.25.02h0ZM727.11,268.69v-.02c-7.3,0-14.6.1-21.9-.05-3.25-.07-4.47,1.13-4.45,4.38.1,14.17.05,28.34.06,42.51,0,.83.09,1.66.17,2.49.22,2.3,1.47,3.27,3.82,3.26,15.08-.05,30.16-.07,45.23,0,2.9.01,4.11-1.16,4.1-4.04-.05-14.65-.07-29.29,0-43.94.02-3.4-1.49-4.66-4.79-4.62-7.42.1-14.84.03-22.26.03h.02ZM1158.16,321.23c7.41,0,14.83-.1,22.24.05,3.31.06,4.83-1.07,4.81-4.51-.08-14.52-.07-29.04,0-43.55.01-3.14-1.2-4.57-4.44-4.56-14.95.06-29.9.06-44.85-.02-2.92-.02-4.11,1.12-4.08,4,.08,6.66,0,13.33.01,19.99,0,7.73-.06,15.47.06,23.2.08,4.8.75,5.35,5.43,5.37,6.94.02,13.87,0,20.81.02h.01ZM1589.22,268.67c-7.3,0-14.6.11-21.89-.05-3.25-.07-4.5,1.13-4.45,4.37.13,7.97.03,15.95.04,23.93,0,6.55,0,13.09.04,19.64.02,2.57.51,4.71,3.93,4.69,15.19-.08,30.39-.06,45.58-.03,2.54,0,3.78-1.04,3.77-3.6-.02-14.76-.03-29.52-.02-44.28,0-3.47-1.59-4.81-5.11-4.72-7.29.18-14.59.06-21.89.05h0ZM296.36,268.68h0c-7.42-.01-14.83.1-22.25-.06-3.3-.07-4.47,1.24-4.4,4.43.13,6.31.03,12.61.04,18.92,0,8.09-.06,16.19.06,24.28.06,4.3.85,4.98,5.09,4.98,14.35.02,28.71.02,43.06,0,4.56,0,5.09-.54,5.1-5.2.03-14.04.04-28.09,0-42.13,0-4.6-.63-5.19-5.17-5.21-7.18-.03-14.35,0-21.53,0h0ZM942.65,321.24v-.03c7.66,0,15.32-.02,22.98.01,2.36.01,4-.67,4-3.37-.02-15,0-30.01-.05-45.01,0-2.91-1.54-4.2-4.56-4.18-14.84.07-29.68.07-44.52-.01-2.86-.02-4.18.98-4.17,3.92.05,14.89.05,29.77,0,44.66,0,2.85,1.12,4.09,4.06,4.05,7.42-.1,14.84-.03,22.26-.03h0ZM1131.12,134.39h-.06c0-7.38-.1-14.77.05-22.15.06-3.19-1.02-4.49-4.34-4.47-14.84.11-29.68.11-44.52-.01-3.35-.03-4.33,1.28-4.3,4.46.11,14.41.04,28.82.05,43.23,0,4.54.53,5.33,5.04,5.38,14.96.18,29.92.29,44.87-.4,2.41-.11,3.32-1.07,3.28-3.54-.13-7.5-.05-15-.05-22.5h-.02ZM1158.16,54.23h0c-7.42,0-14.84.06-22.26-.05-2.95-.04-4.14,1.19-4.05,4.04.09,2.86,0,5.72,0,8.57,0,11.91.01,23.82.02,35.73,0,2.33.3,4.3,3.41,4.29,15.44-.05,30.88-.06,46.32-.05,2.43,0,3.54-1.23,3.54-3.5.02-14.89.02-29.77,0-44.66,0-3.06-1.5-4.47-4.71-4.42-7.42.12-14.84.04-22.26.04h0ZM646.93,348.78c0,7.15.16,14.3-.07,21.44-.11,3.43,1.12,4.71,4.5,4.7,14.84-.05,29.69,0,44.54.07,3.17.02,4.45-1.2,4.41-4.47-.15-14.77.18-29.54-.45-44.31-.12-2.87-1.16-4-4.1-3.98-14.97.09-29.93.09-44.9,0-2.98-.02-4.02,1.14-3.97,4.03.12,7.5.04,15.01.04,22.51h0ZM1051.1,268.68h0c-7.54.01-15.09.06-22.63,0-2.94-.03-4.45.99-4.38,4.16.31,14.77-.28,29.54.39,44.31.14,3.13,1.38,4.11,4.38,4.1,14.73-.06,29.45-.04,44.18.06,3.18.02,4.47-1.09,4.44-4.4-.12-14.65-.13-29.31,0-43.96.03-3.36-1.3-4.36-4.47-4.3-7.3.14-14.61.04-21.91.04h0ZM1535.51,322.27c-7.18,0-14.37-.01-21.55,0-4.72.01-4.91.2-4.92,4.8,0,14.29,0,28.59,0,42.88,0,4.59.11,4.81,4.91,4.83,14.72.08,29.45,0,44.17.12,3.31.03,4.34-1.29,4.31-4.49-.14-14.65.07-29.3-.43-43.95-.1-2.98-1.06-4.31-4.23-4.24-7.42.15-14.84.05-22.27.04h0ZM862.45,348.39v21.08c0,5.19.02,5.32,5.12,5.35,14.6.09,29.2.04,43.8.14,3.2.02,4.46-1.17,4.44-4.43-.09-14.76.18-29.53-.43-44.29-.12-2.86-1.11-4.02-4.07-4-14.96.09-29.92.08-44.88,0-2.93-.02-4.06,1.06-4.02,3.99.12,7.38.04,14.77.04,22.15h0ZM619.77,54.23c-7.66,0-15.31.05-22.97-.03-2.54-.02-3.76.93-3.73,3.55.13,14.99-.16,29.98.36,44.97.1,2.8,1.05,4.08,4.04,4.06,14.95-.06,29.91-.02,44.87.04,2.83.01,4.09-1.05,4.07-4.02-.09-14.88-.09-29.76,0-44.64.02-2.95-1.11-4.03-4.02-3.98-7.54.11-15.07.04-22.61.04h-.01ZM458.07,107.83v-.02h-21.53c-4.99,0-5.14.14-5.14,4.92,0,14.28.08,28.56-.07,42.84-.03,3.23.83,4.81,4.29,4.97,15.42.72,30.83.48,46.24-.18,2.37-.1,2.49-1.63,2.49-3.47-.04-14.76-.03-29.51-.06-44.27,0-4.27-.49-4.78-4.7-4.8-7.18-.04-14.35,0-21.53,0h.01ZM1319.86,107.83c-7.54,0-15.07.04-22.61-.02-2.49-.02-3.76.8-3.75,3.49.06,15.24.05,30.47,0,45.71,0,2.27.99,3.17,3.2,3.33,15.66,1.14,31.32.59,46.97.09,2.03-.06,2.95-.94,2.93-3.11-.11-15-.19-30-.13-44.99.01-3.42-1.35-4.61-4.72-4.54-7.29.16-14.59.05-21.89.04h0ZM188.57,268.69c-7.42,0-14.85.09-22.27-.04-3.11-.05-4.4,1.23-4.26,4.23.1,2.14.22,4.28.17,6.42-.28,12.62-.4,25.24.12,37.86.13,3.13,1.44,4.1,4.41,4.09,14.72-.05,29.45-.02,44.17.08,3.17.02,4.47-1.11,4.45-4.42-.12-14.65-.12-29.3,0-43.96.03-3.38-1.42-4.35-4.53-4.31-7.42.11-14.84.03-22.27.03v.02ZM1131.16,348.93h-.32c0-7.5-.09-15,.04-22.5.05-3.06-1.05-4.23-4.19-4.21-14.83.1-29.67.1-44.5,0-3.04-.02-4.28.96-4.26,4.12.11,14.76.12,29.52-.01,44.28-.03,3.14,1.21,4.16,4.18,4.28,11.48.46,22.96.57,34.44.41,3.82-.05,7.63-.11,11.45-.25,2.27-.09,3.29-1.12,3.23-3.65-.18-7.49-.06-14.99-.06-22.49h0ZM188.84,54.23c-7.66,0-15.31.05-22.96-.03-2.56-.03-3.79.96-3.78,3.53.06,14.99.12,29.98.15,44.97,0,3.02,1.41,4.12,4.44,4.1,14.83-.09,29.66-.06,44.49.03,3.09.02,4.2-1.21,4.18-4.27-.1-14.76-.11-29.52,0-44.27.02-3.17-1.25-4.16-4.27-4.11-7.41.13-14.83.04-22.25.05ZM404.35,54.23c-7.3,0-14.6-.03-21.9,0-4.17.02-4.91.67-4.89,4.73.08,14.52.29,29.05.34,43.57.01,2.97,1.02,4.3,4.19,4.28,14.84-.08,29.68-.04,44.53.04,3.01.02,4.29-1.07,4.26-4.21-.1-14.77-.11-29.54,0-44.31.02-3.17-1.26-4.19-4.27-4.14-7.42.11-14.84.04-22.26.03h0ZM430.84,294.86c0-7.38-.08-14.75.04-22.13.05-2.9-1.03-4.08-3.96-4.07-15.18.06-30.37.1-45.55-.02-3.89-.03-3.91,2.4-3.75,4.97.48,7.97.17,15.93.14,23.9-.02,6.54-.39,13.07.11,19.62.23,3.05,1.37,4.14,4.39,4.13,14.82-.08,29.65-.07,44.47.01,3.1.02,4.21-1.23,4.16-4.28-.14-7.37-.05-14.75-.05-22.13ZM1481.75,54.22c-7.42,0-14.84.08-22.25-.04-2.98-.05-4.4.87-4.35,4.06.21,14.75.33,29.51.39,44.26.01,2.95,1.03,4.31,4.19,4.3,14.83-.07,29.67-.02,44.5.06,2.98.02,4.31-1.04,4.29-4.19-.1-14.76-.1-29.52,0-44.28.02-3.07-1.04-4.26-4.17-4.2-7.53.14-15.07.05-22.61.04h.01ZM835.61,268.69c-7.53,0-15.07.08-22.6-.04-3.16-.05-4.52,1.06-4.47,4.36.25,14.63.39,29.26.42,43.89,0,3.26,1.3,4.38,4.49,4.36,14.71-.09,29.41-.09,44.12,0,3.24.02,4.4-1.2,4.37-4.44-.12-14.63-.13-29.27,0-43.9.03-3.35-1.29-4.35-4.47-4.28-7.29.15-14.59.05-21.88.05h.02ZM1292.95,294.88c0-7.27-.11-14.54.05-21.8.07-3.22-1.04-4.47-4.34-4.44-14.84.11-29.69.12-44.53,0-3.62-.03-4.57,1.68-4.46,4.84.17,5.12.31,10.24.31,15.36,0,8.81-.2,17.63-.18,26.44.01,5.55.47,5.94,5.88,5.94,14.25.02,28.49-.06,42.74.05,3.4.03,4.69-1.13,4.6-4.59-.2-7.26-.06-14.53-.06-21.8h-.01ZM1292.95,80.72c0-7.38-.12-14.76.05-22.13.07-3.25-1.08-4.43-4.36-4.4-14.59.11-29.18.03-43.76.05-4.22,0-5.2.85-5.18,4.95.06,14.51.28,29.02.34,43.53.01,3.14,1.4,4.09,4.38,4.08,14.71-.06,29.42-.03,44.12.07,3.15.02,4.54-1.05,4.47-4.38-.17-7.25-.05-14.51-.05-21.77h-.01ZM835.22,54.23c-7.54,0-15.08.12-22.62-.05-3.27-.07-4.24,1.29-3.99,4.28.24,2.72.34,5.47.35,8.2.04,11.91.08,23.82,0,35.72-.02,3.17,1.14,4.45,4.43,4.43,14.72-.1,29.44-.07,44.16.03,3.22.02,4.43-1.16,4.4-4.43-.12-14.65-.13-29.3,0-43.94.03-3.36-1.3-4.34-4.47-4.28-7.42.15-14.84.05-22.26.04ZM268.87,348.85h-.12c0-7.5-.04-15,.02-22.5.02-2.51-.58-4.1-3.57-4.09-15.32.06-30.63.05-45.95.01-2.46,0-3.41,1.09-3.4,3.47.04,15.24.04,30.48,0,45.72,0,2.26.96,3.29,3.2,3.29,15.55.03,31.11.08,46.66.13,2.43,0,3.26-1.05,3.21-3.53-.16-7.5-.06-15-.06-22.5h.01ZM431.4,348.22c0,7.38.13,14.76-.06,22.14-.08,3.24,1.01,4.47,4.3,4.46,14.83-.05,29.67.03,44.5.12,2.78.02,4.22-.98,4.21-3.95-.06-15-.05-30-.02-45,0-2.73-1.22-3.76-3.95-3.75-15.07.07-30.15.06-45.22-.01-2.79-.01-3.83,1.11-3.79,3.84.1,7.38.03,14.76.03,22.14h0ZM1293.51,348.22c0,7.62.06,15.24-.04,22.85-.03,2.58.95,3.7,3.55,3.7,15.31,0,30.62.02,45.93.06,2.39,0,3.46-1.11,3.46-3.49-.03-15.12-.04-30.23,0-45.35,0-2.74-1.19-3.76-3.93-3.75-15.07.07-30.14.06-45.22,0-2.8-.01-3.82,1.11-3.78,3.84.1,7.38.03,14.76.03,22.14h0ZM620.01,268.69h-22.61c-2.24,0-4.01.3-4,3.23.08,15.11.09,30.22.06,45.34,0,2.9,1.22,4,4.1,3.99,14.95-.06,29.9-.03,44.85.03,2.91.01,4-1.19,3.99-4.09-.09-14.76-.11-29.52.02-44.27.03-3.41-1.43-4.31-4.53-4.26-7.29.12-14.59.04-21.89.04h.01ZM1508.48,295.15c0-7.26.02-14.52,0-21.78,0-4.23-.42-4.66-4.77-4.67-14.47-.03-28.95.05-43.42-.05-3.34-.02-4.79,1.17-4.77,4.57.1,14.52.12,29.04.05,43.56-.01,3.14,1.06,4.51,4.37,4.49,14.83-.08,29.67-.05,44.5.04,3.17.02,4.14-1.39,4.08-4.37-.13-7.26-.04-14.52-.04-21.78h0Z"/>
</svg>