<?xml version="1.0" encoding="UTF-8"?>
<svg id="Layer_1" data-name="Layer 1" xmlns="http://www.w3.org/2000/svg" viewBox="0 0 573.8 553.45">
  <defs>
    <style>
      .cls-1 {
        stroke: #d90000;
        stroke-miterlimit: 10;
        stroke-width: 10.66px;
      }

      .cls-1, .cls-2 {
        fill: none;
      }

      .cls-3 {
        fill: #d90000;
      }

      .cls-4 {
        fill: #fff;
      }

      .cls-2 {
        stroke: #fff;
        stroke-linecap: round;
        stroke-linejoin: round;
        stroke-width: 20.68px;
      }
    </style>
  </defs>
  <g>
    <path class="cls-4" d="M53.75,521.5h418.81c0-26.71,21.72-48.43,48.43-48.43V53.75c-26.71,0-48.43-21.72-48.43-48.43H53.75c0,26.71-21.72,48.43-48.43,48.43v419.32c26.81,0,48.43,21.72,48.43,48.43Z"/>
    <path class="cls-1" d="M53.75,521.5h418.81c0-26.71,21.72-48.43,48.43-48.43V53.75c-26.71,0-48.43-21.72-48.43-48.43H53.75c0,26.71-21.72,48.43-48.43,48.43v419.32c26.81,0,48.43,21.72,48.43,48.43Z"/>
    <path class="cls-4" d="M468.18,9.81c2.24,25.59,22.63,46.08,48.22,48.22v410.66c-25.59,2.24-46.08,22.63-48.22,48.22H58.14c-2.24-25.59-22.63-46.08-48.22-48.22V58.14c25.59-2.24,46.08-22.63,48.22-48.22h410.04M472.56,5.33H53.75c0,26.71-21.72,48.43-48.43,48.43v419.32c26.71,0,48.43,21.72,48.43,48.43h418.81c0-26.71,21.72-48.43,48.43-48.43V53.75c-26.71,0-48.43-21.72-48.43-48.43h0Z"/>
  </g>
  <g>
    <g>
      <path class="cls-3" d="M369.74,380.98c-.23,1.87-.12,3.04-.47,3.16-5.61,2.34-8.66,9.12-15.09,9.24-8.07.23-15.21,3.04-22.23,6.32-14.15,6.67-29.01,10.76-44.22,14.15-17.31,3.86-34.98,4.91-52.76,4.8-20.71,0-40.94-2.11-61.3-6.2-20.59-4.21-40.47-10.29-59.78-18.48-16.03-6.9-31.82-14.15-46.32-23.75-13.92-9.12-26.67-19.77-35.68-34.04-6.08-9.71-9.12-20.71-10.76-31.94-1.99-13.92-3.28-27.84-1.75-41.76,1.29-11.35,1.52-22.81,1.52-34.27,0-3.74.12-7.49-.23-11.23-.7-8.66,2.34-16.38,5.97-24.1,6.32-13.45,16.38-24.1,27.26-33.92,9.01-8.19,18.72-15.32,29.24-21.64,3.98-2.46,6.9-6.67,10.29-9.94,12.4-11.93,27.02-19.77,43.28-25.03,3.74-1.17,7.25-3.28,9.71-6.43,7.72-10.06,19.07-13.1,30.41-16.14,5.15-1.4,10.53-2.46,15.56-4.09,16.49-5.15,31.47-2.57,44.1,9.24,4.45,4.09,8.77,4.8,14.39,3.74,26.91-4.91,53.93-3.04,80.95-1.4,13.22.82,26.32,3.98,38.6,9.36,7.84,3.39,15.21,7.49,22.11,12.4,14.86,10.41,28.66,21.99,41.41,34.98,10.53,10.65,16.49,23.75,20.94,37.9,8.42,27.02,14.27,54.28,9.48,82.7-5.26,31.35-20.47,57.44-42.46,80.13-10.06,10.29-21.99,18.37-32.75,27.72-2.11,1.75-3.63,4.45-7.72,3.28-1.87-.58-3.39,3.28-4.91,5.38-1.75,2.69-3.74,4.33-6.78-.12v-.02ZM104.43,316.64l-.12-.12c1.4,4.56,4.56,7.6,9.01,9.48,1.75.7,3.98,1.64,4.68,3.04,3.98,7.6,11.58,9.24,18.48,11.81,1.87.7,5.26.35,4.68,2.81-.47,1.99-3.63.7-5.5.23-7.95-1.87-14.51-6.55-21.29-10.88-7.6-4.8-14.51-10.41-22.11-15.09-13.57-8.54-23.16-20.71-32.99-32.87-4.56-5.61-7.14-12.4-11.46-18.13-2.34-3.16-4.33-6.78-8.89-8.54.35,1.05.47,1.52.7,1.87,3.98,6.9,9.24,13.1,12.28,20.71,3.16,8.07,7.49,15.44,13.45,21.88,6.55,7.02,16.14,10.76,20.82,19.77.12.23.58.12.82.35,12.75,8.66,25.62,17.31,38.37,26.09,1.87,1.29,4.56,2.22,5.15,5.03-1.4.58-2.46.12-3.51-.58-11.46-7.14-22.58-15.09-33.57-22.81-1.17-.82-2.22-2.69-3.63-1.05-1.17,1.29-.35,3.04.58,4.56,4.21,6.2,9.12,11.81,14.39,17.08,1.52,1.52,3.39,3.98,5.03,2.22,1.64-1.75-1.4-3.16-2.57-4.68-1.87-2.22-4.33-3.98-4.33-7.6,2.34.7,2.46,2.46,3.63,3.51,9.36,9.12,21.29,14.27,32.17,21.06.7.47,1.4.58,2.11,0,3.86-2.69,7.6-.82,10.88.82,6.67,3.16,13.1,6.55,20.59,7.14,1.75.12,3.86.58,4.68,3.39-9.83,1.17-17.43-3.63-24.8-8.07-3.51-2.11-6.67-2.22-9.59-.82-1.87.94-2.81.94-4.33.12-5.62-3.16-11.23-6.32-16.73-9.48-1.05-.58-2.11-1.05-3.74.23,12.87,11.81,26.67,21.17,45.27,20-2.57.94-5.15,1.17-7.49,1.75-8.19,1.99-14.04-3.63-20.82-6.08-2.11-.82-4.68-3.28-6.08,0-1.17,2.81,2.46,3.16,3.98,4.45.58.47,1.52.35,2.11.7,5.15,2.92,11.11,3.51,16.61,5.5,4.56,1.64,10.06,3.16,14.39,2.11,5.73-1.4,11.46-1.05,17.08-2.34,3.28-.7,6.32-2.57,9.94-1.52-1.05,1.64-2.46,2.22-4.21,2.46-2.34.35-4.68.82-7.02,1.4-1.05.23-2.69.35-2.69,1.87,0,1.17,1.4,1.4,2.34,1.75,3.86,1.87,7.6,2.11,11.58.12,3.63-1.75,7.49-3.04,11.23-4.56.7-.23,1.99-1.17,2.22,0,1.17,4.56,3.63,2.69,6.08,1.4,3.74-1.87,7.02-4.8,11.35-5.5-4.56,3.74-9.48,7.02-14.86,9.48-.94.47-2.11.94-2.81-.23-2.81-4.8-5.26-.94-7.6.47-1.99,1.17-.94,3.04.58,3.16,6.08.58,12.05,3.04,18.25,1.29,6.32-1.75,11.35-5.73,16.49-9.48,2.11-1.52,3.74-3.86,6.9-4.8-1.99,3.16-4.33,5.26-6.67,7.37-1.17.94-2.46,2.11-2.11,3.74.35,1.75,2.46,1.4,3.74,2.11,1.75.82,2.81-.35,3.98-1.29,3.28-2.69,6.43-5.38,10.53-8.77-1.17,3.04-3.04,4.21-4.21,5.85-.7,1.05-2.11,2.11-1.29,3.63.7,1.17,2.11.94,3.28,1.05,4.09.7,6.43-1.87,8.77-4.45,1.17-1.29,2.11-2.92,4.21-3.39-.35,2.81-3.28,4.09-3.16,7.02,4.91,1.29,9.12-.23,13.1-2.69.94-.58,1.75-2.46,2.92-1.17,2.22,2.34,3.86.58,5.61-.35,5.03-2.81,12.05-1.4,15.21-8.19,1.29,2.22,0,3.04-.23,4.21-.35,1.52.35,2.57,1.75,2.46,5.85-.58,11.58-2.11,16.26-5.85,2.11-1.64,1.87-5.61-.12-7.84-2.11-2.34-3.63.94-5.15,1.87-1.87,1.05-3.51,2.69-5.26,4.09-.47.35-1.05.7-1.52,0-.23-.35-.23-1.05,0-1.29,3.28-2.57,7.14-4.68,6.67-9.83,0-.23.7-.47,1.05-.82,1.64-1.05,2.81-2.46,1.99-4.56-.94-2.11-2.92-1.87-4.68-1.17-6.78,2.81-14.86,2.69-20.35,8.54-.35.35-1.05.58-1.64.7-.94.23-1.99,1.4-2.81.12-.7-1.17.23-1.87,1.17-2.57,2.69-1.99,5.26-3.98,7.84-6.08.7-.58,1.17-1.4,2.22-1.17,5.03,1.05,9.71-.58,14.39-2.22.7-.23,1.52-.47,2.11-.23,5.03,1.87,5.15,1.75,5.26-3.63.12-3.74-.82-7.95,3.63-10.29.82-.35.94-1.52.47-2.46s-1.29-1.29-2.22-1.05c-2.34.58-4.68.82-6.78,2.11-2.46,1.52-5.15,2.57-8.07,2.11-.7-.12-1.64,0-1.87-.94s.58-1.29,1.29-1.52c.82-.35,1.64-.7,2.57-.82,6.55-1.05,11.46-5.03,16.73-8.77,5.03-3.63,10.53-6.67,15.91-9.94.82-.47,2.11-.82,2.69.47.35,1.05-.58,1.4-1.4,1.99-3.98,3.16-7.72,6.67-12.87,7.95-1.4.35-2.11,1.29-1.64,2.69.35,1.17,1.4,1.99,2.34,1.64,4.45-1.99,10.18-.23,13.57-4.91,1.05-1.52,2.81-1.29,4.45-2.11-.7,2.22-2.81,4.09.35,5.26,3.86,1.64,9.71-.35,12.05-3.86.7-1.05,1.05-2.11,2.22-2.69,4.68-2.22,8.07-5.85,11.23-9.83.7-.94,1.75-2.46,3.28-1.64,1.64.82,2.46-.23,3.51-1.05,2.92-2.11,4.8-4.8,5.61-8.42.58-2.22,1.87-2.92,2.22-2.22,1.99,3.86,3.51.7,4.68-.47,2.81-2.69,5.38-5.61,8.07-8.42,1.4-1.52,1.29-3.16.35-5.03-.47.23-.94.35-1.29.58-3.51,2.46-4.68,8.66-11,6.67-.12,0-.47.35-.58.58-1.75,4.21-6.67,5.5-9.01,9.12-1.29,1.99-3.39,3.28-5.5,3.74-2.46.47-4.33,1.4-5.61,3.51-1.05-1.52-.35-2.57.23-3.63.47-.94,1.52-1.75.35-2.81s-2.22-.35-3.16.47c-2.46,2.22-6.08,3.51-6.55,7.6-.12.58-1.4,1.52-1.52,1.52-3.04-2.46-6.9.47-10.06-1.29.47-1.52,1.75-1.87,2.69-2.46,7.37-4.21,14.62-8.66,21.41-13.69,9.71-7.25,18.6-15.32,26.67-24.21,9.01-9.94,15.56-21.41,22.81-32.64,3.28-5.15,4.56-12.4,12.52-13.92-1.4-1.17-2.57-1.75-3.63-1.29-3.51,1.52-8.19,1.05-9.71,6.2-.58,2.11-2.69,3.98-5.15,4.8-3.86,1.29-5.5,3.39-5.73,7.84,1.64-.35,2.81-2.34,5.03-1.29-1.52,3.63-4.68,5.97-6.9,9.01-.82,1.29-2.92,2.92-4.09,1.99-2.81-2.22-3.63,0-4.91,1.52-3.63,4.45-6.9,9.12-11,12.98-1.64,1.64-2.69,5.03-6.2,4.09.23-1.4.82-2.46,1.87-3.51,10.06-10.06,19.89-20.35,27.37-32.64.47-.82.7-2.11,2.11-2.11,2.92.12,4.09-2.11,5.61-3.98,4.56-5.5,6.9-12.05,8.89-18.83.47-1.64.12-3.74,2.69-3.98-.82,2.69-1.75,5.38-2.46,8.07-.23,1.17-.94,3.16.58,3.63,1.75.58,2.57-.94,2.81-2.57.23-1.99,1.17-3.63,2.92-4.8,3.28-2.22,6.78-11.23,5.61-14.74-.7-2.11-2.46-4.09-4.33-3.86-1.87.12-1.75,2.81-1.64,4.56.12,3.86-1.29,7.14-3.86,10.06,1.64-7.49,3.74-14.86,2.92-22.69-.12-1.64.35-4.21-1.29-4.33-2.22-.35-1.87,2.46-2.46,3.98-.23.47-.35,1.17-1.52,1.05-.35-5.15.58-10.41-1.52-15.44-.23-.58,0-1.17.47-1.52,1.64-1.29.94-2.92.47-4.56-1.75-6.78-5.73-12.4-9.59-18.01-.47-.7-1.29-1.87-2.81-.58,2.92,5.62,5.15,11.46,5.15,17.9-1.29-3.39-3.16-6.32-4.91-9.48-.58-1.17-1.29-2.81-2.92-2.22-1.4.47-.7,2.11-.58,3.28.35,6.55,3.39,12.75,3.04,19.42,0,1.17.58,3.86,2.34,3.98,2.34.23,1.87,1.64,1.87,2.81.12,5.62.23,11.11-3.16,16.03-.94,1.4-2.11,2.92-1.64,4.91.23.94-.12,1.87-1.17,2.22-5.85,2.22-5.73,8.07-7.72,12.63-.35.82-1.05,2.11.58,2.57,1.17.35,1.99-.7,2.57-1.52.94-1.29.7-3.51,3.16-4.09.47,3.74-2.57,5.97-3.86,8.89-.35.7-1.29,1.29-2.34.7-3.86-2.22-4.45.35-5.73,3.28-2.11,4.8-3.98,10.29-7.6,13.69-7.72,7.49-16.38,13.92-24.8,20.59-2.69,2.11-5.26,3.39-2.69,7.37.7,1.05.47,2.81-.94,3.63-1.52.82-1.87-.7-2.57-1.64-1.75-2.57-4.68-3.28-6.55-1.4-2.46,2.46-8.19,2.11-7.02,7.84.47,2.34,0,3.51-2.11,5.15-6.43,4.91-14.15,6.55-21.41,9.48-5.73,2.34-11.93,2.34-17.55,5.38-3.98,2.22-9.12,2.46-13.69,3.63-.12-.58-.35-1.05-.47-1.64,4.09-1.05,8.07-2.22,11.93-3.98.94-.47,2.46-.23,2.11-1.64-.35-1.4-1.75-.7-2.69-.58-6.67.82-12.28,4.8-18.72,6.55-5.5,1.4-10.65,3.86-16.26,5.03-3.63.7-8.42.82-10.06,4.09-1.75,3.28-4.09,4.09-6.9,4.8-7.25,1.75-14.62.94-21.99,1.17-2.34.12-4.8.35-5.73-2.92-.47-1.75-2.69-1.99-3.86-1.05-4.21,3.63-8.77,1.99-13.22,1.4-5.97-.7-5.97-.94-7.37,4.91-.35,1.29-1.05,2.46-2.22,2.46-1.52-.12-1.29-1.75-1.52-2.92-.23-2.11,1.4-3.39,2.57-5.03-10.18-2.69-20.35-3.51-29.83-7.14-2.34-.94-4.56-2.69-6.08,1.17-.58,1.52-1.87.35-2.22-.7-2.22-7.49-10.06-4.91-14.74-8.19-.58-.35-1.05.35-1.29.94-.47.94-.94,2.11-2.22,1.64-1.52-.58-1.29-1.99-.94-3.04.82-2.46-.12-4.45-2.34-4.21-3.63.23-6.67.94-6.32-4.21,0-.35-.82-1.05-1.29-1.17-3.86-.7-7.02-3.28-10.41-5.03-5.85-3.04-13.92-2.11-17.66-9.01-.35-.58-1.05-.47-1.64-.23-4.09,1.52-5.38-.12-4.56-3.98.12-.82,0-1.64-.58-2.11-5.38-4.09-7.49-10.65-13.45-14.74-14.51-9.83-20.35-25.03-23.51-41.76-2.11-11.35.94-22.81-1.64-34.04-.7-3.28,3.28-2.57,4.09-4.56,2.34-5.62,5.38-10.53,10.65-14.04.94-.58,2.81-2.57.82-4.21-1.4-1.17-2.69-.12-3.98.82-9.01,7.49-17.55,15.56-25.03,24.68-1.64,1.87-3.86,3.86-3.86,6.43.12,4.56-1.99,8.54-3.39,12.52-5.62,15.21-2.57,29.13,5.85,42.11,4.56,7.14,11.35,12.52,15.91,19.77,3.16,5.03,6.08,10.06,9.71,14.74,7.25,9.12,16.49,16.38,25.03,24.33,3.28,3.04,8.54,4.68,8.54,10.53,0,1.05,1.99,2.11,2.81.82,1.52-3.39,3.74-1.17,5.85-.82l.03-.04ZM340.26,143.51c1.99-3.63.82-6.43.47-9.12-.12-1.17-1.05-2.57-2.22-2.57-1.75,0-1.87,2.11-1.75,3.16.58,4.21.82,8.66,3.16,12.52,1.29,2.22.82,4.09.35,6.43-1.17,5.03-3.98,10.06.12,15.32,1.05,1.4,1.29,4.68-1.29,4.8-3.98.23-3.86,2.81-4.56,5.26-.7,2.57-1.4,5.15-2.57,7.6-1.29,2.81-4.09,5.15-3.74,8.42.23,2.81-.94,4.8-2.46,6.9-2.57,3.51-4.91,7.25-8.89,9.48-3.39,1.87-5.97,5.73-9.01,6.9-4.8,1.75-9.01,4.33-13.57,6.32-5.5,2.34-9.36,7.37-15.91,8.31-3.04.47-5.97,2.57-9.36,2.34-1.52-.12-3.28-.12-4.33.94-3.28,3.16-8.07,2.34-11.93,4.21-5.15,2.34-11.11,3.39-16.03,6.9-1.05.7-1.75.82-2.81-.12-3.59-3.12-7.6-3.39-12.05-.82.47,1.05,1.4,1.05,2.22.7,1.29-.58,2.57-.58,3.04.82.58,1.64-1.05,1.99-2.11,2.34-5.5,1.64-10.76,3.86-16.84,4.09-14.62.58-29.01,1.05-43.4-2.57-3.86-.94-8.54-1.99-12.17,1.99-.82.94-2.57.7-3.16-1.05-1.29-3.98-4.8-3.86-8.07-4.33-1.17-.12-2.81.82-3.16-.82-.82-4.8-4.09-2.81-6.67-2.46-1.75.23-3.39,1.4-5.38.58,1.64-1.75,3.98-1.52,5.85-2.34.82-.35,1.99-.23,2.11-1.29s-.82-1.52-1.64-1.87c-4.21-1.99-8.66-2.81-12.98-3.16-.94,1.52,4.56,2.34.12,3.74-3.63,1.17-13.34-2.69-15.44-5.85-.82-1.17-1.17-2.46-.82-5.03,1.75,3.16,3.39,5.15,6.78,4.33-1.87-4.56-6.32-5.85-9.36-8.77-5.38-5.03-10.18-10.06-12.4-17.55-2.57-8.66-1.87-17.31-1.99-25.97,0-1.87-1.17-4.21,2.22-4.8,1.29-.23.94-1.99.12-3.04-3.16-3.63-3.16-6.67,0-10.06,1.05,1.4-.47,3.63,2.11,5.03,1.75-5.15,2.69-10.41,5.26-15.09,1.05-1.99,2.92-3.74,1.52-7.14-.7-1.75,1.4-7.37,4.21-7.95,2.69-.58,2.81-1.99,3.86-3.51,2.11-3.39,4.45-6.67,6.67-9.94.58-.82,2.81-.94,1.17-2.57-1.17-1.17-2.46-.7-3.74.23-2.69,1.87-5.62,3.51-7.95,5.73-6.2,5.62-13.22,10.53-16.26,18.83-.7,1.87-1.17,3.39.47,4.8,2.81,2.46,1.75,3.74-1.4,4.21-2.34.35-3.63,2.11-4.45,3.98-1.05,2.34,1.87,6.55-3.51,6.67-.12,0-.23.58-.23.82.35,2.22-1.05,3.51-2.57,4.8-.94.82-2.22,2.34-1.52,3.51,2.81,3.86-.58,7.95,1.75,12.52-2.69-1.4-5.5-3.39-5.5.58,0,2.57,1.17,5.62,2.81,7.37,2.92,2.92,2.46,5.85,1.05,8.89-.82,1.75-.12,2.92.7,4.09.7,1.17,1.99,1.05,3.28,1.05,1.17-.12,1.64-1.87,3.04-1.29.58,2.22-.94,4.09-1.05,6.2,0,1.4-.47,2.92,1.99,3.28,3.28.47,4.21,3.63,2.11,6.43-.47.7-1.64.7-1.64,1.87-.23,3.86,5.62,10.76,9.94,11.35,1.29.23,1.52.82,1.52,1.75,0,2.46,2.34,2.57,3.28,3.74,2.69,3.51,6.67,5.85,8.77,9.36,2.11,3.63,5.15,5.73,8.07,8.19,1.05.94,2.22.7,3.51-.47,2.92-2.57,11.11-.7,11.11,1.99,0,4.68,1.64,7.6,4.68,10.41.12.12,0,.23,0,.47-.12.94.47,1.52,1.29,1.4,1.05-.12.94-.94.7-1.75-.35-.82-1.05-1.52,0-2.46,7.14,3.51,14.62,5.85,22.23,8.19,1.99.58,3.86,1.4,4.68-1.52.35-1.17,1.29-1.75,2.46-1.4,1.4.35.94,1.75,1.05,2.69.35,3.39-1.64,4.45-4.68,4.45-.82,0-1.99,0-1.99,1.17,0,1.05,1.05,1.52,1.99,1.4,2.69-.7,6.2,3.74,8.42-1.29.58-1.29,2.11.23,3.16.7,1.64.7,3.74,1.99,5.03.47,2.92-3.28,3.16-1.17,3.51,1.4.23,1.52,1.4,1.87,2.46,2.34,2.46.82,4.91,1.52,7.25,2.46,1.75.7,2.92.47,4.45-.82,2.22-1.99-1.4-2.46-.47-4.09,2.81.94,5.62-.7,8.31-.35,7.84,1.05,15.56.12,23.04-1.52,7.72-1.64,15.32-2.92,23.16-2.34.94.12,2.46.82,2.69-.58.47-2.81,2.57-1.99,4.21-1.99,2.81-.12,5.5.47,8.42,0,2.57-.35,3.16-1.4,3.16-3.74,0-2.46-.82-3.74-3.39-3.63-1.05,0-2.11.12-3.16,0-2.11-.35-2.22-2.22-2.46-3.86-.12-1.29.35-2.69,1.75-2.81,1.99-.23,2.34,1.52,2.46,3.04.12,2.11,1.05,2.34,3.04,2.11,6.43-.82,12.75-2.69,18.25-5.85,3.74-2.22,5.97-6.2,11.46-5.97,2.69.12,5.5-3.16,8.19-5.03,1.05-.7,3.63-.94,2.46-2.92-1.29-2.22-3.16-.47-4.68.35-.58.35-.94,1.17-1.52,1.64-.7.58-1.52.82-2.69-.7,6.67-2.81,10.18-9.01,16.26-12.87,12.17-7.49,23.04-16.96,33.22-26.91,1.75-1.75,1.87-3.16,1.4-5.15-.23-1.05-1.05-1.99-.12-3.74,1.99,4.33,3.98,3.16,6.08.82.82-.94.58-1.87.7-2.92.12-.82-1.17-3.04,1.75-1.64,1.75.82,2.69-2.11,2.34-3.39-.47-1.99.35-4.68-2.22-5.85-.7-.35-1.52.23-1.87.94-2.69,6.43-9.12,10.29-12.05,16.61-2.11,4.45-5.97,7.6-9.59,10.88-4.8,4.33-10.65,7.25-15.21,11.93-3.63,3.74-7.6,7.72-12.63,9.71-4.33,1.75-8.54,3.51-12.87,4.91-6.9,2.22-13.92,4.09-20.82,6.08,5.38-3.86,11.58-5.97,17.66-7.84,6.32-1.99,12.17-4.56,17.78-7.84,6.32-3.51,10.29-9.83,16.26-13.45,6.55-3.86,11.81-8.89,16.61-14.62,3.98-4.68,7.02-10.06,11.23-14.62,1.87-2.11,3.39-4.8,4.33-7.72.47-1.75.47-3.28-1.05-3.86-1.87-.7-1.64,1.29-2.22,2.34-1.99,4.21-4.09,8.31-6.32,12.4-.7,1.29-1.52,2.57-3.39,2.22-.7-1.99,1.05-2.69,1.87-3.86,2.81-4.09,2.92-5.73.58-9.01-.23-.35-.35-.94-.23-1.29,1.52-2.69.47-5.73,1.05-8.66,2.22.58,2.34,4.09,4.8,3.04,2.34-1.05,1.29-3.51,1.29-5.26.12-6.43,2.57-12.63,2.34-19.07.35,6.32.35,12.52.35,18.83,0,1.64-.47,3.74,1.64,4.21,2.34.47,2.92-1.87,3.16-3.63.7-3.98,1.29-7.95,1.52-12.05.12-1.4-.94-4.09-2.22-3.28-2.81,1.64-2.22-.58-2.34-1.64-.35-3.86-.47-7.84-.7-11.7-.12-1.29,0-3.16-1.75-3.04-1.29.12-1.52,1.99-1.75,3.28-.35,2.11.47,4.56-2.22,5.73-.82-1.4-.35-2.46,0-3.63,3.86-13.1.23-21.17-12.28-28.19-1.29-.7-3.04-2.11-4.56-.7-1.29,1.17-1.52,3.16-.94,4.56.82,1.99,2.22,4.56,4.45,4.56,6.78-.12,6.55,5.38,7.95,9.36.7,1.05.7,3.28-3.04,4.8l-.02.03ZM232.87,192.52c-1.64,5.03-6.08,7.95-15.68,10.65.12-4.21-.94-5.15-4.8-4.09-3.28.94-8.54,2.57-8.31,4.91.35,3.98-1.75,3.98-3.74,4.68-11.93,4.21-24.21,3.98-36.5,3.04-3.39-.23-6.43-1.4-7.84-5.03-.58-1.52-1.75-1.99-3.28-1.87-6.67.47-12.52-1.87-17.55-5.73-9.36-7.02-17.08-15.56-16.14-28.31.7-10.06,1.17-20.24,5.73-29.83,1.4-3.04,2.81-6.2,4.56-9.12,1.29-2.22,1.29-4.91-.35-6.08-1.99-1.52-4.33.12-5.73,1.99-1.52,1.99-2.81,4.21-4.33,6.2-2.92,3.63-2.34,8.89-4.33,12.28-2.57,4.45-3.86,8.77-4.45,13.69-.58,3.98-.82,8.07-1.29,12.05-.47,3.39,3.51,4.09,3.04,7.37-.58,4.8,2.11,9.01,4.91,12.63,1.64,2.11,2.34,3.63,1.4,6.32-1.52,4.8,2.57,11.46,7.6,12.75,1.05.23,1.29,1.29,1.99,1.64,1.99,1.05,1.4,7.49,6.2,3.28.12-.12.94.35,1.05.58,1.64,4.33,6.67,5.26,8.89,9.01,1.17,1.99,2.92,2.46,3.74-.35,1.17-3.86,3.74-3.74,6.78-2.69,2.11.82,4.21,2.34,6.43,1.4,5.03-2.11,4.33.35,3.04,3.39-.94,2.34.47,3.51,2.11,4.33,1.52.7,4.56,1.64,4.8.23.82-4.45,4.33-3.39,6.67-3.51,7.72-.47,15.44,1.4,23.28-.23,2.69-.58,5.15-.82,5.03-4.33,0-2.22,1.4-2.81,3.16-2.92,1.87-.23,3.16.35,3.51,2.57.35,2.81,2.34,3.39,4.68,2.92,4.21-.94,8.66-1.17,12.52-3.39,1.52-.82,4.45-.94,3.16-3.86-1.05-2.34-2.92-1.64-5.03-1.05-4.09,1.17-8.42,1.87-12.63,2.81-.12-.58-.23-1.05-.35-1.64,7.37-2.92,14.74-5.85,22.58-7.25.94-.12,1.87.23,2.22,1.17.94,2.22,1.64,4.09,4.91,2.81,2.11-.82,4.33-1.4,5.85-3.16,1.29-1.52,1.4-3.51.58-5.03-.94-1.75-2.69-1.05-3.98-.23-1.99,1.17-4.8.47-6.43,2.81-.94,1.4-1.87.47-1.99-.82-.12-1.87-1.17-4.56,2.81-3.63,1.87.47,3.86-.58,5.61-1.29,4.83-1.87,8.42-.66,10.76,3.63.47.94.82,2.11,2.11,1.99,1.64-.23,1.64-1.52,1.52-2.69,0-1.64-.35-3.98,1.64-4.09,4.8-.12,4.33-3.04,3.74-5.97-.47-1.99.7-3.51,1.99-3.98,2.11-.82,4.56-1.29,6.78-1.17.82,0,1.05,3.04,3.16,1.4,1.29-.94,2.92-1.64,3.04-3.63,0-1.4.35-3.28,1.75-3.28,5.61,0,6.2-5.38,9.12-8.19.94-.94,2.92-2.69,1.05-4.68-1.64-1.75-3.04.35-4.56.35-.23,0-.47-.23-.82-.47.7-3.04,3.39-4.91,5.26-7.14,3.74-4.8,5.61-10.41,8.07-15.79,6.08-13.22,5.61-25.74-2.11-37.9-.94-1.4-2.11-2.92-4.68-2.46.7,2.81,2.34,4.68,4.09,6.67,1.29,1.4,1.17,4.21.23,8.07-1.64-4.45-3.28-8.66-6.67-11.81-2.46-2.34.12-4.45-.23-6.43-.82-4.09-8.07-8.54-12.28-7.95-1.52.23-2.92,1.05-2.57,2.46.94,4.8,3.74,9.01,4.45,14.04,0,.35.94.94,1.4.82,2.11-.35,2.34,1.29,3.16,2.46,3.98,5.26,4.09,11.35,3.51,17.55-.23,2.81.35,5.97-3.63,6.78-1.05.23-1.4,1.75-1.05,2.22,2.57,3.63.23,5.73-1.29,9.01-3.39,7.14-7.02,13.8-12.63,19.42-7.37,7.37-15.91,12.98-25.27,17.2-2.34,1.05-5.15,5.5-7.02-.47,0-.23-.58-.35-.82-.35-3.74,1.17-8.07-.23-11.35,2.69-.82.7-1.64,1.52-.82,2.69.7,1.05,1.75,1.05,2.81.35.94-.94,2.22-1.99,3.98-3.39l.07-.03ZM215.09,161.64c-2.69,5.15-5.15,9.01-7.95,12.63-.7.94-1.64,2.81.23,2.57,1.99-.23,4.68.47,6.2-1.87,2.46-3.74,4.91-7.37,7.49-11.11.58-.94,1.17-1.52-.58-2.22-2.81-1.05-7.72-.94-4.45-6.43.47-.7-.47-1.75-1.29-2.22-.94-.7-1.64.12-2.22.7-.82.94-1.4,1.99-2.22,2.81-.7.58-1.29,2.11-2.46,1.05-.7-.7-.23-1.64.35-2.34.94-1.4,2.22-2.81,2.34-5.62-6.43,2.81-7.84,10.06-13.69,12.4,2.57-3.04,4.09-6.9,7.02-9.36,1.75-1.52.82-4.56,2.92-4.91,4.68-.82,7.6-4.45,11.7-6.32,2.22-1.05,5.26-4.33,4.09-5.85-1.75-2.57-.47-3.04.7-4.45,1.99-2.57,3.16-6.08,5.61-7.95,5.5-4.45,4.09-9.71,3.04-15.09-.12-.58-.23-1.17-.23-1.75-.58-3.63-.58-3.74-3.86-2.46-.94.35-.94-.47-1.29-.82-.94-.94-1.64-2.22-2.69-3.04-1.17-.94-3.04-1.87-1.87-3.28.94-1.17,2.69-.23,3.74,1.17.47.58,1.17,1.17,1.87.35.58-.7.12-1.29-.35-1.99-2.81-3.98-4.56-8.07-10.88-8.89-7.49-1.05-14.27-.94-21.52,1.52-3.98,1.4-8.07,2.92-12.28,3.98-8.66,2.34-16.96,5.62-24.21,11.23-.82.7-1.64,1.29-1.52,2.57.7,5.85,6.67,11.58,12.52,12.17.7.12,1.87-.12,2.22.35,3.39,4.56,9.12,2.69,13.22,4.8,3.86,1.99,6.55-.35,9.59-1.87,1.4-.7,1.64-2.81,3.51-3.28,1.87-.58,2.22-2.34,2.11-4.09-.12-1.17-1.17-1.75-2.34-1.64-2.34.12-1.64,2.11-1.99,3.39-.12.82-.12,1.99-1.29,1.99-1.29,0-1.4-1.05-1.29-1.87.35-5.26-3.51-4.09-6.43-4.33-4.56-.35-1.29,2.81-1.64,4.21-.47,1.87-1.29,3.39-3.04,3.39-1.99,0-2.22-2.46-1.64-3.39,2.22-3.63-.35-5.38-2.11-7.84-2.46-3.28-1.52-4.91,2.46-6.08,2.11-.58,4.09-1.87,5.97-2.92.82-.47,1.29-1.17,2.69-1.05,5.73.35,12.28,2.81,15.79-5.15.23,5.03,1.52,7.84,6.78,6.67,2.69-.58,2.81,1.4,2.22,3.39-.23.82-2.11,1.99-.47,2.34,4.45,1.05,2.81,3.74,2.11,6.2-.58,2.34-.23,4.09,1.87,5.5,3.51,2.22,1.99,4.68.12,7.14-.58.7-1.75.7-2.22,1.99-3.39,8.77-10.18,13.1-19.18,14.97-2.92.58-5.85,1.64-5.97,5.5,0,.82-.35,1.87-1.75,1.87-1.29-2.34-.58-6.67-5.38-5.73-3.39.7-6.67.7-10.06-.35-1.29-.35-2.92-.58-2.11,1.87.35,1.17.47,2.69-1.29,2.69-1.87,0-1.87-1.64-1.52-3.04.47-1.99-.35-2.69-2.22-3.04-6.32-1.05-11.46-4.56-16.61-8.19-1.29-.94-2.34-2.11-3.98-1.29s-1.4,2.57-1.52,3.98c-.35,4.21,2.22,6.08,5.26,8.66,5.26,4.45,9.48,9.94,17.43,8.77.12,0,.35.35.58.82-.47.35-.94.7-1.4,1.05-.94,1.05-3.74.82-2.81,3.16.82,1.87,2.81,2.11,4.68,1.87,1.99-.23,5.03.12,2.22-3.39-.58-.7-1.05-2.57.58-2.11,1.87.58,5.38-2.34,5.5,1.17.23,4.56,2.11,3.63,4.8,2.57,2.81-1.05,5.62-1.75,7.84-3.86.7-.7,1.75-1.17,2.92.23-5.26,5.15-11,9.01-18.72,9.12-6.55,0-6.67.12-6.78,6.78,0,.82.12,1.52-.7,1.99-.94.47-1.29-.35-1.87-.82-1.29-1.17-2.57-2.46-4.09-3.51-.7-.58-1.75-.58-2.46.23-.94.94-.7,1.99.12,2.81s1.87,1.87,2.92,1.99c2.69.47,3.86,1.64,4.56,4.45.58,2.34,3.39,2.92,4.91.94s3.63-4.33,1.64-7.49c-.94-1.29-1.17-3.28,1.29-3.16,2.11.12,4.21-.23,6.32-.35.94-.12,1.87,0,2.11,1.17s-.82,1.52-1.64,1.87c-1.4.58-2.92.82-4.21,1.52-2.57,1.29-3.16,3.74-2.22,6.08,1.05,2.81,2.34,1.17,3.51-.23.94-1.05,1.64.12,2.22.47,1.05.7,2.34,1.64,3.16.58,1.75-2.22,3.28-1.29,5.03-.12,2.81,1.64,3.28-1.29,4.33-2.57,1.4-1.75-.47-2.11-1.75-2.57-1.64-.58-2.46-1.64-2.22-3.39.23-1.17.94-1.75,2.22-1.87,1.52-.12,3.86,0,3.74,1.52-.23,4.21,5.5,3.28,5.5,6.9,0,.12,1.05.47,1.52.35,1.29-.23,5.03-6.78,4.8-7.95-1.17-5.15.23-6.67,5.62-5.73,2.11.12,2.57-1.05,4.68-2.22h-.01ZM366.81,113.91c3.39-1.4,5.73,0,8.31-.12-5.15-5.62-12.17-6.9-18.37-9.59-7.95-3.39-15.91-6.43-24.8-6.32-2.22,0-5.5,0-6.43-1.29-2.34-3.51-5.5-2.46-8.42-2.46-4.56.12-8.54,2.22-12.75,3.98-.82-1.52,2.11-3.74-.82-4.56-1.75-.47-3.51,0-4.21,1.75-.82,2.22.23,3.74,2.46,4.56,2.11.7,3.39,2.46,4.91,3.86,2.34,2.11,4.68,2.22,7.72,1.99,8.66-.82,17.31-1.52,25.5,2.81,1.87.94,4.21,1.99,6.9,1.17,5.15-1.64,12.63,1.05,16.14,5.38.94,1.17,1.05,2.34.23,3.28-1.4,1.52-1.87,2.81,0,3.98,1.64.94,3.04,3.74,5.26,1.52,1.4-1.4,2.11-.23,3.04.23,5.61,2.92,9.83,7.6,14.51,11.81,1.17,1.05,1.99,2.57,3.74,1.87,2.46-.94-.82-2.81.35-4.21,4.8,3.74,8.19,8.66,12.28,12.98,1.4,1.52,2.57,2.11,4.91,1.87,2.69-.35,5.85-1.99,8.42.7.47.47,1.05.58,1.52,0,.58-.82,0-1.4-.47-1.99-1.87-2.11-4.8-2.34-6.9-3.74-6.55-4.45-12.05-10.06-18.95-14.27-7.84-4.8-14.15-11.81-24.1-15.21l.02.02ZM34.48,278.97c-1.64,5.26.94,7.72,3.86,9.48,2.92,1.87,4.21,4.21,4.68,7.49.7,4.8,2.34,9.12,4.45,13.45,2.34,4.68,5.73,8.19,9.12,12.05-2.34,1.29-3.16-.82-4.56-1.52-1.17-.58-2.11-1.17-3.04.23-.7,1.05-2.46,2.22-1.17,3.39,3.63,3.04,5.62,7.37,8.77,10.65,1.75,1.75,3.28.7,4.68-.35,1.99-1.52,0-2.46-.58-3.63-1.17-2.11-4.56-2.92-3.74-6.78,4.21,3.04,7.14,6.55,10.18,11.11-3.98-.58-5.97,1.52-5.62,4.21.47,2.81,3.51,2.46,6.08,2.34,1.87-.12,2.92-1.52,4.56-1.87,2.81-.58,2.69-1.99,1.87-4.21-1.4-3.74-4.91-6.55-4.45-11,.12-.58-1.4-1.4-2.22-2.11-5.38-5.15-10.65-10.41-14.15-17.2-2.22-4.33-3.63-9.48-6.2-13.22-3.16-4.45-8.31-7.6-12.52-12.52h0ZM336.75,233.11c2.69-3.28,6.08-5.5,5.15-10.65,3.16,3.63,4.09,1.17,5.97-.47,2.92-2.69,5.61-5.26,6.55-9.24.23-.94.35-2.22-.82-2.81-1.17-.7-1.87.35-2.57,1.17-3.63,3.74-6.78,7.95-10.88,11-7.25,5.38-13.69,11.93-21.29,16.96-.82.58-2.92,1.99-1.87,3.63s2.69.7,3.98-.12,2.69-1.52,3.98-2.69c2.69-2.57,6.08-4.56,9.12-6.78-3.28,4.09-7.14,7.49-11,10.76-1.05.94-2.22,1.87-1.29,3.39s2.34,1.17,3.51.35,1.99-1.52,3.28.23c.94,1.29,2.46.35,3.63-.35,1.87-1.17,3.63-2.46,5.61-3.51,2.57-1.4,2.57-4.56,2.92-7.14.47-2.69-1.4-3.51-3.98-3.74h0ZM41.73,271.25c-.94,1.99-.23,3.51-.12,5.15.58,6.55,5.97,10.76,7.72,16.73.7,2.22,1.87,4.45,3.04,6.43,5.85,10.29,13.92,18.48,23.4,25.15,1.75,1.29,4.21,4.09,6.08,2.11,2.34-2.34-.47-4.91-1.99-7.02-.35-.47-.82-.94-1.29-1.17-12.63-7.84-21.99-18.6-28.31-32.17-2.34-5.15-4.33-10.65-8.54-15.21h0ZM428.58,243.06c-.12-.82-.58-1.4-1.29-1.64-.82-.35-1.52-.12-1.87.7-.58,1.17-1.17,2.46-1.75,3.63-1.17,2.11-2.57,5.73-3.74,5.73-3.86,0-4.21,2.81-5.5,4.91-6.32,9.71-12.98,19.18-20.12,28.31-2.34,3.04-5.97,4.45-8.19,7.49-1.05,1.29-1.4,2.69-.12,3.98,1.4,1.4,2.69.35,3.39-.82,3.63-5.97,8.66-10.76,13.34-15.91,7.72-8.66,14.86-17.78,20.94-27.61,1.64-2.81,4.09-5.38,4.91-8.77h0ZM452.79,230.66c.35,3.28.12,5.38-.7,7.72-1.99,5.26-3.98,10.65-7.37,15.21-1.29,1.75-1.17,3.51.7,4.68,1.99,1.4,3.63-.47,3.86-1.75.7-4.09,3.63-7.14,4.56-11.11,2.34-10.29,1.75-20.71,2.34-30.88-5.15,1.52-6.08,5.5-5.97,10.18,0,1.17,0,2.46-.12,3.63,0,.7.35,1.75-.58,1.87-8.07.94-.7,4.21-1.87,6.78,3.16-1.4,3.39-3.86,5.15-6.32h0ZM165.72,399.34c-.82-2.11-1.99-2.57-3.39-2.81-1.05-.12-1.87-.7-1.52-1.75.35-1.4,1.4-1.29,2.46-.7,4.56,2.34,9.83,2.34,14.74,3.98,5.38,1.75,11,2.11,16.61.82-14.74-5.73-29.95-8.77-46.32-9.94,1.87,2.22,3.63,2.69,5.15,3.63,1.05.7,3.04.12,3.16,1.99.7,5.85,4.8,5.03,9.12,4.8v-.02ZM119.98,366.59c-.58-1.29-1.17-2.34-2.22-3.28-5.15-4.33-11.11-6.2-17.66-6.08-2.34,0-5.73-.35-5.73,2.57,0,3.39,3.63,3.86,6.43,4.21.82.12,1.75-.35,2.57-.47,1.05-.12,1.87-.12,1.99,1.52.23,2.69,5.85,6.78,8.42,6.2s5.03-1.87,6.2-4.68h0ZM415.7,311.84c.12-.7,0-1.52-.7-1.99-1.29-.7-1.75.58-2.46,1.29-8.42,7.84-15.56,16.84-25.27,23.16-1.29.82-3.04,2.34-2.22,3.39,1.05,1.4,3.39.7,4.8-.35,2.34-1.75,4.45-3.98,6.9-5.73,5.15-3.74,10.29-7.49,14.74-12.17,1.87-2.22,3.74-4.45,4.21-7.6h0ZM103.01,356.06c-1.4-3.63-3.16-5.61-7.14-5.15-2.81.35-5.97.94-6.9-3.28-.12-.7-1.17-2.22-2.34-.94-2.11,2.22-4.91,3.16-7.37,4.68-.7.47-1.75.82-1.4,1.99.23.82,1.17.82,1.75,1.29,7.49,4.91,15.32.94,23.4,1.4h0ZM45.34,318.28c1.64-2.34,1.17-4.45.23-6.9-1.64-4.09-3.39-8.31-4.09-12.63-.58-3.51-2.22-5.61-5.15-7.14-.47-.23-1.17-.58-1.64-.47-.82.35-1.05,1.52-.7,1.87,2.69,2.69,2.34,5.97,2.11,9.36,0,.94.58,2.69,2.11,3.28,1.17.47.94,1.17,1.05,2.11.58,4.21,2.46,7.84,6.08,10.53h0ZM305.03,263.3c-.23-3.63-3.28-4.45-7.6-1.99-4.21,2.34-7.95,5.97-13.34,5.97-1.29,0-2.69,1.29-3.86,2.11-1.05.82-1.4,1.99-.7,3.16.47.94,1.4,1.87,2.46,1.4,4.8-1.75,10.41-2.92,13.57-6.9,1.99-2.46,3.04-2.81,5.61-1.64,1.87.94,3.98,1.29,3.86-2.11h0ZM362.35,339.34c4.68,0,10.18-5.38,10.18-9.83,0-2.11-.82-2.81-2.81-1.64-3.04,1.87-6.2,3.39-9.24,5.38-1.52,1.05-3.74,2.11-2.81,4.56.94,2.22,3.28,1.29,4.68,1.52h0ZM192.96,206.92c-.23-.23-.47-.58-.7-.58-9.83-.12-19.65-.12-29.48-.94-1.29-.12-2.46.47-2.57,1.99-.12,2.22,1.75,1.64,2.92,1.64,8.54,0,17.08,0,25.62-.12,1.75.12,3.28-.35,4.21-1.99ZM231.8,151.35c-.47-4.91-.94-9.36.7-13.8.35-.82.47-2.34-.94-2.46-1.29-.12-1.52,1.17-1.52,2.34-.12,5.85-1.64,11.58-2.34,17.31-.12,1.05-.82,2.22.47,2.81.94.35,2.22.35,3.04,0,5.15-1.99,5.61-3.39,3.74-9.24-2.11-.23-1.64,2.11-3.16,3.04h.01ZM436.98,285.29c-1.17-.12-1.29-.12-1.4-.12-7.49,3.04-10.06,10.53-14.51,16.38-.7.94.35,1.52.94,2.22,1.17,1.05,1.75.23,2.57-.47,5.5-5.15,7.6-12.17,12.4-18.01ZM367.96,158.6c-1.87-3.04.7-7.84-2.57-11.35-.58-.58-.82-1.75-1.99-1.29-.82.35-.7,1.29-.7,1.99.12,3.74-.23,7.49-.82,11.23-.35,2.22,0,4.8,3.28,4.8s2.46-2.81,2.81-5.38h0ZM424.69,326.93c-.47-1.52-1.29-2.92-2.81-1.64-3.74,3.04-7.49,5.97-10.18,9.94-.7.94-1.05,2.46,0,3.39,1.05,1.05,2.46,0,3.16-.7,3.16-3.16,6.2-6.43,9.24-9.83.23-.35.47-.82.58-1.17h.01ZM31.79,257.91c-2.11,7.14.47,12.75,7.14,17.43,1.17-7.14-3.39-11.81-7.14-17.43ZM130.75,384.48c3.04.7,7.25,2.57,7.25,4.56-.23,5.97,4.33,3.86,7.37,5.5-2.81-3.28-2.57-5.38,3.04-5.97-6.67-2.92-11.93-4.21-17.66-4.09h0ZM54.13,211.71c-.7,4.45,1.52,7.84,2.22,11.46.47,2.69.35,5.73,1.99,8.19.94,1.4,2.34,2.92,3.98,1.99,1.75-1.05.23-2.57-.35-3.86-1.99-4.56-4.8-8.77-5.03-13.92,0-1.29-.58-2.69-2.81-3.86h0ZM178.01,249.61c0,.35,0,.7-.12,1.05,1.87.47,3.63,1.05,5.5,1.4,5.15.82,10.29,1.99,15.56,1.29.7-.12,1.64-.23,1.87-1.05.23-.94-.7-1.4-1.29-1.52-7.14-1.05-14.39-1.4-21.52-1.17h0ZM221.88,160c4.8-5.26,6.2-11.58,6.08-18.37,0-1.29.94-3.51-1.4-3.39-2.11,0-2.46,2.11-2.11,3.74,1.4,5.85-.7,11-2.46,16.26-.12.47-.12,1.17-.12,1.75h0ZM85.6,343.19c0-.23,0-.58-.12-.82-2.57-3.86-4.21-8.19-5.73-12.4-.47-1.17-1.87-1.52-3.16-1.17-1.64.47-1.29,1.64-1.05,2.92,1.17,5.15,5.97,7.95,7.95,12.63.12.23.82.35,1.17.35.7-.35.82-.94.94-1.52h0ZM413.84,275.46c-2.34-.94-3.39.58-4.21,1.52-2.69,2.92-5.03,6.2-7.49,9.36-.7.94-2.46,1.99-.58,3.28,1.29.82,2.57.23,3.39-1.17,2.92-4.21,6.67-7.95,8.89-12.98h0ZM360.15,144.79c-.58-2.69.47-5.5-1.17-7.95-.82-1.17-1.75-2.22-3.28-1.75-1.87.58-1.29,1.99-.82,3.39.7,2.46,1.17,5.03,1.99,7.37.7,1.99-.94,6.2,2.11,5.73,2.57-.47.82-4.45,1.17-6.78h0ZM403.78,331.14c-2.57.58-4.56,2.34-6.43,3.86-1.17.94-2.57,2.57-1.75,4.09.94,1.75,2.81.82,4.33.35,2.69-.7,4.21-2.69,5.5-4.91,1.17-1.75.23-2.92-1.64-3.39h0ZM283.06,146.43v-.94c-.23-1.4.47-3.39-1.64-3.51-1.52,0-1.75,1.87-1.87,3.16-.12,2.34-.82,4.33-1.99,6.32-.82,1.29-.94,2.81-1.05,4.33,0,.94.47,1.87,1.4,1.99.94.12,1.17-.7,1.52-1.4,1.99-3.04,3.74-6.2,3.63-9.94h0ZM84.31,331.61c-.35.12-.82.12-1.05.47-.7.82,0,1.52.35,2.34,2.11,5.03,6.55,8.54,8.66,13.57.47,1.17,1.87,1.64,3.04.82,1.29-.94.58-2.22-.23-3.04-3.28-2.81-5.26-6.43-7.49-10.06-.94-1.4-1.05-3.63-3.28-4.09h0ZM370.79,309.5c1.99-.12,8.66-6.9,8.77-8.54.12-1.29-.12-2.57-1.87-1.75-3.39,1.64-6.32,3.74-8.19,7.02-.94,1.52-.82,3.16,1.29,3.28h0ZM395.94,311.37c-.35-1.05.82-3.51-1.05-3.86-1.99-.35-3.28,1.75-3.98,3.63-.35.94-.82,1.99-.94,3.04-.12,1.17-1.17,2.92.82,3.39,1.52.35,3.28.7,4.33-1.17.82-1.64.94-3.04.82-5.03h0ZM74.25,343.89c-1.17,1.05-4.45-1.29-4.68,1.52-.23,2.57,2.92,4.21,5.03,4.09,1.87-.12,5.5-.23,5.5-3.16,0-3.16-3.16-2.46-5.85-2.46h0ZM315.81,205.97c-6.9,1.99-11.81,6.08-12.4,10.06,7.37-2.46,9.71-4.33,12.4-10.06ZM360.26,181.29c-1.75.7-3.04,2.34-2.81,3.74.35,2.46.58,5.62,3.28,6.67,1.4.58,2.69-1.17,2.69-2.81-.12-2.92-1.29-5.38-3.16-7.6ZM437.7,271.36c2.22-.58,3.16-2.46,4.09-4.21.7-1.29,2.11-2.34.94-3.98-.58-.82-1.64-1.75-2.11-1.05-1.64,2.57-4.8,3.98-5.26,7.25,0,1.05,1.17,1.64,2.34,1.99ZM219.65,170.87c3.39,0,5.62-1.29,7.37-3.16,1.29-1.52,1.52-3.28-.12-4.68-1.87-1.64-3.04-.12-3.86,1.29-1.17,1.99-2.11,4.09-3.39,6.55ZM226.43,402.49c2.34-.23,4.8-1.64,5.15-3.86s-2.46-2.81-4.21-2.92c-2.69-.12-3.63,2.22-3.98,4.45-.47,2.46,1.52,1.99,3.04,2.34h0ZM30.26,247.74c-.47-5.38-2.11-10.53-4.68-15.68-1.99,6.55,1.99,11,4.68,15.68h0ZM427.64,190.77c.12,1.05.12,2.34.47,3.39.35,1.17-.47,3.28,1.52,3.16s3.04-1.75,3.28-3.74c.12-1.4-.82-2.57-1.4-3.74-.58-1.29-.94-2.92-2.57-2.57-1.87.23-1.05,2.11-1.29,3.51h0ZM236.5,286.93c-5.26.12-7.84.94-7.25,2.22,1.64,3.63,4.56,1.29,7.02,1.17,1.75-.12,4.8.12,4.56-2.34-.23-2.22-2.92-.7-4.33-1.05h0ZM270.66,98.71c-1.87,1.64-5.85-.35-6.67,3.63-.35,1.4,1.75,3.16,2.11,2.69,1.99-2.46,6.55.47,7.25-3.74.35-1.75-.82-2.46-2.69-2.57h0ZM284.81,122.46c-.7,5.26.35,13.22,2.22,16.03,1.29-5.73,1.64-10.53-2.22-16.03ZM40.79,330.32c-3.63-5.61-5.38-12.17-9.48-17.43,1.64,6.55,4.56,12.63,9.48,17.43ZM127.47,371.96c-1.4-1.52-2.57-3.74-4.8-3.63-1.87.12-3.39,1.99-3.39,3.63.12,1.87,2.11,2.81,3.98,2.92,1.99.12,3.28-1.17,4.21-2.92ZM239.65,398.63c-1.99.58-4.68.7-5.15,3.39-.35,1.75,1.52,2.11,2.92,1.87,2.34-.35,5.26-.94,5.97-3.04.7-1.75-2.22-1.64-3.74-2.22ZM338.15,250.42c2.11-1.4,4.8-1.99,6.08-4.21.7-1.17.23-2.69-.82-3.74-.58-.58-1.64-.82-1.87,0-.7,2.46-3.04,3.63-4.45,5.38-.35.47-.94.94-.47,1.52.35.35.94.58,1.52,1.05h.01ZM412.67,299.67c.23.94-.58,3.04.94,2.81,2.11-.35,4.09-1.87,3.98-4.56-.12-1.4.12-3.28-2.22-2.92-2.92.23-2.69,2.46-2.69,4.68h-.01ZM444.14,187.72c0,1.05-.12,3.28,1.75,3.39,1.99.12,1.29-2.22,1.52-3.51,0-.23.12-.58.23-.82,1.05-1.87,1.87-4.09-.94-4.56-2.92-.47-1.52,2.81-2.57,4.09-.12.12,0,.47,0,1.4h.01ZM76.71,251.95c-1.17-2.22-2.57-4.8-5.03-6.2-1.4-.82-2.46.47-1.75,1.87.94,1.99,2.34,3.86,3.63,5.61.58.82,1.4.94,2.34.47.47-.23.94-.58.82-1.75h0ZM329.39,179.89c-1.4,2.57-2.69,5.03-4.09,7.49-.47.94-.58,1.75.23,2.34.35.35,1.17.47,1.52.35,2.22-.7,3.86-7.49,2.34-10.18h0ZM134.62,297.81c2.22,1.99,3.39,4.09,5.62,4.91,1.05.35,2.46.35,3.28-.82.58-.7.23-1.52-.47-1.87-2.34-1.4-4.68-2.81-8.42-2.22h0ZM348.11,227.62c.23.82-.47,2.69,1.29,2.34,2.22-.35,3.28-2.46,3.74-4.56.35-1.4-.7-2.57-1.87-2.34-1.99.58-3.28,1.99-3.16,4.56ZM53.08,335.47c-.23.35-.47.58-.7.94,3.98,3.51,7.02,8.19,11.7,10.88.35-.35.58-.7.94-1.05-3.98-3.63-7.95-7.14-11.93-10.76h-.01ZM107.01,152.4c.23-.23.94-.35.94-.7.23-2.92,3.16-4.09,4.33-6.43.7-1.29.94-2.11-.35-2.92-1.4-.82-2.22,0-2.69,1.29-.94,2.34-1.29,4.8-2.81,6.9-.47.58-.47,1.52.58,1.87h0ZM420.51,290.79c.12.47-.35,2.34,1.4,2.11,2.34-.35,2.11-2.92,2.81-4.56.35-.82,0-2.69-1.05-2.46-1.87.35-3.16,2.11-3.16,4.91ZM416.3,283.42c0-1.05.12-2.46-1.17-1.99-2.46.82-3.39,3.28-4.09,5.5-.23.94.58,1.99,1.52,1.64,2.46-.94,3.39-2.92,3.74-5.15h0ZM394.66,150.3c-1.29.47-1.64,1.52-1.52,2.57.35,1.87,1.52,3.39,3.39,3.74,1.29.23,1.87-.82,1.64-1.99-.23-2.11-1.99-3.16-3.51-4.33h0ZM372.9,176.15c.7-2.22-.47-3.74-2.11-4.68-.82-.35-1.64,1.05-1.17,1.75,1.17,1.87-1.4,5.26,1.99,5.97,1.87.47.82-1.99,1.29-3.04h0ZM144.09,164.69c0-1.64-.82-3.39-2.22-3.39-1.99,0-1.64,2.46-1.99,3.86-.35,1.52.47,2.57,2.22,2.46,1.75-.12,1.87-1.52,1.99-2.92h0ZM278.15,396.43c-2.57.7-5.61-.47-8.19,1.87,3.51,1.4,6.43,2.22,8.19-1.87ZM24.77,265.99c-.12,1.99.12,3.98,1.99,4.09,1.64.23,1.52-1.75,1.64-3.04.23-1.87-.58-3.51-2.34-3.63-1.64-.12-1.05,1.64-1.29,2.57h0ZM29.8,271.37c-.12,2.69-.47,4.21-.23,5.73.12,1.05.7,2.57,2.22,2.11,1.29-.47,1.52-1.87,1.05-3.04-.7-1.4-1.64-2.46-3.04-4.8ZM418.52,322.49c0-1.75-.47-3.39-1.99-3.28-2.69.23-1.29,3.16-2.46,4.56-.58.7,0,1.87,1.17,1.52,1.64-.35,3.04-1.29,3.28-2.81h0ZM434.55,301.78c-.23-1.17-.82-2.57-1.75-2.11-2.11.94-1.75,3.39-2.46,5.26-.23.7.47,1.4,1.4,1.05,1.87-.82,2.34-2.57,2.81-4.21h0ZM430.81,279.09c0-1.29.23-3.16-1.4-3.28-1.99-.12-1.4,1.87-1.4,3.04,0,1.29-.47,3.16,1.4,3.28,2.11.12,1.17-1.87,1.4-3.04ZM105.37,182c.82.82-.35,3.16,1.87,3.16,1.4,0,1.64-1.52,1.52-2.69-.12-1.29-.12-2.92-1.75-3.28-1.75-.23-1.29,1.52-1.64,2.81ZM405.54,296.99c1.87-.82,2.69-2.69,3.39-4.45.35-.94-.23-2.11-1.29-1.75-2.11.58-2.11,3.04-3.28,4.56-.47.58.12,1.4,1.17,1.64h0ZM399.69,311.5c-1.29,1.87-2.81,3.63-2.46,6.08.12.82,1.17,1.17,1.75.7,2.11-1.64,1.99-3.98,1.52-6.32-.12,0-.35-.12-.82-.47h.01ZM333.36,142.23c.23,1.52.12,3.16,1.99,3.51,1.52.23,1.75-1.05,1.4-1.99-.47-1.4,0-3.63-1.99-3.98-1.75-.35-1.05,1.52-1.4,2.46ZM449.4,266.7c-3.39.94-5.26,1.99-5.38,4.68,0,.7.7,1.05,1.17.94,2.81-.58,2.46-3.28,4.21-5.61h0Z"/>
      <path class="cls-3" d="M104.43,316.64c-1.64-5.38-6.78-7.14-10.41-10.65-3.86-3.74-7.95-7.14-11.23-11.46,6.78,3.16,12.05,8.31,17.66,12.98,9.71,8.07,18.83,16.73,30.18,22.46,8.89,4.56,18.25,7.95,27.61,11.35,11.58,4.21,23.63,4.91,35.56,7.02,1.75.35,3.51.7,4.56,3.39-3.51-.35-6.67-.47-9.71-1.05-5.85-1.05-11.7-1.87-17.78-1.87-4.91,0-9.12-3.28-13.8-4.91-9.71-3.39-19.65-6.32-28.66-11.58-6.08-3.63-12.75-6.55-17.55-12.17-1.75-1.99-4.09-3.04-6.55-3.74-.12.12.12.23.12.23h0Z"/>
      <path class="cls-3" d="M286.92,336.52c12.4-6.43,26.09-9.71,38.37-16.61,12.52-6.9,25.15-13.34,36.85-21.88,11.46-8.42,20.71-19.42,31.94-28.66-2.34,9.01-25.62,30.77-47.73,42.81-18.95,10.41-37.78,20.59-59.43,24.33h0Z"/>
      <path class="cls-3" d="M284.93,336.17c-2.11,4.91-6.32,7.95-9.48,11.81-.35.47-1.99.94-2.11-.35-.58-4.45-3.28-2.69-5.61-2.11-.7.23-1.4.35-2.22.35-.7,0-1.64-.12-1.87-.94-.23-.94.47-1.4,1.17-1.52,3.74-.94,6.9-4.68,11.46-1.99,1.05.58,2.22-1.05,3.28-1.99,1.52-1.4,3.74-1.87,5.38-3.28v.02Z"/>
      <path class="cls-3" d="M180.11,353.02c-3.74.82-6.32.82-8.77.35-7.95-1.75-15.91-3.74-23.86-5.73-.94-.23-2.81-.23-2.46-1.99.35-1.4,1.75-.94,2.69-.58,9.83,3.51,20.35,4.21,30.41,6.67.35.23.7.58,1.99,1.29h0Z"/>
      <path class="cls-3" d="M46.99,247.97c-9.01-1.64-17.66-22.34-14.97-34.16,1.99,12.63,4.09,25.27,14.97,34.16Z"/>
      <path class="cls-3" d="M224.92,350.8c-3.86-.12-7.72-.7-11.46-1.52-.7-.12-1.52-.23-1.52-1.29,0-1.17.94-1.52,1.87-1.4,6.08.82,12.17.94,18.37.47.58,0,1.17,0,1.4.82.23.7-.35,1.05-.82,1.4-2.46,1.52-5.15,1.64-7.84,1.52h0Z"/>
      <path class="cls-3" d="M284.23,363.9c-2.11,3.63-4.68,6.08-8.19,7.84-2.11,1.05-4.21,2.34-6.2,3.51-.7.47-1.52.47-1.87-.47-.23-.47-.12-1.52.12-1.64,5.03-2.57,8.77-6.9,13.92-9.48.35-.23,1.05,0,2.22.23h0Z"/>
      <path class="cls-3" d="M284.81,377.94c-5.26,2.46-8.31,8.66-14.97,9.01,1.64-3.63,11.35-9.59,14.97-9.01Z"/>
      <path class="cls-3" d="M252.41,373.26c5.03-2.57,9.71-2.69,13.34-5.38.58-.47,1.52-.7,1.75.35.12.58-.23,1.75-.7,1.99-4.09,1.64-7.95,4.8-14.39,3.04h0Z"/>
      <path class="cls-3" d="M259.89,317.34c5.61-1.87,11-4.21,17.08-4.91-1.4,2.57-12.4,6.08-17.08,4.91Z"/>
      <path class="cls-3" d="M53.19,254.41c3.04,3.51,6.67,6.08,8.42,10.53-4.45-.82-7.6-4.8-8.42-10.53Z"/>
      <path class="cls-3" d="M224.68,373.14c5.15,1.17,9.12-3.16,14.04-3.04-3.74,4.21-10.18,5.85-14.04,3.04Z"/>
      <path class="cls-3" d="M163.74,318.16c-.12,1.17-.35,2.34-1.75,1.99-1.05-.23-1.64-1.29-1.64-2.34-.12-1.29.58-1.87,1.87-1.75s1.4,1.05,1.52,2.11h0Z"/>
      <path class="cls-3" d="M253.58,270.31c-4.91,3.39-9.71,4.21-13.69,6.43-.82.47-2.11.12-2.69,1.29-.47,1.05-.94,2.81-2.34,1.99-1.17-.58-2.11-2.11-2.46-3.51-.35-1.17,1.17-2.11,2.22-2.34,5.85-1.17,11.11-4.68,18.95-3.86h.01Z"/>
      <path class="cls-3" d="M174.27,276.98c2.69.94,5.38,1.75,8.07,2.69,1.17.35,2.34.58,3.39.82,1.17.23,2.92-1.29,3.16,1.05.23,1.64-.94,2.92-2.11,3.74-1.4,1.05-2.46,0-3.04-1.4-1.4-2.81-4.56-1.75-6.67-2.92-1.17-.7-2.57-.94-3.74-1.52-.7-.35-1.17-1.05-.94-1.87.35-.94,1.17-.58,1.87-.58h.01Z"/>
      <path class="cls-3" d="M279.66,260.37c-1.17,0-2.46.35-2.57-1.17-.12-1.17.94-1.29,1.87-1.4,3.04-.7,5.38-3.28,8.54-3.63,1.17-.12,2.81-1.75,3.39.12.47,1.64-1.17,3.28-2.46,3.74-2.81,1.17-5.97,1.64-8.77,2.34h0Z"/>
      <path class="cls-3" d="M260.01,257.8c-5.73,3.51-11.81,5.61-18.72,4.8,6.2-1.99,12.4-3.39,18.72-4.8Z"/>
      <path class="cls-3" d="M347.51,157.55c3.74,5.62,3.74,11.11,0,14.04v-14.04Z"/>
      <path class="cls-3" d="M159.88,270.55c-.7,1.52-1.87,2.34-3.39,2.46-1.64.23-2.57-.58-2.57-2.22,0-1.4.35-2.92,2.11-2.81,1.64.12,3.04.82,3.86,2.57h0Z"/>
      <path class="cls-3" d="M299.08,146.32c0-4.91.82-9.94.23-15.21,3.04,2.92,3.04,10.53-.23,15.21Z"/>
      <path class="cls-3" d="M201.87,221.18c-.47,1.29.58,3.86-1.87,3.63-2.11-.23-2.46-2.81-2.57-4.68,0-1.4.23-3.63,1.87-3.63,2.81.12,2.46,2.57,2.57,4.68Z"/>
      <path class="cls-3" d="M283.64,178.13c-.23,4.91-3.63,5.5-6.2,6.78-.58.35-1.52.12-1.87-.7-.47-.94.47-1.29,1.05-1.64,2.11-1.4,4.21-2.69,7.02-4.45h0Z"/>
    </g>
    <g>
      <polygon class="cls-2" points="440.98 543.11 391.85 465.2 336.87 539.13 343.07 447.19 255.1 474.68 314.06 403.9 226.79 374.54 316.04 351.85 262.7 276.75 348.21 311.02 349.27 218.84 398.4 296.75 453.38 222.82 447.18 314.77 535.15 287.28 476.19 358.05 563.46 387.53 474.2 410.1 527.54 485.21 442.03 451.05 440.98 543.11"/>
      <polygon class="cls-3" points="440.98 543.11 391.85 465.2 336.87 539.13 343.07 447.19 255.1 474.68 314.06 403.9 226.79 374.54 316.04 351.85 262.7 276.75 348.21 311.02 349.27 218.84 398.4 296.75 453.38 222.82 447.18 314.77 535.15 287.28 476.19 358.05 563.46 387.53 474.2 410.1 527.54 485.21 442.03 451.05 440.98 543.11"/>
    </g>
  </g>
  <g>
    <path class="cls-4" d="M323.36,334.77c1.37,0,2.44.25,3.2.75.76.5,1.33,1.17,1.71,2.01.38.84.61,1.8.7,2.9.08,1.09.13,2.23.13,3.42s-.04,2.32-.13,3.42c-.08,1.09-.32,2.06-.7,2.9-.38.84-.95,1.51-1.71,2.01-.76.5-1.83.75-3.2.75h-6.86v-18.14h6.86ZM322.16,349.5c.46,0,.82-.06,1.09-.19.27-.13.48-.39.62-.8.14-.41.24-.98.28-1.73.04-.75.06-1.73.06-2.95s-.02-2.2-.06-2.95-.14-1.32-.28-1.73c-.14-.41-.35-.67-.62-.8-.27-.13-.64-.19-1.09-.19h-.94v11.33h.94Z"/>
    <path class="cls-4" d="M341.83,334.77v3.86h-6.02v3.1h5.64v3.71h-5.64v3.61h6.25v3.86h-10.97v-18.14h10.75Z"/>
    <path class="cls-4" d="M349.07,334.77l3.05,11.18h.05v-11.18h4.42v18.14h-5.18l-3.15-11.2h-.05v11.2h-4.42v-18.14h5.28Z"/>
    <path class="cls-4" d="M362.38,334.77l1.91,13.67h.05l1.91-13.67h5.03l-3.91,18.14h-6.1l-3.84-18.14h4.95Z"/>
    <path class="cls-4" d="M382.78,334.77v3.86h-6.02v3.1h5.64v3.71h-5.64v3.61h6.25v3.86h-10.97v-18.14h10.75Z"/>
    <path class="cls-4" d="M392.13,334.77c.9,0,1.66.12,2.3.36.64.24,1.15.57,1.55,1,.4.43.69.94.86,1.54s.27,1.24.27,1.93c0,1.22-.25,2.2-.74,2.95-.49.75-1.28,1.2-2.36,1.37v.05c1.13.1,1.91.5,2.34,1.19.42.7.63,1.65.63,2.87v2.29c0,.25,0,.5.03.72.02.23.04.44.08.62.03.19.08.33.13.43.07.1.14.2.2.29s.18.18.33.27v.25h-5.03c-.12-.24-.21-.52-.27-.84-.06-.32-.1-.64-.13-.97-.03-.32-.04-.63-.05-.93,0-.3-.01-.54-.01-.72v-1.22c0-.51-.03-.93-.08-1.27-.05-.34-.14-.6-.27-.8-.13-.19-.29-.33-.48-.41-.2-.08-.44-.11-.72-.11h-1.25v7.27h-4.72v-18.14h7.39ZM390.4,342.44c.68,0,1.18-.2,1.5-.6.32-.4.48-.92.48-1.56,0-.76-.16-1.3-.47-1.63-.31-.32-.83-.48-1.54-.48h-.92v4.27h.94Z"/>
    <path class="cls-4" d="M403.64,334.77v4.57c0,1.64-.33,2.87-.99,3.67-.66.8-1.75,1.22-3.28,1.26v-2.18c.61-.07,1.03-.27,1.27-.61.24-.34.36-.85.36-1.52v-.3h-1.63v-4.88h4.27Z"/>
    <path class="cls-4" d="M412.99,339.57c0-.54-.11-1-.33-1.38-.22-.38-.56-.57-1.02-.57-.51,0-.88.17-1.12.5s-.36.7-.36,1.11c0,.59.19,1.06.57,1.41.38.35.86.65,1.43.9.58.25,1.19.51,1.85.78.66.26,1.28.61,1.86,1.03.58.42,1.05.98,1.43,1.66.38.69.57,1.58.57,2.68,0,1.93-.55,3.33-1.65,4.2-1.1.87-2.69,1.31-4.78,1.31-.98,0-1.85-.08-2.6-.24s-1.39-.44-1.91-.84c-.52-.4-.91-.92-1.18-1.56-.27-.64-.41-1.44-.41-2.39v-.63h4.57v.43c0,.78.14,1.33.43,1.64s.66.47,1.12.47c.49,0,.87-.17,1.13-.51.26-.34.39-.75.39-1.25,0-.59-.18-1.06-.55-1.41-.37-.35-.82-.64-1.37-.89-.55-.25-1.15-.5-1.79-.75-.64-.25-1.24-.58-1.79-.99-.55-.41-1.01-.94-1.37-1.6s-.55-1.52-.55-2.59c0-1.85.49-3.25,1.47-4.22.98-.97,2.47-1.45,4.47-1.45s3.56.44,4.48,1.33c.92.89,1.38,2.31,1.38,4.25h-4.42v-.43Z"/>
    <path class="cls-4" d="M433.46,334.77c1.69,0,2.94.41,3.75,1.23s1.21,1.92,1.21,3.29c0,.47-.06.94-.17,1.38-.11.45-.28.86-.51,1.22-.23.37-.52.67-.88.93s-.79.43-1.3.53v.05c.59.05,1.1.21,1.52.47.42.26.77.59,1.04.98.27.39.47.82.6,1.28s.19.94.19,1.41c0,.78-.1,1.5-.3,2.16s-.52,1.23-.95,1.7c-.43.47-1,.84-1.69,1.11s-1.53.39-2.51.39h-7.14v-18.14h7.14ZM432.19,341.88c.49,0,.86-.18,1.12-.55s.38-.79.38-1.28-.13-.95-.38-1.32c-.25-.37-.63-.56-1.12-.56h-1.14v3.71h1.14ZM432.37,349.5c.44,0,.83-.18,1.17-.55s.51-.93.51-1.69c0-.71-.17-1.25-.51-1.63-.34-.37-.73-.56-1.17-.56h-1.32v4.42h1.32Z"/>
    <path class="cls-4" d="M451.5,334.77v3.86h-6.02v3.1h5.64v3.71h-5.64v3.61h6.25v3.86h-10.97v-18.14h10.75Z"/>
    <path class="cls-4" d="M460.52,339.57c0-.54-.11-1-.33-1.38-.22-.38-.56-.57-1.02-.57-.51,0-.88.17-1.12.5s-.36.7-.36,1.11c0,.59.19,1.06.57,1.41.38.35.86.65,1.43.9.58.25,1.19.51,1.85.78.66.26,1.28.61,1.86,1.03.58.42,1.05.98,1.43,1.66.38.69.57,1.58.57,2.68,0,1.93-.55,3.33-1.65,4.2-1.1.87-2.69,1.31-4.78,1.31-.98,0-1.85-.08-2.6-.24s-1.39-.44-1.91-.84c-.52-.4-.91-.92-1.18-1.56-.27-.64-.41-1.44-.41-2.39v-.63h4.57v.43c0,.78.14,1.33.43,1.64s.66.47,1.12.47c.49,0,.87-.17,1.13-.51.26-.34.39-.75.39-1.25,0-.59-.18-1.06-.55-1.41-.37-.35-.82-.64-1.37-.89-.55-.25-1.15-.5-1.79-.75-.64-.25-1.24-.58-1.79-.99-.55-.41-1.01-.94-1.37-1.6s-.55-1.52-.55-2.59c0-1.85.49-3.25,1.47-4.22.98-.97,2.47-1.45,4.47-1.45s3.56.44,4.48,1.33c.92.89,1.38,2.31,1.38,4.25h-4.42v-.43Z"/>
    <path class="cls-4" d="M465.98,338.78v-4.01h11.79v4.01h-3.56v14.12h-4.73v-14.12h-3.51Z"/>
    <path class="cls-4" d="M328.59,359.28c-.29-.52-.75-.79-1.39-.79-.5,0-.9.13-1.2.39-.3.26-.52.73-.68,1.39-.15.67-.26,1.56-.3,2.69-.05,1.13-.07,2.55-.07,4.26s.02,3.13.07,4.26c.05,1.13.15,2.03.3,2.69.16.67.38,1.13.68,1.39.3.26.7.39,1.2.39.4,0,.74-.1,1-.3.26-.2.46-.54.61-1.02s.24-1.11.3-1.91.09-1.8.09-3.02h6.42v1.89c0,1.78-.24,3.25-.71,4.39-.48,1.14-1.11,2.04-1.89,2.69-.78.65-1.68,1.09-2.69,1.32-1.01.23-2.05.34-3.12.34-1.86,0-3.38-.23-4.57-.68-1.19-.45-2.12-1.21-2.78-2.27-.67-1.06-1.12-2.43-1.37-4.1-.25-1.68-.38-3.71-.38-6.08s.15-4.48.45-6.17c.3-1.69.8-3.06,1.52-4.1s1.65-1.8,2.82-2.27c1.17-.46,2.6-.7,4.32-.7,1.5,0,2.77.19,3.82.57s1.9.92,2.55,1.62c.65.7,1.13,1.55,1.43,2.53.3.99.45,2.1.45,3.34v1.61h-6.42v-1.43c0-1.45-.14-2.44-.43-2.96Z"/>
    <path class="cls-4" d="M344.4,354.5v25.48h-6.64v-25.48h6.64Z"/>
    <path class="cls-4" d="M354.71,354.5l4.28,15.7h.07v-15.7h6.21v25.48h-7.28l-4.42-15.74h-.07v15.74h-6.21v-25.48h7.42Z"/>
    <path class="cls-4" d="M375.84,354.5l4.28,15.7h.07v-15.7h6.21v25.48h-7.28l-4.42-15.74h-.07v15.74h-6.21v-25.48h7.42Z"/>
    <path class="cls-4" d="M402.06,354.5l6.21,25.48h-7.06l-.68-4.46h-5.28l-.68,4.46h-6.96l6.1-25.48h8.35ZM397.85,359.71l-1.82,10.81h3.71l-1.82-10.81h-.07Z"/>
    <path class="cls-4" d="M418.62,354.5l2.68,15.09h.07l2.68-15.09h9.49v25.48h-6.21v-18.98h-.07l-3.53,18.98h-4.78l-3.53-18.98h-.07v18.98h-6.21v-25.48h9.49Z"/>
    <path class="cls-4" d="M436.14,361.16c.31-1.68.82-3.04,1.54-4.1.71-1.06,1.65-1.83,2.82-2.32,1.17-.49,2.59-.73,4.28-.73s3.12.24,4.28.73c1.17.49,2.11,1.26,2.82,2.32.71,1.06,1.22,2.43,1.53,4.1.31,1.68.46,3.71.46,6.08s-.16,4.41-.46,6.08c-.31,1.68-.82,3.04-1.53,4.1s-1.65,1.81-2.82,2.27c-1.17.45-2.59.68-4.28.68s-3.12-.23-4.28-.68c-1.17-.45-2.11-1.21-2.82-2.27-.71-1.06-1.23-2.43-1.54-4.1-.31-1.68-.46-3.71-.46-6.08s.16-4.41.46-6.08ZM442.6,371.5c.05,1.13.15,2.03.3,2.69.16.67.38,1.13.68,1.39.3.26.7.39,1.2.39s.9-.13,1.2-.39c.3-.26.52-.73.68-1.39.15-.67.25-1.56.3-2.69s.07-2.55.07-4.26-.02-3.13-.07-4.26c-.05-1.13-.15-2.03-.3-2.69-.16-.67-.38-1.13-.68-1.39-.3-.26-.7-.39-1.2-.39s-.9.13-1.2.39c-.3.26-.52.73-.68,1.39-.15.67-.26,1.56-.3,2.69-.05,1.13-.07,2.55-.07,4.26s.02,3.13.07,4.26Z"/>
    <path class="cls-4" d="M463.68,354.5l4.28,15.7h.07v-15.7h6.21v25.48h-7.28l-4.42-15.74h-.07v15.74h-6.21v-25.48h7.42Z"/>
    <path class="cls-4" d="M337.4,382.19c2.17,0,4.03.29,5.57.86,1.54.58,2.79,1.38,3.75,2.43.96,1.05,1.66,2.29,2.09,3.72s.65,2.99.65,4.68c0,2.95-.59,5.33-1.78,7.14-1.19,1.81-3.1,2.91-5.72,3.32v.12c2.75.25,4.63,1.21,5.66,2.89,1.02,1.68,1.54,4,1.54,6.95v5.54c0,.62.02,1.2.06,1.75s.1,1.06.18,1.51c.08.45.18.8.31,1.05.16.25.33.48.49.71s.43.44.8.65v.62h-12.18c-.29-.57-.5-1.25-.65-2.03-.14-.78-.25-1.56-.31-2.34-.06-.78-.1-1.53-.12-2.25-.02-.72-.03-1.3-.03-1.75v-2.95c0-1.23-.06-2.26-.18-3.08s-.34-1.47-.65-1.94c-.31-.47-.7-.8-1.17-.98-.47-.18-1.06-.28-1.75-.28h-3.01v17.59h-11.44v-43.93h17.9ZM333.21,400.77c1.64,0,2.85-.48,3.63-1.45.78-.96,1.17-2.22,1.17-3.78,0-1.84-.38-3.16-1.14-3.94-.76-.78-2-1.17-3.72-1.17h-2.21v10.33h2.28Z"/>
    <path class="cls-4" d="M354.32,393.67c.53-2.89,1.42-5.25,2.65-7.08,1.23-1.82,2.85-3.16,4.86-4,2.01-.84,4.47-1.26,7.38-1.26s5.37.42,7.38,1.26c2.01.84,3.63,2.17,4.86,4,1.23,1.83,2.11,4.18,2.65,7.08.53,2.89.8,6.39.8,10.49s-.27,7.6-.8,10.49c-.53,2.89-1.42,5.25-2.65,7.08s-2.85,3.13-4.86,3.91c-2.01.78-4.47,1.17-7.38,1.17s-5.37-.39-7.38-1.17c-2.01-.78-3.63-2.08-4.86-3.91s-2.11-4.18-2.65-7.08c-.53-2.89-.8-6.39-.8-10.49s.27-7.6.8-10.49ZM365.45,411.51c.08,1.95.26,3.5.52,4.64.27,1.15.66,1.95,1.17,2.4.51.45,1.2.68,2.06.68s1.55-.22,2.06-.68c.51-.45.9-1.25,1.17-2.4.27-1.15.44-2.7.52-4.64.08-1.95.12-4.4.12-7.35s-.04-5.4-.12-7.35c-.08-1.95-.26-3.5-.52-4.64-.27-1.15-.66-1.95-1.17-2.4-.51-.45-1.2-.68-2.06-.68s-1.55.23-2.06.68c-.51.45-.9,1.25-1.17,2.4-.27,1.15-.44,2.7-.52,4.64-.08,1.95-.12,4.4-.12,7.35s.04,5.4.12,7.35Z"/>
    <path class="cls-4" d="M400.46,382.19v34.57h14.09v9.35h-25.53v-43.93h11.44Z"/>
    <path class="cls-4" d="M428.94,382.19v34.57h14.09v9.35h-25.53v-43.93h11.44Z"/>
    <path class="cls-4" d="M463.08,393.82c0-1.31-.27-2.43-.8-3.35-.53-.92-1.35-1.38-2.46-1.38-1.23,0-2.13.4-2.71,1.2s-.86,1.69-.86,2.68c0,1.44.46,2.57,1.38,3.41.92.84,2.08,1.57,3.48,2.18,1.39.62,2.89,1.24,4.49,1.88s3.1,1.47,4.49,2.49c1.39,1.03,2.55,2.37,3.48,4.03s1.38,3.83,1.38,6.49c0,4.67-1.33,8.07-4,10.18-2.67,2.11-6.52,3.17-11.57,3.17-2.38,0-4.48-.2-6.31-.58-1.83-.39-3.36-1.07-4.61-2.03s-2.21-2.22-2.86-3.78c-.66-1.56-.98-3.49-.98-5.78v-1.54h11.07v1.05c0,1.89.35,3.21,1.05,3.97s1.6,1.14,2.71,1.14c1.19,0,2.1-.41,2.74-1.23.63-.82.95-1.82.95-3.01,0-1.44-.44-2.57-1.32-3.42-.88-.84-1.99-1.56-3.32-2.15-1.33-.59-2.78-1.2-4.34-1.81s-3-1.42-4.34-2.4c-1.33-.98-2.44-2.28-3.32-3.88s-1.32-3.69-1.32-6.28c0-4.47,1.19-7.87,3.57-10.21,2.38-2.34,5.99-3.51,10.83-3.51s8.62,1.08,10.86,3.23c2.24,2.15,3.35,5.59,3.35,10.3h-10.71v-1.04Z"/>
  </g>
</svg>