<?xml version="1.0" encoding="UTF-8"?>
<svg id="Layer_1" data-name="Layer 1" xmlns="http://www.w3.org/2000/svg" viewBox="0 0 1296 1728">
  <defs>
    <style>
      .cls-1 {
        fill: #d90000;
      }

      .cls-2 {
        fill: #fff;
      }
    </style>
  </defs>
  <path class="cls-2" d="M567.32,1629.14l32.17-237.61-7.87-526.39-12.41-472.85-14.3-288.96,3.12-64.28s40.95-60.89,81.59,33.17c40.65,94.06,55.47,434.03,55.47,434.03,0,0-8.06,319.42-28.2,381.98l-7.51,189.03,9.27,351.36,16.39,124.54-4.76,88.86-46.81,42.05-47.23.48-28.92-55.44Z"/>
  <path class="cls-1" d="M573.9,35.05c-5.45,11-3.18,22.78-3.13,34.21.25,59.69,6.54,119.08,9.23,178.66,3.69,81.61,2.14,163.3,4.65,244.92,1.83,59.25,4,118.47,8.05,177.66,4.57,66.83,3.02,133.87,1.49,200.85-.51,22.39-.03,22.49,22.12,22.79,16.84.23,33.69-.02,50.52.37,6.71.16,9.94-2.62,11.54-8.92,3.76-14.87,6.5-29.79,6.21-45.26-.4-21.59,5.13-42.63,6.4-64.13,1.4-23.62,5.48-47.09,6.66-70.71,2.99-59.56,5-119.17,7.39-178.75.22-5.37.41-10.23-4-14.99-2.88-3.11-2.31-8.9-2.37-13.72-.54-46.79.66-93.71-4-140.3-4.41-44.13-8.69-88.28-14.71-132.28-4.05-29.59-9.07-58.91-15.19-88.05-6.77-32.24-18.78-62.85-32.85-92.54-3.24-6.84-10.08-11.9-14.38-20.51,13.29,2.36,17.91,13.47,22.56,21.29,12.91,21.71,20.45,46.17,27.19,70.37,6.78,24.31,11.35,49.4,14.91,74.43,14.77,103.77,24.96,207.88,25.35,312.91.24,63.37-.05,126.6-6.15,189.72-1.93,20-.13,40.16-2.24,60.22-1.22,11.59-4.39,23-4.74,34.49-.98,32.54-9.35,64.28-9.67,96.83,0,.73.08,1.54-.2,2.18-14.22,32.92-7.62,67.94-9.36,101.92-5.91,115.27-2.63,230.51,3.37,345.77,3.38,65.02,10.22,129.69,15.71,194.49,2.15,25.39,6.5,50.62,8.41,76.09,1.8,23.87-.78,46.85-16.91,65.63-24.09,28.05-65.96,34.01-96.33,10.66-26.94-20.71-33.22-49.21-31.51-81.53,2.18-41.26,8.52-82.04,12.72-123.05,5.62-54.84,9.65-109.78,14.27-164.69,8.4-99.85,6.6-199.76,5.83-299.61-.71-92.94-4.64-185.87-9.13-278.77-4.38-90.66-3.75-181.57-5.31-272.37-1.05-61.15-1.2-122.33-3.43-183.43-1.99-54.46-6.43-108.83-9.45-163.26-.93-16.8-1.05-33.67-.99-50.51.04-10.81,4.75-20.26,11.43-29.08ZM616.21,909.29c9.55,14.55,8.89,25.25,9.89,50.65,1.24,31.43-1.13,62.98-.5,94.39,2.54,127.76-2.64,255.37-5.74,383.02-.39,16.07-2.05,32.1-3.1,48.15-2.89,44.46-6.04,88.91-8.51,133.4-.94,16.87,2.16,32.13,21.65,38.27,8.39,2.64,16.66,5.05,24.05-.51,7.06-5.31,5.48-13.95,4.63-21.42-2.37-20.72-6.16-41.3-7.9-62.05-4.38-52.07-9-104.16-11.58-156.33-4.24-85.57-2.41-171.27-3.93-256.91-1.2-67.36-.32-134.67,2.41-201.97.37-9.19,1.92-17.12,13.52-17.22,3.84-.03,6.14-2.34,4.99-5.38-3.57-9.44,3.09-17.56,2.96-26.53-14.38.15-28.41.29-42.83.44ZM662.27,1090.47c2-47.7,4.01-95.39,6.01-143.09-6.57,47.52-9.62,95.18-6.01,143.09ZM609.28,946.78c-.6,34.78-2.32,69.62,1.29,104.39,2.71-34.81.99-69.58-1.29-104.39ZM619.31,1674.7c-20.21-4.53-30.2-19.74-39.12-38.17-2.82,17.12,24.42,41.22,39.12,38.17ZM668.05,1356.03c-.73.07-1.46.14-2.18.21,1.51,18.54,3.01,37.07,4.52,55.61.89-.08,1.79-.17,2.68-.25-1.67-18.52-3.34-37.05-5.02-55.57ZM663.86,1304.2c.05,13.17-1.22,26.42,2.09,39.37,2.94-13.37-.56-26.3-2.09-39.37ZM595.43,1257.39c1.53-10.6,3.46-21.3,1.61-32.19.23,10.74-3.65,21.21-1.61,32.19Z"/>
</svg>