<?xml version="1.0" encoding="utf-8"?>
<!-- Generator: Adobe Illustrator 27.6.1, SVG Export Plug-In . SVG Version: 6.00 Build 0)  -->
<svg version="1.1" id="Layer_1" xmlns="http://www.w3.org/2000/svg" xmlns:xlink="http://www.w3.org/1999/xlink" x="0px" y="0px"
	 viewBox="0 0 612 412.7" style="enable-background:new 0 0 612 412.7;" xml:space="preserve">
<style type="text/css">
	.st0{display:none;fill:#BE1E2D;}
	.st1{fill:#D90000;}
	.st2{fill:#FFFFFF;}
</style>
<polygon class="st0" points="507.7,287.6 441.7,202.3 363.6,276.6 377.3,169.7 269.5,167 354.8,101.1 280.5,23 387.4,36.6 
	390.1,-71.2 456,14.1 534.1,-60.2 520.5,46.7 628.2,49.4 543,115.4 617.3,193.5 510.4,179.8 "/>
<g>
	<g>
		<g>
			<defs>
				<rect id="SVGID_1_" x="-52.6" y="-40.7" width="616" height="461.3"/>
			</defs>
			<clipPath id="SVGID_00000119108779145300909420000015915219115789088945_">
				<use xlink:href="#SVGID_1_"  style="overflow:visible;"/>
			</clipPath>
		</g>
		<polygon class="st1" points="566.3,306.1 479,266.9 527.2,349.6 456.2,285.3 476.5,378.8 428.9,295.8 419.3,391 399.7,297.3 
			361.1,384.9 371.5,289.7 307.7,361.1 347,273.8 264.2,322 328.6,251.1 235,271.4 318.1,223.8 222.8,214.1 316.5,194.6 228.9,156 
			324.1,166.3 252.7,102.5 340,141.8 291.8,59.1 362.7,123.4 342.5,29.8 390,112.9 399.7,17.7 419.2,111.4 457.8,23.8 447.5,118.9 
			511.3,47.6 472,134.9 554.8,86.7 490.4,157.6 584,137.3 500.9,184.9 596.2,194.5 502.4,214.1 590.1,252.7 494.9,242.3 		"/>
		<path class="st2" d="M239.3,59l-14.9-2.6l-13.6-3.2l-12.3,8.4l-9.1-2.6l-17.5,13.6l-3.2,19.4l-16.2,36.3l28.5,15.5l-16.2,22
			l-11.7-6.5l-7.1-11.7l-7.8,1.9l-3.9,8.4l-20.1-4.5l-7.1,5.2l9.1,10.4l-3.2,4.2l-14.3-1.2l-6.1,5.2l6.4,11.2l-4.9,10l3,10.9
			l-5.8,48.2l-7.3-8.8l-13.3-15.2l-26.1-14l-14.3-4.9l-5.2,3.3l-0.9,8.5l1.5,34.6l3.6,5.8l35.2-7.6l7.9,1.5l5.2,6.7l-13.7,4.2
			l-30.9,20l-7.9,4.2l-3.6,31.3l27.6-21.2l-12.4,33.4l14.9,9.1l21.2,0.3l10.9-1.2c13.9-19.2,27.7-38.4,41.6-57.6l2.4-7.6l14.9-0.6
			l12.1-12.7l20.3,0.6l13-3.3l27.3,9.4l10-0.3L245,265l25.5-19.7l24-22.8l27.6-6.4l-5-20.8l-27,11.1l-24.2,12.9L229,241.9l-4.6-5.3
			l15.6-15.2l-2.3-15.6l25.6-7l53.4-19.1l-5.9-24.5l-13.3,5.6l-34,9.8l-9.6,0.8l-13.8-7.8h-5.9l6.6-12.5l8.1-14.7l-3.2-14.2l3.4-7.1
			l3.6-12.7l-3.9-19.2L239.3,59z"/>
		<polygon class="st2" points="390.2,100.2 391.8,87.9 402.5,84.4 412.9,86 417,89.7 423,91.2 425.4,95.7 417.9,102.4 404.7,103.1 
					"/>
		<polygon class="st2" points="310.6,118.2 341.1,303.9 513.5,271.1 481.5,83.1 		"/>
		<g>
			<path class="st1" d="M343.5,157.1l-1.4,2.4c2.1-0.2,3.9-0.3,5.6-0.3c1.7,0,3.2,0.1,4.6,0.2c1.4,0.1,2.7,0.3,3.8,0.5
				c3.9,0.8,6.1,2.6,6.6,5.3c0.3,1.6-0.1,3.4-1.3,5.2c-1.2,1.9-2.9,3.6-5.1,5.3c-2.2,1.7-4.5,3.1-6.9,4.3c-2.4,1.2-4.6,2-6.7,2.4
				c-3.5,0.7-6.3,0.5-8.5-0.4c-2.2-0.9-3.5-2.5-3.9-4.7c-0.3-1.5,0-3.5,0.7-5.8s2.1-5.3,4-8.9c-1.9,0.3-3.3,0.2-4.1-0.1
				c-0.9-0.3-1.4-0.9-1.5-1.7c-0.1-0.5,0-0.9,0.2-1.3c0.2-0.3,0.6-0.6,1.1-0.8c0.5-0.2,1.4-0.6,2.8-1c1.4-0.5,3.2-1,5.3-1.7
				c1.9-3.5,3.7-6.2,5.4-8.1c1.7-1.9,3.6-3.2,5.8-3.8c0.2-0.1,0.4-0.1,0.6-0.1c0.2,0,0.3,0,0.4,0.1c0,0.1-0.2,0.5-0.6,1.2
				c-0.4,0.7-1.1,1.8-2,3.3c-0.9,1.5-2,3.3-3.2,5.4c4.2-1.4,7.5-2.7,10.1-3.9c2.6-1.3,4.5-2.5,5.7-3.8c1.2-1.3,1.7-2.6,1.4-3.8
				c-0.3-1.5-1.2-2.5-2.8-2.9c-1.6-0.4-3.9-0.3-7,0.3c-1.7,0.3-3.6,0.9-5.7,1.6c-2.1,0.8-4,1.5-5.7,2.3c-1.7,0.8-3.2,1.5-4.4,2.3
				c-1.3,0.8-1.9,1.2-1.9,1.5c0,0.1,0.1,0.1,0.2,0.2c1.2,0.2,1.8,0.4,1.9,0.7c0.1,0.4-1.5,1.4-4.7,3.1c-3.2,1.7-5.4,2.6-6.6,2.9
				c-0.8,0.2-1.3-0.2-1.5-1c-0.2-1,0.4-3,1.7-5.9c1.3-3,2.7-4.9,4.1-5.9c0.5-0.4,1.6-1,3.4-1.9c1.8-0.9,3.8-1.8,6-2.8
				c2.2-0.9,4.4-1.8,6.7-2.6c2.3-0.8,4.4-1.4,6.2-1.7c4.3-0.8,7.7-0.7,10.1,0.5c2.5,1.1,3.9,2.9,4.3,5.2c0.3,1.6,0.1,3.2-0.6,4.8
				c-0.7,1.6-2,3.3-3.8,5c-1.8,1.7-4.4,3.3-7.5,5C351.8,154.2,347.9,155.7,343.5,157.1z M340.7,162.2c-0.9,1.6-1.7,3.1-2.4,4.3
				c-0.7,1.3-1.2,2.3-1.5,3c-0.3,0.7-0.3,1.5-0.2,2.1c0.2,1.1,1,2,2.2,2.6c1.3,0.6,3,0.8,5.1,0.4c2-0.4,4-1.1,6.1-2.2
				c2.1-1.1,3.8-2.4,5.1-3.8c1.3-1.4,1.8-2.7,1.6-3.8c-0.2-1-0.9-1.7-2.1-2.1c-1.2-0.4-3-0.7-5.4-0.7
				C346.8,161.9,344,162,340.7,162.2z"/>
			<path class="st1" d="M378.7,160.8c-2.5,5-4.4,8.6-5.8,10.7c-1.4,2.2-2.6,3.4-3.7,3.6c-0.9,0.2-1.7,0-2.6-0.6
				c-0.9-0.6-1.6-1.4-2.2-2.6c-0.6-1.1-1.1-2.4-1.3-3.8c-0.2-0.9-0.2-1.7-0.2-2.5c0-0.8,0.2-1.6,0.5-2.6c0.3-1,0.8-2,1.4-3.2
				c0.6-1.2,1.3-2.5,2.2-4c0.5-0.9,1-1.7,1.3-2.3c0.4-0.6,0.7-1.1,1.2-1.4c0.4-0.3,1.1-0.5,2.1-0.7c0.7-0.1,1.4-0.2,2.1-0.1
				c0.7,0.1,1.1,0.2,1.1,0.4c0.1,0.4-0.1,1.2-0.6,2.4c-0.5,1.2-1.3,2.7-2.5,4.5s-2.6,3.7-4.3,5.5c-0.2,1.4-0.2,2.5-0.1,3.2
				c0.2,1,0.7,1.4,1.4,1.3c0.3-0.1,0.7-0.4,1.2-1c0.5-0.6,1.5-1.7,2.7-3.3c1.3-1.6,2.4-3.1,3.4-4.3c0.7-0.9,1.6-2.3,2.4-4
				c0.9-1.8,1.6-3.1,2.2-4c1.3-2.1,2.3-3.5,2.8-4.1c0.5-0.7,1.1-1,1.6-1.1c0.5-0.1,0.9,0,1.2,0.3c0.3,0.3,0.5,1,0.7,2
				c0.1,0.5,0.1,0.9,0.1,1.2c0,0.3-0.2,0.7-0.3,1.3c-0.2,0.5-0.6,1.5-1.2,2.9c-0.6,1.4-1.4,3.1-2.2,5c-0.5,1-0.8,2.1-1.1,3.3
				c-0.3,1.2-0.4,2-0.3,2.6c0.2,1.2,0.8,1.7,1.7,1.5c0.8-0.1,1.6-0.6,2.5-1.5c0.9-0.8,2.3-2.3,4.1-4.3l0.4,2.3
				c-2.2,3-3.8,5.1-4.9,6.5c-1.1,1.4-2,2.4-2.8,3.2c-0.8,0.7-1.7,1.2-2.5,1.4c-1.9,0.4-3.1-0.6-3.5-2.9c-0.2-0.9-0.1-2.1,0.2-3.7
				C377.4,166.1,378,163.8,378.7,160.8z"/>
			<path class="st1" d="M395.9,141.6l1.5-0.3c0.8-2.4,1.6-4.1,2.4-5.2c0.8-1.1,1.8-1.7,3.1-2c1.3-0.2,1.9-0.1,2,0.5
				c0.1,0.3-0.3,1.1-1,2.5c-0.8,1.4-1.3,2.5-1.6,3.5c0.8-0.1,1.5-0.1,2.1-0.2c0.6,0,1.1-0.1,1.4-0.1c-0.8,2.7-2,5.4-3.5,8.3
				c-0.6,0.1-1.2,0.1-1.6,0.2c-0.4,0-0.9,0.1-1.3,0.1c-0.5,0-1,0.1-1.6,0.2c-0.9,2.2-1.5,4.2-2.1,5.9c-0.5,1.7-0.9,3.3-1.1,4.6
				c-0.2,1.4-0.2,2.7,0,3.8c0.3,1.6,1.1,2.2,2.3,2c0.9-0.2,1.9-0.8,3.1-2c1.2-1.2,2.8-3,4.8-5.3l0.4,2.3c-4.9,7.8-8.8,12-11.7,12.6
				c-1,0.2-1.9,0-2.7-0.7c-0.8-0.7-1.3-1.6-1.5-2.9c-0.2-0.8-0.2-1.9,0-3.1c0.1-1.2,0.4-3.1,0.9-5.6c-0.3,0.3-0.5,0.7-0.8,1
				c-0.2,0.3-0.5,0.6-0.6,0.9c-0.2,0.3-0.4,0.5-0.6,0.8c-0.2,0.3-0.5,0.6-0.7,0.9l-0.4-2.4c2-2.5,4.2-6.5,6.7-12.2
				c-0.3,0-0.7,0.1-1,0.1c-0.3,0-0.7,0.1-1.1,0.2c-1.3,0.3-2.3,0.5-3,0.8c-0.3,0.1-0.5,0.2-0.7,0.4c-0.2,0.1-0.4,0.2-0.5,0.2
				s-0.1,0-0.2-0.2c-0.1-0.8,0.1-2,0.8-3.6c0.5-1.4,1-2.5,1.6-3.2c0.6-0.7,1.3-1.3,2.2-1.7C392.8,142.3,394.2,141.9,395.9,141.6z"/>
			<path class="st1" d="M422.7,154.9l0.4,2.3c-2,2.8-3.6,5.1-4.9,6.7c-1.3,1.6-2.5,2.9-3.7,3.9c-1.2,1-2.4,1.6-3.7,1.8
				c-1.3,0.2-2.5,0-3.7-0.8s-2.3-1.9-3.2-3.4c-0.9-1.5-1.5-3.1-1.9-4.9c-0.3-1.5-0.2-3,0.2-4.3c0.5-1.3,1.5-3.1,3.1-5.4
				c1.9-2.7,3.7-4.9,5.5-6.5c1.8-1.6,3.2-2.5,4.3-2.7c0.8-0.2,1.6,0,2.2,0.5c0.7,0.5,1.1,1.1,1.3,2c0.1,0.7,0,1.8-0.5,3.3
				c-0.5,1.5-1.1,2.8-1.9,4c-0.7,1.2-1.4,1.8-1.9,1.9c-0.6,0.1-0.9-0.2-1.1-0.8c0-0.2,0-0.4,0-0.5c0-0.2,0-0.3-0.1-0.5
				c-0.1-0.3-0.2-0.4-0.4-0.4c-0.2,0-0.4,0.1-0.7,0.4c-2,2-3.3,3.4-4,4.2c-0.7,0.8-1.3,1.6-1.6,2.3c-0.4,0.8-0.5,1.5-0.3,2.2
				c0.3,1.3,0.9,2.4,1.9,3c1,0.7,2.2,0.9,3.6,0.6c1.4-0.3,3.1-1.1,4.9-2.6C418.3,159.6,420.4,157.6,422.7,154.9z"/>
			<path class="st1" d="M445.4,150.5l0.4,2.1c-1.6,2.4-3,4.4-4.2,5.9c-1.2,1.6-2.3,2.8-3.2,3.6c-1,0.9-1.8,1.4-2.6,1.5
				c-1.8,0.3-2.9-0.5-3.3-2.6c-0.3-1.7-0.1-3.7,0.5-6.2c0.7-2.4,1.8-5.3,3.3-8.7c-0.9,0.8-1.8,1.6-2.5,2.5c-0.8,0.9-1.4,1.8-2,2.8
				c-0.6,0.9-1,1.7-1.4,2.4c-1.2,1.9-2.3,3.9-3.3,5.9c-1,2-1.7,3.3-2.1,3.9c-0.4,0.6-0.8,1-1.2,1c-1.8,0.3-3.1-1.7-3.9-6.1
				c-0.3-1.4-0.4-3.1-0.2-4.9c0.1-1.8,0.8-4.3,2.2-7.5c2.9-6.7,5.3-12.2,7.5-16.6c2.1-4.3,3.9-7.6,5.4-9.9c1.5-2.3,2.6-3.5,3.2-3.6
				c0.8-0.1,1.5,0,2,0.1c0.5,0.2,0.8,0.4,0.9,0.7c0.1,0.6-0.1,1.6-0.6,3c-0.5,1.5-1.5,3.8-2.9,6.9c-1.5,3.3-2.6,5.7-3.2,7
				c-0.6,1.4-1.6,3.3-2.9,5.8c-1.3,2.5-2.5,4.8-3.6,6.8c-1.1,2-2.4,4.2-3.8,6.5l0.8,4.1c2.4-4,4.5-7.2,6.3-9.8
				c1.8-2.6,3.4-4.6,4.7-6c1.3-1.4,2.4-2.2,3.1-2.3c0.7-0.1,1.4,0.2,2.1,0.8c0.7,0.7,1.2,1.3,1.3,1.8c0,0.2,0,0.5-0.2,0.9
				c-1.3,2.3-2.3,4.1-3,5.6c-0.7,1.5-1.3,2.8-1.6,3.9c-0.3,1.1-0.4,2-0.3,2.8c0.2,1.1,0.8,1.5,1.8,1.3
				C440.1,156.1,442.2,154.2,445.4,150.5z"/>
			<path class="st1" d="M448.5,151.2l0.2,0.9c0.3,1.3,0.8,2.3,1.6,3c0.8,0.6,1.7,0.8,2.8,0.6c1.1-0.2,2.2-0.7,3.3-1.4
				c1.1-0.7,2.2-1.7,3.2-2.8c1-1.1,2.2-2.5,3.7-4.3l0.4,2.1c-2,3.6-3.9,6.4-5.9,8.5c-1.9,2.1-4.1,3.3-6.4,3.8
				c-2,0.4-3.8-0.1-5.3-1.4c-1.5-1.3-2.5-3.4-3-6.1c-0.5-2.4-0.3-4.7,0.4-6.8c0.7-2.2,2.2-4.6,4.3-7.2c1.4-1.8,3-3.2,4.5-4.3
				c1.6-1.1,3-1.7,4.4-2c1.1-0.2,2-0.1,2.7,0.3c0.7,0.4,1.2,1,1.4,2c0.3,1.4,0,3-0.8,4.6c-0.8,1.6-2.2,3.3-4.1,5.2
				C453.9,147.5,451.4,149.3,448.5,151.2z M448.4,149c1.9-1.2,3.5-2.5,4.7-4c1.2-1.5,2.1-2.8,2.6-4c0.5-1.2,0.7-2.1,0.6-2.6
				c-0.1-0.5-0.4-0.7-0.9-0.6c-0.4,0.1-1,0.5-1.8,1.2c-0.8,0.7-1.6,1.6-2.4,2.6c-0.8,1-1.4,2.2-2,3.5
				C448.6,146.2,448.3,147.6,448.4,149z"/>
			<path class="st1" d="M460.7,150.4l-0.4-2.2c1-1.7,1.7-3.1,2.1-4.2c-0.8-0.1-1.4-0.3-1.8-0.6c-0.4-0.3-0.7-0.8-0.8-1.5
				c-0.2-0.8,0-1.9,0.4-3.3c0.4-1.4,1.1-2.7,1.9-4c0.8-1.3,1.6-2.2,2.3-2.6c0.3-0.2,0.6-0.4,0.9-0.4c0.5-0.1,0.7,0.1,0.8,0.5
				c0.1,0.4-0.1,1.2-0.6,2.6c4.5-1.6,7.4-2.5,8.7-2.8c0.5-0.1,0.8-0.1,1-0.1c0.4,0.1,0.8,0.5,1.2,1.3s0.7,1.4,0.8,2.2
				c0.1,0.5,0,1-0.3,1.7c-0.3,0.6-0.9,1.6-1.7,2.9c-1,1.5-1.7,3.1-2.2,4.8c-0.5,1.7-0.7,2.9-0.6,3.7c0.2,1.1,1,1.5,2.3,1.2
				c1.4-0.3,3.5-2.1,6.4-5.6l0.4,2.3c-1.5,2.3-2.8,4.2-3.8,5.6c-1,1.4-2,2.5-2.9,3.4c-0.9,0.9-1.8,1.4-2.6,1.5
				c-1,0.2-1.8-0.1-2.6-0.9c-0.8-0.8-1.4-2-1.7-3.6c-0.2-1-0.1-2.1,0.1-3.5c0.3-1.3,0.7-2.8,1.4-4.5c0.7-1.7,1.5-3.3,2.4-5
				c-0.6,0.3-1.3,0.5-2.1,0.8c-0.8,0.3-1.6,0.6-2.4,0.9c-0.9,0.3-1.5,0.6-2,0.8C464.5,144.6,462.9,147.6,460.7,150.4z"/>
			<path class="st1" d="M372.6,196l-1.4,2.4c2.1-0.2,3.9-0.3,5.6-0.3c1.7,0,3.2,0.1,4.6,0.2s2.7,0.3,3.8,0.5
				c3.9,0.8,6.1,2.6,6.6,5.3c0.3,1.6-0.1,3.4-1.3,5.2c-1.2,1.9-2.9,3.6-5.1,5.3c-2.2,1.7-4.5,3.1-6.9,4.3c-2.4,1.2-4.6,2-6.7,2.4
				c-3.5,0.7-6.3,0.5-8.5-0.4c-2.2-0.9-3.5-2.5-3.9-4.7c-0.3-1.5,0-3.5,0.7-5.8c0.8-2.3,2.1-5.3,4-8.9c-1.9,0.3-3.3,0.2-4.1-0.1
				c-0.9-0.3-1.4-0.9-1.5-1.7c-0.1-0.5,0-1,0.2-1.3c0.2-0.3,0.6-0.6,1.1-0.8c0.5-0.2,1.4-0.6,2.8-1c1.4-0.5,3.2-1,5.3-1.7
				c1.9-3.5,3.7-6.2,5.4-8.1c1.7-1.9,3.6-3.2,5.8-3.8c0.2-0.1,0.4-0.1,0.6-0.1c0.2,0,0.3,0,0.4,0.1c0,0.1-0.2,0.5-0.6,1.2
				c-0.4,0.7-1.1,1.8-2,3.3c-0.9,1.5-2,3.3-3.2,5.4c4.2-1.4,7.5-2.7,10.1-4c2.6-1.3,4.5-2.5,5.7-3.8c1.2-1.3,1.7-2.6,1.4-3.8
				c-0.3-1.5-1.2-2.5-2.8-2.9s-3.9-0.3-7,0.3c-1.7,0.3-3.6,0.9-5.7,1.6c-2.1,0.8-4,1.5-5.7,2.3c-1.7,0.8-3.2,1.5-4.4,2.3
				c-1.3,0.8-1.9,1.2-1.9,1.5c0,0.1,0.1,0.1,0.2,0.2c1.2,0.2,1.8,0.4,1.9,0.7c0.1,0.4-1.5,1.4-4.7,3.1c-3.2,1.7-5.4,2.6-6.6,2.9
				c-0.8,0.2-1.3-0.2-1.5-1c-0.2-1,0.4-3,1.7-5.9c1.3-3,2.7-4.9,4.1-5.9c0.5-0.3,1.6-1,3.4-1.9c1.8-0.9,3.8-1.8,6-2.8
				c2.2-0.9,4.4-1.8,6.7-2.6c2.3-0.8,4.4-1.4,6.2-1.7c4.3-0.8,7.7-0.7,10.1,0.5c2.5,1.1,3.9,2.8,4.3,5.2c0.3,1.6,0.1,3.2-0.6,4.8
				c-0.7,1.6-2,3.3-3.8,5c-1.8,1.7-4.4,3.3-7.5,5C380.9,193.1,377.1,194.6,372.6,196z M369.8,201.1c-0.9,1.6-1.7,3.1-2.4,4.3
				c-0.7,1.3-1.2,2.3-1.5,3c-0.3,0.7-0.3,1.5-0.2,2.1c0.2,1.1,1,2,2.2,2.6s3,0.8,5.1,0.4c2-0.4,4-1.1,6.1-2.2s3.8-2.4,5.1-3.8
				c1.3-1.4,1.8-2.7,1.6-3.8c-0.2-1-0.9-1.7-2.1-2.1c-1.2-0.4-3-0.7-5.4-0.7C375.9,200.9,373.1,200.9,369.8,201.1z"/>
			<path class="st1" d="M408.4,201.6l0.5,2.5c-3.6,7.2-6.8,11.1-9.8,11.7c-1.6,0.3-3.1-0.3-4.3-1.9c-1.3-1.6-2.2-3.8-2.7-6.7
				c-0.4-2.3-0.4-5.2,0.1-8.6c0.5-3.4,1.3-6.9,2.5-10.6c1.2-3.6,2.6-6.9,4.1-9.7c1.5-2.8,3-4.9,4.5-6.2c0.6-0.5,1.1-0.8,1.5-0.9
				c0.5-0.1,0.8,0.1,1.1,0.5c0.2,0.4,0.5,1.1,0.6,2.1c0.6,3.2,0,7.3-1.6,12.4c-1.7,5.1-4.4,10.5-8.1,16.2c0,1.2,0.1,2.2,0.2,2.8
				c0.3,1.5,0.8,2.6,1.6,3.4c0.8,0.8,1.8,1.1,2.9,0.9c0.6-0.1,1.1-0.4,1.7-1c0.6-0.6,1.2-1.3,1.8-2
				C405.5,205.5,406.7,204,408.4,201.6z M397.1,197.4c1-1.4,1.9-2.9,2.7-4.6c0.8-1.7,1.6-3.5,2.2-5.3c0.7-1.9,1.1-3.5,1.4-5
				c0.3-1.4,0.4-2.5,0.3-3.2c-0.1-0.5-0.3-0.7-0.7-0.7c-0.1,0-0.4,0.2-0.7,0.5c-1.2,1.4-2.3,3.9-3.4,7.6
				C397.8,190.3,397.2,193.9,397.1,197.4z"/>
			<path class="st1" d="M427.5,198.3l0.4,2.3c-1.2,1.7-2.3,2.8-3.1,3.4c-0.8,0.6-2.1,1.1-3.8,1.3c-2.3,4.1-4.6,6.3-6.8,6.7
				c-1.3,0.2-2.5,0-3.7-0.6c-1.2-0.6-2.3-1.6-3.2-3c-0.9-1.3-1.5-2.9-1.9-4.7c-0.3-1.5-0.1-3.2,0.5-5.1c0.6-2,1.6-3.8,2.8-5.7
				c1.2-1.8,2.7-3.4,4.2-4.7c1.6-1.3,3.1-2.1,4.6-2.3c1.1-0.2,1.9-0.2,2.6,0c0.7,0.2,1.1,0.6,1.2,1.2c0.1,0.5-0.1,1-0.5,1.7
				c0.9,0,1.5,0.2,1.9,0.6c0.4,0.4,0.7,1.1,0.9,2.2c0.2,1.1,0.2,2.5,0,4.3s-0.6,3.4-1.2,5.1l0.7,0.5l0.5-0.1
				c0.4-0.1,0.7-0.2,1.1-0.5s0.6-0.5,0.9-0.8S426.6,199.3,427.5,198.3z M418.8,190.7c-1.7,1.5-3.1,2.8-4.3,4
				c-1.2,1.2-2.1,2.3-2.9,3.4c-0.8,1.1-1.2,2.2-1.3,3.2c-0.1,2.7-0.1,4.1-0.1,4.3c0.3,1.5,1.5,2.1,3.6,1.7c1-0.2,2.5-1.3,4.4-3.5
				c-0.6-1-1-2-1.2-3c-0.3-1.4-0.3-3,0.1-4.6C417.4,194.7,418,192.8,418.8,190.7z"/>
			<path class="st1" d="M445.3,195.1l0.4,2.3c-2,2.9-3.6,5.1-4.9,6.7c-1.3,1.6-2.5,2.9-3.7,3.9c-1.2,1-2.4,1.6-3.7,1.8
				c-1.3,0.2-2.5,0-3.7-0.8s-2.3-1.9-3.2-3.4c-0.9-1.5-1.5-3.1-1.9-4.9c-0.3-1.5-0.2-3,0.2-4.3c0.5-1.3,1.5-3.1,3.1-5.4
				c1.9-2.7,3.7-4.9,5.5-6.5c1.8-1.6,3.2-2.5,4.3-2.7c0.8-0.2,1.6,0,2.2,0.5c0.7,0.5,1.1,1.1,1.3,2c0.1,0.7,0,1.8-0.5,3.3
				c-0.5,1.5-1.1,2.8-1.9,4c-0.7,1.2-1.4,1.8-1.9,1.9c-0.6,0.1-0.9-0.2-1.1-0.8c0-0.2,0-0.4,0-0.5c0-0.2,0-0.3-0.1-0.5
				c-0.1-0.3-0.2-0.4-0.4-0.4c-0.2,0-0.4,0.1-0.7,0.4c-2,2-3.3,3.4-4,4.2c-0.7,0.8-1.3,1.6-1.6,2.3c-0.4,0.8-0.5,1.5-0.3,2.2
				c0.3,1.3,0.9,2.4,1.9,3c1,0.7,2.2,0.9,3.6,0.6c1.4-0.3,3.1-1.1,4.9-2.6C440.9,199.8,443,197.7,445.3,195.1z"/>
			<path class="st1" d="M468.3,190.7l0.4,2.3c-2,3.5-3.7,6.1-5.1,8c-1.4,1.9-2.7,2.9-3.9,3.1c-1.1,0.2-2.2,0.1-3.2-0.4
				s-2-1.2-2.9-2.3c-0.9-1-2.1-2.5-3.5-4.4c-0.9,1.7-1.7,3.2-2.4,4.6c-0.7,1.4-1.2,2.4-1.5,2.8c-0.3,0.5-0.6,0.7-0.9,0.8
				c-0.6,0.1-1.1-0.2-1.6-0.9c-0.4-0.7-0.8-1.8-1.1-3.4c-0.4-2-0.5-4.1-0.4-6.1s0.5-4,1.1-5.9c0.6-2,1.4-4.1,2.4-6.5
				c1-2.4,2.3-4.8,3.6-7.5c1.9-3.6,3.5-6.6,5-8.9c1.4-2.3,2.7-4.1,3.8-5.4c1.1-1.3,2.2-2,3-2.1c1.1-0.2,1.7,0.2,1.9,1.2
				c0.2,0.8-1.3,4.3-4.3,10.2c-3,6-7.6,14.2-13.6,24.7l0.6,2.9c4.1-6.5,7.5-11.4,10.1-14.7c2.6-3.3,4.8-5.1,6.6-5.4
				c0.7-0.1,1.3,0.2,1.9,0.9c0.5,0.8,0.9,1.7,1.1,2.8c0.4,2.2-0.1,4.5-1.7,6.7c-1.6,2.3-4.1,5-7.6,8.2c0.9,0.9,1.6,1.5,2.2,1.9
				c0.6,0.4,1.3,0.5,2.1,0.3c0.7-0.1,1.4-0.5,2.2-1.2c0.7-0.6,1.5-1.4,2.2-2.3C465.7,194.1,466.8,192.6,468.3,190.7z M455.1,195
				c0.8-0.7,1.7-1.8,2.7-3.3c1.1-1.4,1.9-2.9,2.6-4.3c0.7-1.5,0.9-2.6,0.8-3.5c-0.1-0.4-0.3-0.5-0.6-0.5c-0.9,0.2-2.2,1.3-4,3.3
				c-1.8,2.1-3.4,4.6-5,7.5C452.5,194.1,453.7,194.4,455.1,195z"/>
			<path class="st1" d="M412.3,245.6l0.4,2.2c-3,5-5.9,9.2-8.5,12.5c-2.7,3.4-5.4,6.1-8.2,8.2c-2.8,2.1-5.6,3.4-8.4,3.9
				c-2.5,0.5-4.7,0.4-6.6-0.3c-1.9-0.6-3.6-1.8-4.8-3.5c-1.3-1.7-2.1-3.8-2.6-6.4c-0.4-2-0.5-4.2-0.2-6.6c0.2-2.4,0.7-4.9,1.5-7.4
				c0.8-2.5,1.8-5.2,3.2-8c1.3-2.8,2.9-5.8,4.8-8.9c2-3.3,4-6.2,6-8.7c2-2.5,4-4.5,5.7-6c1.8-1.5,3.4-2.7,5-3.6s2.9-1.4,4.1-1.7
				c1.1-0.2,2.2-0.1,3.1,0.3c0.9,0.4,1.7,1.1,2.3,2c0.6,1,1.1,2.1,1.3,3.5c0.5,2.6,0.2,5.6-1,9.1c-1.2,3.5-2.8,6.9-4.8,10.4
				c-2.1,3.4-4.1,6.3-6.1,8.6c-2,2.3-3.6,3.6-4.6,3.8c-0.7,0.1-1.4,0-2.1-0.5c-0.7-0.4-1.1-1-1.3-1.7c-0.2-1.3,0.1-3,1.2-5.1
				c1-2.1,2.2-4.1,3.5-5.9c1.3-1.8,2.2-2.8,2.5-2.9c0.2,0,0.3,0,0.3,0.2c0,0.2,0,0.6-0.2,1.1c-0.1,0.5-0.2,0.9-0.2,1
				c0,0.2,0.1,0.3,0.3,0.2c0.4-0.1,1.3-1.3,2.8-3.7c1.5-2.4,2.7-5,3.8-7.8c1.1-2.8,1.4-5,1.1-6.6c-0.1-0.7-0.4-1.1-0.7-1.4
				c-0.4-0.3-0.8-0.4-1.4-0.3c-1.6,0.3-3.8,2.1-6.5,5.2c-2.8,3.2-5.5,7.1-8.1,11.8c-2.6,4.6-4.7,9.3-6.2,14
				c-1.5,4.7-1.9,8.6-1.3,11.9c0.4,1.9,0.9,3.4,1.7,4.5c0.8,1.1,1.8,2,3,2.4c1.2,0.5,2.6,0.6,4.1,0.3c3.3-0.6,6.8-2.6,10.5-6
				S408.2,251.5,412.3,245.6z"/>
			<path class="st1" d="M412.2,239.4c2.9-3.8,5.8-6.8,8.7-8.9c3-2.1,5.3-3.4,7.1-3.7c0.5-0.1,1,0,1.4,0.3c0.5,0.3,0.9,0.7,1.2,1.2
				s0.5,0.8,0.6,1.1c0.1,0.4,0,0.7-0.3,1c-0.3,0.3-0.8,0.6-1.5,1c0.2,0.3,0.5,0.8,0.9,1.3c0.4,0.5,0.6,0.9,0.8,1.3
				c0.2,0.3,0.3,0.6,0.4,0.9c0.1,0.5-0.3,1.7-1.1,3.4s-1.4,2.9-1.7,3.7c-0.3,0.8-0.4,1.7-0.2,2.7c0.3,1.7,1.3,2.4,2.8,2.1
				c1.6-0.3,3.8-2.3,6.6-5.9l0.4,2.1c-4.5,7.5-8.1,11.5-10.5,11.9c-0.9,0.2-1.6,0-2.1-0.5c-0.5-0.5-0.8-1.3-1.1-2.5
				c-0.3-1.8-0.2-4.5,0.5-8.2c-2.6,4.3-4.6,7.4-5.9,9.3c-1.3,1.9-2.5,2.9-3.6,3.1c-0.5,0.1-1.2-0.2-2.1-0.9c-0.9-0.7-1.8-1.7-2.6-3
				c-0.8-1.3-1.4-2.6-1.7-4.1c-0.2-1.1-0.3-2-0.2-2.7c0.1-0.8,0.3-1.6,0.8-2.4C410.4,242.1,411.1,240.9,412.2,239.4z M427.8,232.6
				c-5.4,3.8-9.2,6.9-11.3,9.3c-2.2,2.4-3,4.5-2.7,6.6c0.1,0.7,0.4,1.3,0.7,1.7s0.7,0.6,1.2,0.5c0.2,0,0.7-0.3,1.2-0.7
				c2.1-1.9,4-4.1,5.5-6.8C424,240.5,425.8,237,427.8,232.6z"/>
			<path class="st1" d="M454.1,237.8l0.4,2.4c-1.1,1.6-2,2.8-2.5,3.6c-0.6,0.7-1.4,1.6-2.5,2.4c0.4,2.1,0.6,3.9,0.7,5.3
				c0.1,1.5-0.1,3.1-0.5,4.9c-0.4,1.7-1.2,3.7-2.3,5.9c-1.1,2.2-2.3,3.9-3.5,5.2c-1.2,1.3-2.2,2-3,2.1c-0.9,0.2-1.8-0.4-2.9-1.7
				c-1-1.3-1.7-3.1-2.2-5.2c-0.4-2.1-0.5-4.3-0.2-6.8c0.3-2.4,0.8-5.6,1.6-9.5c-1.4-1.2-2.2-2.6-2.5-4c-0.2-1.2-0.1-2.1,0.4-2.8
				c0.5-0.7,1.2-1.4,2.2-2.2c0.6-1.4,1.1-2.6,1.7-3.6c0.6-1,1.3-2.4,2.3-4.1c1.3-6.3,3-12.5,5.1-18.6c0.6-1.7,1-2.9,1.3-3.5
				c0.3-0.6,0.6-1,1.1-1c0.4-0.1,0.8,0.1,1.2,0.7c0.4,0.5,0.7,1.2,0.9,2.1c0.2,1.1,0.3,2.2,0.2,3.1c-0.1,1-0.2,2-0.5,3
				c-0.3,1-0.7,2.3-1.2,3.7s-0.9,2.4-1,2.7c-0.8,2.2-1.6,4.7-2.6,7.4c-1,2.7-1.7,4.8-2.3,6.4c-0.6,1.6-1,2.7-1.2,3.5
				c1.4,0.8,2.6,1.6,3.4,2.2s1.7,1.4,2.4,2.4c0.7-0.4,1.4-0.9,1.9-1.5c0.6-0.5,1.2-1.2,1.9-2.1C452.6,239.4,453.4,238.6,454.1,237.8
				z M445.6,248.9l-0.2-0.7c-0.6,0.2-1.1,0.3-1.5,0.3c-0.4,0-0.9,0-1.4,0c-0.5-0.1-1-0.1-1.3-0.2c-0.3-0.1-0.6-0.2-1-0.2
				c-0.9,4.6-1.1,8.2-0.6,11c0.3,1.4,0.7,2.5,1.3,3.4s1.2,1.3,1.8,1.2c0.6-0.1,1.2-0.8,1.9-2c0.7-1.2,1.2-2.9,1.5-5.1
				C446.3,254.5,446.2,251.9,445.6,248.9z"/>
			<path class="st1" d="M456.1,238.7l0.2,0.9c0.3,1.3,0.8,2.3,1.6,3c0.8,0.6,1.7,0.8,2.8,0.6c1.1-0.2,2.2-0.7,3.3-1.4
				c1.1-0.7,2.2-1.7,3.2-2.8c1-1.1,2.2-2.5,3.7-4.3l0.4,2.1c-2,3.6-3.9,6.4-5.9,8.5c-1.9,2.1-4.1,3.3-6.4,3.8
				c-2,0.4-3.8-0.1-5.3-1.4c-1.5-1.3-2.5-3.4-3-6.1c-0.5-2.4-0.3-4.7,0.4-6.8s2.2-4.6,4.3-7.2c1.4-1.8,3-3.2,4.5-4.3
				c1.6-1.1,3-1.7,4.4-2c1.1-0.2,2-0.1,2.7,0.3c0.7,0.4,1.2,1,1.4,2c0.3,1.4,0,3-0.8,4.6c-0.8,1.6-2.2,3.3-4.1,5.2
				C461.5,234.9,459.1,236.8,456.1,238.7z M456,236.4c1.9-1.2,3.5-2.5,4.7-4c1.2-1.5,2.1-2.8,2.6-4s0.7-2.1,0.6-2.6
				c-0.1-0.5-0.4-0.7-0.9-0.6c-0.4,0.1-1,0.5-1.8,1.2c-0.8,0.7-1.6,1.6-2.4,2.6c-0.8,1-1.4,2.2-2,3.5C456.3,233.7,456,235,456,236.4
				z"/>
		</g>
		<polygon class="st2" points="328.9,213.1 334.3,212.7 338.4,210.5 340.2,214.5 334.3,218.6 337,220.8 340.2,222 347.3,216 
			355.5,210.1 361.6,198 350.5,189.1 368.7,176.4 371.3,169.7 366,172.3 337.2,187.9 317.8,192.9 314.1,217.8 		"/>
		<g>
			<g>
				<path class="st1" d="M128.8,296c-0.4-0.2-0.8-0.4-1.1-0.6c-4.9-3.8-4.9-4.1-10.8-3.7c-10.4,0.8-19.3-2.1-26.7-9.4
					c-0.9-0.9-1.8-1.6-3-0.6c-6.1,5.4-13.4,9.2-18.5,16c-4.7,6.2-7.5,13.1-10.5,20c-1.8,4.3-3.1,8.9-5.3,13.1
					c-2.7,5.2-6.5,9.5-13.4,9.2c8.8,6.8,18.5,9.2,29.2,8c6-0.7,12.1-1,18.1-1.4c1.9-0.1,3.7,0.6,5.3,1.6c2.4,1.6-0.8,5.3-2,2.8
					c-1-2-3.4-1.4-5.1-1.5c-2.8-0.2-5.8,0-8.6,0.8c-8.3,2.2-16.5,2.1-24.8-0.2c-7.7-2.1-13.5-6.4-17.8-13c-0.9-1.4-1.2-2.3,0.2-4
					c7.1-8.5,8.8-12.5,9.7-21.3c-5.5,6.3-11.8,10.7-17.7,15.6c-1.2,1-2.5,2.6-4,1.8c-1.3-0.7-0.7-2.7-0.5-4c1.2-7,2-14,1.7-21.1
					c0-1.1-0.7-2.9,1.6-2.7c2.1,0.1,2.6,1.6,2.7,3.3c0.1,4.3,0,8.7,0.1,13.1c0,1.2-0.7,2.8,0.6,3.6c1.6,0.9,2.1-1,3.1-1.7
					c8.4-5.7,13.1-14.6,19.3-22.2c8.5-10.2,17.8-18.8,31.1-22.1c0.8-0.2,2,0.2,2-1.1c0-1-0.9-1.3-1.7-1.7c-2.5-1.5-5.1-1.9-7.9-1.4
					c-8.6,1.5-16.2,5.2-23.3,10.5c-7.3,5.5-13.9,11.9-22.8,15.1c-1.4,0.5-2.5,1.1-3.4-0.2c-1-1.3,0.6-2,1.3-2.8
					c2.6-2.7,6.5-3.2,9.6-5.4c7.9-5.6,14.9-12.4,24-16.3c5.4-2.3,11-3.8,17-4.5c-2.7-4.8-10.2-7.4-16.9-5.7
					c-6.5,1.7-12.9,3.8-19.3,5.6c-2.3,0.7-4.8,1.5-7.1,1.5c-2.9,0-4.8-1.2-6.9-4.2c-3.2-4.5-2.3-8.8-2-13.1
					c0.6-8.4,0.2-16.8-0.3-25.2c0-0.5,0.1-1.1,0.2-2.2c5.1,4.2,6.6,10.4,11.1,14.9c-5.6-1.2-5.5,2-5.2,5.5
					c0.5,5.4-0.1,10.8-1.9,15.8c-1.4,3.9,0.8,4.2,3.3,4.3c3.9,0.2,7.6-1.2,11.2-2.5c6.6-2.3,13-5.2,20.2-5.3
					c7.6-0.2,12.9,3.8,17.4,9.4c0.9,1.1,1.5,2.6,3.4,2.2c1.7-0.4,1.9-2,2.6-3.2c0.4-0.7,0.4-1.5-0.2-2c-4-3.4-7.9-7-12.1-10.1
					c-1.9-1.4-4.6-1.6-7.1-1.5c-1.8,0.1-3.7,0.1-3.7-2.4c0-2.7,2.1-2.9,3.9-2.7c6.6,0.4,11.5,4.2,15.8,8.8c1.7,1.8,3.8,3.6,4.2,6.4
					c3.2-7.2,4.5-14.7,5.6-22.4c1-7,0.5-14.1,2.1-21.1c1.1-4.5,1.4-9.3-1.2-13.9c-1.9-3.4-2.6-7.1,1-10.5c4.1-3.9,3.9-4.5-0.1-8.7
					c-2.4-2.5-5.3-4.7-3.8-9.1c1.5-4.5,4.2-6.9,8.8-5.9c3.1,0.6,6.3,0.7,9.3,2c1.6,0.8,3.3,0.6,4.3-0.9c1-1.4-0.7-2.3-1.3-3.3
					c-0.6-1-1.6-1.7-2.3-2.6c-2.2-2.6-4.6-5.5-1.8-8.7c3.8-4.2,5.6-5.4,11.1-3c2.6,1.2,5.3,2.2,7.9,3.2c5.1,1.7,5.9,1.2,7.8-4
					c2.6-7.2,8.8-10.6,14.7-3.4c1.8,2.1,3.3,4.2,4.2,6.8c1.3,3.5,3.2,6.1,7.6,5.1c1-0.2,2.2,0.1,2.7-1c0.6-1.4-0.9-1.6-1.5-2.2
					c-3.8-3.5-7.5-6.9-9.9-11.8c-3.2-6.5-2.7-12.7-0.8-19.2c1.3-4.4,4.9-8.8,4.8-12.6c0-7,3.9-11.7,6.5-17.2c2-4.2,3.6-8.4,3.6-13
					c0-1.9,0.4-3.7,0.6-5.6c0.5-5.4,3.6-9.1,7.6-12c4.2-3,8.6-5.7,12.8-8.7c1.4-1.1,2.3-1.3,3.8-0.3c3.6,2.3,7,1.4,9.8-1.4
					c5.8-5.9,12.3-5.7,19.3-2.6c2.9,1.3,6.1,1.6,9.3,1.5c16.9-0.3,26,13,23.7,28.5c-0.1,0.8-0.4,1.8-1,2.3c-2.5,2.1-1.6,4.6-1,7.1
					c1.5,6.5,2.7,12.9-0.4,19.4c-1.4,2.9-0.6,6.6-3.5,9c-0.7,0.6-0.3,1.3,0.1,2c5.9,10.9,0.1,19.5-5.6,28.2
					c-1.6,2.4-3.2,4.8-4.6,7.3c-0.8,1.3-0.8,2.9,1.3,2.5c5.4-1,8.4,2.8,11.4,5.9c2.7,2.7,5.6,3.7,8.9,2.6c9.8-3.3,20.4-3.3,30.2-6.7
					c4.8-1.6,9.2-4,13.5-6.5c2.8-1.6,1.4-4.6,1.2-6.7c-0.4-3.5-1-7.2-2-10.6c-1-3.7,0.6-4,3.3-4.2c0.9,0,1.7-0.1,2.6-0.1
					c3.2,0.1,3.7-1.2,2.7-4.1c-1.4-3.9-1.6-8.1-2.2-12.3c-0.3-2.4-0.1-3.4,2.8-3.9c14.7-2.3,29.2-5.8,43.9-7.9
					c6.9-1,13.7-2.8,20.6-4.2c3.6-0.7,3.4-4.2,4.8-6.6c0.3-0.6,0-1.5,0.2-2.1c0.6-1.4,0-3.5,1.7-4.2c2.3-1,2.7,1.6,3.9,2.6
					c0.6,0.5,1.3,1,2.4,1.8c0.6-1.9,1.1-3.5,1.6-5c0.6-2,2.3-4,3.8-3.5c3.5,1.2,5.3-0.7,7.4-2.6c0.6-0.5,1.8-1.3,2.3-1.1
					c4.1,1.8,9.2,1.2,12.4,5.1c0.7,0.9,1,2.1,2.6,1.8c2.9-0.5,4.9,0.4,6.9,3c1.7,2.3,4.6-0.3,6.8-0.7c10.6-1.8,21.2-3.4,31.8-5.3
					c5.5-1,10.9-2.4,16.4-3.4c2.3-0.4,3.4-0.2,3.7,2.5c0.7,7,2.6,13.8,3.4,20.8c0.8,5.9,1.9,11.9,3,17.8c2.2,12.5,4.8,25,6.5,37.7
					c1.3,9.4,3.4,18.6,5,28c2.3,13.1,4.6,26.2,6.9,39.3c2.4,14.1,4.7,28.3,7.1,42.4c0.3,1.7-0.4,2.4-1.9,2.6c-2.6,0.4-5,1.3-7.6,1.4
					c-4.7,0.3-5.7,1.9-4.4,6.3c1.8,5.9,1.3,6.5-4.5,7.5c-12,2.1-24,4.4-36,6.5c-11.1,2-22.3,3.7-33.5,5.7
					c-9.2,1.6-18.3,3.6-27.5,5.2c-11.5,1.9-22.8,4.5-34.3,6.2c-9.3,1.4-18.6,3.6-27.8,5.5c-1.7,0.3-3.5,0.3-5.1,0.8
					c-1.6,0.4-1.6-0.3-1.8-1.5c-0.8-4.9-1.8-9.9-2.6-14.8c-1.3-8.4-2.3-16.8-3.6-25.1c-1.9-12.6-3.9-25.2-6-37.8
					c-1-6.1-2.4-12.1-3.6-18.1c-0.3-1.4-1.3-2-2.9-2c-7.1,0-13.6,0.6-19.3,6.2c-14.4,13.9-29.4,27.4-45.9,39
					c-6.3,4.5-12.4,9.2-19.2,12.9c-6.6,3.5-12.7,0.5-18.7-1.4c-6.7-2.1-13-5.3-19.4-8.1c-1.2-0.5-2-0.5-3.2,0.1
					c-7,4-14.6,5.9-22.7,5.4c-6.1-0.4-11.6,1.3-16.4,5.2c-4.5,3.6-9.5,5.7-15.3,5.7c-1.9,0-4.2-0.6-4.8,2.4c-0.6,3,0.4,5,2.9,6.4
					 M386.6,105.1c-6.9,1.2-13.9,2.2-20.8,3.5c-9,1.8-18.1,3.4-27.1,5.1c-7.7,1.4-15.4,3.5-23.3,3.8c-1.8,0.1-2.8,1.4-2.2,2.9
					c1,2.6,0.4,5.2,0.9,7.7c3.2,18.2,6.3,36.4,9.5,54.6c1,5.6,2.7,7.3,6.7,5.9c13.9-5,27.2-11.2,38.9-20.5c1.2-1,2.6-2.3,4.2-0.8
					c1.5,1.4,0.5,2.8-0.4,4.2c-3.3,5.2-8,9-12.7,12.7c-8.1,6.4-6.2,5.2-0.1,9.8c2.1,1.6,3.7,3.6,2.2,5.8c-2.8,4.3-5,9.5-8.5,12.7
					c-3.8,3.6-8.5,6.7-13,9.7c-1.6,1.1-8.2-2.4-8.5-4.4c-0.2-1,0.5-1.2,1.3-1.4c1.1-0.3,2.3-0.5,3.3-1c0.8-0.4,0.8-2.1,0.2-2.1
					c-2.1,0.2-4.2,0.9-6.2,1.8c-0.9,0.4-1.4,1.5-1.1,2.6c2.8,10.3,4,20.8,5.9,31.2c1.2,6.6,2.2,13.3,3.5,19.9
					c1.9,9.7,3.4,19.5,4.7,29.3c0.3,2.4,1.6,3.4,3.8,2.7c3.3-1,6.8-1.1,10.1-2c5.3-1.3,10.7-1.9,16-3.1c6.8-1.5,13.8-2.5,20.7-3.8
					c5.5-1,10.9-2.2,16.4-3.2c11.4-2.1,22.8-3.9,34.2-6.3c8.1-1.7,16.2-3.4,24.4-4.8c13.3-2.3,26.4-5.2,39.7-7.4
					c1.9-0.3,3.1-0.8,2.5-3.6c-1.4-6.7-2.1-13.6-3.2-20.4c-2.1-12.7-4.3-25.5-6.5-38.2c-2.2-12.9-4.7-25.7-6.7-38.6
					c-0.8-5.4-1.7-10.7-2.8-16.1c-1.2-6.6-2.1-13.3-3.3-19.9c-1.8-10.3-3.6-20.6-5.5-30.9c-0.8-4.7-1.8-9.3-2.6-14
					c-0.3-1.7-1-1.7-2.3-1.5c-6.6,1.2-13.3,2.4-20,3.5c-6.8,1.1-13.6,2-20.4,3.1c-7.9,1.2-16.1,1.9-19.8,11
					c-1.3,3.3-3.2,2.9-4.7-0.3c-0.4-0.9-0.5-2.3-1.6-2.3c-1.4,0-1.4,1.5-1.8,2.6c-0.8,2.2-2.2,4.1-4.6,3.9
					c-4.4-0.4-8.5-3.8-13.3-1.4c-0.3,0.2-1.3-0.3-1.5-0.7C390.1,104.8,388.4,105,386.6,105.1z M369.8,173.2
					c-1.7-1.1-2.7-0.2-3.3,0.3c-11.2,9.1-24.3,14.1-37.9,18.5c-3.8,1.2-7.9,1.3-11.6,3.2c-6.7,3.5-13.6,6.8-20.4,10.1
					c-11.2,5.4-22.2,11.2-32.4,18.3c-12.7,8.7-26.3,15.7-40.3,22c-4.9,2.2-8,0.9-12-1.8c-13.5-8.9-25.3-19.7-36.7-31.1
					c-1.6-1.6-2.6-3.3-2.3-5.3c1-6.7-2.8-11.2-7-15.5c-1.5-1.6-3.1-3.6-2.1-5.3c3.2-5.1-0.9-6.5-3.8-8.6c-1.3-0.9-2.7-1.3-4-2.4
					c-5.6-4.7-7.3-10.7-6.7-17.8c0.3-3.6-1.4-7.1-4.7-7.8c-3.3-0.7-4.4,2.9-5.5,5.6c-2.1,5.1-6.6,7.2-11.8,5.3
					c-2.5-0.9-5.1-1.9-7.5-3.1c-2.7-1.4-6.1-2.7-7.9-0.2c-1.8,2.5,1.5,4.5,3.4,6.1c3.2,2.8,3.3,5.7,1.3,9.2
					c-1.9,3.4-4.8,3.6-7.8,2.6c-2.4-0.8-4.9-0.4-7.2-1.2c-2.1-0.8-4.5-0.9-6,1.1c-1.7,2.5,1.1,3.5,2.3,4.9c5.9,6.7,6.2,8.8,0.1,15.5
					c-2.6,2.9-1.4,5.1,0,7.7c0.8,1.6,1.5,0.9,2.1-0.1c2.6-4.2,5.4-8.4,7.5-13c4.2-9,9.7-17.1,18.2-22.6c6.5-4.2,14.3-4.9,19.8-0.4
					c6.5,5.3,11.3,12,15.2,19.4c5.4,10.5,7,23,15.9,31.7c0.4,0.4,0.7,1.4,0.5,2c-0.4,1.3-1.4,0.3-2.2,0.3c-2.3,0.1-4.2-1.6-6.7-0.5
					c-9.3,3.9-12.8,18.4-6.1,26c3.7,4.3,8.8,6.7,13.6,9.5c11,6.7,22.9,11.6,34.9,16.3c6.3,2.5,12.8,3.9,19.4-0.1
					c21-12.8,40.3-27.8,57.9-45c5.1-5,9.8-10.8,17.6-11.1c8.4-0.3,16.5-1.3,24.4-4.1c1.9-0.7,4,0.2,5.7-1.5c3.1-3.1,4.6,0.6,6.2,2
					c2.2,1.9-0.6,2.9-1.4,4.1c-0.4,0.7-1.3,1.2-2,1.6c-1,0.5-1.3,1.2-0.7,2.1c0.6,0.9,1.6,0.9,2.3,0.3c1.4-1.4,3.5-1.9,4.5-3.9
					c0.8-1.7,2.1-3.4,4.1-4.1c4.1-1.4,4.7-2.9,3-6.9c-1.2-2.6-3-5-3.4-8c1.9-0.5,2.1,1,2.9,1.7c2.4,2,6.1,1.9,7.5,0.5
					c2.1-2.1-1.3-3.5-2.8-4.7c-2.8-2-5.9-3.6-8.9-5.4C355.5,185.2,362.5,179.2,369.8,173.2z M209.2,82.2c-0.6,1.9-3.4-1-2.8,1.7
					c1.1,4.6-1.2,2.5-2.7,1.5c-2.3-1.5-4.5-3.3-7.5-2.8c-3.4,0.6-6.1-0.7-8.7-2.9c-1-0.9-1.7-1.5-1.3-2.8c0.4-1.3,1.5-1.1,2.5-1.2
					c2-0.1,5.5,0.5,5.8-0.3c2-4.6,8.7-1.3,10.3-6.4c0.3-0.9,1.9,0.2,2.9,0.9c0.8,0.7,2.9,1.4,2.9,1.2c3-5.4,6.3-1.3,8.5,0.2
					c2.4,1.7,4.2,2,6.6,0.7c2.9-1.4,2.4-3.9,1.7-6c-1.1-3.4,0.5-2.7,2.5-2.1c2.3,0.7,4.7,1.6,7.2,1.2c1.2-0.2,2.5-0.3,2.7-1.7
					c0.2-1.3-0.8-2-2-2.5c-5-2.2-9.9-3-14.9-0.1c-0.9,0.5-1.8,1.2-2.8,0.6c-1.1-0.7-0.9-1.6-0.3-2.6c1.1-1.9-0.3-2.2-1.7-2.3
					c-6.6-0.6-12.5,0-17,6c-3.4,4.6-5.7,4.7-10,0.8c-1.9-1.8-2.9-1.8-4.4,0c-0.6,0.7-1.5,1.4-2.4,1.8c-10,4.2-14,11.5-12.3,22.3
					c0.9,5.6-0.1,10.8-4.6,15c-1.2,1.1-2.9,2.4-2.8,4.6c1.9,0.3,2-1.4,2.8-2.3c3.9-4.3,8.8-6,12.5-3.3c4.6,3.4,8.9,7.3,12.2,12.1
					c0.4,0.6,1.1,1.1,0.4,1.8c-0.6,0.6-1.4,0.4-2,0.1c-2.2-1-4.3-2-6.8-3.2c-0.8,5,0.8,9.7,1.1,14.3c0.1,1.8,2.1,3.6,4.2,3.9
					c4.2,0.6,2.2,3,0.8,3.9c-2.3,1.5-2.7,3.4-3.1,5.7c-0.9,6-3.7,11.1-8.2,15.2c-0.8,0.7-1.6,1.2-1.9,2.3
					c-2.2,8.3-2.8,16.7,1.1,24.5c4.2,8.5,9.2,11.2,17.7,4.8c4.6-3.4,8.1-7.9,11.1-12.8c4.3-6.9,4.4-6.8-0.8-13.4
					c-0.2-0.2-0.4-0.5-0.5-0.7c-0.4-1.1-2.3-2.1-1.1-3.3c1.2-1.2,2.3,0.4,3.2,1.3c5.4,5.7,11.8,7.9,19.7,7.4
					c3.8-0.3,6.2-1.5,7.4-4.7c2.3-5.8,5.7-10.9,8.6-16.3c3.8-7,5.8-14.5,1-22.2c-0.7,0.5-1.4,1.1-2.1,1.5c-1.2,0.7-1.9,2.7-3.6,1.7
					c-1.7-0.9-1.8-2.8-1.8-4.6c0.2-5.5,3.2-8.5,9-8.8c1.6-0.1,3.2,0.3,3.2-2.3c0-2.2-1.2-3.3-3-3.6c-1.6-0.3-2.9,0.9-4,2
					c-1.2,1.2-1.8,3.2-4.5,4c2.4-5.4,3.1-11.2,10.7-10.6c2.6,0.2,1.8-1.8,1.6-3.4c-0.8-5.1-4.6-9.5-3-15.4c-4.3,4.2-9.4,4.4-14.7,4
					c-7.3-0.6-13.1-4.6-19.2-8c-1.9-1-4-2.4-5.4-0.8C205.7,79.9,209.5,80.4,209.2,82.2z M311.4,192.3c0-6.1-1-6.8-6.4-5.3
					c-2.6,0.8-5.1,1.7-7.7,2.7c-9.7,3.8-19.2,8.1-29.2,11.2c-9.7,3.1-19.3,6.3-28.7,10.2c-2.7,1.1-3.2,1.6-1,3.9
					c4.9,5.2,4.6,6.7-0.9,11c-3.3,2.7-7.2,4.9-9.5,8.7c-0.5,0.8-1.5,1.5-0.8,2.7c0.7,1.2,1.9,1.3,3.1,1.1c1.1-0.2,2.3-0.5,3.3-0.9
					c9.1-3.9,17.4-9.1,25.7-14.3c6.2-3.9,12.1-8,18.5-11.6c9.7-5.4,19.6-10.6,29.9-14.8C309.9,196,312.3,195,311.4,192.3z
					 M199.7,229.5c5.4,5.7,11.8,9,18,12.3c1.3,0.7,2.9,0.6,3.3-1.9c0.9-6.8,4.9-11.3,11.1-14.1c2.4-1.1,5.9-2.1,6-4.9
					c0.1-2.8-3.6-3-5.8-4.1c-6.8-3.5-9-13.4-2.3-18.3c2-1.4,3.8-3.1,5.6-4.8c2.3-2.1,3.4-4.6,1.7-7.7c-1.6-2.8-3.8-2.3-6.4-1.6
					c-1.8,0.5-3.5,1.1-5.3,1.7c-4.6,1.6-7.9-0.7-7.2-4.9c0.4-2.2,2.4-2.7,3.8-3.7c3-2.1,3-5.4,0.1-6.9c-6.1-3.2-8.8-2.5-12.2,3.5
					c-0.6,1.1-0.8,2.5-1.6,3.5c-1.7,2.2-1.5,3.7,0.3,6c4.7,5.8,8.2,12.3,6.9,20.1c-1.4,8.5-3.3,16.8-5,25.3c-0.7,3.8-3.5,2.2-5,1.4
					C203.8,229.2,202.3,228.8,199.7,229.5z M263.8,197.1c1.1,0.6,2.1,0.7,3.1,0.3c7.7-2.9,15.7-5,23.3-8.2
					c6.4-2.7,13.1-4.8,19.5-7.5c1.7-0.7,4.7-1,4.2-4.1c-0.8-5.1-1-10.3-2.6-15.3c-1.3-4.1-2.9-5-6.7-2.8
					c-10.7,6.3-22,10.3-34.4,11.2c-2.3,0.2-4,1-2.8,4.3c2.3,6.6,1.6,13-2.4,19C264.4,194.9,264.2,196.1,263.8,197.1z M147.1,242.8
					c1.3,4.8,4.5,8.1,6.8,11.9c1.9,3.3,1.3,6.1-1.8,8.2c-2.2,1.4-4.5,0.9-6.8,0.6c-5.9-0.8-6-0.8-5.5,5.2c0.2,2.3,0.2,4.4-3,4.6
					c-0.7,0-1.4,0.9-2.2,1.3c-3.3,1.6-1.4,2.7,0.4,3.7c2.9,1.6,5-0.2,6.9-2.1c3-3,6.6-4.8,10.4-6.5c6.2-2.8,12.5-1.3,18.8-1.6
					c2.5-0.1,4.8-0.2,7-1.7c0.8-0.6,2.2-0.6,2.1-1.8c-0.1-1.1-1.4-1.3-2.2-1.8c-8.8-5.3-18-10-25.6-17.1
					C151.2,244.7,149.6,243.1,147.1,242.8z M91.9,260c-0.9,2.4-1.3,4.2-2.3,5.8c-1.6,2.6-1,4.6,0.7,7.1c8.4,12,20.6,13.9,33.9,13.5
					c1.6,0,1.8-0.9,1.9-2.3c0-1.8-0.9-2.1-2.5-2.1c-2.4,0.1-2.4,0-1.9-2.5c0.3-1.4-1-1.3-1.6-1.5C109,274.9,100.4,268,91.9,260z
					 M120.1,272.7c2.4,1.7,4.7,1.7,7,1.4c3.2-0.4,5.8-2.4,8.3-4.3c1.8-1.4,0-3.5,0.1-5.2c0.2-3.4,2-5,5.2-5.1c2.6-0.1,5.2,0,7.8,0
					c1.6,0,3-0.3,2.3-2.5c-1.1-3.3-3.2-6.1-5.2-8.9c-1.2-1.6-2.3-1-3.1,0.8c-1.2,2.7-3,5.1-4.9,7.5
					C132.4,262.4,126.5,267.6,120.1,272.7z M169.9,169.2c-0.4,7.3,2,14,4.9,20.5c2.4,5.5,5.4,10.7,11.3,13.5c2,1,3.9,0.8,5-0.9
					c1.6-2.5,3-5.5,2.4-8.4c-0.2-1.2-3.3-0.9-5.1-0.1c-0.8,0.4-1.6,0.2-2.5,0c-5.7-1.3-11.1-7.4-12.1-13.1
					c-1.1-6.3-2.5-12.4-0.9-18.8c0.2-0.8,0.3-1.9-0.8-2.2c-1.4-0.4-1.7,0.8-1.7,1.8C170.2,164.1,170.1,166.7,169.9,169.2z
					 M413.4,90.4c0-1.2,0.5-2.8-1.3-3.1c-1.7-0.4-1.6,1.4-2.1,2.3c-1.2,2.3-1.1,5-2.7,7.3c-0.7,1-0.8,2.5,0.3,3.1
					c1.3,0.7,2.7-0.2,3.3-1.3C412.4,96.1,413.6,93.4,413.4,90.4z M406.3,91.5c0-1.2,0-1.6,0-2c0-1.2,0.7-2.9-1.1-3.2
					c-1.9-0.4-2.4,1.1-2.5,2.7c0,0.6,0,1.2-0.2,1.7c-0.8,2.5-1.1,5-0.2,7.5c0.1,0.2,1.2,0.2,1.5,0C406,96.2,406.6,93.6,406.3,91.5z
					 M393.2,94.9c0,1.1,0,1.8,0,2.5c0,1.1-0.2,2.5,1.4,2.8c1.7,0.3,2.2-1.1,2.6-2.4c0.3-0.8,0.6-1.7,0.4-2.5
					c-0.5-1.9,1.6-5.4-2.1-5.4C391.5,89.8,393.9,93.4,393.2,94.9z M417.8,99.5c2.8-0.2,3.3-2.9,4.7-4.5c0.8-0.9,0.5-2.6-0.9-3.3
					c-1.4-0.7-2.2,0.4-2.7,1.4C417.8,95,416.9,97.1,417.8,99.5z M383.5,98.4c0.1,1.1-0.6,2.7,1.4,2.6c1.9-0.1,2.8-1.4,2.9-3.2
					c0-1.5-1.3-2.4-2.5-2.5C382.8,95.1,383.9,97.3,383.5,98.4z"/>
				<path class="st1" d="M86.4,253c-3.5-0.9-4.2-4.4-6.2-6.6c-9.5-10.2-21.2-15.7-34.9-17.6c-5.1-0.7-10.4-0.3-15.2-2.8
					c-1.2-0.6-2.6-1.3-3.5-2.3c-1.4-1.5-3.8-3.6-2.2-5.3c1.9-2,3.2,1.1,4.6,2.2c4.2,3.2,9.4,3.3,14.1,4.8c0.8,0.3,1.9,0,2-1.1
					c0.1-1-0.6-1.8-1.7-2.3c-3.7-1.7-7.4-3.1-11.4-3.5c-0.9-0.1-1.8,0-2.6-0.3c-1-0.4-2.2-1.1-1.8-2.6c0.3-1.2,1.3-1.4,2.3-1.5
					c6.9-0.6,13.3,1.7,18.5,5.7c5.9,4.5,12.3,7.6,18.7,11.1c7.9,4.4,13.9,10.9,18.4,18.7C86.2,250.5,87.1,251.6,86.4,253z"/>
				<path class="st1" d="M347.3,211.6c-2.7-2.3-4.5-4.6-4.6-8.3C347.4,205.3,348.3,206.8,347.3,211.6z"/>
				<path class="st1" d="M199.3,91.7c0.3,1.8,2.8,1.4,2.3,3.2c-0.4,1.6-2,0.6-3,1c-1.1,0.5-2.4,0.9-3.6,1.3c0,1.5,1.6,1.5,2.3,2.3
					c0.6,0.7,1.2,1.3,1,2.3c-0.3,1.2-1.3,0.9-2.1,0.9c-1.5,0-2.4,0.3-3.4,1.9c-0.9,1.5-3.1,0.9-4.8,0.4c-1.1-0.3-2.1-0.9-1.5-2.5
					c0.5-1.4-0.6-1.8-1.7-2.5c-3.1-2-6.5-3.6-9-6.4c-1-1.2-2.6-2.6-1.6-4.1c1.1-1.6,2.8-0.5,4.3,0.2c1.5,0.7,2.8,2,4.8,1.2
					c2.2-1,7.6,0.1,2.6-4.9c-1.3-1.3,0.4-3.8,1.7-3.1c5.7,2.8,13.7,0.8,17.4,7.9C203.5,92.9,201.3,91.2,199.3,91.7z"/>
				<path class="st1" d="M223.4,141.9c3.8-2.4,8.4,0.9,13.1,0.1c0.8-0.1,2.1-0.1,2.4,0.4c0.6,0.9-0.2,1.7-0.8,2.6
					c-1.4,2.3-3,4.4-3.6,7.2c-0.8,3.4-3.5,5.6-6.7,5.8c-2.8,0.2-4.3-2.3-5.4-4.8c-0.9-2.2-2.3-4.2-3.3-6.4
					C217,141.7,217,141.7,223.4,141.9z M228.4,145.3c-1.7,0.4-4.7-0.6-4.5,1.8c0.1,2.3,2.9,3.9,5.3,4.3c1.9,0.3,3.7-1.4,3.7-3.4
					C233,144.9,230.3,145.7,228.4,145.3z"/>
				<path class="st1" d="M222.6,117.2c-0.1,0.8,0.2,1.7-0.7,2c-0.9,0.3-1.5-0.2-2.2-0.9c-0.9-1-0.9-3.5-2.6-2.9
					c-1.7,0.6-0.7,2.8-0.7,4.2c0,3.7-2.3,4.7-5.2,4.9c-1.8,0.1-6.8-4.2-6.5-5.7c0.5-2.2,2.8-3.1,4-4.8c0.7-1-0.1-4.1,2.5-2.9
					c3.6,1.7,8.7-0.2,11,4.5C222.6,116.1,222.5,116.7,222.6,117.2z"/>
				<path class="st1" d="M225.1,106c0,1.7-0.7,2.4-2.2,1.8c-0.7-0.3-1.3-0.7-1.8-1.1c-5.1-4-7.6-3.8-11.5,1.1
					c-0.7,0.8-0.9,2.6-2.4,1.7c-1.7-1-0.4-2.4,0.2-3.4c4-7.1,11.9-8.1,16.7-2.2C224.6,104.5,225.2,105.1,225.1,106z"/>
				<path class="st1" d="M191.2,122.8c-0.1,2.6,0.1,5.1-2.3,5c-2.1-0.2-2.8-2.6-2.9-4.7c0-1.7,0.2-3.7,2.6-3.7
					C191.3,119.5,191.1,121.7,191.2,122.8z"/>
				<path class="st1" d="M180.9,83.5c-4.2-0.4-4.6-3-4.7-5.6c-0.1-1.4,0.2-2.6,2.1-3.2c1.9-0.5,2.6-0.5,2.6,1.7
					C180.8,78.7,180.9,81,180.9,83.5z"/>
				<path class="st1" d="M238.1,127.7c2,2.4,3.2,4.6,2.8,7.5c-0.1,1.1-0.6,1.9-2,1.7c-1.2-0.2-1.1-0.8-0.9-1.8
					C238.3,132.8,236.5,130.5,238.1,127.7z"/>
				<path class="st1" d="M232.7,138.4c-1-0.4-2.9,0.5-2.9-1.5c0-1.5,1-2.2,2.6-1.9c1.4,0.2,3.1,0.3,3,2.2
					C235.4,138.7,233.7,138.2,232.7,138.4z"/>
			</g>
		</g>
	</g>
</g>
</svg>
